<svg xmlns="http://www.w3.org/2000/svg" viewBox="0 0 39.9 10.6"><path d="M17 4s-1.8-4-5.8-4a29 29 0 0 0-4.4.3 15 15 0 0 1-2 .2A27.4 27.4 0 0 1 .6 0a.5.5 0 0 0-.6.5c0 .2 0 4.8 2.7 4.8a16.9 16.9 0 0 0 4.7-.9 13.8 13.8 0 0 1 3.8-.7 16 16 0 0 1 5 1 .5.5 0 0 0 .5 0 .5.5 0 0 0 .3-.6Zm-1 4.5a.5.5 0 0 1-.5.5 2.2 2.2 0 0 1-1.6-.7 7 7 0 0 1-5.4 2.3 6.8 6.8 0 0 1-5.8-2.9A.5.5 0 0 1 3 7a.5.5 0 0 1 .7.2 5.7 5.7 0 0 0 4.9 2.4 5.8 5.8 0 0 0 4.9-2.4.5.5 0 0 1 .4-.3.5.5 0 0 1 .5.3 1.4 1.4 0 0 0 1.1.8.5.5 0 0 1 .5.5ZM39.4 0h-.1a27.5 27.5 0 0 1-4.2.5 15.3 15.3 0 0 1-2-.2 28.9 28.9 0 0 0-4.4-.3c-4 0-5.7 4-5.8 4a.5.5 0 0 0 .4.7.5.5 0 0 0 .3 0 16 16 0 0 1 5.1-1 13.9 13.9 0 0 1 3.8.8 17 17 0 0 0 4.8.8c2.6 0 2.6-4.6 2.6-4.8a.5.5 0 0 0-.5-.5Zm-2.2 7.7a6.8 6.8 0 0 1-5.8 3 7 7 0 0 1-5.3-2.4 2.2 2.2 0 0 1-1.6.7.5.5 0 0 1-.5-.5.5.5 0 0 1 .5-.5 1.4 1.4 0 0 0 1.1-.8.5.5 0 0 1 .5-.3.5.5 0 0 1 .4.3 5.8 5.8 0 0 0 4.9 2.4 5.7 5.7 0 0 0 4.9-2.4.5.5 0 0 1 .7-.2.5.5 0 0 1 .2.7Z"></path></svg>