<svg xmlns="http://www.w3.org/2000/svg" viewBox="0 0 180 180"><path d="M0 66a25 25 0 0 1 2.3-2.3l70.4-42.6c1.3-1 3.1-1 4.4 0 3.4 2.1 6.8 4.1 10.1 6.3.8.7 2 .7 2.8 0 2.5-1.6 5.1-2.9 7.5-4.5a4.4 4.4 0 0 1 5.3 0l54.6 34.8 19.8 12.6c.9.7 1.8 1.5 2.5 2.3v16.8c-1 .9-2 1.7-3.1 2.4l-19.7 10.4c-.8.3-1.3 1.1-1.2 2v10.9c.1 1.7-.8 3.3-2.3 4l-70.3 39.5c-1.6 1-3.5.9-5-.1L2.3 114.8a15 15 0 0 1-2.3-2.1V95.9a15 15 0 0 1 2.7-2.3l7.3-4.2c-1.7-1-3.3-1.8-4.8-2.8C3.4 85.5 1.7 84.2 0 83V66zm44.1-20.4 1.4.9 70.2 41.1c.8.6 1.9.6 2.7 0l19-10.9 9.5-5.5-1.3-.9-69.5-42.7a2 2 0 0 0-2.5 0l-11.9 7.2-17.6 10.8zM9 66.7l.8.6 70.1 40.4c.7.5 1.7.5 2.4 0l25.6-14.2 2.8-1.6a3 3 0 0 0-.3-.4L39 49.7c-.6-.2-1.3-.2-1.8.1l-9 5.4L9 66.7zm111 64.6.6-.1 28.5-16.2c.5-.5.9-1.1.9-1.8v-10.5c-.2-2 1-3.9 2.9-4.7 6.7-3.4 13.3-7 19.9-10.5.5-.3 1.2-.8 1.2-1.3l.1-7.5-1.8.9-16.9 8.9c-3.2 1.7-5.3.5-5.3-3.1v-8.6l-.7.1-28.5 16.2c-.4.2-.7.6-.8 1v7.5l2-1.1 16.6-9.2c3.3-1.8 5.5-.6 5.5 3.2 0 4.1-.1 8.2 0 12.3.2 2.1-1 4.1-2.9 4.9-6.7 3.6-13.3 7.3-20 11.1-.6.3-1 .8-1.2 1.5-.2 2.3-.1 4.6-.1 7zm-36 20 .7-.1 28.4-15.8c.5-.4.8-1 .8-1.7.1-3.6.1-7.1 0-10.7-.2-2 .9-3.8 2.7-4.6l20-11c.5-.3 1.3-.8 1.3-1.2l.1-7.6-6.4 3.5-12.7 7.1c-2.5 1.4-4.7.1-4.9-2.8v-9.1h-.5l-28.7 15.9c-.4.2-.7.6-.7 1v7.5l2-1 16.4-9.1c3.6-2 5.6-.8 5.6 3.3s-.1 8.2 0 12.3c.2 2-.9 3.8-2.7 4.6l-20 11c-.9.4-1.5 1.3-1.3 2.3l-.1 6.2zm18-32.7-1.8 1c-5.6 3.1-11.2 6.1-16.7 9.3-1.5 1-3.4 1-4.9 0l-16.7-9.7-44.4-25.6c-.5-.3-1.4-.7-1.9-.5-2.2 1.1-4.2 2.3-6.4 3.6l.5.5 70.4 40.5c.6.3 1.3.3 1.9 0l19-10.5c.5-.3.8-.9.9-1.4l.1-7.2zm-24 2.9v-6.3c.1-1.1-.5-2.2-1.5-2.6L7.4 72.9 6 72.2v6.2c-.1 1.1.5 2.2 1.5 2.6l63 36.2 7.5 4.3zm0 29.9v-6.3c.1-1-.4-2.1-1.4-2.5L7.4 102.8l-1.5-.7v6.2c-.1 1.1.5 2.2 1.5 2.6l68.7 39.5 1.9 1zm93-78-18.6-11.9-50.8-32.3c-.6-.4-1.3-.6-2-.4-1.7.8-3.3 1.9-5.1 3l1.7 1.1L153.3 68c1.8.9 2.8 2.7 2.6 4.7v8.6l15.1-7.9z"></path></svg>