<svg xmlns="http://www.w3.org/2000/svg" viewBox="0 0 100 100"><path d="M52.4 3.1c-.7 0-1.3.7-1.3 1.4-.1.8.6 1.5 1.4 1.6l.9-.2c.4-.2.7-.7.7-1.2 0-.9-.6-1.6-1.4-1.6h-.3zm.1 3zm-13-1.8c-.5 0-.9.2-1.1.7-.7 1.1.3 2.5 1.6 2.2l.4-.1c.7-.4.9-1 .7-1.7-.2-.8-1-1.2-1.7-1.2zm25.7 1.3c-.6 0-1 .4-1.3 1-.3.9 0 1.6.9 1.9.4.1.8.1 1.2-.1.3-.2.7-.4.7-.7.3-.9-.1-1.7-.8-2l-.7-.1zM27.7 9.2c-1 .1-2.3 1.3-1.4 2.2.5 1.7 3.8-.2 2.5-1.5a1 1 0 0 0-1-.7zm49.1 2.4c-.4 0-.9.2-1.2.6-.5.7-.4 1.6.3 2.2a2 2 0 0 0 1.7 0c.2-.1.5-.2.5-.4.4-.7.3-1.6-.4-2.1l-.9-.3zM18 16.5c-.3 0-.7.1-1 .5-.6.5-.6 1.4 0 2 .5.5 1.3.6 1.8.2l.3-.2c.6-.6.6-1.5 0-2-.3-.4-.7-.5-1-.5zm68.2 4.2c-.4 0-.8 0-1.1.3-.5.3-.9 1-.3 2 .4.6 1.3.8 1.9.4l.2-.1c.7-.5.8-1.4.3-2.1-.3-.4-.6-.5-1-.5zm-37.7 1.6h-.8c-4.6.7-7 5.7-4.8 9.7 1 1.8 2.8 3 4.7 3.2l-.6 6.7h-.1l-.6.7H46c-.7.4-1.6.3-2.3-.1l-4.6-2.8c.5-1.7.3-3.6-.7-5.2A6.5 6.5 0 1 0 27.2 41c1.7 3 5.4 4 8.4 2.6l10.6 7.7L50.8 70c.6 2.7 2.2 5.2 4.4 6.9.2.2.6.2 1 0 .4-.1.5-.5.4-1.1l-1.8-18.2 14.9 10.9c.3.2.7.2 1 0l-.1-.1c.4-.3.6-.7.4-1-.4-2.8-1.7-5.3-3.7-7.2L54 47.5l-1.2-14c1-.8 1.6-2 2-3.2 1-4.2-2.3-8-6.4-8zm-.3 2h.7a4 4 0 0 1 3.4 2.3 4 4 0 0 1 .5 3.4 4.7 4.7 0 0 1-2.1 2.7c-5 1.9-8.6-4.6-4.5-8l2-.5zm30.6.8a2 2 0 0 0-1.2.4c-1.2.7-1.4 1.7-.7 3L79 32c.4 1 1.5 1.4 2.4 1l.4-.2c1.4-.8 1.2-1.9.7-2.8l-.8-1.3c-.6-1-1.4-1.4-2.2-1-.5.3-.7.8-.7 1.3l-.8-1.3c-.4-.7-.3-1 0-1.3.5-.2.8 0 1 .4l.3.3 1-.6v-.2c-.4-.8-1-1.2-1.6-1.2zm-68.4 1.7c-.5 0-1.1.3-1.4.8-.4.7-.1 1.6.6 2 .4.3 1 .3 1.4 0 .3-.1.6-.3.6-.6.4-.7.1-1.6-.6-2l-.6-.2zm63.8.8c-.2 0-.5 0-.7.2l-.4.2c-1 .4-1.4 1.5-1 2.5l.3.4v.2c.4.6 1 1 1.6 1a2 2 0 0 0 .2 2l.3.5c.4 1 1.5 1.4 2.5 1 0 0 .3 0 .4-.2 1-.4 1.4-1.5 1-2.5-.6-.9-1-2.2-2.2-2 .3-.6.3-1.3 0-2l-.2-.1c-.3-.8-1-1.2-1.8-1.2zm0 1.4c.2 0 .4.2.6.6l.2.4c.3.6.2 1-.2 1-.4.2-.8.3-1-.3l-.3-.4c-.4-.7-.2-1 .2-1.2l.3-.1h.2zm5.8 0c.2 0 .5.2.7.5l.8 1.3c.3.5.2.8-.2 1-.4.2-.7.2-1-.4l-.8-1.3c-.3-.5 0-.8.2-1h.3zm-10 1.3c-.5 0-1 .1-1.5.4-1 .4-1.3 1.6-1 2.5l.3.3.8 1.3c.6 1 1.4 1.4 2.2 1 .5-.3.7-.8.7-1.3l.8 1.3c.4.7.3 1 0 1.3-.5.2-.8 0-1-.4l-.3-.3-1 .6v.2c.7 1.2 1.6 1.5 2.8.8 1.2-.7 1.4-1.7.7-3l-2.1-3.5c-.4-.7-.9-1.1-1.5-1.2zm-.4 1.3c.2 0 .3.2.5.5l.8 1.3c.3.5 0 .8-.2 1-.4.2-.7 0-1-.4l-.8-1.3c-.3-.5-.2-.8.2-1l.3-.1h.2zm22.7.4h-.6c-.7.4-1.1 1.2-.8 2 .4.8 1.2 1 2 .8.8-.3 1-1.1.8-1.7-.3-.7-.8-1-1.4-1.1zm-16.6 0c.3 0 .6.2.8.5l.4.7c.4.7.2 1-.2 1.2-.4.2-.7.2-1-.4h-.1l-.4-.7c-.3-.6-.2-1 .2-1.2h.3zm-10.5.7-.8.4c.2.7 0 1.4-.7 1.6l.5 1v-.1l.8-.5 3.2 5.5 1.2-.6-4.2-7.3zm-32.8.6a5.7 5.7 0 0 1 1.5 0c1.1.3 2.1 1 2.7 2a5 5 0 0 1 .3 4l-.1.2a4 4 0 0 1-1.8 2l-.3.3c-1 .5-2.1.6-3.1.3a4.7 4.7 0 0 1-2.7-2.1c-1.2-2.2-.5-5 1.7-6.2a4 4 0 0 1 1.8-.5zm18.7 1.4.9 10.7-3-3 .6-7.2 1.5-.5zM5.9 39c-.7 0-1.3.5-1.5 1.2-.1.8.4 1.6 1.2 1.8h.1c.3 0 .7 0 1-.2.3-.2.7-.6.7-1 .1-.8-.4-1.6-1.2-1.8h-.3zm32.5 2.6 4.7 2.8c1.3.7 2.9.8 4.2.2l.3-.2.2-.2 4.7 4.6h.2l13.6 13a8 8 0 0 1 1.8 2.4l.5 1-31.2-22.6v-.1l.7-.7.3-.2zm56.9 2.9c-1 0-1.4.8-1.4 1.6 0 .9.8 1.5 1.6 1.4l.7-.2c.4-.3.7-.8.7-1.4 0-1-.8-1.4-1.6-1.4zM50 48.4h-.4c-.5.4-.6 1-.3 1.4.3.4.8.6 1.3.3.4-.3.5-1 .3-1.3a1 1 0 0 0-.9-.4zM5 51.8c-.8 0-1.4.8-1.4 1.6.1.8.8 1.5 1.6 1.4l.7-.2c.4-.3.7-.8.7-1.4-.1-.8-.8-1.4-1.6-1.4zm43.7 1.6 4 3 1.7 17c-.7-1.1-1.4-2.4-1.7-3.7l-4-16.3zm-23.4 2.5-3.5 2 .6 1v.2l1.2-.8 3.6 6.2 1.1-.7-3.6-6.2 1.2-.7-.6-1zm69.3 1.4c-.7 0-1.3.5-1.5 1.2-.1.8.4 1.6 1.3 1.8.3 0 .7 0 1-.2.3-.2.7-.6.7-1 0-.8-.4-1.6-1.2-1.8h-.3zm-74 1.6a2 2 0 0 0-1.1.3c-1.3.8-1.5 1.8-.8 3V62c.6 1 1.5 1.5 2.6 1.5 1.1.2 1.6.5 2 1 .2.5.1.8-.3 1-.4.2-.7.2-1-.4l-.3-.5-1 .6.2.4c.7 1.2 1.6 1.5 2.8.8 1.1-.6 1.3-1.7.6-2.8-.6-1-1.5-1.5-2.6-1.5-1-.2-1.6-.5-1.9-1-.3-.5-.2-.8.2-1 .4-.2.7 0 1 .4l.2.3 1.1-.6V60c-.5-.8-1-1.2-1.6-1.2zM16.8 61l-3 1.7 4.1 7.3 3.1-1.8-.6-1-2 1-1.2-2 1.6-1-.6-1-1.6 1-1-2.2 1.9-1-.7-1zm13.6.4-1 .5h-.1l.6 1 1.1-.5-.6-1zM8 64.5h-.5c-.9.4-1.3 1.2-1 2 .3.9 1.1 1.2 1.9.9l.2-.1c.7-.3 1-1.1.7-1.7-.2-.7-.7-1-1.3-1.1zm82.6 5c-.6 0-1.2.3-1.4.8-.3.7-.1 1.6.7 2h-.1c.5.3 1 .3 1.4 0 .3-.1.6-.3.6-.6.4-.7 0-1.6-.6-2l-.6-.2zm-76.3 6.6c-.4 0-.8 0-1.1.3-.7.4-.8 1.3-.3 2 .5.6 1.3.7 1.9.4l.2-.1c.7-.5.8-1.4.3-2.1-.3-.4-.6-.5-1-.5zM83 80c-.3 0-.7 0-1 .4-.6.6-.6 1.5 0 2.2v-.1c.4.5 1.2.5 1.8.3l.3-.3c.6-.6.6-1.5 0-2.1-.3-.3-.7-.5-1-.5zm-59.4 5c-.5 0-1 .2-1.3.7-.5.6-.4 1.5.3 2 .4.3 1.1.3 1.6 0 .2 0 .5-.1.5-.3.5-.7.4-1.6-.3-2.1l-.8-.3zm49 2.8c-.2 0-.4 0-.6.2-.7.4-1 1.3-.5 2 .4.8 1.3 1 2 .6s.9-1.3.5-2c-.3-.5-.9-.8-1.5-.8zM34.8 91c-.6 0-1 .4-1.3 1-.3.9.1 1.6 1 1.9h-.1c.4.2.9 0 1.2-.1.3-.2.7-.5.7-.7.3-1-.1-1.7-.8-2l-.7-.1zm25.6 1.4c-.4 0-.8.3-1 .7-.7 1.2.3 2.6 1.6 2.3.2 0 .4 0 .4-.2.5-.3.9-1 .7-1.6-.2-.8-1-1.2-1.7-1.2zm-13 1.2c-.7 0-1.3.7-1.3 1.4-.1.8.6 1.6 1.4 1.6l.9-.2c.4-.2.7-.7.7-1.2 0-.8-.6-1.5-1.4-1.6h-.3z"></path><path d="M50 0A50 50 0 0 0 0 50a50 50 0 0 0 50 50 50 50 0 0 0 50-50A50 50 0 0 0 50 0zm-.2 2a48 48 0 0 1 .2 0 48 48 0 0 1 48 48 48 48 0 0 1-48 48A48 48 0 0 1 2 50 48 48 0 0 1 49.8 2z"></path></svg>