<svg xmlns="http://www.w3.org/2000/svg" viewBox="0 0 60 60"><path d="m0 50.7.2-1c.3-1.5 1-2.8 2.1-3.9l12.9-12.9a4 4 0 0 1 5.7-.2l.3.2V30a12.2 12.2 0 0 1 3.4-10.5L43 1.1a3.9 3.9 0 0 1 5.4-.2l.1.1 10.4 10.4a3.9 3.9 0 0 1 .2 5.4l-.2.2-18.2 18.2a11.6 11.6 0 0 1-9.1 3.6l-3.7-.2h-.8l.2.3a4 4 0 0 1-.2 5.7l-7 7-5.5 5.5a8.7 8.7 0 0 1-5 2.6l-.2.1h-2l-.3-.1a8.4 8.4 0 0 1-6.8-6.1l-.3-1v-1.9zm8 6.8c1.7 0 3.4-.6 4.6-1.9L25 43.2c.8-.5 1-1.6.5-2.4l-.5-.5-5.4-5.4c-1.1-1.1-1.9-1.1-3 0-3.7 3.9-7.6 7.7-11.4 11.5l-1.4 1.4a5.9 5.9 0 0 0 .8 8.3c1 .9 2.2 1.4 3.4 1.4zm37.5-47.3-.4.6-20.1 20a5 5 0 0 0-1.5 3c-.2 1 .1 2 1 2.5l.7.2 2.1-.2c.4 0 .8-.2 1-.5l21.1-21.1.4-.4-4.3-4.1zm-1.1-7.1-.5.5L26.5 21a10.8 10.8 0 0 0-2.8 4.7c-.3 1-.4 2.1-.2 3.2l3.5-3.5 17-17 .4-.7V3.1zM31.1 36.5l.5.1c2.7.1 5.3-1 7.2-2.9l17.6-17.5.4-.5h-4.2c-.4 0-.8.1-1.1.4l-20 20-.4.4zM46.9 3.2v4.6c0 .2.1.3.3.4l4.6 4.6c.2.2.4.3.7.3h4.3l-9.9-9.9z"></path></svg>