<svg xmlns="http://www.w3.org/2000/svg" viewBox="0 0 40 40"><path d="M36.6 37.2c-.3 0-.6-.2-.8-.5l-1.9-5.1c-1-3.2-1.7-6.4-2.1-9.8l-2.7.6a50.1 50.1 0 0 1-21.2-.7l-.1 5c-.3 4.5-1.1 7.9-2.3 9.9-.2.4-.8.5-1.1.3-.3-.2-.5-.5-.4-.9v-3c-.3-3-1-5.8-2.2-8.5v-.1c-.2-.8-.2-1.7-.2-2.5.1-.8.2-1.5.6-2.3l-.8.6c-.3.3-.9.3-1.2-.1-.2-.2-.3-.6-.1-.9l2-3.6a16 16 0 0 1 3.4-3.9 6.9 6.9 0 0 1-2.4-2.1c-.3-.4-.2-.9.2-1.2l.5-.2h1L7.9 8c-1.1-.7-2-1.8-2.5-3-.2-.3-.1-.7.1-.9.2-.2.6-.3.9-.2 1.1.4 2.2.5 3.4.5h.9c1.1-.1 2.3-.3 3.4-.6a26 26 0 0 1 6.8-1c2.1 0 4.1.3 6.1 1s3.8 1.8 5.3 3.2c.8-.7 1.8-1.1 2.9-1.1l.8.1c.4.1.7.4.7.7 0 .4-.2.7-.5.9-.3.1-.6.4-.6.8-.1.4.1.7.3 1a14 14 0 0 1 2.6 3.3 13.4 13.4 0 0 1 1.1 9.8c-.5 2-1.3 4.9-1.8 7.6-.8 4.1-.5 5.6-.3 6.1.2.4 0 .9-.5 1.1l-.4-.1zM32.7 20c.4 0 .8.4.8.8.2 3.5.9 7 2 10.4l.2.6.3-2c.5-2.8 1.3-5.7 1.8-7.7.4-1.4.5-2.9.4-4.4a12.1 12.1 0 0 0-3.5-7.1 3 3 0 0 1-.9-2.5v-.2l-.8.7c-.2.4-.8.5-1.1.3l-.2-.1a14.2 14.2 0 0 0-5.3-3.4c-1.8-.6-3.7-.9-5.5-.9-2.1 0-4.3.3-6.3.9a16 16 0 0 1-3.7.7h-1L8 5.9c.7.7 1.5 1.2 2.4 1.6.4.1.7.6.5 1.1l-.4.5c-.8.3-2.1.8-4.6.9l.5.3 1.1.5c.4.1.7.6.6 1a1 1 0 0 1-.5.6c-1.2.5-2.6 1.9-4.1 4.2-.2.1-.3.4-.5.7l.7-.1c.5 0 .9.1 1.3.5.3.3.3.9 0 1.2l-.1.1c-1 .7-1.6 1.8-1.6 3l.1 1.9c.7 1.6 1.3 3.4 1.7 5.1l.5 2.6.5-4.8c.1-2 .2-4 .1-6 0-.4.3-.8.8-.8h.3a43.3 43.3 0 0 0 25.2 0h.2z"></path></svg>