<svg xmlns="http://www.w3.org/2000/svg" viewBox="0 0 180 180"><path d="m66.6 170-52.3-28.7a5.2 5.2 0 0 1-3.1-5.4c.2-5.3.1-10.5 0-15.8-.1-1.5.7-3 2.1-3.6l9.7-5.3a2.4 2.4 0 0 0 1.5-2.7l-.1-41.3c-.2-1.8.8-3.6 2.5-4.3 31.3-17.3 62.7-34.7 93.9-52.2 1.3-.8 2.9-1 4.3-.3l11.4 4.6c2.3.9 2.6 1.5 2.6 4v55.7c-.1 1.2.6 2.4 1.8 2.8L166 89.7a4 4 0 0 1 2.5 4v16.6a4 4 0 0 1-2.3 3.9l-98 55.5-.3.3h-1.3zm-23.2-40.8 1.5-.8 87.9-50.9c.9-.4 1.4-1.3 1.3-2.3v-51l-.1-1.7-1.4.7-88.1 48.9c-.9.4-1.4 1.3-1.3 2.2v53.2l.2 1.7zm2.8 4.7 1.2.7 18.7 10.3c.8.5 1.8.5 2.5 0L158 94.1l2.3-1.3-1.5-.8-20.5-10c-.9-.5-2-.5-2.9.1l-77.3 44.8-11.9 7zM70 162.7l1.9-1.1L103 144l58.9-33.4c1-.4 1.5-1.4 1.4-2.4v-9.4l-.1-1.4-1.5.8-50.2 28.5-40.2 22.8c-.5.3-1.2.9-1.2 1.4l-.1 11.8zm60.4-144.5-5.5-2.3c-.8-.4-1.8-.3-2.6.2L35.1 64.6l-1.4.9 5.3 2.2a3 3 0 0 0 3-.2l86.8-48.3 1.6-1zM30.1 69.9l-.1.5v62.4c0 .4.1.9.4 1.1l7.5 3.8V74c-.2-.4-.4-1-.7-1.2l-7.1-2.9zm34.6 92.9v-11.9c0-.4-.6-1-1.1-1.3l-19-10.5-1.3-.5v2.5c0 3.2-1.8 4.2-4.6 2.8-3.6-1.8-7.2-3.8-10.9-5.4-2.4-1.1-3.5-2.5-3.2-5.2.2-1.7.5-3.8-.2-5-.8-1.3-2.8-1.8-4.3-2.7l-3.5-1.8v11c-.1 1 .5 2 1.5 2.4a4887 4887 0 0 1 39.1 21.5l7.5 4.1zm-40.1-46.3-5.1 2.8 5.1 2.8v-5.6z"></path></svg>