<svg xmlns="http://www.w3.org/2000/svg" viewBox="0 0 40 40"><path d="M13.2 29.6c2.9 0 5.2 2.3 5.2 5.2 0 2.9-2.3 5.2-5.2 5.2S8 37.7 8 34.8c-.1-2.8 2.2-5.1 5.2-5.2-.1 0-.1 0 0 0zm0 8.4a3.2 3.2 0 0 0 1.8-5.8 3 3 0 0 0-4.9 2.6 3 3 0 0 0 3.1 3.2zm13.6-8.4c2.9 0 5.2 2.3 5.2 5.2 0 2.9-2.3 5.2-5.2 5.2a5.2 5.2 0 0 1-5.2-5.2 5 5 0 0 1 2.2-4.2c.9-.6 2-1 3-1zm0 8.4a3 3 0 0 0 3.1-3.2c0-1.7-1.4-3.1-3.1-3.1-.7 0-1.3.2-1.8.6-1.4 1-1.8 3-.8 4.4.6.8 1.6 1.3 2.6 1.3zm-.5-38c.4 0 .8.3.9.6.8 2 .9 4.2.3 6.2l-4 14.3-1.4 5a1 1 0 0 1-1.2.7l-.5-.1h-.1c-.5.1-1 .4-1.3.8l-2.4 4.3c-.3.5-.9.7-1.4.4l-.1-.1a3 3 0 0 0-1.8-.6c-.6 0-1-.4-1-1l.1-.4L25.4.6c.2-.4.5-.6.9-.6zm-4.8 20.6 4.1-14.3c.2-.6.3-1.3.3-2L14.6 29.8l.5.2 1.9-3.4a3.7 3.7 0 0 1 2.9-1.9h.4l1.2-4.1zm3.3 11.5c-.3 0-.7-.2-.8-.5L20.3 26c-.2-.2-.2-.6-.1-.8l1.5-5c.2-.5.7-.8 1.3-.7.3.1.5.3.6.5l4.6 9.9c.2.5 0 1.1-.5 1.3l-.4.1c-.7 0-1.3.2-1.8.6-.3.2-.5.2-.7.2zm-2.6-6.8 2.9 4.5.6-.2-2.9-6.3-.6 2zm-4.7-3.5c-.5 0-.8-.3-1-.7L12.4 6.9c-.6-2.1-.5-4.3.3-6.3.2-.5.8-.8 1.3-.6l.5.5 6.4 14.1c.1.3.1.6 0 .8l-2.5 5.7c-.2.4-.5.7-.9.7zM14 4.3c0 .7.1 1.4.3 2l3.4 11.5 1.2-2.8L14 4.3z"></path></svg>