<svg xmlns="http://www.w3.org/2000/svg" viewBox="0 0 180 180"><path d="m122.8 10 20.7 10.3c1.7.7 2.8 2.4 2.6 4.3v112.5c.1 1.7-.8 3.3-2.3 4l-51.5 28.3a4 4 0 0 1-4.5 0l-51.3-28.2A4 4 0 0 1 34 137V24.5a4 4 0 0 1 2.6-4.1L57.1 10h1.6l2 1.1 28 16.4c.8.6 1.9.6 2.7 0L121.3 10h1.5zM92.7 162.8l1.3-.6 45.6-25c.8-.4 1.3-1.2 1.1-2.1V29.5l-.1-1.5-.6.2-46.4 25.6c-.5.4-.9 1-.9 1.7v11.9l.1 1.3h17.9c2.4 0 3.3.9 3.3 3.3v11.7c.1 1.5-.6 2.9-1.8 3.7L94 101a3 3 0 0 0-1.4 2.7V119.4h17.2c3.5 0 4.1.6 4.1 4.2v7.8c.2 1.7-.7 3.3-2.1 4.2l-18.1 13.6c-.5.3-1.1.9-1.1 1.4l.1 12.2zM39.4 27.9l-.1.8v106.8c0 .8.4 1.5 1.2 1.8l24.8 13.6 3.5 1.9V139c0-3.1 1.9-4.2 4.6-2.7l12.3 7 1.6.8.1-1v-18.4a2 2 0 0 0-1.1-1.6l-15.6-8.9c-1.3-.6-2.1-2-2-3.4v-20c0-3 2-4.1 4.6-2.6l12.5 7.1 1.5.8.1-.6V74.1a2 2 0 0 0-1.1-1.6l-15.6-8.9c-1.3-.6-2.1-2-2-3.4l.1-14.4c.1-1-.4-2-1.4-2.4L47.1 32.3l-7.7-4.4zm37.2 14.4 12.7 7c.6.2 1.3.1 1.8-.2l45.3-24.9 1-.7-14.1-7.1c-.8-.5-1.7-.4-2.4.1a6263.7 6263.7 0 0 1-44.3 25.8zm-34.1-19 .6.5c9.1 5 18.1 10 27.3 14.9.6.2 1.3.2 1.8-.2l9.2-5.3 3.1-1.9-.2-.3-25.8-15a2 2 0 0 0-1.7.1 372.4 372.4 0 0 0-14.3 7.2zm50.3 71.8.6-.2 14.7-11.1c.3-.2.5-.5.6-.8v-8.8h-16l.1 20.9zM74 94.7v14.6c.1.5.4.9.9 1.1l11.5 6.6 1 .4V103c-.1-.5-.4-.9-.8-1.1L74 94.7zm18.8 48.7L108 132c.4-.3.6-.7.7-1.1v-6H92.8v18.5zM87.4 163v-11.8a2 2 0 0 0-1-1.4l-8.1-4.7-4.2-2.4c0 3.4.2 6.5-.1 9.6-.2 2.5.6 3.8 2.9 4.9 3.4 1.7 6.7 3.7 10.5 5.8zM74 46.9v6.8c0 1.8-.6 3.9.2 5.2.8 1.4 2.9 2 4.5 2.9l8.6 4.9v-12c0-.4-.6-.8-1-1.1l-6.1-3.4-6.2-3.3z"></path></svg>