<svg xmlns="http://www.w3.org/2000/svg" viewBox="0 0 180 180"><path d="M180 92.7c-.8.9-1.8 1.7-2.8 2.5l-84.4 53.1a4.5 4.5 0 0 1-5.5 0A19632 19632 0 0 0 2.7 95.2a5.3 5.3 0 0 1-2.7-5V51.3c-.2-2 .8-3.9 2.6-4.8a1235 1235 0 0 0 24.7-14.7 4.5 4.5 0 0 1 5.5.1l55.3 36a3 3 0 0 0 3.7.1l55.5-36.1a4.2 4.2 0 0 1 5.2-.1l25 14.9c.9.7 1.8 1.6 2.5 2.5v43.5zm-93 47.8V129c.1-1.2-.5-2.3-1.5-2.8l-19.9-12.7c-1.8-1-2.9-3-2.7-5l.1-15.4c.1-1.1-.5-2.1-1.4-2.6L7.4 56.4 6 55.7v32a3 3 0 0 0 1.7 3.2l77.4 48.5 1.9 1.1zm30-15 1.3-.8 54.4-34.1c.9-.5 1.4-1.5 1.3-2.5V57.4l-.1-1.8-1.7 1c-24.8 15.6-49.6 31.3-74.5 46.8-3.7 2.3-5.5 4.6-4.8 9.1.1 1.8.2 3.6.1 5.4l.2 1.5 1.8-1.1 16.4-10.5c1.3-.8 2.6-1.5 4.1-.6 1.4.9 1.5 2.4 1.5 4v14.3zM70.9 88.9 88.4 100c.9.7 2.2.7 3.1 0l67-42.2 12.2-7.7-.5-.5a3218 3218 0 0 1-19.1-11.4 2 2 0 0 0-2.4.2L88.8 77.3 70.9 88.9zm13.3-16.1-.8-.6-52.2-33.9c-.7-.6-1.7-.6-2.4 0L10.7 49.1l-1.5 1 55.1 34.6a2 2 0 0 0 1.7-.1l4.5-2.9 13.7-8.9zM111 116h-.6l-16.7 10.7c-.3.2-.6.6-.7 1v12.5h.5l16.7-10.4c.4-.4.7-.9.8-1.5.1-4.1 0-8.2 0-12.3zm-24 3.6v-12.2c-.1-.6-.5-1.2-1-1.5l-15.9-10-1.1-.5c0 3.3.2 6.3-.1 9.4-.4 2.1.7 4.2 2.7 5.1 5.1 3 10 6.3 15.4 9.7z"></path></svg>