<svg xmlns="http://www.w3.org/2000/svg" viewBox="0 0 40 40"><path d="M29.1 27.1c-1.3 0-2.6-.2-3.9-.6-1.2-.4-2.3-1-3.3-1.8-1.2-.9-2-2.1-2.5-3.5l-.3-1.8a6.1 6.1 0 0 1 6-6.3h.1c2.4 0 4.5 1.3 5.6 3.4.7 1.5 2 2.6 3.5 3.2l1.1.2a5 5 0 0 0 3.1-1 1 1 0 0 1 1.3.2c.2.3.2.6.1.9a11.7 11.7 0 0 1-10.8 7.1zm-6-4a9.5 9.5 0 0 0 6.1 2c2 0 3.9-.6 5.5-1.7.8-.5 1.5-1.1 2.1-1.9l-1.4.1a4 4 0 0 1-1.8-.4c-2-.8-3.6-2.2-4.5-4.1a4.2 4.2 0 0 0-3.9-2.4 4 4 0 0 0-3 1.3 4.5 4.5 0 0 0-1 4.4c.4 1.2 1 2 1.9 2.7zm-8.2-10.2c3.4 0 6.1 2.8 6.1 6.2v.1a7.2 7.2 0 0 1-2.8 5.4c-1 .8-2.1 1.4-3.3 1.8-3.5 1.2-7.4.7-10.5-1.3A11 11 0 0 1 .2 20c-.2-.5 0-1.1.5-1.3.3-.1.7-.1.9.1.9.6 2 1 3.1 1l1.1-.2a6.5 6.5 0 0 0 3.5-3.2c1-2.1 3.2-3.5 5.6-3.5zm4.1 6.4a4.3 4.3 0 0 0-4.2-4.4c-1.6 0-3.1.9-3.9 2.4a8.2 8.2 0 0 1-4.5 4.1l-1.8.4-1.4-.1a10 10 0 0 0 10.9 3.1c1-.3 1.9-.8 2.8-1.5.8-.7 1.5-1.5 1.9-2.6l.2-1.4z"></path></svg>