<svg xmlns="http://www.w3.org/2000/svg" viewBox="0 0 40 28.4"><path d="M5.2 1.4a27.2 27.2 0 0 0 3.6 8.9 18.2 18.2 0 0 0 6.6 6.4 10.5 10.5 0 0 0 4.2 1.2 9.5 9.5 0 0 0 4-.7 16.7 16.7 0 0 0 7-6 26.9 26.9 0 0 0 4-8.7l.3-1a1.1 1.1 0 1 0-2.1-.7 24.9 24.9 0 0 1-1.3 4.3l-.1.3s0-.3 0 0L31 6l-.5 1-1.1 2-.6 1-.4.4-.1.2h-.1c0 .2.2-.1 0 0a17.5 17.5 0 0 1-1.4 1.7l-.8.8-.4.3-.2.2h-.1l-.2.2a1.3 1.3 0 0 1-.1.1l-.5.3a8.8 8.8 0 0 1-.8.5l-.5.2-.2.1H23c-.2.1.2 0 0 0l-.8.4-1 .2H21c-.2 0 .3 0 0 0h-.5a7.8 7.8 0 0 1-1 0h-.4c-.3 0 .2 0 0 0h-.3A10.8 10.8 0 0 1 17 15s.3.1.1 0l-.3-.1-.5-.2a9.5 9.5 0 0 1-.8-.5l-.4-.3-.2-.2c-.1 0-.4-.2 0 0l-.9-.6a18.6 18.6 0 0 1-1.5-1.6l-.7-.8c-.1-.2 0 0 0 0l-.2-.3-.3-.4A24.9 24.9 0 0 1 9 6l-.2-.5v-.1c-.1-.2 0 0 0 0l-.2-.3-.4-1L7.6 2l-.3-1A1.1 1.1 0 0 0 6 0a1.1 1.1 0 0 0-.8 1.4Zm25 24.2-.3-.8-.2-.3v-.2c0 .1 0 .2 0 0a12.2 12.2 0 0 1-.6-1.6 15 15 0 0 1-.3-1.7v-.5l-.2-.8a22 22 0 0 1 0-3l.2-1.2V15c0-.2 0 .3 0 0v-.5l.4-1.7a1.1 1.1 0 0 0-2.2-.5 26.1 26.1 0 0 0-.6 4 20.9 20.9 0 0 0 .4 6.5 14.7 14.7 0 0 0 1.5 3.8 1.1 1.1 0 0 0 2-1.1Zm-2.5-.9c.7.4 1.4.8 2.2 1a39 39 0 0 0 4.6 1.6c1.4.4 2.7.8 4.1 1a1.1 1.1 0 0 0 1.4-.7 1.1 1.1 0 0 0-.8-1.3 67 67 0 0 1-8.2-2.5h-.2c.4.1.2 0 0 0l-.3-.2-.6-.3-1-.5a1.1 1.1 0 0 0-1.6.4 1.1 1.1 0 0 0 .4 1.5Zm-17-12 .3.8.1.9.1.6v.1s0 .3 0 0a1.2 1.2 0 0 1 0 .2 24.3 24.3 0 0 1 .2 3v2.5-.2.2l-.3 1a14.2 14.2 0 0 1-.5 2l-.2.4a.4.4 0 0 0 0 .1c0 .1.1-.3 0 0l-.1.2a9.1 9.1 0 0 1-.5 1 1.1 1.1 0 0 0 1.9 1.1 16.6 16.6 0 0 0 2-7.7 25.9 25.9 0 0 0-.5-5.9l-.3-1a1.1 1.1 0 1 0-2.1.5ZM1.4 28.3a46.9 46.9 0 0 0 9.8-3.1l1.1-.6a1.1 1.1 0 0 0 .4-1.5 1.2 1.2 0 0 0-1.5-.4l-1 .5-.5.2-.3.2c-.1 0-.6.2-.2 0A40 40 0 0 1 5 25.2l-4 1a1.1 1.1 0 0 0-.9 1.4 1.1 1.1 0 0 0 1.4.8Zm14.9-18a6.5 6.5 0 0 0 3.7 1 6.5 6.5 0 0 0 3.7-1 1.2 1.2 0 0 0 .6-.7A1.1 1.1 0 0 0 24 9a1.1 1.1 0 0 0-1.5-.4 4.4 4.4 0 0 1-.6.3s-.3.1 0 0 0 0-.1 0l-.4.2-.4.1h-1.5a1.2 1.2 0 0 1-.5 0H19l-.4-.1-.4-.1-.1-.1a3.8 3.8 0 0 1-.6-.4 1.1 1.1 0 0 0-1.5.4 1.2 1.2 0 0 0 .4 1.6Z"></path></svg>