<svg xmlns="http://www.w3.org/2000/svg" viewBox="0 0 60 60"><path d="M60 26.4v2.2c-.4.6-.6 1.4-1.1 1.6a2 2 0 0 0-1.1 2l-.1 1.2-1.1 14.2-.3 3.7A4.9 4.9 0 0 1 51 56H8.6a5 5 0 0 1-4.8-4.4L2.9 40l-.7-9-.2-.3a3.5 3.5 0 0 1-1.9-2.2v-2.2c.3-1.1 1.1-2 2.2-2.3l.2-.5.3-4A5 5 0 0 1 8 15.2h7.7l.1-.6.7-7.3c.2-1.7 1.6-3.1 3.3-3.1h20.3c1.7 0 3.1 1.3 3.3 3l.5 4.8.3 3.2h8a5 5 0 0 1 4.9 4.5 56.9 56.9 0 0 0 .6 4.6c1.2.2 2 1 2.3 2.2zM4.1 31v.6L5.5 49l.2 1.9a3 3 0 0 0 3.1 3h42.7a3 3 0 0 0 2.8-2.8l1.5-18.6.1-1.6h-5.1l.1 1.6a2 2 0 0 1-1.6 2.3h-8.2a2 2 0 0 1-2.2-1.8v-.6l.1-1.6H20.7l.1 1.7a2 2 0 0 1-1.6 2.3H11A2 2 0 0 1 8.9 33v-.5l.1-1.7H4.1zm5.7-7c.4-1.5 1-2 2.5-2h5.4c1.6 0 2.1.4 2.5 2h19.5c.4-1.4.9-2 2-2h6.5c.9 0 1.6.6 1.8 1.5l.1.5h5.4l-.1-1.5-.2-2.6a3 3 0 0 0-3.2-3H7.7a3 3 0 0 0-2.9 2.8l-.3 3.9v.5l5.3-.1zm32.4-9v-.2l-.7-7.4c-.1-.8-.8-1.4-1.6-1.3H20.1c-.8-.1-1.5.6-1.6 1.4l-.4 4.2-.3 3.4h3l.5-4.8c.1-1 .4-1.2 1.2-1.2h15.2c.6-.1 1.1.3 1.1.9v.2l.2 1.6.3 3.3 2.9-.1zm-24 9h-6.3l-.8 9h8l-.9-9zm23.6 0-.8 9h8l-.8-9h-6.4zm-5-13H23.1l-.4 3.9h14.5l-.4-4zM20.4 26l.3 3h18.7l.3-3H20.4zM9.6 26H3.1c-.5 0-1 .4-1.1 1v1c-.1.6.3 1 .9 1h6.5l.2-3zm41 3h6.5c.5 0 .8-.4.9-1v-.7c0-.8-.4-1.2-1.2-1.2h-6.4l.2 2.9zM15 31h1.1c.5 0 .9-.4.9-1 .1-.4-.3-1-.8-1h-2.3c-.5.2-.9.6-.8 1 0 .6.4 1 1 1h.9zm30 0h1.1c.5 0 .9-.4.9-1 .1-.4-.3-.8-.8-1h-2.4c-.5.2-.8.6-.8 1s.4 1 .9 1H45zM10 50.5v.4c0 .5-.4 1-.9 1s-1-.3-1-.8L8 49.4 7.2 39v-.8c-.1-.5.3-1 .8-1.1h.1c.5 0 1 .4 1.1.9l.2 2.7c.1 3.3.3 6.6.6 9.8z"></path></svg>