<svg xmlns="http://www.w3.org/2000/svg" viewBox="0 0 60 60"><path d="M60 26.5a6 6 0 0 1-1.8 2.9L50.7 37a3.8 3.8 0 0 1-5.4.5l-.5-.5-2-2.1a4 4 0 0 1-.4-5.5l.2-.3h-1.9a5 5 0 0 1-2.7-.5l-.4.1-11.1 11.6a26.9 26.9 0 0 0-3.1 4.4 46.7 46.7 0 0 1-6.9 9l-4.1 4.1a4.7 4.7 0 0 1-6.6.4l-.4-.4-3-3.1a6.6 6.6 0 0 1-2.2-3.5v-1.6c.2-1.4 1-2.6 2.2-3.6 2.4-2.3 4.8-4.8 7.3-7 1.5-1.2 3.1-2.4 4.8-3.3 2.6-1.6 5-3.5 7.2-5.7l8.5-8.7c.3-.2.4-.6.2-.9-.3-1-.3-2 .1-3 1.1-3.9-2-8.2-5.4-8.7l-3.7-.2-1.5-.1A2.9 2.9 0 0 1 17.7 5c.2-.8.6-1.4 1.3-1.8a19.2 19.2 0 0 1 23.6 3.4l6.6 6.7a7.3 7.3 0 0 1 2.3 5.6v1.2l.1.1c.8-.5 1.8-.8 2.8-.6.8.1 1.5.5 2.1 1 .9.9 1.8 1.7 2.6 2.7l1.1 1.9-.2 1.3zm-28-3.6-.4.4-8.1 8.2c-2.3 2.4-5 4.5-7.8 6.2a39.7 39.7 0 0 0-7.6 5.9l-4.8 4.9c-1 1-1.1 2.5-.3 3.5l.2.2L7 56c.8 1 2.3 1.1 3.3.3l.3-.3 4.5-4.6c2.2-2.2 4.2-4.8 5.8-7.5a40 40 0 0 1 6.9-8.9l7.6-7.7.4-.4-3.8-4zm10.4 3.7h2.3c.3 0 .5-.1.7-.3l3.2-3.3c.2-.2.3-.4.3-.7v-3.9c0-1.1-.4-2.1-1.1-2.9l-7.7-7.8c-5.3-5-13.2-6-19.6-2.5l-.4.5.6.3h3c4.8.2 8.3 3.4 9.3 8.6.1 1.3 0 2.6-.4 3.8-.2.8.1 1.6.6 2.2l5.1 5.2c.4.5 1.1.8 1.7.7l2.4.1zm15.3-.7-.6-1a51 51 0 0 0-2.3-2.4c-.5-.6-1.3-.7-1.9-.2l-.2.2-8.2 8.3c-.6.5-.7 1.4-.2 2l.2.2 2.3 2.3c.5.6 1.3.7 1.9.2l.2-.2 8.3-8.4.5-1z"></path></svg>