<svg xmlns="http://www.w3.org/2000/svg" viewBox="0 0 180 180"><path d="M173.1 99.3c-.7.7-1.5 1.4-2.3 1.9L54 169.1a4.6 4.6 0 0 1-5.6-.1l-39-23.5-2.5-2.2V22.8c.8-.8 1.7-1.5 2.7-2.2l20-10c1.5-.9 3.3-.8 4.7.2l37.1 23.8c1.4.8 2.2 2.3 2.1 3.9v41.2l1.8-.9 51.1-29.2c1.5-1 3.6-1.1 5.1-.1l39.3 21c.9.6 1.7 1.4 2.5 2.2l-.2 26.6zM48.4 162.6V51.5c.1-.9-.4-1.8-1.2-2.1L14.1 29.6l-1.7-.9v111a2 2 0 0 0 1.3 2.1l9.3 5.6 25.4 15.2zm25.1-35.9 91.2-53.1-1.6-.9-32.6-17.4c-.9-.6-2.1-.6-3.1 0a14173 14173 0 0 1-52.8 30.1 2 2 0 0 0-1.2 2v37.7l.1 1.6zm94.1-48.3-1.6.8-22.4 13-68.9 40.1c-.9.4-1.4 1.3-1.3 2.3v14.9l.1 1.8 1.8-1 89.2-51.7c2.4-1.4 3.3-2.7 3.2-5.5-.3-4.8-.1-9.6-.1-14.7zM54 162.5l.7-.3L67 155c.5-.5.8-1.1.8-1.8V43.9l-.1-1.6c-4.2 2.4-8.2 4.8-12.3 7-1 .5-1.6 1.5-1.5 2.6v108.7l.1 1.9zM15.5 23.9l.6.5 34.2 20.4a2 2 0 0 0 2-.1L64 38.1l1.1-.8-32.8-21c-.3-.2-.8-.3-1.3-.2l-15.5 7.8z"></path></svg>