<svg xmlns="http://www.w3.org/2000/svg" viewBox="0 0 40 40"><path d="M28.6 9.3h.2c.7.2 1.3.7 1.7 1.3.9 1.3 1.3 3.3 1.4 6a39.7 39.7 0 0 1-1.3 14.3c-.6 2.2-1.7 4.2-3.2 5.9A9.7 9.7 0 0 1 20 40a9.2 9.2 0 0 1-7.3-3.2 15.5 15.5 0 0 1-3.2-5.9 49.5 49.5 0 0 1-1.3-14.3c0-.5.4-.8.9-.7h.2a11.3 11.3 0 0 0 6-.2 9 9 0 0 0 3.4-2c.3-.3.9-.3 1.2.1.2.2.3.5.2.8-.4.9-1 1.8-1.5 2.6l.9-.4A24.4 24.4 0 0 0 28 9.6c0-.2.3-.3.6-.3zm-8.6 29c1.2 0 2.4-.2 3.5-.7 1-.5 1.9-1.1 2.6-1.9 1.3-1.5 2.3-3.4 2.8-5.3.6-2 1-4.1 1.2-6.3.2-2.5.2-4.9 0-7.4v-.1c0-1.5-.1-3.6-1-4.9 0-.2-.1-.4-.3-.5a22.1 22.1 0 0 1-8.6 7c-1.7.8-3.4 1.5-5.2 2a.9.9 0 0 1-1-.6c-.1-.4 0-.7.4-.9.8-.5 1.5-1 2-1.7-1.3.6-3 .8-4.4.8l-2.3-.2A47 47 0 0 0 11 30.4c.5 2 1.5 3.8 2.8 5.3a7.7 7.7 0 0 0 6.2 2.6zm11-13.1a.8.8 0 0 1-.7-.8v-.5a16.8 16.8 0 0 0 2.5-9.9c-.2-2.2-.8-4.3-1.8-6.2a11.5 11.5 0 0 0-5.7-5.4 10 10 0 0 0-4.5-.8c-2 .2-4 1.1-5.4 2.5l-.6.2a8 8 0 0 0-3.4.7c-1 .5-1.8 1.2-2.4 2a9.8 9.8 0 0 0-1.6 4.4c-.2 1.8-.3 3.6-.2 5.4 0 1.4.2 2.8.6 4.1.2 1.1.8 2 1.7 2.7.4.3.5.8.2 1.2-.3.4-.8.5-1.2.2-1.8-1.3-2.8-4-3-8.2a26 26 0 0 1 .3-5.6A11 11 0 0 1 7.7 6a8.6 8.6 0 0 1 6.9-3.5C19-1.1 23.2-.4 26 .8c2.8 1.2 5 3.4 6.5 6.1a18.3 18.3 0 0 1-.6 17.9 1 1 0 0 1-.8.4z"></path></svg>