<svg xmlns="http://www.w3.org/2000/svg" viewBox="0 0 40 40"><path d="M18.2 40c-1.5 0-2.9-.9-4-2.6l-.9-1.6h-.1c-1.3 0-3.2-.6-4.7-3.5-.4-.9-.8-1.8-1-2.7a4.2 4.2 0 0 1-1.6-1.9c-.5-1.2-.9-2.4-1-3.6A106.1 106.1 0 0 1 5.2.9c.1-.6.6-1 1.2-.9.5.1.9.5.9.9.2 2.3.5 4.5 1 6.7.3 1.5.8 3 1.5 4.5.4.7 1 1.6 1.7 1.6.5 0 .9.3 1 .7.2.7.5 1.3.9 2l.3.5c.5.8 1.3 1.7 2.3 1.7.9 0 2-.8 3.2-2.3.4-.4 1-.5 1.4-.2l.2.2c1.2 1.5 2.3 2.3 3.2 2.3 1 0 1.8-.9 2.3-1.7l.3-.4c.4-.6.6-1.3.9-2 .1-.4.5-.7 1-.7.7 0 1.3-.9 1.7-1.6a17 17 0 0 0 1.5-4.5c.5-2.2.8-4.5 1-6.7 0-.6.5-1 1.1-.9.5 0 .9.4.9.9 0 .1.8 6.7.9 13.4a63 63 0 0 1-.5 9.7c-.2 1.3-.5 2.5-1 3.6-.3.8-.9 1.5-1.6 1.9l-1 2.7c-1.5 2.9-3.4 3.5-4.7 3.5h-.1a5 5 0 0 1-.9 1.6c-1.1 1.7-2.5 2.6-4 2.6a4.5 4.5 0 0 0-3.6 0zm1.8-2.6.5.1c.4.2.8.4 1.3.4 1-.2 1.8-.8 2.3-1.7l1-1.9a1 1 0 0 1 1.2-.7l.6.1c1.1 0 2.1-.8 2.9-2.4.4-.9.8-1.8 1-2.7.1-.4.4-.7.7-.8.4-.1.7-.6.9-1.1.4-1 .7-2 .9-3.1a58 58 0 0 0 .3-14.4c-.3 1.3-.8 2.6-1.5 3.9a4.5 4.5 0 0 1-2.8 2.6 8.9 8.9 0 0 1-1.2 2.3c-.4.7-.9 1.2-1.6 1.7-.7.5-1.5.9-2.4.9a4 4 0 0 1-2.4-.8 7 7 0 0 1-1.6-1.4l-1.6 1.4c-.7.5-1.5.7-2.4.8a4.9 4.9 0 0 1-4-2.6l-.4-.6-.8-1.7a4.5 4.5 0 0 1-2.8-2.6c-.6-1.2-1.1-2.5-1.5-3.9a83.6 83.6 0 0 0 .3 14.4c.1 1.1.4 2.1.9 3.1.2.4.5 1 .9 1.1.4.1.6.4.7.8.2.9.6 1.9 1 2.7.8 1.6 1.8 2.4 2.9 2.4l.6-.1a1 1 0 0 1 1.2.7 7 7 0 0 0 1 1.9c.5.9 1.3 1.5 2.3 1.7.5 0 .9-.2 1.3-.4-.1-.1.1-.1.3-.1z"></path></svg>