<svg xmlns="http://www.w3.org/2000/svg" viewBox="0 0 180 180"><path d="m81.5 10 30.1 17.2 6.7 3.8a4 4 0 0 1 2.5 4.2c-.1 8.2 0 16.4 0 24.6v1.9l6.1-3c1.3-.8 3-.7 4.2.2l33.2 20.4c1.3.7 2.1 2.1 2 3.6v19.6a4 4 0 0 1-2.3 3.9l-62.2 36.3-45.1 26.4a4.8 4.8 0 0 1-5.6 0A2453 2453 0 0 0 15.9 149a4 4 0 0 1-2.2-3.8c.1-6.2.1-12.4 0-18.6a5 5 0 0 1 3-5.1l41.2-24.1c.9-.4 1.5-1.4 1.4-2.4l-.1-70.1c-.2-1.9.9-3.8 2.6-4.6C67.9 17 73.9 13.4 79.9 10h1.6zm15.2 104.9.1-1.4V47.7a2 2 0 0 0-1.3-2L66 28.7l-1.3-.6-.1 1.2v66c-.1.8.4 1.6 1.2 1.9l23.1 13.2 7.8 4.5zM22 124.7l.3.4 30.9 17.6c.6.2 1.2.1 1.8-.2l38.1-22.3.8-.7-.5-.4-30.5-17.3c-.6-.3-1.3-.2-1.9.1l-11.5 6.7L22 124.7zm74.7-.5-4.6 2.7L57.8 147c-.9.4-1.4 1.3-1.3 2.2v13.7l1.7-.9 24.7-14.5 76.6-44.8c.7-.4 1.3-.8 1.3-1.9v-13l-.1-.9-.7.3-38.3 22.5c-.5.4-.9 1-.9 1.7v7.5a3 3 0 0 1-1.8 3L101.2 132c-2.4 1.4-4.4.2-4.5-2.5v-5.3zm5.4 1.3 1.4-.7c3.5-2 7-4.1 10.6-6 .9-.4 1.4-1.4 1.3-2.3v-76l-.1-1.7-11.7 6.6c-1 .5-1.7 1.5-1.5 2.7v77.4zm56.3-43.4-1.6-1-22.8-14c-1.7-1.1-3.5-2.9-5.2-2.9-1.8-.1-3.7 1.6-5.6 2.5l-1 .5c-1.1.4-1.4 1.1-1.4 2.2v33l.1 1.8 37.5-22.1zM112.7 34 81.4 16.2c-.6-.2-1.2-.2-1.8.1l-9.8 5.5-2.3 1.4.2.2 31 17.7c.4.2.8.2 1.3.1a355 355 0 0 0 12.7-7.2zm-93.6 95.5v13.7c-.1 1 .4 1.9 1.3 2.3l29.2 16.6 1.4.7.1-.9v-13.1c-.1-.7-.6-1.3-1.2-1.7l-24.3-13.9-6.5-3.7z"></path></svg>