<svg width="32" height="32" viewBox="0 0 90 90"><path d="M45 90.005a44.719 44.719 0 0 1-17.516-3.537 44.844 44.844 0 0 1-14.3-9.645 44.85 44.85 0 0 1-9.645-14.3A44.719 44.719 0 0 1 .002 45.007a44.719 44.719 0 0 1 3.537-17.516 44.85 44.85 0 0 1 9.645-14.3 44.855 44.855 0 0 1 14.3-9.644A44.729 44.729 0 0 1 45 .005a44.729 44.729 0 0 1 17.516 3.536 44.837 44.837 0 0 1 14.3 9.644 44.841 44.841 0 0 1 9.644 14.3 44.729 44.729 0 0 1 3.536 17.516 44.729 44.729 0 0 1-3.536 17.516 44.848 44.848 0 0 1-9.644 14.3 44.845 44.845 0 0 1-14.3 9.645A44.719 44.719 0 0 1 45 90.005Zm-9-58.22a1 1 0 0 0-1 1V62.22a1 1 0 0 0 1 1 .989.989 0 0 0 .52-.147l24.082-14.718a.992.992 0 0 0 .478-.853.992.992 0 0 0-.478-.853L36.52 31.931a1 1 0 0 0-.52-.15Z"></path></svg>