<svg xmlns="http://www.w3.org/2000/svg" width="93" height="66" viewBox="0 0 93 66" fill="none"><path d="M75.6401 42.8593C77.686 48.0052 80.9099 53.0893 85.219 57.9873C86.583 59.5373 86.769 61.7692 85.653 63.5052C84.7849 64.8692 83.359 65.6132 81.809 65.6132C81.375 65.6132 80.9409 65.5824 80.5069 65.4272C71.3931 62.7612 50.0959 53.3063 49.5069 22.9882C49.2901 11.3013 57.8459 1.25735 68.975 0.110352C75.144 -0.509679 81.2819 1.5052 85.839 5.59723C90.3959 9.72029 93 15.6104 93 21.7483C93 31.9783 85.7459 40.9373 75.6401 42.8593Z" fill="#0E9B47"></path><path d="M19.4989 0.110352C25.6371 -0.509679 31.775 1.5052 36.3319 5.59723C40.889 9.72029 43.4931 15.6104 43.4931 21.7483C43.4931 31.9783 36.239 40.9373 26.133 42.8593C28.1791 48.0052 31.403 53.0893 35.7121 57.9873C37.0761 59.5373 37.2621 61.7692 36.1459 63.5052C35.278 64.8692 33.8519 65.6132 32.3019 65.6132C31.8681 65.6132 31.434 65.5823 31 65.4272C21.886 62.7612 0.589008 53.3063 1.14441e-05 22.9882V22.5543C1.14441e-05 11.0533 8.46295 1.25735 19.4989 0.110352Z" fill="#0E9B47"></path></svg>