<svg xmlns="http://www.w3.org/2000/svg" viewBox="0 0 40 40"><path d="M10 13c0 1-.3 2-.9 3a5 5 0 0 1-7 1.1 5 5 0 0 1-1.2-7 5 5 0 0 1 9.1 3zm-8.6 0c0 2 1.6 3.5 3.5 3.5 1.2 0 2.2-.6 3-1.5.3-.6.5-1.3.5-2 0-2-1.6-3.5-3.5-3.5S1.4 11.1 1.4 13zM10 27c0 2.7-2.2 5-5 5s-5-2.3-5-5a5 5 0 0 1 9.1-3c.6 1 1 2 1 3zm-8.6 0c0 2 1.6 3.4 3.5 3.4 2 0 3.5-1.6 3.5-3.5 0-.7-.2-1.4-.6-2A3.5 3.5 0 0 0 3 24c-.9.7-1.5 1.8-1.5 3zm38.6-.6c0 .3-.2.6-.5.7-1 .4-2.3.7-3.5.7-.9 0-1.8 0-2.7-.4l-14-4-5.7-1.6c-.4 0-.6-.5-.5-.9l.1-.7a2 2 0 0 0-1-1.6L8 16.4c-.4-.2-.5-.6-.3-1h.1c.4-.7.7-1.4.7-2 0-.3.1-.6.3-.7.2 0 .5-.2.7 0l9.7 4.2 20.3 9c.3 0 .5.2.5.5zm-25.3-5.9 5 1.4 14 4.1c1.1.3 2.2.4 3.3.3l-18.3-8-8.8-4c0 .4-.2.8-.4 1.1l3.5 2c1 .4 1.7 1.5 1.8 2.6v.5zM8 24.8c0-.2.1-.5.3-.6l5.7-3.7c.2 0 .4-.2.6 0l5.1 1.5c.3.1.5.3.5.6s0 .6-.4.7L9.8 28c-.5.2-.9 0-1-.4l-.2-.3a8 8 0 0 0-.6-2.2v-.3zm6.5-2.9-4.9 3.2.4 1.2 7.5-3.5-3-.9zm3.8-4.5c0-.4.2-.6.5-.7l14.5-4.2c2-.6 4.2-.5 6.2.3.3.1.5.4.5.7 0 .3-.2.6-.4.7l-14.4 6.5h-.6l-5.8-2.6a.8.8 0 0 1-.5-.7zm18.8-3.7a6.1 6.1 0 0 0-3.3.3l-12.5 3.7 3.7 1.6 12.1-5.6z"></path></svg>