<svg xmlns="http://www.w3.org/2000/svg" viewBox="0 0 40 40"><path d="M33.1 3.1c.7 0 1.4.4 1.8 1 .3.5.5 1.1.5 1.6 0 .7-.1 1.5-.4 2.2a65.1 65.1 0 0 1-19.6 26.4l-.6.5-2.1 1.4c-.7.4-1.5.6-2.3.6-1.2 0-2.2-.6-2.8-1.6a4.2 4.2 0 0 1-.2-4.3 7 7 0 0 1 1.3-1.7A79.4 79.4 0 0 0 24 14.4c2.4-3 4.4-6.2 6.2-9.6.4-.8 1.2-1.4 2-1.6l.9-.1zM10.5 34.9c.5 0 1-.2 1.4-.4a10 10 0 0 0 1.7-1.1l.7-.5a62.2 62.2 0 0 0 19-25.7c.2-.4.2-.9.2-1.3l-.2-.7-.2-.1h-.2c-.3.1-.7.3-.8.6-1.8 3.5-4 6.8-6.4 9.9a86.4 86.4 0 0 1-15.6 15.2l-.8 1.1c-.4.7-.3 1.6.1 2.3.1.5.6.7 1.1.7zm1-28.2H1c-.5 0-1-.4-1-1s.4-1 1-1h10.5l2.9-.1 2.8-.4c4.2-.7 8.4-.7 12.6.1l1.3.3c.5.1.9.6.8 1.1-.1.5-.6.9-1.1.8l-1.3-.3c-4-.7-8-.7-12 0l-3 .4-3 .1zm23.9.6-.9-.1c-.5-.1-.9-.6-.8-1.1.1-.5.6-.9 1.1-.8a4 4 0 0 0 3.6-1.2 1 1 0 0 1 1.4-.1c.4.4.4 1 .1 1.4a6.1 6.1 0 0 1-4.5 1.9zM9 12.2l-6.2-.1c-.5 0-.9-.5-.9-1V5.7c0-.5.4-1 1-1s1 .4 1 1v4.5l7.3.1c5-.1 8.7-.5 10.5-1.2V4.7c0-.5.4-1 1-1s1 .4 1 1v4.9c0 .4-.2.7-.5.9a16 16 0 0 1-5.2 1.3c-1.8.2-4.1.4-6.7.4H9z"></path></svg>