<svg xmlns="http://www.w3.org/2000/svg" viewBox="0 0 60.7 51.7"><path d="M54.8 51.7c-.8 0-1.5-.7-1.5-1.5V23.3c0-.8.7-1.5 1.5-1.5s1.5.7 1.5 1.5v26.9c0 .8-.7 1.5-1.5 1.5zM6 51.7c-.8 0-1.5-.7-1.5-1.5V23.3c0-.8.7-1.5 1.5-1.5s1.5.7 1.5 1.5v26.9c0 .8-.7 1.5-1.5 1.5zm53.2-35.6H1.6c-.8 0-1.5-.7-1.5-1.5l.2-.7L6.8.8c.3-.5.8-.8 1.3-.8h44.4c.6 0 1.1.3 1.3.8l6.7 13.1c.4.7.1 1.6-.7 2a1 1 0 0 1-.6.2zM4 13.1h52.7L51.6 3H9.1L4 13.1zm33.5 12.1c-2.1 0-4.2-.6-6-1.8a6 6 0 0 1-2.7-4.9c0-.8.7-1.5 1.5-1.5s1.5.7 1.5 1.5c0 2 2.6 3.7 5.7 3.7s5.7-1.7 5.7-3.7c0-.8.7-1.5 1.5-1.5s1.5.7 1.5 1.5c-.1 2-1.1 3.8-2.7 4.9a10.4 10.4 0 0 1-6 1.8zm7.2-12.1h14.5c.8 0 1.5.7 1.5 1.5v3.9c0 1.4-.6 2.8-1.5 3.8a8.8 8.8 0 0 1-3.9 2.4c-1.1.3-2.2.5-3.3.5l-2.4-.3a9.1 9.1 0 0 1-4.7-2.6c-1-1-1.5-2.3-1.6-3.7v-4c-.1-.8.6-1.5 1.4-1.5zm13 3H46.2v2.5c0 .7.3 1.3.8 1.7.8.9 1.9 1.5 3.1 1.7l1.8.2c.8 0 1.6-.1 2.4-.4 1-.3 1.8-.8 2.5-1.5.5-.5.8-1.1.8-1.8l.1-2.4zm-34.6 9.1c-2.1 0-4.2-.6-6-1.8a6.3 6.3 0 0 1-2.7-4.9c0-.8.7-1.5 1.5-1.5s1.5.7 1.5 1.5c0 2 2.6 3.7 5.7 3.7s5.7-1.7 5.7-3.7l.1-3.9c0-.8.7-1.5 1.5-1.5s1.5.7 1.5 1.5l-.1 3.9c-.1 2-1.1 3.8-2.7 4.9a10.6 10.6 0 0 1-6 1.8zM1.6 13.1h14.3c.8 0 1.5.7 1.5 1.5v3.9c-.1 2-1.1 3.8-2.7 4.9a10.6 10.6 0 0 1-6 1.8c-1.1 0-2.1-.1-3.1-.4-3.4-1-5.6-3.4-5.6-6.3l.1-3.9c0-.9.7-1.5 1.5-1.5zm12.8 3H3v2.4c0 1.4 1.4 2.8 3.4 3.4.7.2 1.5.3 2.3.3 3.1 0 5.7-1.7 5.7-3.7v-2.4zm44.8 35.6H1.6c-.8 0-1.5-.7-1.5-1.5s.7-1.5 1.5-1.5h57.6c.8 0 1.5.7 1.5 1.5s-.7 1.5-1.5 1.5zm-19.4-.2H22.3V28.6h17.6v22.9zm-14.5-3h11.6V31.6H25.3v16.9z"></path></svg>