<svg xmlns="http://www.w3.org/2000/svg" viewBox="0 0 40 40"><path d="M25.6 7.3H14.4c-.4 0-.8-.3-.8-.8s.3-.8.8-.8h11.2c.4 0 .8.3.8.8s-.4.8-.8.8zM14.4 31.5a.8.8 0 0 1-.8-.8V9.2c0-.4.3-.8.8-.8.4 0 .8.3.8.8v21.5c0 .5-.4.8-.8.8zm11.2 0a.8.8 0 0 1-.8-.8V9.2c0-.4.3-.8.8-.8.4 0 .8.3.8.8v21.5c-.1.5-.4.8-.8.8zm0 2.7H14.4c-.4 0-.8-.3-.8-.8s.3-.8.8-.8h11.2c.4 0 .8.3.8.8s-.4.8-.8.8zM20 40a6.4 6.4 0 0 1-6.3-6.5c0-.4.3-.8.8-.8s.8.3.8.8c-.1 2.7 1.9 4.9 4.6 5.1s4.9-1.9 5.1-4.6v-.5c0-.4.3-.8.8-.8s.8.3.8.8a7 7 0 0 1-1.8 4.6A7.7 7.7 0 0 1 20 40zm5.6-32.7a.8.8 0 0 1-.8-.8c.1-2.7-1.9-4.9-4.6-5.1S15.3 3.3 15.1 6v.5c0 .4-.3.8-.8.8a.8.8 0 0 1-.8-.8 7 7 0 0 1 1.8-4.6 6 6 0 0 1 8.7-.2l.2.2A6.1 6.1 0 0 1 26 6.5c.3.5 0 .8-.4.8zM13.1 5.8H27c1.2 0 2.1 1 2.1 2.1s-.9 2-2.1 2.1H13.1C11.9 10 11 9 11 7.9a2 2 0 0 1 2.1-2.1zm13.8 2.7c.4 0 .6-.3.6-.6s-.2-.6-.6-.6H13.1c-.3 0-.6.2-.6.6s.2.6.5.6h13.9zM13.1 30H27c1.2 0 2.1 1 2.1 2.1s-.9 2-2.1 2.1H13.1c-1.2 0-2.1-1-2.1-2.1a2 2 0 0 1 2.1-2.1zm13.8 2.7c.3 0 .6-.2.6-.6 0-.3-.2-.6-.6-.6H13.1c-.3 0-.6.2-.6.6 0 .3.2.6.6.6h13.8zM14.4 17a.8.8 0 0 1-.5-.2.8.8 0 0 1 0-1.1l7-7.1c.3-.3.8-.3 1.1 0 .3.3.3.8 0 1.1l-7 7.1c-.2.2-.4.2-.6.2zm0 7.2a.8.8 0 0 1-.5-.2.8.8 0 0 1 0-1.1l11.2-11.4c.3-.3.8-.3 1.1 0 .3.3.3.8 0 1.1L15 24l-.6.2zm0 7.3a.8.8 0 0 1-.5-.2.8.8 0 0 1 0-1.1l11.2-11.4c.3-.3.8-.3 1.1 0 .3.3.3.8 0 1.1L15 31.3l-.6.2zm7 0a.8.8 0 0 1-.5-.2.8.8 0 0 1 0-1.1l4.2-4.2c.3-.3.8-.3 1.1 0 .3.3.3.8 0 1.1L22 31.3l-.6.2z"></path></svg>