<svg xmlns="http://www.w3.org/2000/svg" viewBox="0 0 440 430" style="enable-background:new 0 0 440 430" xml:space="preserve"><path d="M-78.1 501h18.3c172.5-154 348.6-153.4 527.3-85.3 79.9 30.5 158.5 61.4 237 85.3h59.4c-98.4-24.3-196.6-62.4-296.9-99.9-184.7-69-366.7-67.4-545.1 99.9zM-111-149c-14.3 2.9-28.6 5.9-43 9.2v16.7c42.4-10.9 84.8-19.4 127.2-26l-84.2.1zm576.6 502.7C262.3 282.6 62.1 291.5-134.3 501h17.5C74 304.8 268.5 298.2 466 368.8c195.3 69.8 383.6 142.6 580 115.2v-16.8c-196.4 26.3-385.1-45.1-580.4-113.5zM-154 461.5v19.4c394.2-425.9 798.8-1.3 1200-50v-16.7C644.8 460.4 240.5 45.7-154 461.5zm0-62.1V419c395.1-393.7 799-.5 1200-41.1v-16.7C645 399 241.3 15.8-154 399.4zM138.6 501h45.1c51-10.5 102.3-9.8 153.9 0h48.7c-83.3-24.3-166-27.4-247.7 0zm-157.1 0h20C154.7 389.3 311 396.8 469.4 461.2c32.4 13.2 64.7 26.5 97.1 39.8h36.7c-44.8-18.1-89.6-36.1-134.5-53.9C303.8 381.3 141 376-18.5 501zm67.6 0h24.2c127.7-67.1 257.7-54.9 389.1 0h31c-7.5-3.2-14.9-6.5-22.4-9.6-142.7-60.6-283.6-72.7-421.9 9.6zM-154-29.5v18.1C245.5-177.7 645.7-7.7 1046 6.5v-16.9C645.7-25.9 245.6-185.8-154-29.5zm0 58.3v18.7C245.1-151.1 645.6 50.8 1046 60V43.2c-400.4-11-800.7-202.8-1200-14.4zm0-114.5v17.5c399.7-134.7 799.8 3.6 1200 21v-17C645.8-82.3 245.8-210.5-154-85.7zM684.1-149H542.8c167.7 16.7 335.5 39.8 503.2 47.5v-17.2c-120.6-5.4-241.3-18-361.9-30.3zM-154 88.6v19.1c398.6-231.2 799.5 2.7 1200 5.6V96.6c-400.5-4.8-801.1-228.5-1200-8zm0 61V169c398.1-263.6 799.4 2.3 1200-2.7v-16.7c-400.5 2.4-801.7-253.3-1200 0zm0 124.5v19.7c396.7-328.7 799.2.8 1200-21.7v-16.7C645.3 275.3 243-44.3-154 274.1zm0-62.5v19.6c397.4-296.4 799.4 1.6 1200-11.9v-16.7c-400.6 10.8-802.4-277-1200 9zm0 125.2v19.7c395.9-361.1 799.1.1 1200-31.5v-16.6C645.2 337.3 242.2-14.3-154 336.8z" style="opacity:5.000000e-02;fill:#e6dfcf;enable-background:new"/></svg>