<svg xmlns="http://www.w3.org/2000/svg" viewBox="0 0 30 30"><path d="M26.1 30h-.4A28.6 28.6 0 0 1 4.4 16.8 29.2 29.2 0 0 1 0 4.2C-.2 2.1 1.4.2 3.5 0H8c2 0 3.6 1.4 3.9 3.3.2 1.3.5 2.5.9 3.7a4 4 0 0 1-.9 4.1l-1.2 1.2c1.7 2.8 4.1 5.1 6.9 6.9l1.2-1.2a4 4 0 0 1 4.1-.9c1.2.4 2.4.8 3.7.9 2 .3 3.4 2 3.3 3.9v4.2a3.7 3.7 0 0 1-3.8 3.9zM8.1 2.1H3.7c-.9.1-1.6 1-1.6 1.9a27.5 27.5 0 0 0 12.3 19.8c3.5 2.3 7.5 3.7 11.6 4.1h.1c.9 0 1.7-.8 1.7-1.7V22c0-.9-.6-1.6-1.5-1.8-1.4-.2-2.8-.5-4.2-1-.6-.2-1.3-.1-1.8.4l-1.8 1.8c-.3.3-.9.4-1.3.2a23.2 23.2 0 0 1-8.8-8.8 1 1 0 0 1 .2-1.3l1.8-1.8c.5-.5.6-1.2.4-1.8-.5-1.5-.8-2.9-1-4.3-.1-.8-.8-1.5-1.7-1.5z"></path></svg>