<svg xmlns="http://www.w3.org/2000/svg" viewBox="0 0 169.4 40" style="enable-background:new 0 0 169.4 40" xml:space="preserve"><path d="M60.8 19.3c2 0 4 .6 5.7 1.8 1.1.8 1.8 2.1 1.8 3.5.1 1.7-.8 3.4-2.2 4.3-1.8 1.1-4 1.6-6.1 1.5h-1.5c-1.3 0-2.6-.1-3.9-.1-2.1 0-3.6 0-4.6.1v-.6c.5 0 1-.1 1.5-.2.3-.1.5-.4.6-.7.1-.5.2-1.1.2-1.6V12.4c0-.6 0-1.1-.2-1.6-.1-.3-.3-.6-.6-.7-.5-.1-1-.2-1.5-.2v-.7c1 .1 2.5.1 4.6.1H59.3c1.9-.1 3.8.3 5.5 1.3 1.2.7 1.9 2 1.9 3.4 0 1.2-.6 2.4-1.5 3.2-1.2 1.1-2.8 1.8-4.4 2.1zM59 9.8c-.4 0-.8 0-1.2.2-.3.2-.5.4-.5.8-.1.5-.2 1.1-.2 1.6v6.8h1.3c1.1.1 2.1-.4 2.7-1.3.6-1.1.8-2.3.8-3.6.1-1.2-.2-2.3-.7-3.4-.5-.7-1.3-1.2-2.2-1.1zm.2 20c2.8 0 4.2-1.8 4.2-5.2.1-1.3-.3-2.6-1.2-3.6-1-.9-2.4-1.3-3.8-1.2h-1.3v7.6c0 .5 0 1.1.2 1.6.1.3.3.6.6.7.4 0 .8.1 1.3.1zm27.9-1.9c.2.5.5 1 .9 1.4.3.3.6.4 1 .5v.6c-1.2-.1-2.7-.1-4.6-.1-2 0-3.6 0-4.6.1v-.6c.6 0 1.1-.1 1.6-.3.3-.1.5-.5.5-.8 0-.5-.2-1-.4-1.4l-1.8-4.9h-6.5l-.8 2.1c-.5 1.1-.8 2.2-.8 3.3-.1.6.2 1.2.7 1.5.6.3 1.3.5 2 .5v.6c-1.4-.1-2.6-.1-3.7-.1-.9 0-1.7 0-2.3.1v-.6c1-.2 1.8-1.2 2.6-3.1l6.8-17.5h2l7.4 18.7zm-7.5-6.1-3-8.1-3.1 8.1h6.1zm30 7.3c-.5.6-1.1 1-1.7 1.3-.7.3-1.5.4-2.2.4-1 .1-1.9-.2-2.7-.7-.7-.6-1.2-1.5-1.3-2.5l-.5-3c-.2-1.1-.5-2.2-.9-3.2-.4-.7-1.1-1.1-1.8-1h-2v6.9c0 .6 0 1.1.2 1.6.1.3.3.6.6.7.5.2 1 .2 1.5.2v.6c-1.1-.1-2.6-.1-4.5-.1-2.1 0-3.7 0-4.7.1v-.6c.5 0 1-.1 1.5-.2.3-.1.5-.4.6-.7.1-.5.2-1.1.2-1.6V12.4c0-.6 0-1.1-.2-1.6-.1-.3-.3-.6-.6-.7-.5-.1-1-.2-1.5-.2v-.7c1 .1 2.5.1 4.6.1H98.9c2.2-.1 4.3.3 6.2 1.4 1.3.8 2.1 2.3 2.1 3.9 0 1.4-.6 2.8-1.6 3.8-1 1.1-2.8 1.8-5.2 2 1.4 0 2.8.4 4 1.2.9.7 1.5 1.7 1.7 2.8l.7 3.1c.1.6.3 1.2.6 1.7.2.3.5.5.9.5.2 0 .4-.1.6-.2.2-.1.4-.3.6-.5l.1.1zM98.1 9.8c-.4 0-.8 0-1.2.2-.3.2-.5.4-.5.8-.1.5-.2 1.1-.2 1.6v7.4h1.3c1.6 0 2.8-.4 3.4-1.3.7-1.1 1-2.4.9-3.7.1-1.3-.2-2.6-.9-3.7-.6-.9-1.7-1.4-2.8-1.3zm22.6 9.5c2 0 4 .6 5.7 1.8 1.1.8 1.8 2.1 1.8 3.5.1 1.7-.8 3.4-2.2 4.3-1.8 1.1-4 1.6-6.1 1.5h-1.5c-1.3 0-2.6-.1-3.9-.1-2.1 0-3.6 0-4.6.1v-.6c.5 0 1-.1 1.4-.2.3-.1.5-.4.6-.7.1-.5.2-1.1.2-1.6V12.4c0-.6 0-1.1-.2-1.6-.1-.3-.3-.6-.6-.7-.5-.1-1-.2-1.5-.2v-.7c1 .1 2.5.1 4.6.1H119.1c1.9-.1 3.8.3 5.5 1.3 1.2.7 1.9 2 1.9 3.4 0 1.2-.6 2.4-1.5 3.2-1.1 1.1-2.7 1.8-4.3 2.1zm-1.8-9.5c-.4 0-.8 0-1.2.2-.3.2-.5.4-.5.8-.1.5-.2 1.1-.2 1.6v6.8h1.3c1.1.1 2.1-.4 2.7-1.3.6-1.1.8-2.3.8-3.6.1-1.2-.2-2.3-.7-3.4-.5-.7-1.3-1.2-2.2-1.1zm.2 20c2.8 0 4.2-1.8 4.2-5.2.1-1.3-.3-2.6-1.2-3.6-1-.9-2.4-1.3-3.8-1.2H117v7.6c0 .5 0 1.1.2 1.6.1.3.3.6.6.7.4 0 .8.1 1.3.1zm27.4-3.9c0 1.5.1 3 .2 4.6-1.4-.1-3.7-.1-6.9-.1-4.4 0-7.6 0-9.8.1v-.6c.5 0 1-.1 1.5-.2.3-.1.5-.4.6-.7.1-.5.2-1.1.2-1.6v-15c0-.6 0-1.1-.2-1.6-.1-.3-.3-.6-.6-.7-.5-.1-1-.2-1.5-.2v-.7c2.2.1 5.4.1 9.8.1 2.9 0 5 0 6.3-.1-.1 1.7-.2 3.1-.2 4.4 0 .7 0 1.4.1 2h-.7c-.1-1.6-.7-3.2-1.6-4.5-.9-.9-2.1-1.4-3.3-1.3h-1.2c-.5 0-.9 0-1.3.1-.3.1-.5.3-.6.6-.1.5-.2.9-.1 1.4v7.4h1c1 .1 1.9-.4 2.4-1.2.6-.8 1-1.8 1.2-2.8h.7c-.1.8-.1 1.8-.1 2.8v1.4c0 1 .1 2.4.2 4.3h-.7c-.4-2.6-1.6-4-3.7-4h-1v7.6c0 .5 0 .9.1 1.4.1.3.3.5.6.6.4.1.9.2 1.3.1h1.5c1.3 0 2.6-.5 3.4-1.5 1.1-1.4 1.7-3.2 1.8-4.9h.7c-.1.9-.1 1.8-.1 2.8zm22.9 3.2c-.5.6-1.1 1-1.7 1.3-.7.3-1.5.4-2.2.4-1 .1-1.9-.2-2.7-.7-.7-.6-1.2-1.5-1.3-2.5l-.5-3c-.2-1.1-.5-2.2-.9-3.2-.4-.7-1.1-1.1-1.8-1h-1.9v6.9c0 .6 0 1.1.2 1.6.1.3.3.6.6.7.5.2 1 .2 1.5.2v.6c-1.1-.1-2.6-.1-4.5-.1-2.1 0-3.7 0-4.7.1v-.6c.5 0 1-.1 1.5-.2.3-.1.5-.4.6-.7.1-.5.2-1.1.2-1.6V12.4c0-.6 0-1.1-.2-1.6-.1-.3-.3-.6-.6-.7-.5-.1-1-.2-1.5-.2v-.7c1 .1 2.5.1 4.6.1H158.8c2.2-.1 4.3.3 6.2 1.4 1.3.8 2.1 2.3 2.1 3.9 0 1.4-.6 2.8-1.6 3.7-1 1.1-2.8 1.8-5.2 2 1.4 0 2.8.4 4 1.2.9.7 1.5 1.7 1.7 2.8l.7 3.1c.1.6.3 1.2.6 1.7.2.3.5.5.9.5.2 0 .4-.1.6-.2.2-.1.4-.3.6-.5v.2zM158 9.8c-.4 0-.8 0-1.2.2-.3.2-.5.4-.5.8-.1.5-.2 1.1-.1 1.6v7.4h1.3c1.6 0 2.8-.4 3.4-1.3.7-1.1 1-2.4.9-3.7.1-1.3-.2-2.6-.9-3.7-.8-.9-1.8-1.4-2.9-1.3z" style="fill:#1a1e21"/><path transform="translate(-18620.219 12912.578)" d="M18624.1-12876.6c-.8 0-1.5-.7-1.5-1.5v-29c0-.8.7-1.5 1.5-1.5s1.5.7 1.5 1.5v29c0 .8-.7 1.5-1.5 1.5zm15-16c0-.8.7-1.5 1.5-1.5h3.7c.8 0 1.5.7 1.5 1.5s-.7 1.5-1.5 1.5h-3.7c-.8-.1-1.5-.7-1.5-1.5zm3-4.1v8.2h-3v-8.2h3zm-21.9-9v-3h23.7v3h-23.7zm0 29.1v-3h23.7v3h-23.7zm14 0c-.8 0-1.5-.7-1.5-1.5v-29c0-.8.7-1.5 1.5-1.5s1.5.7 1.5 1.5v29c0 .8-.7 1.5-1.5 1.5zm8-16c0-.4.1-.7.4-1 .2-.2.4-.3.6-.4h.1c.1 0 .3-.1.4-.1h.1c1.6 0 3-.6 4.1-1.7 1.1-1.1 1.7-2.5 1.7-4.1 0-3.2-2.6-5.8-5.8-5.8-.8 0-1.5-.7-1.5-1.5s.7-1.5 1.5-1.5c4.9 0 8.8 3.9 8.8 8.8 0 2.3-.9 4.6-2.6 6.2-1.7 1.6-3.9 2.6-6.2 2.6-1-.1-1.6-.7-1.6-1.5zm0 14.5c0-.4.1-.7.4-1 .2-.2.4-.3.6-.4h.1c.1 0 .3-.1.4-.1h.1c1.6 0 3-.6 4.1-1.7 1.1-1.1 1.7-2.5 1.7-4.1 0-3.2-2.6-5.8-5.8-5.8-.8 0-1.5-.7-1.5-1.5s.7-1.5 1.5-1.5c4.9 0 8.8 3.9 8.8 8.8 0 2.3-.9 4.6-2.6 6.2-1.7 1.6-3.9 2.6-6.2 2.6-1-.1-1.6-.7-1.6-1.5zm-17.2-.6-2.1-2.2 10.2-9.7 2.1 2.2-10.2 9.7zm0-17.1-2.1-2.2 10.2-9.7 2.1 2.2-10.2 9.7zm0 8.5-2.1-2.2 10.2-9.7 2.1 2.2-10.2 9.7zm1.3-19.4c-.8 0-1.5-.7-1.5-1.5 0-2.4 1.9-4.3 4.3-4.3s4.3 1.9 4.3 4.3c0 .8-.7 1.4-1.4 1.5h-.1c-.7 0-1.2-.4-1.4-1.1 0-.1 0-.2-.1-.3v-.1c0-.7-.6-1.3-1.3-1.3-.7 0-1.3.6-1.3 1.3 0 .8-.7 1.4-1.5 1.5zm2.8 34.1c-2.4 0-4.3-1.9-4.3-4.3 0-.8.7-1.5 1.5-1.5s1.5.7 1.5 1.5c0 .7.6 1.3 1.3 1.3.7 0 1.3-.6 1.3-1.3 0-.8.7-1.5 1.5-1.5s1.4.6 1.5 1.4c0 2.5-1.9 4.4-4.3 4.4z" style="fill:#ea714c"/></svg>