<svg xmlns="http://www.w3.org/2000/svg" viewBox="0 0 60 40" style="enable-background:new 0 0 60 40" xml:space="preserve"><path d="M44.6 40h-7l-.7-2.4c3.1-.3 6-.6 8.8-.9L44.6 40zm-22.2 0h-7c2.6-.3 5-.6 7.2-.8l-.2.8zm-7.5-1.5-1-3.2c3.6-.5 7.1-.9 10.3-1.3l-1.1 3.5c-2.5.3-5.3.6-8.2 1zM36.4 36l-1-3.4c4.1-.5 8.1-.9 12-1.3L46.2 35c-3.2.3-6.5.7-9.8 1zm-23-2.2-1-3.1c4.6-.6 9.1-1.2 13.3-1.7l-1 3.4c-3.6.4-7.4.9-11.3 1.4zm21.5-2.6-1-3.2c5.2-.6 10.3-1.2 15.1-1.8l-1.1 3.6c-4.2.3-8.5.8-13 1.4zM12 29.3l-1-3c5.7-.8 11-1.6 16.1-2.3l-1 3.3c-4.5.7-9.1 1.3-14.1 2zm21.5-2.8-.9-3.1c2.6-.4 5.2-.7 7.6-1l.8 2.8.9-3c3-.4 5.9-.7 8.7-1.1l-1.1 3.5c-5.1.5-10.5 1.2-16 1.9zM10.6 25l-.9-2.8c2.9-.5 5.6-.9 8.1-1.2l.9 2.9c-2.5.3-5.2.7-8.1 1.1zm8.9-1.3.9-3.2c2.8-.4 5.6-.8 8.2-1.2l-1 3.2c-2.6.4-5.3.8-8.1 1.2zm12.7-1.8-.9-3c2.6-.4 5.2-.7 7.6-1.1l.9 3c-2.4.4-5 .8-7.6 1.1zm-22.9-1-.9-2.6c2.9-.5 5.6-.9 8.1-1.4l.8 2.7c-2.4.4-5.1.9-8 1.3zm33.1-.3 1-3.3c3-.4 6-.8 8.9-1.2l-1.1 3.4c-2.9.3-5.8.7-8.8 1.1zm-21.6-1.5.9-3c2.8-.5 5.6-.9 8.2-1.3l-.9 3.1c-2.6.4-5.3.8-8.2 1.2zm10.1-1.5-.9-2.8c2.6-.4 5.2-.8 7.6-1.2l.9 2.9c-2.5.3-5 .7-7.6 1.1zm-22.8-.5-.9-2.7c2.6-.5 5.4-.9 8.2-1.4l.8 2.7c-2.5.5-5.2.9-8.1 1.4zm35.8-1.4 1-3.2c3.1-.4 6.1-.9 9-1.3l-1.1 3.3c-2.9.4-5.9.8-8.9 1.2zm-21.8-1 .9-3c4.7-.8 9.1-1.6 13.2-2.4l.9 3c-4.7.8-9.6 1.5-15 2.4zM6.8 13.1l-.3-.8c2.9-.5 5.6-1 8.2-1.4l.3.9c-3.1.4-5.7.9-8.2 1.3zm38.5-2 1.1-3.7c4-.8 7.1-1.4 9.3-1.9l-1.4 4.3c-2.9.4-6 .8-9 1.3zM6 10.7l-.7-2C7.7 7.9 9 7.3 9 6.8c0-.2-1.5-.7-4.6-1.3L2.9.9c2.6.4 6 .8 9.2 1.3l2.1 6.9c-3.1.6-5.8 1.1-8.2 1.6zm17.5-.4.3-1.1c5.8-1.1 9.7-2 11.6-2.7l.5 1.7c-4.2.7-8.3 1.4-12.4 2.1zm.9-3.1.9-3C29.1 5 31 5.6 31 6l-.5.1c-.9.2-3.1.6-6.1 1.1zm22.3-.9.9-2.8c4.5.7 6.7 1.2 6.8 1.5H54c-.8.1-3.4.6-7.3 1.3zm-11.6-.8c-2.1-.3-5.4-.8-9.8-1.4L26.4.4l1.3.2-1.3-.2.1-.4h7l.4 1.4C32 1.2 30 .9 27.7.6c2.4.3 4.4.6 6.2.8l1.2 4.1zM56 4.3c-1.7-.2-4.6-.6-8.4-1.1l1-3.2h8.8L56 4.3zM12.1 2.2C9.3 1.8 6.3 1.4 2.9.9L2.6 0h8.8l.7 2.2z" style="fill:#e6dfcf"/></svg>