<svg version="1.1" id="Group_119" xmlns="http://www.w3.org/2000/svg" x="0" y="0" viewBox="0 0 150 150" style="enable-background:new 0 0 150 150" xml:space="preserve"><style>.st0{fill:#e6dfcf}.st1{fill:#2c1e18}</style><g id="Emblems" transform="translate(11.757 28.753)"><g id="Group_112"><g id="Group_81" transform="translate(51.466)"><g id="Group_80"><path id="Path_6828" class="st0" d="M6.1 1.7 6.7.4V.3C6.5 0 5.8-1 6.4-1.9l.1-.1C8-.3 9.6 1.3 11.4 2.8c.3-.3.7-.6 1-.9-.4-.3-.7-.7-1.1-1C10.1-.2 9.9-.4 9.9-.4c-.6-.4-1-1.1-1.1-1.8 0-.2-.1-.3-.2-.4l-.8-.6.1-.1.4-.4c.1-.1.1-.2 0-.3l-.9-.8c-.1-.1-.2-.1-.3 0l-.5.5-.1-.1h-.2l-1 1v.2l.1.1c-.7.5-1.6 1.2-2.5 1.8 0 0-.1.1 0 .1.7 1.2 1.8 2.2 3 2.9h.2z"/><path id="Path_6829" class="st0" d="M14.4 3.6c-.3-.3-.6-.5-1-.8-.3.3-.7.6-1 .8.7.6 1.5 1.2 2.3 2 2.4 2.1 2.9 3.6 2.9 4.2 0 .2.2.3.4.3l1.1-.2c.2 0 .3-.2.3-.4v-.1c-1.1-2.3-3.6-4.6-5-5.8z"/></g><path id="Path_6830" class="st0" d="M20.9-1.3c-.9-.6-1.7-1.3-2.4-1.9l.1-.1v-.2l-1-1h-.2l-.1.1-.5-.5c-.1-.1-.2-.1-.3 0l-.9.9c-.1.1-.1.2 0 .3l.4.4.1.1-.8.6c-.2.1-.3.2-.3.4-.1.7-.5 1.4-1.1 1.8 0 0-.2.2-1.4 1.3-1 .9-2 1.8-3.1 2.7-1.4 1.2-3.9 3.5-5 5.9-.1.2 0 .4.1.4h.1l1.1.2c.2 0 .3-.1.4-.3.1-.6.5-2.1 2.9-4.2 3.2-2.8 5.2-4.1 8.2-7.6.1 0 .1.1.1.1.7.9 0 1.9-.1 2.2v.1l.6 1.3c0 .1.1.1.1.1 1.3-.7 2.3-1.7 3-2.9v-.2z"/></g><g id="Group_111" transform="translate(0 21.806)"><g id="Group_84" transform="translate(30.759 17)"><path id="Path_6831" class="st0" d="M75 7.9c-.7-.2-61.2-19.2-62.2-19.3-3.2-.3-6 2.4-6.4 6.1C6-2.2 8 .8 11 1.7c0 0 57.7 27.4 58.1 27.6C82.6 35.6 90.5 12.1 75 7.9z"/><g id="Group_82" transform="translate(49.595 19.768)"><path id="Path_6832" class="st0" d="M-.1-14.7c6.4 1.2 12.7 2.6 18.9 4.4-5.7-2-11.6-3.4-17.6-4.3 0 .1-.3 0-1.3-.1z"/><path id="Path_6833" class="st0" d="M20.4-11.7c-3.2-1.4-6.6-2.4-10.1-2.9-.1 0-.3 0-.7-.1 3.6.8 7.2 1.8 10.8 3z"/><path id="Path_6834" class="st0" d="M16.8-7.8c-2.7-.7-5.3-1.5-8-2.5 2.6 1.2 5.3 2 8 2.5z"/><path id="Path_6835" class="st0" d="M6.2-8.3c-2.3-1.6-5.1-2.5-8-2.5.9 0 1.7-.1-.2 0 2.9.1 5.7 1 8 2.7 1.1.9 2.3 1.6 3.6 2.1 1.4.4 2.8.6 4.3.7-1.4-.3-2.9-.6-4.2-1-1.3-.5-2.5-1.2-3.5-2z"/><path id="Path_6836" class="st0" d="M4.1.1c3.1.6 6.3 1.2 9.4 1.4-3-.6-6-1.1-9-1.4h-.4z"/><path id="Path_6837" class="st0" d="M10.4-4.6c1.4 1 3.1 1.6 4.9 1.7-1.7-.4-3.3-1-4.9-1.7z"/><path id="Path_6838" class="st0" d="M.4-.5c.5.4 1.1.8.9.7 4.4 3.2 10 4.6 15.4 3.9C10.9 4.5 5.1 2.9.4-.5z"/></g><g id="Group_83" transform="translate(68.625 23.117)"><ellipse id="Ellipse_1062" transform="rotate(-84.934 4.998 -3.956)" class="st1" cx="5" cy="-4" rx="10.6" ry="9.3"/><path id="Path_6839" class="st1" d="M4.8 7H4c-5.3-.5-9.2-5.8-8.7-11.8S.6-15.4 6-14.9s9.2 5.8 8.7 11.8c-.2 2.8-1.5 5.5-3.5 7.5C9.5 6 7.2 7 4.8 7zm.4-21.2c-4.6 0-8.6 4.1-9.1 9.4-.5 5.6 3.1 10.5 8 11 2.4.2 4.8-.7 6.5-2.4 1.9-1.9 3.1-4.3 3.3-7 .5-5.6-3.1-10.5-8-11h-.7z"/></g><path id="Path_6840" class="st0" d="M78.2 27.3c.4-.3.8-.7 1.2-1.1.3-.5.6-1 .7-1.6.1-.3.3-.6.5-.8.2.1.4.2.5.4.1.1.2.1.2.2.1 0 .1.1.2.2.1-.2.2-.3.3-.5l-.4-.4c-.1-.1-.2-.2-.3-.2 0 0-.1 0-.1-.1.3-.3.5-.7.6-1.1.1-.2.1-.5.2-.7.1.1.3.2.4.3.1 0 .1.1.2.1h.1c.1-.2.1-.4.2-.7 0 0-.1-.1-.2-.1-.1-.1-.3-.2-.4-.3-.1 0-.1-.1-.2-.1 0-.1.1-.3.1-.4.1-.4.1-.7.1-.7l.1-.7c.1-.6.1-1.2 0-1.8.1 0 .3-.1.4-.1l.2-.1v-.3l-.3.3c-.1 0-.3.1-.4.1-.1-.3-.2-.7-.3-1l-.3-.7c0-.1-.1-.2-.1-.3.2-.1.3-.2.4-.3s.2-.2.3-.2l.1-.1c0-.1-.1-.2-.1-.3L82 14l-.1-.1s-.1 0-.1.1l-.2.2-.3.3c-.2-.5-.5-.9-.8-1.3-.1-.2-.2-.3-.3-.5l.6-.6.1-.1c-.1-.1-.2-.2-.2-.3 0 0-.1 0-.1.1l-.6.6c-.2-.2-.4-.5-.6-.7-.2-.2-.5-.4-.7-.6-.3-.2-.6-.3-.8-.5-.3-.1-.6-.3-.9-.4-.3-.1-.6-.2-.9-.2 0-.1 0-.2.1-.3-.3 0-.2-.3-.2-.5V8.9l-.4-.1v.1c0 .1 0 .1-.1.2 0 .2-.1.5-.1.8 0 .1 0 .2-.1.4-.2 0-.4 0-.6-.1-.3 0-.7-.1-1-.1h-.5V8.7H73V10.1c-.1 0-.3 0-.4.1-.2 0-.5 0-.7.1 0-.3 0-.5.1-.7v-.5h-.5v.5c0 .2 0 .5.1.8-.2 0-.4.1-.5.1-.2.1-.4.2-.5.3-.3.2-.7.5-1 .7l-.3.3-.3-.5c-.1-.2-.2-.5-.2-.7l-.2.1c.1.3.1.5.2.8.1.1.1.3.2.5-.4.4-.8.9-1.2 1.4-.1.2-.3.4-.4.6-.1.2-.2.4-.2.7-.1.3-.1.6-.1.9-.4-.1-.7-.2-1.1-.3H65.2c0 .1-.1.1-.1.2v.1h.8c.4.1.7.2 1.1.3v.3c0 .2-.1.4-.2.6-.1.2-.1.4-.1.7-.1.4-.1.8-.1 1.1-.2.1-.5.1-.8.2-.4.1-.8.2-1.1.3-.1 0-.2.1-.3.1v.7h.1c.1 0 .2-.1.4-.1.3-.1.7-.3 1-.5l.6-.3c-.1.4-.2.8-.3 1.3-.1.3-.1.5-.1.8-.1 0-.1 0-.2.1-.2.1-.3.1-.4.2-.1.1-.3.1-.4.2l-.2.1-.1.1c-.1.1-.2.1-.2.2 0 .2.1.3.1.5l.2-.1.2-.2.1-.1.1-.1c.1-.1.2-.1.3-.2.1-.1.3-.1.4-.2 0 0 .1 0 .1-.1v.1c.1.4.3.8.6 1.2.1.2.2.3.3.5l-1 .4c-.2.1-.3.1-.4.2l-.1.1.1.3.2-.1c.1 0 .2-.1.4-.2l1-.5c.1.2.1.3.2.5.3.8.7 1.5 1.3 2.1.3.3.6.5.9.7.1.1.2.2.3.2-.1.2-.3.4-.4.6-.2.3-.3.5-.4.7l-.1.3.3.2.2-.2c.1-.2.2-.4.4-.7l.3-.6.3.3c.2.3.5.6.9.8.3.1.7.2 1.1.3h.3c0 .1-.1.3-.1.4-.1.2-.1.4-.2.5l-.1.3v.1h.3c0-.1.1-.2.1-.3.1-.2.2-.6.4-1h.3c.3 0 .7 0 1-.1h.2V30c.2 0 .4-.1.6-.1v-1.4c.1 0 .2 0 .3-.1.3-.1.6-.1.9-.1.3 0 .6 0 .9-.1.3-.1.5-.2.8-.4 0 .2.1.5.1.7v.2c.1-.1.2-.1.3-.2-.3-.6-.4-.9-.4-1.2zm3.3-5c-.2.4-.4.7-.7 1l-.2-.1c-.3-.1-.5-.2-.8-.4 0-.1.1-.3.1-.4l.3-.9c.1-.3.1-.6.2-1v-.2l.1.1.8.8c.1.1.3.2.4.3 0 .4-.1.6-.2.8zm-3.7-.6c0 .1.1.2.2.2.1.1.1.2.2.3l.1.1c-.1.2-.2.5-.3.7-.2.4-.4.7-.7 1-.2.2-.5.5-.8.7-.4.3-1 .5-1.5.6-.3.1-.7.1-1 .1h-.3c0-.3.1-.5.1-.8 0-.3.1-.6.1-1h.1c.2 0 .4.1.7.1.4 0 .8-.1 1.1-.3.4-.4.8-.8 1.1-1.3.4-.6.7-1.2 1-1.8 0-.1.1-.2.1-.3V19.1c0-.4-.2-.8-.3-1.2-.1-.4-.3-.7-.5-1.1-.1-.1-.1-.2-.2-.4.3-.3.7-.6 1-1l.1.1c.1.1.1.2.2.3.2.5.4 1 .5 1.5.1.3.2.7.2 1-.2.1-.4.2-.5.3-.1.1-.2.1-.2.1s.1 0 .2-.1c.2-.1.4-.2.5-.2 0 .2.1.3.1.5 0 .5 0 1-.1 1.5s-.3.9-.5 1.3c-.1.1-.1.3-.2.4h-.1c-.1-.1-.2-.1-.3-.2 0-.1 0-.2-.1-.2l-.1-.2.1.2zm-9.5.7c-.2-.3-.3-.7-.4-1-.1-.3-.1-.5-.2-.8.3-.1.6-.3.9-.4.1 0 .2-.1.2-.1-.1.4-.1.8 0 1.1.1.4.3.9.6 1.2.2.3.5.6.7.9.2.3.4.6.7.8l.3.3-.5.9c-.1.1-.2.3-.2.4-.2-.1-.3-.2-.5-.3-.2-.1-.3-.3-.4-.4l-.3-.6c-.1-.5-.3-1-.6-1.5-.1-.2-.1-.3-.3-.5.4-.1.6-.2.6-.2s-.2 0-.6.2zm.3-6.3c.2 0 .3.1.5.1h.8c0 .1-.1.2-.1.2-.2.5-.4 1-.5 1.6-.1.3-.1.5-.1.8 0 .2-.1.5-.1.8 0 .1 0 .2-.1.3-.1 0-.2.1-.3.1l-.9.3c0-.2-.1-.5-.1-.7 0-.6 0-1.3.2-1.9.1-.5.3-1 .5-1.6h.2zm-.2-.2c0-.1.1-.2.1-.3.1-.3.2-.6.4-1l.6-.9.2-.2c.4.9.7 1.7.7 1.7-.2.3-.3.6-.5.8h-.4c-.1 0-.3 0-.4-.1-.1 0-.3-.1-.4-.1-.1.2-.2.1-.3.1zm2.5 8.1c-.2-.2-.4-.5-.6-.9-.2-.3-.5-.6-.7-1-.3-.3-.4-.7-.5-1.2 0-.4 0-.8.1-1.2h.1l.2-.2-.2.1v-.1c0-.2.1-.5.1-.8s0-.5.1-.8c.1-.5.3-1 .5-1.5 0-.1.1-.2.1-.3h.1l.2-.1H70.1c.2-.4.4-.8.6-1.1.3-.4.7-.8 1.2-1 .4-.2.8-.4 1.2-.5 0 .4 0 .9-.1 1.3v.3c-.2.1-.3.2-.5.3-.7.4-1.2 1-1.6 1.7-.3.7-.5 1.5-.5 2.3 0 .4 0 .7.1 1.1 0 .2.1.3.1.5.1.2.1.3.2.4.2.5.6 1 1 1.3.1.1.2.1.2.2l-.7 1.2c-.2.2-.3.1-.4 0zm2.2-10.5h.1c.5-.2 1-.2 1.5-.2h.1c-.1.5-.1 1-.2 1.4h-.1c-.4 0-.8 0-1.1.2-.1.1-.3.1-.4.2v-.2c.1-.5.1-.9.1-1.4zm1.7-.3c-.5 0-1 0-1.5.2h-.1V11.7c.5-.2 1-.3 1.5-.3.2 0 .3 0 .5.1 0 .3-.1.5-.1.8-.2.3-.2.6-.3.9zm-2.9 10.1.1-.2c.2.1.5.2.7.3.2.1.5.1.7.1h.1c-.1.3-.1.6-.2.9 0 .3-.1.5-.1.8h-.1c-.3-.1-.7-.1-1-.3-.3-.1-.6-.3-.9-.5.4-.4.5-.8.7-1.1zm1.6.1c-.2 0-.5-.1-.7-.1-.3-.1-.5-.2-.7-.3.2-.4.3-.7.3-.7l-.4.6c-.1-.1-.2-.1-.2-.2-.4-.4-.7-.8-.9-1.3-.1-.1-.1-.3-.2-.4 0-.2-.1-.3-.1-.5-.1-.3-.1-.7-.1-1 0-.4 0-.7.1-1.1.1-.4.2-.8.3-1.1.3-.7.8-1.3 1.5-1.7.2-.1.3-.2.5-.3v.1c0 .1 0 .3-.1.4v.2l.1-.3c0-.1.1-.2.1-.4v-.1c.2-.1.3-.2.5-.2.3-.1.7-.2 1.1-.1h.1l-.1 1 .2-.9c.6.2 1.2.5 1.7 1l.4.4-.7.7H76l-.3-.3c-.4-.3-.9-.5-1.4-.5-.5 0-1 .1-1.4.4-.4.3-.8.7-1 1.1-.3.4-.4 1-.4 1.5s.1.9.4 1.3c.2.3.4.6.7.8.2.2.4.3.7.4.1.1.3.1.5.1h.2c-.1.5-.1.9-.2 1.4l-.3.1zm.6-3h-.2c-.1 0-.1 0-.2-.1-.2-.1-.4-.3-.5-.6-.1-.2-.1-.3-.1-.5V18.9c0-.1 0-.2.1-.3.1-.2.2-.4.4-.5.2-.1.4-.1.6-.1.2 0 .4.1.5.3.1.1.2.3.3.5 0 .2.1.4 0 .6 0 .2-.1.3-.2.5s-.3.4-.6.5h-.1c.2-.9.2-1.5.2-1.5s-.1.6-.2 1.5zM74 22c.2 0 .4 0 .5-.1.3-.1.5-.2.7-.3.3-.2.6-.4.8-.7.3-.4.5-.8.6-1.2.1-.5.1-1.1-.1-1.6-.1-.4-.3-.7-.5-1l.1-.1c.2-.2.5-.4.7-.6.1.1.1.2.2.3.2.3.3.7.4 1.1.1.4.2.7.3 1.1v.8c0 .1 0 .2-.1.3-.2.6-.5 1.2-.9 1.8-.2.5-.6 1-1 1.3-.3.2-.7.4-1.1.3H73.8c.1-.4.2-.9.2-1.4zm-.3 0c-.2 0-.3-.1-.5-.2s-.4-.3-.6-.5l-.6-.9c-.2-.4-.3-.8-.3-1.2 0-.5.1-1 .3-1.4.2-.5.5-.8 1-1.1.4-.3.9-.4 1.4-.3.6.1 1.1.4 1.5.8-.2.1-.3.3-.4.4l-.3.2.3-.2c.1-.1.3-.2.4-.3.2.3.4.6.4.9.1.5.2.9.1 1.4-.1.4-.2.8-.5 1.1-.2.3-.4.5-.7.8-.2.2-.4.3-.7.4-.1.1-.3.1-.5.1 0-.5.1-.9.1-1.3v-.2h.1c.1 0 .2 0 .3-.1.1-.1.3-.2.4-.3l.3-.6c.1-.2 0-.5 0-.7-.1-.2-.2-.4-.4-.6-.1-.1-.2-.1-.3-.2-.1 0-.2-.1-.3-.1-.5 0-.9.3-1.1.7-.1.1-.1.2-.1.3v.4c0 .2 0 .4.1.6.1.2.4.4.6.5.1 0 .2.1.3.1h.1v.2c-.1.4-.1.9-.2 1.3h-.2zm6.2-5.9c0 .2.1.4.1.6.1.3.1.7.2 1v.2c-.3.1-.6.3-.9.4-.1-.3-.1-.7-.2-1-.1-.5-.3-1.1-.6-1.6-.1-.1-.1-.2-.2-.4l-.1-.1c.3-.3.5-.6.7-.9.1.2.2.3.3.5.2.3.3.6.5.9 0 .1.1.2.1.3l-.3.3c0-.1.2-.1.4-.2zm-1.2 5.7c.2-.4.4-.9.5-1.4.1-.5.2-1.1.1-1.6 0-.2 0-.4-.1-.5l.9-.3c0 .2.1.4.1.6 0 .5 0 1.1-.1 1.6H80l.1.1v.3c0 .3-.1.6-.2.9l-.3.9c0 .1-.1.3-.1.4-.2-.1-.5-.2-.7-.3-.2-.1-.3-.2-.4-.3.2-.1.2-.2.3-.4zm3.4-4.3c.1.6.1 1.2 0 1.8l-.1.7s0 .2-.1.6c0 .1 0 .2-.1.4-.1-.1-.2-.1-.3-.2-.4-.2-.7-.3-1-.4l-.1-.1c.1-.6.1-1.1.1-1.7 0-.2 0-.5-.1-.7.1 0 .2-.1.4-.1.5-.1.9-.2 1.3-.3zm-.8-2.2c.3.6.6 1.2.8 1.9-.4.1-.8.3-1.3.4-.1 0-.2.1-.3.1v-.1l-.2-1c0-.2-.1-.4-.1-.6.2-.1.5-.3.8-.4 0-.2.2-.2.3-.3zm-1.4-2.2c.1.1.2.3.3.4.3.4.6.8.8 1.3l-.4.4c-.2.2-.5.4-.7.6 0-.1 0-.2-.1-.2-.1-.3-.3-.6-.5-.9-.1-.2-.2-.4-.4-.5l.1-.1c.4-.5.7-.8.9-1zm-4.3-2c0-.2.1-.4.1-.5.3 0 .6.1.9.2.3.1.6.2.9.4.3.1.6.3.8.4.3.2.5.4.7.6l.6.6c-.2.3-.5.6-.7 1-.2-.3-.5-.5-.7-.7-.2-.2-.5-.5-.8-.7-.3-.2-.6-.4-.9-.5-.3-.1-.7-.3-1-.3.1-.2.1-.4.1-.5zm-.3 1.3c.1-.3.1-.5.2-.8.3.1.7.2 1 .4.3.1.6.3.8.5.3.2.5.4.7.7l.7.7v.1c-.2.3-.5.6-.7.9-.2-.2-.3-.4-.5-.6-.3-.4-.8-.7-1.3-.9-.4-.1-.7-.2-1.1-.2.1-.3.2-.5.2-.8zm-.2 1c.4 0 .7.1 1.1.2.5.2.9.5 1.2.9.2.2.3.4.5.6-.3.4-.6.7-.9 1.1-.1-.2-.3-.3-.4-.4-.3-.3-.6-.5-.9-.7-.3-.1-.6-.2-.8-.3 0-.4.1-.9.2-1.4zm-1.4-3c.3 0 .7.1 1 .1h.6c0 .2 0 .3-.1.5 0 .1 0 .2-.1.3h-.5c-.5 0-1 .1-1.5.3v-1.3c.3.1.4.1.6.1zm-.7 2v1.1c-.4.1-.8.3-1.2.5-.5.2-.9.6-1.2 1-.1.1-.1.2-.2.3 0-.1-.3-.9-.6-1.9.3-.4.7-.8 1.2-1.1.6-.2 1.2-.4 1.9-.5.1 0 .2 0 .2-.1-.1.3-.1.5-.1.7zm-.4-1.9c.1 0 .2 0 .4-.1v1.3c-.1 0-.2.1-.2.1-.3.1-.6.1-1 .2v-1.5h.8zm-3 1.1c.3-.3.6-.5.9-.7.2-.1.3-.2.5-.3.2-.1.3-.1.5-.1.1.4.1.7.2 1 0 .2.1.4.1.4l-.9.3c-.4.3-.8.6-1.2 1 0-.1-.1-.3-.1-.4-.1-.3-.2-.7-.3-1 0 .1.2-.1.3-.2zm-2.3 2.9c0-.2.1-.4.2-.6.1-.2.2-.4.3-.5.3-.5.7-.9 1.1-1.3.1.3.2.6.4.9.1.2.1.3.2.5-.1.1-.1.2-.2.2l-.6.9c-.2.3-.3.6-.4 1 0 .1-.1.2-.1.3-.2-.1-.4-.1-.5-.2-.2-.1-.4-.1-.5-.2 0-.4.1-.7.1-1zm-1.1 6.1c0-.3 0-.5.1-.8.1-.4.2-.9.3-1.3.4-.2.7-.4.7-.4s-.3.1-.7.2c0-.4.1-.7.1-1.1 0-.2.1-.4.1-.7.1-.2.1-.4.2-.7v-.2c.2.1.3.1.5.2s.4.1.5.2l-.6 1.5c-.1.3-.2.7-.2 1v1c0 .3 0 .5.1.7-.2.1-.4.1-.6.2s-.3.2-.5.2zm.9 2.3c-.1-.2-.2-.3-.3-.5-.2-.4-.4-.7-.6-1.2v-.1c.2-.1.5-.2.7-.3.2-.1.4-.1.6-.2 0 .3.1.6.2.8.1.4.3.7.5 1-.3.1-.7.3-1.1.5zm2.7 3.7c-.1-.1-.2-.2-.3-.2-.3-.2-.6-.5-.9-.7-.6-.6-1-1.3-1.3-2.1-.1-.2-.1-.3-.2-.5h.1c.3-.2.7-.3 1-.5.1.1.2.3.2.4.2.5.4.9.6 1.4.1.2.2.4.3.7.1.2.3.3.5.5.2.1.3.2.5.2-.2.2-.3.5-.5.8zm2.8 1.5h-.4c-.3 0-.7-.1-1-.2-.3-.2-.6-.4-.8-.7l-.3-.3c.2-.3.3-.6.5-1 .1 0 .2.1.2.1.2.1.3.1.5.2s.3.1.4.2c.4.2.8.3 1.3.4-.1.4-.2.9-.4 1.3zm.4-1.4c-.4-.1-.9-.2-1.3-.4-.3-.1-.5-.3-.9-.4-.1 0-.2-.1-.2-.1.1-.1.1-.2.2-.3.2-.3.3-.6.5-1l.2.2c.2.1.4.2.7.3.3.1.7.2 1 .3h.1c-.1.4-.2.9-.3 1.4zm1.5.9v.4c-.1 0-.2 0-.2.1-.3.1-.7.1-1 .1H73c.1-.4.2-.9.4-1.4h.5c.2 0 .5-.1.7-.1 0 .3 0 .6-.1.9zm.3-1.5c0-.4-.1-.7-.1-.7l-.1.7c0 .1 0 .3-.1.5-.2.1-.5.1-.7.1h-.5c0-.1 0-.2.1-.2.1-.4.1-.8.2-1.2h1.3c.5-.1 1.1-.3 1.5-.6.3-.2.6-.4.8-.6.3-.3.6-.6.7-1l.3-.6c.1.1.3.2.4.3.2.2.4.3.7.4-.1.3-.2.5-.3.8l-.9 1.2-.5.5c-.1-.2-.2-.4-.2-.6-.2-.4-.3-.7-.3-.7s.1.3.2.7c.1.2.1.4.2.7-.1.1-.2.2-.4.2-.3.1-.7.2-1.1.3-.3 0-.6.1-.9.2-.1 0-.2.1-.3.1.1-.2 0-.3 0-.5zm2.3 1.6c-.3.1-.6.1-.9.1-.3 0-.7 0-1 .1H75v-.3c0-.3-.1-.7-.1-1 .1 0 .2-.1.3-.1.1 0 .3-.1.4-.1.2 0 .3 0 .5-.1.4 0 .7-.1 1.1-.2.1-.1.2-.1.4-.2.1.2.1.5.2.7 0 .2.1.5.1.7-.3.2-.5.3-.8.4zm.9-1.2c-.1-.2-.2-.5-.2-.7h.1c.2-.1.4-.3.5-.5l.5-.5c.2-.2.4-.4.5-.6.1-.3.3-.5.4-.8.3.2.5.3.8.5-.2.2-.4.5-.5.8-.2.5-.4 1.1-.7 1.5-.3.4-.7.7-1.1 1-.2-.3-.3-.5-.3-.7z"/></g><g id="Group_87" transform="translate(0 16.609)"><path id="Path_6841" class="st0" d="M86.6 11.8c-.7-.3-67-23.1-68-23.2-3.4-.4-6.5 2.5-7 6.4-.5 3.4 1.5 6.6 4.7 7.7 0 0 63 31.7 63.5 31.9 14.4 7.1 23.3-17.9 6.8-22.8z"/><g id="Group_85" transform="translate(74.793 27.476)"><ellipse id="Ellipse_1063" transform="rotate(-83.74 10.119 -3.611)" class="st1" cx="10.1" cy="-3.6" rx="11.4" ry="10"/><path id="Path_6842" class="st1" d="M9.8 8.1c-.3 0-.7 0-1-.1C6 7.7 3.5 6.2 1.9 3.8-1.6-1.4-.8-8.3 3.7-12.7c2.1-2 4.9-2.9 7.7-2.6 5.7.6 9.7 6.4 9 12.8-.6 6.1-5.3 10.6-10.6 10.6zm.6-22.7c-2.3 0-4.5.9-6.2 2.5C0-8-.7-1.5 2.5 3.4 4 5.6 6.3 7 8.9 7.3c5.3.6 10.1-3.8 10.8-9.9.7-6-3.1-11.4-8.4-12h-.9z"/></g><path id="Path_6843" class="st0" d="M89.6 32.7c.5-.3.9-.7 1.3-1.1.3-.5.6-1.1.8-1.7.1-.3.3-.6.5-.9.2.1.4.3.6.4.1.1.2.1.3.2l.2.2.3-.6c-.1-.2-.3-.3-.4-.4-.1-.1-.2-.2-.4-.2 0 0-.1 0-.1-.1.3-.3.5-.7.7-1.1.1-.3.2-.5.2-.7.1.1.3.2.4.3.1 0 .1.1.2.1l.2.1c.1-.2.1-.5.2-.7 0-.1-.1-.1-.2-.1-.1-.1-.3-.2-.4-.3-.1 0-.1-.1-.2-.1 0-.1.1-.3.1-.4.1-.5.1-.7.1-.7l.1-.7c.1-.6.1-1.3.1-1.9.2 0 .3-.1.4-.1l.2-.1v-.3l-.3.1c-.1 0-.3.1-.4.1-.1-.4-.2-.7-.3-1l-.3-.7c0-.1-.1-.2-.1-.3.2-.1.3-.2.4-.3s.2-.2.3-.2l.1-.1c0-.1-.1-.2-.1-.3l-.2-.2-.1-.1s-.1 0-.1.1l-.3.3-.3.3c-.2-.5-.5-1-.8-1.4-.1-.2-.2-.3-.3-.5l.7-.7c.1-.1.1-.1.2-.1-.1-.1-.2-.2-.2-.3l-.1.1c-.2.2-.5.4-.7.7-.2-.3-.4-.5-.6-.7-.2-.3-.5-.5-.8-.7-.3-.2-.6-.4-.9-.5-.3-.1-.6-.3-1-.4-.3-.1-.7-.2-1-.2 0-.1.1-.2.1-.3.1-.3.1-.6.2-.8V13.4l-.5-.1v.1c0 .1 0 .2-.1.2 0 .2-.1.5-.2.8 0 .1 0 .3-.1.4-.2 0-.4 0-.6-.1-.4 0-.7-.1-1.1-.2h-.5V13H84.5c0 .3-.1.6-.1.9v.3c-.1 0-.3 0-.4.1h-.8c0-.3.1-.6.1-.8V13h-.6v.5c0 .2 0 .5.1.8-.2 0-.4.1-.6.1l-.6.3c-.4.2-.7.5-1.1.7l-.3.3-.2-.4c-.1-.3-.2-.5-.2-.8l-.3.1c.1.3.1.6.2.8.1.2.1.3.2.5-.5.4-.9.9-1.3 1.4-.1.2-.3.4-.4.6-.1.2-.2.5-.3.7-.1.3-.1.6-.2.9-.4-.2-.8-.3-1.2-.4-.1 0-.3 0-.4-.1h-.5c0 .1-.1.1-.1.2v.1h.5c.1 0 .2 0 .4.1l1.2.3c0 .1 0 .2-.1.3 0 .2-.1.5-.2.7s-.1.5-.2.7c-.1.4-.1.8-.2 1.2-.3.1-.5.1-.8.2-.4.1-.9.2-1.2.3-.1 0-.2.1-.3.1v.7h.1c.1 0 .3-.1.4-.1.3-.1.7-.4 1.1-.6.2-.1.5-.2.7-.4-.1.5-.2.9-.3 1.3-.1.3-.1.6-.1.9-.1 0-.2 0-.2.1-.2.1-.3.1-.5.2-.1.1-.3.2-.4.2l.1.5-.2.1c-.1.1-.2.1-.2.2 0 .2.1.3.1.5l.2-.2.2-.2.1-.1.2-.1c.1-.1.2-.1.4-.2.1-.1.3-.1.4-.2 0 0 .1 0 .1-.1v.1c.1.4.3.9.6 1.3.1.2.2.4.3.5l-1.1.4c-.2.1-.3.1-.4.2l-.2.2.1.3.2-.1c.1 0 .2-.1.4-.2l1.1-.5c.1.2.1.3.2.5.3.9.7 1.7 1.3 2.3.3.3.6.5 1 .8l.3.3c-.2.2-.3.5-.4.7l-.5.7-.2.3.3.3.2-.3c.1-.2.3-.4.4-.7.1-.2.2-.4.4-.6l.3.3c.3.3.6.6.9.8.4.2.7.3 1.1.3h.4c0 .2-.1.3-.1.4-.1.2-.1.4-.2.5l-.1.5v.1c.1 0 .2 0 .3.1 0-.1.1-.2.2-.3.1-.3.3-.6.4-1.1h1.6c0 .3 0 .6-.1.8v.6c.2 0 .4-.1.6-.1v-1.4l.3-.1c.3-.1.7-.1 1-.1.3 0 .7 0 1-.1.3-.1.6-.2.8-.4 0 .3.1.5.1.7v.2c.1-.1.2-.2.3-.2.1-.4.1-.7 0-1zm3.7-5.3c-.2.4-.4.8-.7 1.1-.1 0-.1-.1-.2-.1-.3-.1-.6-.3-.9-.4 0-.1.1-.3.1-.4l.3-.9c.1-.3.2-.7.2-1v-.2l.1.1.8.8.4.4c.1.1 0 .4-.1.6zm-4-.7c0 .1.1.2.2.2.1.1.2.2.2.3l.1.1c-.1.3-.2.5-.3.7-.2.4-.4.7-.7 1-.3.3-.6.5-.9.7-.5.3-1 .6-1.6.7-.4.1-.7.1-1.1 0h-.3c0-.3.1-.6.1-.9.1-.3.1-.7.1-1h.2c.3 0 .5.1.8.1.4 0 .9-.1 1.2-.3.5-.4.9-.8 1.2-1.4.4-.6.8-1.2 1.1-1.9 0-.1.1-.2.1-.3 0-.1 0-.2.1-.3v-.7c0-.4-.1-.9-.3-1.3-.1-.4-.3-.8-.5-1.2-.1-.1-.2-.3-.2-.4.4-.3.7-.7 1.1-1.1l.1.1c.1.1.1.2.2.4.2.5.4 1.1.5 1.6.1.4.2.7.2 1.1l-.6.3c-.1.1-.2.1-.2.1s.1 0 .2-.1l.6-.3c0 .2.1.3.1.5 0 .5 0 1.1-.2 1.6s-.3 1-.6 1.4c-.1.1-.1.3-.2.4h-.1c-.1-.1-.2-.1-.3-.2-.1.2-.2.1-.3.1l-.1-.2.1.2zm-10.1.5c-.2-.4-.3-.7-.5-1.1-.1-.3-.1-.6-.2-.9.4-.1.7-.3 1-.4.1 0 .2-.1.3-.1-.1.4-.1.8-.1 1.2.1.5.3.9.6 1.3.2.4.5.7.7 1 .2.3.5.6.7.9l.3.3-.6 1c-.1.1-.2.3-.2.4-.2-.1-.3-.2-.5-.3-.2-.1-.3-.3-.5-.5-.1-.2-.2-.4-.3-.7-.1-.5-.3-1.1-.6-1.6.1-.2 0-.3-.1-.5.4-.1.7-.2.7-.2s-.3 0-.7.2zm.4-6.7c.2 0 .3.1.5.1h.8c0 .1-.1.2-.1.2-.3.5-.5 1.1-.6 1.7-.1.3-.1.6-.1.9 0 .3-.1.5-.1.8l-.1.3c-.1 0-.2.1-.3.1-.3.1-.7.2-1 .3 0-.3-.1-.5-.1-.8 0-.7.1-1.4.3-2.1.2-.6.4-1.1.6-1.7 0 .1.1.1.2.2zm-.2-.3c0-.1.1-.2.1-.3.1-.3.3-.7.5-1l.6-.9.2-.2c.4 1 .7 1.8.7 1.8-.2.3-.4.6-.5.9h-.4c-.1 0-.3 0-.4-.1-.2 0-.3-.1-.5-.1-.1 0-.2 0-.3-.1zm2.5 8.8-.6-.9c-.2-.3-.5-.7-.7-1.1-.3-.4-.4-.8-.5-1.3 0-.4 0-.9.1-1.3h.1l.2-.2-.2.1v-.1c.1-.3.1-.5.1-.8s.1-.6.1-.8c.1-.6.3-1.1.5-1.6.1-.1.1-.2.2-.3h.1l.2-.1H81.2c.2-.4.4-.8.7-1.2.3-.4.8-.8 1.3-1 .4-.2.9-.4 1.3-.5 0 .5 0 .9-.1 1.4v.3l-.6.3c-.4.2-.7.5-1 .8-.3.3-.5.7-.7 1-.4.8-.6 1.6-.6 2.4v1.2c0 .2.1.4.1.6.1.2.1.3.2.5.2.5.6 1 1 1.5.1.1.2.1.3.2-.2.4-.5.8-.8 1.3l-.4-.4zm2.6-11.2h.1c.5-.2 1.1-.2 1.6-.1h.1c-.1.5-.2 1.1-.2 1.5H86c-.4 0-.8 0-1.2.2-.2.1-.3.1-.5.2 0-.1 0-.2.1-.2 0-.6.1-1.1.1-1.6zm1.8-.3c-.6-.1-1.1 0-1.6.2h-.1c0-.4 0-.8.1-1.1V16c.5-.2 1-.3 1.6-.3.2 0 .3 0 .5.1-.1.3-.1.5-.2.8-.1.3-.1.6-.2.9h-.1zM83 28.3c0-.1.1-.2.1-.2.2.1.5.3.8.3.3.1.5.1.8.1h.1c-.1.3-.1.7-.2 1-.1.3-.1.6-.2.9h-.1c-.4-.1-.7-.2-1.1-.3-.3-.1-.7-.3-.9-.6.3-.5.5-.9.7-1.2zm1.7.1c-.3 0-.5-.1-.8-.2-.3-.1-.5-.2-.8-.4.2-.4.3-.7.3-.7l-.4.8c-.1-.1-.2-.1-.2-.2-.4-.4-.7-.9-.9-1.5-.1-.2-.1-.3-.2-.5 0-.2-.1-.3-.1-.5 0-.4-.1-.7 0-1.1 0-.4.1-.8.1-1.2.1-.4.2-.8.4-1.2.3-.8.9-1.4 1.6-1.8.2-.1.3-.2.5-.3v.1c0 .1-.1.3-.1.4l-.1.3.1-.3c0-.1.1-.2.1-.4v-.1c.2-.1.4-.2.5-.2.4-.1.8-.2 1.2-.1h.1c-.1.6-.2 1-.2 1s.1-.4.3-1c.7.2 1.3.6 1.8 1.1.1.1.3.3.4.5l-.7.7-.1.1-.3-.3c-.4-.4-.9-.6-1.4-.6-.5 0-1.1.1-1.5.4-.5.3-.8.7-1.1 1.2-.3.5-.5 1-.5 1.6 0 .5.1 1 .4 1.4.2.3.4.6.7.9.2.2.4.4.7.5.2.1.3.1.5.2h.2l-.3 1.5-.2-.1zm.7-3.2h-.2c-.1 0-.1 0-.2-.1-.2-.1-.4-.4-.5-.6-.1-.2-.1-.4-.1-.6v-.4c0-.1 0-.2.1-.3.1-.2.2-.4.4-.5.2-.1.4-.1.6-.1.2 0 .4.2.5.3.1.2.3.3.3.6v.6c0 .2-.1.4-.2.5-.1.2-.4.4-.6.5.1.1 0 .1-.1.1l.3-1.6c0 .1-.1.7-.3 1.6zm-.1 1.8h.5c.3-.1.5-.2.8-.3.3-.2.6-.5.9-.7.3-.4.5-.8.7-1.3.1-.6.1-1.1-.1-1.7-.1-.4-.3-.7-.5-1l.1-.1c.2-.2.5-.4.8-.6.1.1.2.2.2.4.2.4.3.8.5 1.2l.3 1.2V25c0 .1 0 .2-.1.3-.3.7-.6 1.3-1 1.9-.3.5-.6 1-1.1 1.4-.3.2-.8.4-1.2.4-.3 0-.5 0-.8-.1h-.2c0-.9.1-1.5.2-1.9zm-.4-.1c-.2 0-.3-.1-.5-.2s-.5-.3-.6-.5l-.6-.9c-.2-.4-.3-.8-.3-1.3s.1-1 .4-1.5c.2-.5.6-.9 1-1.2.2-.1.5-.2.7-.3.2 0 .5-.1.7 0 .5.1 1 .3 1.3.6.1.1.2.2.2.3-.2.1-.3.3-.4.4l-.3.2.3-.2c.1-.1.3-.2.5-.3.2.3.4.6.5 1 .1.5.1 1 0 1.5-.1.4-.3.9-.6 1.2-.2.3-.5.6-.8.8-.2.2-.5.3-.7.4-.2 0-.3.1-.5.1.1-.5.1-1 .2-1.4v-.2h.1c.1 0 .2 0 .4-.1s.3-.2.4-.3c.2-.2.3-.4.3-.6.1-.3.1-.5 0-.8-.1-.3-.2-.5-.4-.7-.1-.1-.2-.1-.3-.2-.1 0-.2-.1-.3-.1-.5 0-1 .3-1.2.7-.1.1-.1.2-.2.4v.4c0 .2 0 .5.1.7.1.2.2.3.3.4.1.1.2.1.3.2.1 0 .2.1.3.1h.1v.2c-.1.4-.2.9-.3 1.4.1-.2 0-.2-.1-.2zm6.8-6.2c0 .2.1.4.1.6.1.4.1.7.2 1.1v.2c-.4.1-.7.3-1 .4-.1-.4-.1-.7-.2-1-.1-.6-.3-1.2-.6-1.7-.1-.1-.1-.3-.2-.4l-.1-.1c.3-.3.6-.6.8-.9.1.2.2.3.4.5.2.3.3.6.5 1 0 .1.1.2.1.3l-.3.3c-.1-.2.1-.2.3-.3zm-1.4 6.1.6-1.5c.2-.6.2-1.1.2-1.7 0-.2 0-.4-.1-.6.3-.1.6-.2 1-.3 0 .2.1.5.1.7 0 .6 0 1.1-.1 1.7h-.1l.1.1v.4c0 .3-.1.7-.2 1l-.3.9c0 .1-.1.3-.1.4-.2-.1-.5-.2-.7-.3-.2-.1-.3-.2-.5-.3-.1-.2 0-.3.1-.5zm3.8-4.6c0 .6 0 1.3-.1 1.9v.7s0 .2-.1.7c0 .1-.1.2-.1.4-.1-.1-.2-.1-.3-.2-.4-.2-.8-.3-1-.5l-.2-.1c.1-.6.1-1.2.1-1.8 0-.2 0-.5-.1-.7l.4-.1c.5 0 1-.1 1.4-.3zm-.9-2.3c.3.7.6 1.3.8 2-.4.1-.9.3-1.4.4-.1 0-.2.1-.4.1v-.1c-.1-.4-.1-.7-.2-1.1 0-.2-.1-.4-.1-.6.3-.1.6-.3.9-.5.2-.1.3-.1.4-.2zm-1.4-2.4c.1.2.2.3.3.5.3.4.6.9.9 1.4l-.4.4-.7.7c0-.1 0-.2-.1-.3-.1-.4-.3-.7-.5-1-.1-.2-.3-.4-.4-.6 0 0 0-.1.1-.1.3-.4.5-.8.8-1zm-4.6-2.2c0-.2.1-.4.1-.6.3 0 .7.1 1 .2.3.1.6.3.9.4.3.1.6.3.9.5.3.2.5.4.7.6.2.2.4.5.6.7-.2.3-.5.7-.8 1-.2-.3-.5-.5-.7-.8-.2-.3-.5-.5-.8-.8l-.9-.6c-.4-.2-.7-.3-1.1-.4.1 0 .1-.1.1-.2zm-.3 1.4c.1-.3.1-.5.2-.8.4.1.7.2 1.1.4.3.1.6.3.9.5.3.2.5.5.8.8.2.3.5.5.7.8v.1c-.2.3-.5.7-.8 1-.2-.2-.3-.5-.5-.7-.4-.5-.8-.8-1.4-1-.4-.1-.8-.2-1.2-.2.1-.4.1-.7.2-.9zm-.3 1c.4 0 .8.1 1.2.2.5.2.9.6 1.3 1 .2.2.3.4.5.7-.3.4-.7.8-1 1.1-.1-.2-.3-.3-.4-.5-.3-.3-.6-.5-1-.8-.3-.2-.6-.3-.9-.3.1-.4.2-.9.3-1.4zm-1.5-3.2c.4 0 .7.1 1.1.2.2 0 .4 0 .6.1 0 .2-.1.3-.1.5 0 .1-.1.2-.1.4-.2 0-.3 0-.5-.1-.5 0-1.1.1-1.6.3v-1.4c.3-.1.5-.1.6 0zm-.7 2.1v1.2c-.5.1-.9.3-1.3.5-.5.3-1 .6-1.3 1.1-.1.1-.2.2-.2.3 0-.1-.3-1-.6-2 .4-.4.8-.8 1.3-1.1.6-.3 1.3-.4 2-.5.1 0 .2 0 .2-.1-.1.2-.1.4-.1.6zm-.4-2.1c.1 0 .3 0 .4-.1v1.4c-.1 0-.2.1-.3.1-.3.1-.7.1-1 .2 0-.2 0-.9.1-1.6.3.1.5.1.8 0zm-3.3 1.2c.3-.3.7-.5 1-.7.2-.1.3-.2.5-.3.2-.1.3-.1.5-.1 0 .4.1.8.2 1.1 0 .2.1.4.1.5-.3.1-.7.2-1 .3-.5.3-.9.7-1.3 1.1 0-.2-.1-.3-.1-.5-.1-.4-.2-.7-.3-1l.4-.4zm-2.4 3.1c.1-.2.1-.4.2-.6.1-.2.2-.4.4-.6.4-.5.8-.9 1.2-1.3.1.3.2.6.4.9.1.2.1.4.2.5-.1.1-.1.2-.2.2-.3.3-.5.6-.7.9-.2.3-.3.7-.5 1 0 .1-.1.2-.1.3-.2 0-.4-.1-.6-.1-.2-.1-.4-.2-.6-.2.1-.4.2-.7.3-1zm-1.4 6.5c0-.3.1-.5.1-.8.2-.5.3-.9.4-1.4.5-.2.8-.4.8-.4s-.3.1-.8.2c0-.4.1-.8.2-1.1 0-.2.1-.5.2-.7.1-.2.2-.5.2-.7 0-.1 0-.2.1-.3l.6.2c.2.1.4.1.6.2-.2.5-.5 1.1-.6 1.6-.1.4-.2.7-.2 1.1 0 .4-.1.7 0 1.1 0 .3 0 .5.1.8l-.7.2c-.5-.2-.8-.1-1 0zm.9 2.4-.3-.6-.6-1.2v-.1c.2-.1.5-.2.8-.3.2-.1.4-.2.7-.2 0 .3.1.6.2.9.1.4.3.8.5 1.1-.3.1-.7.2-1.1.4h-.2zm2.8 4-.3-.3c-.3-.3-.7-.5-1-.8-.6-.6-1.1-1.4-1.3-2.3-.1-.2-.1-.3-.2-.5h.1c.4-.2.7-.3 1.1-.5.1.2.2.3.2.5l.6 1.5c.1.2.2.5.3.7.1.2.3.4.5.5.2.1.3.2.5.3-.1.4-.3.6-.5.9zm3 1.7h-.4c-.4 0-.7-.1-1.1-.3-.3-.2-.6-.5-.9-.8l-.3-.3c.2-.3.4-.7.6-1l.3.1c.2.1.3.1.5.2s.3.1.4.2c.4.2.9.4 1.3.5-.1.5-.2 1-.4 1.4zm.5-1.5c-.5-.1-.9-.3-1.3-.5-.3-.1-.6-.3-.9-.4-.1 0-.2-.1-.2-.1l.2-.3c.2-.3.4-.7.5-1 .1.1.2.1.2.2.2.1.5.3.7.4.3.1.7.2 1.1.3h.1c-.2.4-.3.9-.4 1.4zm1.6 1v.5c-.1 0-.2 0-.2.1-.4.1-.7.1-1.1 0h-.3c.1-.4.3-.9.4-1.5H85.1c.3 0 .5 0 .8-.1-.1.3-.2.7-.2 1zm.3-1.5v-.7l-.1.7c0 .2 0 .3-.1.5-.2 0-.5.1-.8.1h-.6c0-.1 0-.2.1-.3.1-.4.2-.8.2-1.3H86.1c.6-.1 1.2-.3 1.7-.6.3-.2.6-.4.9-.7.3-.3.6-.6.8-1 .1-.2.2-.5.3-.7.1.1.3.2.4.4.2.2.5.3.7.5-.1.3-.2.6-.4.9-.3.4-.7.9-1 1.2-.2.2-.4.3-.6.5-.1-.2-.2-.5-.2-.7-.2-.4-.3-.7-.3-.7s.1.3.2.7c.1.2.1.5.2.7-.1.1-.2.2-.4.2-.4.1-.8.2-1.2.2-.3 0-.7.1-1 .2-.1 0-.2.1-.4.1.3.1.3-.1.2-.2zm2.5 1.7c-.3.1-.6.1-1 .1s-.7 0-1.1.1c-.1 0-.2 0-.3.1V33c0-.4 0-.7-.1-1.1.1 0 .2-.1.4-.1.1 0 .3-.1.5-.1s.3 0 .5-.1c.4 0 .8-.1 1.2-.2.1-.1.3-.1.4-.2.1.2.1.5.2.8s.1.5.1.7c-.3.2-.5.3-.8.4zm.9-1.2c-.1-.3-.2-.5-.2-.8h.1c.2-.1.4-.3.6-.5l.6-.6c.2-.2.4-.4.5-.7.2-.3.3-.6.4-.9.3.2.6.4.8.5-.2.3-.4.5-.5.9-.2.6-.5 1.1-.8 1.6-.4.4-.8.7-1.2 1-.2-.1-.2-.3-.3-.5z"/><g id="Group_86" transform="translate(.378 2.69)"><path id="Path_6844" class="st1" d="M31-3c-.2-.1-.7-.4-1.5-.8C37.3.7 45.3 6 54.5 6.6c-8.7-1-16-5.5-23.5-9.6z"/><path id="Path_6845" class="st1" d="M19.6-11.1c1.2.4 2.5.9 3.7 1.4 2.5 1 5 2 7.4 3.1-2.4-1.2-4.8-2.3-7.3-3.2-1.3-.5-2.6-1-3.9-1.4-1.2-.5-2.4-.6-3.7-.5 1.3-.1 2.6.1 3.8.6z"/><path id="Path_6846" class="st1" d="M15.8-11.7c.9-.1 1-.2 0 0z"/><path id="Path_6847" class="st1" d="M35.1 4.3C32 2.6 28.7 1.4 25.2.8c.7.1 1 .1-.9-.1 3.7.7 7.3 2 10.6 3.8 1.6.9 3.1 2 4.6 3 1.5 1 3.2 2 5 1.9-1.8 0-3.4-1-4.8-2.1-1.5-1.1-3-2.1-4.6-3z"/><path id="Path_6848" class="st1" d="M16.7-5.4h-.6c4.8.4 9.5 1.8 13.8 4.1-4-2.5-8.6-3.9-13.2-4.1z"/><path id="Path_6849" class="st1" d="M25.2-.5c-2.5-.9-5-1.6-7.6-2.2-.1 0-.2-.1-.4-.1 2.6.8 5.2 1.6 8 2.3z"/><path id="Path_6850" class="st1" d="M54 10.8c-4.4-2-8.9-3.8-13.4-5.5-.1-.1-.4-.2-.9-.4 4.8 2 9.5 4.1 14.3 5.9z"/><path id="Path_6851" class="st1" d="M38.4-3.3c.7.1.6.1-.5-.1 7.4 1.5 13 7.2 20.4 8.7-7-1.8-12.7-7.2-19.9-8.6z"/><path id="Path_6852" class="st1" d="M44.9 2.3c-4-2.6-8.1-5-12.3-7.4-.1-.1-.4-.2-.8-.5 4.4 2.7 8.7 5.4 13.1 7.9z"/><path id="Path_6853" class="st1" d="M66.4 4.7c-4.9-2-9.9-3.6-15-4.8-.1 0-.4-.1-1.1-.3 5.5 1.5 10.8 3.3 16.1 5.1z"/><path id="Path_6854" class="st1" d="M59 5.5c6.8 1.4 13.6 3.1 20.2 5.2-6.1-2.3-12.4-3.9-18.8-5 0 .1-.3 0-1.4-.2z"/><path id="Path_6855" class="st1" d="M80.8 9.2C77.4 7.6 73.7 6.5 70 5.8c0 0-.3-.1-.8-.1 4 .9 7.9 2.1 11.6 3.5z"/><path id="Path_6856" class="st1" d="M77 13.2c-2.9-.8-5.7-1.7-8.5-2.8 2.7 1.4 5.5 2.3 8.5 2.8z"/><path id="Path_6857" class="st1" d="M65.4 12.4C63 10.6 60 9.7 57 9.6h-.2c3.1.1 6.1 1.2 8.6 3 1.2 1 2.5 1.7 3.9 2.3 1.5.4 3 .7 4.5.8-1.6-.2-3.2-.5-4.7-1.1-1.3-.5-2.6-1.3-3.7-2.2z"/><path id="Path_6858" class="st1" d="M53.8 12.6c.3 0 .2 0-1-.2 5.5 1.2 10.7 3 15.8 5.4-4.6-2.5-9.6-4.3-14.8-5.2z"/><path id="Path_6859" class="st1" d="M46.2 12.7c1.3.1 1.5 0 0 0z"/><path id="Path_6860" class="st1" d="M57.7 17c-3.8-1.4-7.3-4.2-11.4-4.2 4.2.1 7.6 3 11.3 4.4 4 1.5 8.2 2 12.4 2.4-4.2-.6-8.4-1.2-12.3-2.6z"/><path id="Path_6861" class="st1" d="M63.4 20.4c3.3.7 6.7 1.4 10.1 1.7-3.2-.7-6.4-1.2-9.6-1.7h-.5z"/><path id="Path_6862" class="st1" d="M70 16.6c1.5 1.1 3.3 1.8 5.2 2-1.8-.6-3.5-1.2-5.2-2z"/><path id="Path_6863" class="st1" d="M44.5 13.3c3.9 2 7.8 4 11.8 5.8-3.7-2-7.4-3.8-11.2-5.5l-.6-.3z"/><path id="Path_6864" class="st1" d="M59.1 19.3c.6.5 1.3 1 .9.7 4.7 3.6 10.7 5.3 16.6 4.6-6.3.4-12.5-1.5-17.5-5.3z"/><path id="Path_6865" class="st1" d="M11.6-9.3c0 .1 0 .1-.1.2 1.7.8 3.3 1.7 4.9 2.6-1.5-.9-3.1-1.9-4.8-2.8z"/><path id="Path_6866" class="st1" d="M24.4-7.4c-3.4-.3-6.7-1.2-9.9-2.6-.7-.3-1.4-.7-2-1 0 .1-.1.1-.1.2.7.4 1.3.7 2 1 3.1 1.4 6.6 2.3 10 2.4z"/><path id="Path_6867" class="st1" d="M11.5-4.5c0 .1.1.2.1.2 1.1.5 2.1 1.1 3.1 1.7-1-.7-2-1.4-3.2-1.9z"/><path id="Path_6868" class="st1" d="M17.1.4C16.8.3 16.4.2 16 0l1 .5c.1 0 .1 0 .2.1 2.1.8 4.2 1.7 6.3 2.6 4.3 1.8 8.6 3.7 13.2 4.6C32.3 6.6 27.9 5 23.6 3c-2.1-.9-4.3-1.8-6.5-2.6z"/></g></g><g id="Group_110" transform="translate(2.578)"><path id="Path_6869" class="st0" d="M91.4 4.9c-.8-.2-72.8-13.5-73.8-13.5-3.6 0-6.4 3.3-6.4 7.3-.1 3.5 2.3 6.6 5.7 7.4 0 0 69.6 22.8 70.1 22.9 15.5 5.7 21.9-21 4.4-24.1z"/><g id="Group_88" transform="translate(83.196 16.65)"><ellipse id="Ellipse_1064" class="st1" cx="7.8" cy=".7" rx="10.3" ry="11.7"/><path id="Path_6870" class="st1" d="M7.8 12.9C1.9 12.9-2.9 7.4-2.9.7S1.9-11.4 7.8-11.4 18.5-5.9 18.5.7 13.7 12.9 7.8 12.9zm0-23.5C2.3-10.6-2.1-5.5-2.1.8s4.5 11.4 9.9 11.4S17.7 7 17.7.7s-4.4-11.3-9.9-11.3z"/></g><path id="Path_6871" class="st0" d="M96.8 26c.4-.4.8-.8 1.2-1.3.3-.6.5-1.2.6-1.8.1-.3.3-.7.4-.9l.6.3c.1.1.2.1.3.2.1 0 .1.1.2.2l.3-.6c-.2-.1-.3-.3-.5-.4-.1-.1-.3-.1-.4-.2 0 0-.1 0-.1-.1.3-.4.5-.8.6-1.2.1-.3.1-.5.2-.7.2.1.3.2.5.3.1 0 .1.1.2.1h.2c0-.2.1-.5.1-.8-.1-.1-.1-.1-.2-.1-.2-.1-.3-.2-.5-.3-.1 0-.1-.1-.2-.1v-1.8c0-.7 0-1.3-.1-2 .2-.1.3-.1.4-.2l.2-.1c0-.1 0-.2-.1-.3l-.3.1c-.1.1-.3.1-.4.2-.1-.4-.3-.7-.4-1l-.4-.7c-.1-.1-.1-.2-.2-.3.2-.1.3-.3.4-.4l.3-.3.1-.1c0-.1-.1-.2-.2-.3l-.2-.2-.1-.1-.1.1-.2.3c-.1.1-.2.2-.3.4-.3-.5-.7-.9-1-1.4-.1-.2-.3-.3-.4-.5.2-.3.4-.5.6-.7.2-.2.2-.3.2-.3l-.3-.3-.1.1c-.2.2-.4.5-.6.8l-.7-.7-.9-.6c-.3-.2-.6-.3-1-.4-.3-.1-.7-.2-1-.3-.3-.1-.7-.1-1.1-.1v-.3c0-.4.1-.7.1-.9v-.4l-.5-.1V6.1c.1.2 0 .6 0 .9v.4h-1.9c-.2 0-.3 0-.5.1V6h-.2v1.6c-.1 0-.3.1-.4.1-.3.1-.5.1-.8.1V6.5h-.6s0 .2.1.5c0 .2.1.5.2.9-.2 0-.4.1-.6.2-.2.1-.4.2-.5.4-.4.3-.7.6-1 .9-.1.1-.2.2-.3.4-.1-.2-.1-.3-.2-.4-.1-.3-.2-.5-.3-.8l-.3.1c.1.3.2.6.3.8.1.2.2.3.2.5-.4.5-.8 1-1.2 1.6-.1.2-.2.4-.3.7-.1.2-.2.5-.2.8 0 .3-.1.7-.1 1-.4-.1-.8-.2-1.2-.2H81.3c0 .1-.1.2-.1.2v.1h.9c.4 0 .8.1 1.2.2v.3c0 .2-.1.5-.1.7s-.1.5-.1.8v1.3c-.3.1-.5.2-.8.3-.4.2-.9.3-1.2.5-.1.1-.2.1-.3.2 0 .2 0 .5.1.7h.1c.1-.1.3-.1.4-.2.3-.2.7-.4 1.1-.7.2-.2.4-.3.7-.4 0 .5-.1.9-.2 1.4 0 .3-.1.6 0 .9-.1 0-.2.1-.2.1-.2.1-.3.2-.5.3-.1.1-.3.2-.4.3l-.2.1-.1.1-.2.2c0 .2.1.3.2.5l.2-.2.2-.2.1-.1.2-.1c.1-.1.2-.2.4-.3.1-.1.3-.2.4-.3 0 0 .1 0 .1-.1v.1c.2.4.4.9.7 1.2.1.2.2.3.3.5l-1.1.6c-.2.1-.3.2-.4.2l-.4-.1.1.3.2-.1c.1-.1.2-.1.4-.2l1.1-.6c.1.2.2.3.3.5.4.9.9 1.6 1.6 2.2.4.3.7.5 1.1.7.1.1.2.2.3.2-.1.3-.2.5-.4.7l-.4.8-.1.3.4.2.2-.3c.1-.2.2-.5.4-.8.1-.2.2-.4.3-.7l.3.3c.3.3.6.6 1 .8.4.1.8.2 1.2.2h.4c0 .2-.1.3-.1.5s-.1.4-.1.6l-.1.4v.1h.3c0-.1.1-.2.1-.3.1-.3.2-.7.3-1.2h.3c.4 0 .8-.1 1.1-.2.1 0 .1 0 .2-.1v1.5c.2 0 .4-.1.7-.2v-.1c0-.1 0-.3-.1-.5 0-.3-.1-.6-.1-1l.3-.1c.3-.1.7-.2 1-.2.4 0 .7-.1 1-.2.3-.1.6-.3.8-.5.1.3.1.5.2.7v.2l.3-.3c.2 0 .1-.3 0-.6zm3.2-5.9c-.1.4-.3.8-.6 1.2l-.2-.1-.9-.3c0-.2.1-.3.1-.5.1-.3.2-.6.2-1 .1-.4.1-.7.1-1.1v-.2l.1.1c.3.2.6.5 1 .8.2.1.3.2.5.3-.2.3-.2.5-.3.8zm-4.2-.3c.1.1.1.2.2.2l.3.3s.1 0 .1.1c-.1.3-.2.5-.3.8-.1.4-.4.8-.6 1.1-.3.3-.5.6-.8.8-.5.4-1 .7-1.6.9-.4.1-.7.1-1.1.2h-.3v-2h1c.4 0 .9-.2 1.2-.4.5-.4.8-1 1.1-1.5.4-.7.7-1.4.9-2.1 0-.1 0-.2.1-.3v-.3c0-.2 0-.5-.1-.7-.1-.4-.2-.9-.4-1.3l-.6-1.2c-.1-.1-.2-.3-.3-.4.3-.4.7-.8 1-1.2l.1.1c.1.1.2.2.2.4.3.5.5 1.1.7 1.6.1.4.2.7.3 1.1-.2.1-.4.3-.6.4l-.2.2s.1-.1.2-.1l.6-.3c0 .2.1.3.1.5.1.5.1 1.1 0 1.7-.1.5-.2 1-.4 1.5-.1.2-.1.3-.1.5h-.1c-.1-.1-.2-.1-.3-.2-.1-.3-.2-.4-.3-.4l-.2-.2.2.2zm-10.3 1.6c-.2-.3-.4-.7-.6-1.1l-.3-.9c.3-.2.7-.4 1-.6.1-.1.2-.1.2-.2 0 .4 0 .8.1 1.3.2.5.4.9.8 1.3.3.4.6.7.9 1 .3.3.5.6.8.9l.3.3c-.2.4-.3.7-.5 1.1-.1.2-.1.3-.2.4-.2-.1-.4-.1-.5-.2-.2-.1-.4-.3-.5-.5-.2-.2-.3-.4-.4-.7-.2-.5-.5-1.1-.8-1.6-.1-.1-.2-.2-.3-.5l.6-.3s-.3.2-.6.3zm-.3-6.9h1.4c0 .1-.1.2-.1.3-.2.6-.4 1.2-.4 1.8 0 .3-.1.6-.1.9 0 .3 0 .6-.1.8v.3c-.1.1-.2.1-.3.2-.3.2-.7.3-1 .4-.1-.3-.1-.5-.2-.8-.1-.7-.1-1.4 0-2.1.1-.6.3-1.2.4-1.8h.4zm-.3-.2c0-.1.1-.2.1-.3.1-.4.2-.7.4-1.1.1-.4.3-.7.6-1 .1-.1.1-.2.2-.2.5 1 .9 1.8 1 1.8-.2.3-.3.6-.4 1h-.9c-.2 0-.3 0-.5-.1-.3 0-.4-.1-.5-.1zm3.6 8.7c-.3-.3-.5-.6-.8-.9-.3-.3-.6-.7-.8-1-.3-.4-.5-.8-.7-1.2-.1-.4-.1-.9-.1-1.4 0 0 .1 0 .1-.1l.2-.2-.2.2v-1.9c0-.6.2-1.2.4-1.7 0-.1.1-.2.1-.4h.1l.2-.1-.2.1h-.1c.1-.4.3-.9.6-1.3.3-.5.7-.9 1.2-1.2.4-.3.8-.5 1.3-.7 0 .5.1 1 0 1.4v.3c-.2.1-.4.2-.5.4-.3.3-.7.6-.9.9-.3.4-.5.7-.6 1.2-.3.8-.4 1.7-.3 2.6 0 .4.1.8.2 1.2.1.2.1.4.2.5.1.2.2.3.2.5.3.5.7 1 1.2 1.4.1.1.2.1.3.2-.2.4-.4.9-.7 1.4-.2 0-.3-.1-.4-.2zm1.4-11.8s.1 0 .1-.1c.5-.2 1.1-.3 1.6-.3h.1c0 .6-.1 1.1-.1 1.6h-.1c-.4 0-.8.1-1.2.3-.2.1-.3.2-.5.3v-.3c.1-.5.1-1 .1-1.5zm1.7-.5c-.6 0-1.1.1-1.7.4h-.1c0-.4 0-.8-.1-1.2 0-.2 0-.4-.1-.6.5-.2 1-.4 1.6-.5h.5c0 .3 0 .6-.1.9 0 .3 0 .6-.1 1h.1zm-2.1 11.4c0-.1.1-.2.1-.3.3.1.6.2.8.2.3 0 .6.1.8.1h.2c0 .3-.1.7-.1 1 0 .3-.1.6-.1.9h-.1c-.4 0-.8-.1-1.1-.2-.4-.1-.7-.3-1-.5.2-.4.3-.8.5-1.2zm1.7 0c-.3 0-.6 0-.8-.1-.3 0-.6-.1-.8-.3.2-.5.3-.8.3-.8l-.4.7c-.1-.1-.2-.1-.3-.2-.5-.4-.8-.9-1.1-1.4-.1-.2-.2-.3-.2-.5-.1-.2-.1-.3-.2-.5-.1-.4-.1-.8-.2-1.1v-1.2c0-.4.1-.8.2-1.3.3-.8.8-1.5 1.5-2 .2-.1.3-.2.5-.3v.8l.1-.3c0-.1 0-.2.1-.4v-.1c.2-.1.4-.2.5-.3.4-.2.8-.3 1.2-.2h.1v1.1l.2-1.1c.7.1 1.4.5 2 1 .2.1.3.3.5.4-.2.3-.5.6-.7.8l-.1.1-.3-.3c-.5-.3-1-.5-1.6-.4-.5 0-1.1.2-1.5.6-.4.4-.8.8-1 1.3-.2.5-.4 1.1-.3 1.7.1.5.3 1 .5 1.4.2.3.5.6.8.9.2.2.5.3.8.4.2.1.3.1.5.1h.2c0 .5-.1 1-.1 1.6l-.4-.1zm.4-3.4h-.2c-.1 0-.2 0-.2-.1-.3-.1-.5-.3-.6-.6-.1-.2-.1-.4-.2-.6V17c0-.1 0-.2.1-.3.1-.2.2-.4.4-.6.2-.1.4-.2.6-.2.2 0 .4.1.6.3.2.1.3.3.4.5.1.2.1.4.1.6 0 .2-.1.4-.2.5-.1.3-.3.5-.6.6 0 .3 0 .3-.2.3l.1-1.6s0 .6-.1 1.6zm.1 1.8c.2 0 .4-.1.6-.1.3-.1.5-.2.8-.4.3-.2.6-.5.8-.9.3-.4.5-.9.5-1.4.1-.6 0-1.2-.2-1.7-.2-.4-.4-.7-.6-1l.1-.1.7-.7c.1.1.2.2.3.4.2.4.4.7.6 1.1.2.4.3.8.4 1.2 0 .2.1.4.1.6v.6c-.2.7-.5 1.4-.8 2-.2.6-.5 1.1-.9 1.6-.3.3-.7.5-1.2.5h-1c-.2-.6-.2-1.2-.2-1.7zm-.4 0c-.2 0-.4-.1-.5-.1-.3-.1-.5-.3-.7-.5-.3-.3-.5-.6-.7-.9-.2-.4-.4-.8-.5-1.3-.1-.5 0-1.1.2-1.6s.5-1 .9-1.3c.2-.2.4-.3.7-.4.2-.1.5-.1.8-.1.5 0 1 .2 1.4.5l.3.3-.4.4-.3.3.3-.2c.1-.1.3-.2.4-.4.3.3.5.6.6 1 .2.5.3 1 .2 1.5 0 .5-.2.9-.4 1.3-.2.3-.4.6-.7.9-.2.2-.4.4-.7.5-.2.1-.3.1-.5.1v-1.7h.1c.1 0 .2-.1.4-.1.2-.1.3-.2.4-.4.1-.2.2-.4.2-.7 0-.3 0-.5-.1-.8-.1-.3-.3-.5-.5-.6-.1-.1-.2-.2-.3-.2h-.4c-.5.1-1 .4-1.2.8-.1.1-.1.2-.1.4v.4c0 .2.1.5.2.7.1.2.2.3.4.4.1.1.2.1.4.1h.4v.2c0 .4-.1 1-.1 1.5h-.2zm6.3-7.1c.1.2.1.4.2.6.1.4.2.7.3 1.1v.2c-.4.2-.7.3-1 .5-.1-.4-.2-.7-.3-1.1-.2-.6-.5-1.2-.8-1.7-.1-.1-.2-.3-.3-.4l-.1-.1c.3-.3.5-.7.7-1.1.1.2.3.3.4.5l.6.9c.1.1.1.2.1.3l-.3.3c.1.2.3.1.5 0zm-.8 6.4c.2-.5.4-1 .5-1.6.1-.6.1-1.2 0-1.8 0-.2-.1-.4-.1-.6.3-.1.6-.3 1-.4.1.2.1.5.1.7.1.6.1 1.2.1 1.7h-.1l.1.1v.4c0 .3 0 .7-.1 1 0 .3-.2.6-.2 1 0 .2-.1.3-.1.5-.3-.1-.5-.2-.8-.3-.2-.1-.4-.2-.5-.2 0-.1.1-.3.1-.5zm3.4-5.1c.1.6.2 1.3.2 2V18.5c-.1 0-.2-.1-.4-.1-.4-.1-.8-.3-1.1-.4h-.2c0-.6 0-1.3-.1-1.9 0-.2-.1-.5-.2-.7.1 0 .3-.1.4-.1.5-.2 1-.4 1.4-.6zm-1.1-2.3c.4.6.7 1.3 1 2-.4.2-.9.4-1.4.6-.1.1-.2.1-.4.2v-.1c-.1-.4-.2-.7-.3-1.1-.1-.2-.1-.4-.2-.6.2-.2.6-.3.8-.6.2-.2.3-.3.5-.4zM97.3 10l.4.4c.4.4.7.9 1.1 1.3l-.4.4c-.2.3-.5.5-.7.7 0-.1-.1-.2-.1-.3-.2-.3-.4-.7-.6-1-.1-.2-.3-.4-.5-.5 0 0 0-.1.1-.1.2-.2.5-.5.7-.9zm-4.9-1.7c0-.2.1-.4.1-.6.4 0 .7 0 1 .1.3.1.7.2 1 .3.3.1.6.2 1 .4.3.2.6.4.8.6.2.2.5.4.7.6-.2.3-.5.7-.7 1.2-.3-.3-.6-.5-.8-.7-.3-.2-.6-.5-.9-.7-.3-.2-.7-.4-1-.5l-1.2-.3c-.1-.1 0-.2 0-.4zm-.2 1.5c0-.3.1-.6.1-.9.4.1.8.2 1.1.3.3.1.7.3 1 .5.3.2.6.4.9.7.3.2.6.5.8.7l.1.1c-.2.4-.4.7-.7 1.1l-.6-.6c-.4-.4-.9-.7-1.5-.9-.4-.1-.8-.1-1.3-.1 0-.3.1-.6.1-.9zm-.2 1.1c.4 0 .8 0 1.2.1.5.2 1 .5 1.4.9l.6.6c-.3.5-.6.9-.9 1.3-.1-.2-.3-.3-.5-.5-.3-.3-.7-.5-1.1-.7-.3-.1-.6-.2-1-.2.2-.4.3-1 .3-1.5zm-1.8-3.2H92v.9h-.5c-.6.1-1.1.2-1.6.5 0-.5-.1-1-.1-1.4h.4zm-.6 2.3c.1.4.1.8.1 1.2-.5.2-.9.4-1.3.7-.5.3-.9.7-1.3 1.2-.1.1-.1.3-.2.4 0-.1-.4-1-.8-2 .3-.5.7-.9 1.2-1.3.6-.3 1.3-.6 2-.7.1 0 .2-.1.2-.1.1.2.1.4.1.6zM89 7.9c.1 0 .3-.1.4-.1 0 .4.1.9.2 1.4-.1 0-.2.1-.3.1-.3.1-.7.2-1 .3 0-.2-.1-.9-.1-1.6.2 0 .5 0 .8-.1zm-3.2 1.6c.3-.3.6-.6 1-.9.2-.1.3-.2.5-.3.2-.1.3-.1.5-.2.1.4.2.8.3 1.1.1.2.1.4.1.5-.3.1-.7.2-1 .4-.5.4-.8.8-1.2 1.3-.1-.2-.1-.3-.2-.5-.2-.4-.3-.7-.5-1 .2-.1.4-.3.5-.4zm-2.2 3.4c0-.2.1-.5.2-.7l.3-.6c.3-.5.7-1 1.1-1.5.1.3.3.6.5.9l.3.5c-.1.1-.1.2-.2.3-.2.3-.4.7-.6 1-.2.4-.3.7-.4 1.1 0 .1-.1.2-.1.3-.2-.1-.4-.1-.6-.2s-.4-.1-.6-.2c0-.2 0-.6.1-.9zm-.7 6.9c0-.3 0-.6.1-.8.1-.5.2-1 .2-1.5.4-.3.8-.5.8-.5s-.3.1-.8.3v-1.2c0-.2.1-.5.1-.7 0-.2.1-.5.1-.7v-.3c.2 0 .4.1.6.1.2 0 .4.1.6.1-.2.6-.3 1.2-.5 1.7-.1.4-.1.8-.1 1.1 0 .4 0 .7.1 1.1 0 .3.1.5.2.8-.2.1-.5.2-.7.2-.2.1-.5.2-.7.3zm1.2 2.3c-.1-.2-.2-.4-.4-.5-.3-.4-.5-.8-.7-1.2v-.1c.2-.1.5-.2.7-.4l.6-.3.3.9c.2.4.4.7.6 1.1-.3.2-.7.3-1.1.5zm3.4 3.9c-.1-.1-.2-.2-.3-.2-.4-.2-.7-.4-1.1-.7-.7-.6-1.3-1.3-1.6-2.2-.1-.2-.2-.3-.3-.5h.1c.4-.2.7-.4 1-.6.1.2.2.3.3.5.3.5.6 1 .8 1.5.1.2.3.5.4.7.2.2.3.3.6.5.2.1.4.2.5.2-.1.1-.3.4-.4.8zm3.3 1.3c-.2 0-.3.1-.4.1-.4 0-.8 0-1.1-.2-.4-.2-.7-.4-1-.7-.1-.1-.2-.2-.4-.3.2-.4.3-.7.5-1.1l.3.1c.2 0 .4.1.5.1.2.1.3.1.5.2.5.2.9.3 1.4.3-.2.5-.2 1.1-.3 1.5zm.2-1.6c-.5-.1-1-.2-1.4-.3-.3-.1-.6-.2-1-.3l-.3-.1.2-.4c.2-.4.3-.7.4-1.1.1.1.2.1.3.2.3.1.5.2.8.3.4.1.7.2 1.1.2h.1c0 .5-.1 1-.2 1.5zm1.8.9v.5c-.1 0-.2.1-.2.1-.4.1-.7.2-1.1.2h-.3c.1-.5.2-1 .2-1.6H92c.3 0 .5-.1.8-.2v1zM93 25l-.1-.7v1.2c-.3.1-.5.2-.8.2h-.6v-.3c0-.4.1-.9.1-1.3h.4c.4 0 .8-.1 1.1-.1.6-.1 1.2-.4 1.6-.8.3-.2.6-.5.9-.8.3-.3.6-.7.7-1.2.1-.2.2-.5.3-.7.1.1.3.2.5.3.2.2.5.3.8.4l-.3.9c-.3.5-.6 1-.9 1.4-.2.2-.3.4-.5.6-.1-.2-.2-.5-.3-.7-.2-.4-.4-.7-.4-.7s.1.3.3.7c.1.2.2.5.3.7-.1.1-.2.2-.4.3-.4.2-.8.3-1.2.4-.3.1-.7.2-1 .3-.1.1-.2.1-.4.1-.1.1-.1-.1-.1-.2zm2.7 1.5c-.3.1-.7.2-1 .2-.4 0-.7.1-1.1.2l-.3.1c0-.1 0-.2-.1-.4-.1-.4-.1-.7-.2-1.1.1 0 .2-.1.4-.1.1-.1.3-.1.5-.2.2 0 .3-.1.5-.1l1.2-.3c.1-.1.3-.2.4-.3.1.2.2.5.2.8.1.2.1.5.2.7-.2.2-.4.4-.7.5zm.8-1.4c-.1-.3-.2-.5-.3-.8h.1c.2-.2.4-.4.5-.6.2-.2.4-.4.5-.6.2-.2.3-.5.5-.8l.3-.9c.3.2.6.3.9.5-.2.3-.4.6-.5.9-.1.6-.4 1.2-.7 1.8-.4.4-.7.8-1.2 1.2.1-.3 0-.5-.1-.7z"/><g id="Group_109" transform="translate(.242 1.316)"><g id="Group_89" transform="translate(24.468 6.517)"><path id="Path_6872" class="st1" d="M7-9.9C15.7-6.4 24.2-2 33.8-2 24.2-1.6 15.5-6.1 7-9.9c3.2 1.3 1.3.6 0 0z"/></g><g id="Group_90" transform="translate(7.225)"><path id="Path_6873" class="st1" d="M9.9-8.6c1.3-.3 2.7-.2 4 .1 1.3.3 2.6.6 3.8.9 2.7.7 5.4 1.5 8 2.5-2.6-.8-5.3-1.6-7.9-2.3-1.3-.3-2.6-.7-3.8-1-1.3-.3-2.7-.4-4.1-.2 1-.3.8-.2 0 0z"/></g><path id="Path_6874" class="st1" d="M25.9 4.6c-2.3-.7-4.6-1.4-7-1.9-2.2-.5-3.7-1.1-6-.5 2.4-.4 3.8.1 6.1.7s4.6 1.3 6.9 2c4.5 1.4 9.2 2.8 13.9 3.1-4.6-.7-9.3-1.8-13.9-3.4z"/><g id="Group_91" transform="translate(18.664 12.725)"><path id="Path_6875" class="st1" d="M8-10.9c3.9.1 7.7 1 11.3 2.5 1.7.7 3.3 1.6 4.9 2.5 1.6.9 3.5 1.9 5.4 1.7-1.8.3-3.6-.5-5.2-1.3-1.7-.9-3.4-1.9-5.2-2.7-3.6-1.5-7.4-2.4-11.2-2.7 2.7.1 1.2.1 0 0z"/></g><g id="Group_92" transform="translate(7.793 7.21)"><path id="Path_6876" class="st1" d="M9.8-9.9c5-.5 10 .5 14.6 2.6-4.7-1.8-9.6-2.7-14.6-2.6 1.8-.1.8 0 0 0z"/></g><g id="Group_93" transform="translate(9.3 9.36)"><path id="Path_6877" class="st1" d="M9.5-10.4c2.9.3 5.7.8 8.5 1.5-2.8-.3-5.6-.9-8.5-1.5 1.1.2.5.1 0 0z"/></g><g id="Group_94" transform="translate(17.521 19.171)"><path id="Path_6878" class="st1" d="M8.2-12c6.7 1.7 13.5 3.3 20.2 5-6.8-1.3-13.6-3.1-20.2-5 2.5.6 1 .3 0 0z"/></g><g id="Group_95" transform="translate(38.31 15.826)"><path id="Path_6879" class="st1" d="M4.6-11.5C9.8-10.1 14.9-8.6 19.9-7 14.8-8.3 9.7-9.9 4.6-11.5c1.9.5.9.3 0 0z"/></g><g id="Group_96" transform="translate(34.961 5.922)"><path id="Path_6880" class="st1" d="M5.2-9.8c7.8.4 14.3 5.5 21.9 6.7C19.4-3.9 12.9-9 5.2-9.8c1.4.1 1.2.1 0 0z"/></g><g id="Group_97" transform="translate(27.154 3.993)"><path id="Path_6881" class="st1" d="M6.5-9.4c4.8 2.1 9.6 4.3 14.3 6.6C16-4.9 11.3-7.2 6.5-9.4c1.8.7.8.3 0 0z"/></g><g id="Group_98" transform="translate(50.688 7.904)"><path id="Path_6882" class="st1" d="M2.5-10.1c5.8.6 11.5 1.8 17.1 3.4C13.9-8 8.3-9.1 2.5-10.1c2.1.2 1 .2 0 0z"/></g><g id="Group_99" transform="translate(62.173 14.054)"><path id="Path_6883" class="st1" d="M.6-11.2c7.2.3 14.3 1.3 21.3 3-7-1.3-14.1-2.3-21.3-3 2.6.2 1.1.1 0 0z"/></g><g id="Group_100" transform="translate(74.867 12.82)"><path id="Path_6884" class="st1" d="M-1.5-10.9c4.2.2 8.3 1 12.3 2.3-4.1-1-8.2-1.8-12.3-2.3 1.5 0 .6 0 0 0z"/></g><g id="Group_101" transform="translate(74.552 18.815)"><path id="Path_6885" class="st1" d="M-1.5-12c3 .8 6 1.4 9 1.9-3-.1-6.1-.8-9-1.9 1.1.3.5.2 0 0z"/></g><g id="Group_102" transform="translate(60.063 19.238)"><path id="Path_6886" class="st1" d="M1-11.9c3.2-.4 6.4.3 9.1 1.9 1.3.8 2.6 1.5 4 2 1.6.4 3.3.5 4.9.6-1.6.1-3.2 0-4.8-.3-1.5-.4-2.9-1.1-4.2-2-2.7-1.7-5.9-2.4-9-2.2 2.2-.3.9-.1 0 0z"/></g><g id="Group_103" transform="translate(55.529 23.462)"><path id="Path_6887" class="st1" d="M1.7-12.7c5.8.3 11.5 1.5 16.8 3.8-5.4-2-11-3.2-16.8-3.8 2.1.1.9 0 0 0z"/></g><g id="Group_104" transform="translate(47.379 24.563)"><path id="Path_6888" class="st1" d="M3.1-12.8c4.2-.5 8.1 2 12.1 3 4.2 1.1 8.6 1.2 13 1.3-4.3.1-8.7 0-13-1.1-4-1-7.8-3.6-12.1-3.2 1.6-.2 1.3-.1 0 0z"/></g><g id="Group_105" transform="translate(69.423 33.227)"><path id="Path_6889" class="st1" d="M-.6-14.4c3.5.1 7.1.2 10.6.7-3.6 0-7.1-.4-10.6-.7 1.3 0 .6.1 0 0z"/></g><g id="Group_106" transform="translate(77.268 26.19)"><path id="Path_6890" class="st1" d="M-2-13.2c1.8.7 3.6 1.1 5.5 1.4-1.9.1-3.8-.4-5.5-1.4.7.2.3.1 0 0z"/></g><g id="Group_107" transform="translate(45.617 26.598)"><path id="Path_6891" class="st1" d="M3.4-13.3c4.3 1.4 8.6 2.9 12.7 4.6-4.3-1.3-8.5-2.9-12.7-4.6 1.6.5.7.3 0 0z"/></g><g id="Group_108" transform="translate(64.395 32.797)"><path id="Path_6892" class="st1" d="M.2-14.3c5.5 3.3 12.1 4.6 18.5 3.5-6.4 1.3-13.1.1-18.5-3.5 2 1.2.9.5 0 0z"/></g><path id="Path_6893" class="st1" d="M12.3-7c0 .1-.1.1-.1.2 1.9.7 3.8 1.5 5.6 2.3-1.8-1-3.7-1.8-5.5-2.5z"/><path id="Path_6894" class="st1" d="M16.8-.6c-1.9.1-3.8.1-5.7-.1v.2c1.9.1 3.8.1 5.7-.1z"/><path id="Path_6895" class="st1" d="M25.9-6.4c-3.6 0-7.1-.5-10.5-1.6-.5-.2-1.1-.4-1.6-.6-.1 0-.1.1-.2.1l1.5.6c3.5 1.2 7.1 1.7 10.8 1.5z"/><path id="Path_6896" class="st1" d="M11.2-4.7v.2c1.7.5 3.3 1.1 4.9 1.9-1.6-1-3.2-1.7-4.9-2.1z"/></g></g></g></g></g><g id="Text"><g id="Group_113" transform="translate(39.649 165.668)"><path id="Path_6897" class="st0" d="M14.1-20.3c-.1.6-.5 1.1-1 1.4-.2.1-.5.2-.7.2H7.8c-.3 0-.5-.2-.5-.7 0-1.2 1-3.6 3-7.2.2-.2.2-.4.2-.4-.7 0-1.5.2-2.2.4-.7.3-1.2.6-1.3 1-.1 0-.1-.1-.1-.2 0 0 0-.1.1-.3.1-.2.2-.5.4-.7.2-.2.4-.4.7-.5.5-.2 1-.3 1.5-.2h2.9c-.5.5-1 1.2-1.3 1.9-.5 1-1.1 2-1.6 3.2-.4.8-.7 1.6-.8 2.5 0 .5.3.8.9.8 2.4 0 3.9-.5 4.4-1.4h.1c.1 0 .1 0 .1.1-.2 0-.2.1-.2.1z"/><path id="Path_6898" class="st0" d="M19.4-23.7h.8c-.4.5-.8 1.1-1 1.7-.3.6-.6 1.3-.7 2.1 0 .2.1.4.2.4.2 0 .3-.1.4-.2.2-.1.3-.3.5-.5s.3-.4.4-.6c.2-.3.3-.5.4-.7.1-.2.2-.3.2-.3s.1.1.1.2c0 .2 0 .3-.1.5-1 1.7-1.9 2.6-2.6 2.6-.5 0-.7-.3-.7-1 0-.2 0-.4.1-.6-.8 1.1-1.5 1.7-2.3 1.7-.2 0-.4-.1-.5-.3-.1-.2-.2-.5-.2-.8 0-.6.2-1.2.4-1.7.2-.7.5-1.4.9-2 .1-.1.2-.2.3-.2.2 0 .4-.1.5 0h.6c-.3.4-.5.8-.7 1.2-.4.8-.7 1.6-.8 2.5 0 .3.1.5.3.5.2 0 .5-.2.8-.7.4-.6.7-1.1 1-1.7.4-.7.6-1.1.6-1.2.6-.7.9-.9 1.1-.9z"/><path id="Path_6899" class="st0" d="M29.2-21.2c-.3.5-.6 1-.9 1.3-.3.3-.5.6-.9.9-.2.2-.6.4-.9.4-.5 0-.7-.3-.7-.9.1-1 .4-2 .8-2.8.1-.2.2-.4.2-.6 0-.2-.1-.2-.2-.2-.2 0-.3.1-.5.2s-.5.3-.6.5c-.2.2-.3.4-.5.6-.2.3-.3.5-.4.8-.2.4-.2.6-.3.8-.2.8-.4 1.3-.5 1.6h-1.2c.4-1.2.7-2 .9-2.4.2-.4.3-.7.3-.8l.1-.4c.1-.2.1-.4.1-.7 0-.2-.1-.3-.2-.3-.2 0-.4.1-.6.2-.3.1-.5.3-.7.5-.2.2-.4.5-.5.8-.1.3-.3.6-.4.8-.1.2-.2.5-.3.8-.1.3-.2.6-.2.8-.1.2-.1.4-.2.7h-1.2l.3-.9.8-2.1c.3-.6.4-1.2.5-1.8v-.2h.5c.2 0 .4 0 .6.1.1 0 .1.1.1.2 0 .2-.1.4-.2.6.6-.6 1.4-1 2.2-1 .4 0 .7.2.7.6 0 .2-.1.4-.1.6.6-.7 1.4-1.1 2.4-1.1.4 0 .7.2.7.6 0 .2 0 .3-.1.5s-.1.3-.2.6c-.1.2-.2.4-.2.6-.1.2-.1.3-.2.6s-.2.7-.2 1c0 .2.1.3.2.3.2 0 .4-.1.5-.3.2-.1.3-.3.5-.5.1-.2.3-.4.4-.6.2-.2.3-.5.4-.6 0-.1.1-.2.2-.3.1 0 .1.1.1.2-.3 0-.4.2-.4.3z"/><path id="Path_6900" class="st0" d="M34.8-21.9c.1 0 .1.1.1.2s0 .2-.1.4l-.3.5c-.3.5-.6 1-1 1.4-.2.2-.5.4-.8.4-.3 0-.6-.2-.7-.5-.3.3-.7.6-1 .8-.4.2-.8.3-1.2.3-.3 0-.6 0-.9-.2-.2-.2-.3-.4-.3-.7 0-.4.1-.7.2-1.1.3-1.3.8-2.6 1.3-3.9.6-1.5 1.1-2.3 1.5-2.4h1.1c-.6.6-1 1.4-1.3 2.1-.5 1.1-1 2.2-1.3 3.4.9-1.6 1.8-2.4 2.6-2.4.6 0 .9.4.9 1.2 0 .9-.4 1.8-1 2.5 0 .1 0 .2.1.3.1.1.2.1.3.1.1 0 .3-.1.4-.2l.3-.3.3-.3c.1-.2.3-.4.4-.6.2-.3.3-.5.4-.7-.1-.1-.1-.2 0-.3zm-2.8-.8h-.2l-.6.3c-.4.4-.8.8-1 1.3-.3.4-.5 1-.6 1.5 0 .4.1.6.4.6.4 0 .9-.4 1.4-1.3.4-.6.7-1.3.8-2 0-.2-.1-.3-.2-.4z"/><path id="Path_6901" class="st0" d="M39.3-21.9c.1 0 .1.1.1.2 0 .2-.1.4-.2.6-.1.2-.3.4-.4.6-.2.2-.3.5-.5.7-.2.2-.4.5-.6.6-.5.4-1 .6-1.6.6-.5 0-.9-.1-1.3-.4-.4-.3-.5-.8-.5-1.3 0-.9.3-1.7.9-2.4.5-.7 1.3-1.1 2.2-1.1.3 0 .7.1.9.3.2.2.3.4.3.7 0 .5-.3.9-.7 1.1-.5.3-1 .4-1.6.4-.3 0-.5 0-.8-.1-.1.4-.2.7-.2 1.1 0 .7.3 1.1.9 1.1.4 0 .8-.2 1.1-.4.4-.3.7-.6 1-.9.4-.3.7-.8 1-1.4zm-1.3-1c0-.2-.1-.3-.3-.4h-.1c-.4.1-.8.3-1.1.6-.3.2-.5.6-.6 1 0 .2.2.3.5.2.4 0 .7-.2 1-.5.3-.2.6-.5.6-.9z"/><path id="Path_6902" class="st0" d="M42.2-23.7h.8c-.2.2-.4.5-.5.8-.2.5-.4.8-.5 1-.1.3-.3.6-.4.9-.1.3-.2.6-.2 1 0 .2.1.4.2.4.2 0 .3-.1.5-.2s.3-.3.5-.5.3-.4.4-.6c.2-.3.3-.5.4-.7 0-.1.1-.2.2-.3.1 0 .1.1.1.2 0 .2 0 .3-.1.4-.4.6-.7 1.1-.9 1.4-.2.3-.5.6-.9.9-.2.2-.6.4-.9.4-.5 0-.7-.4-.7-1.1 0-.6.1-1.1.3-1.6.2-.6.5-1.2.8-1.8-.2.2-.6.3-.9.4-.1 0-.2 0-.3-.1-.3.6-.6 1.2-1 1.8 0 0-.1-.1-.1-.2 0-.2.1-.4.2-.6.1-.2.2-.5.3-.7l.2-.4c-.3-.1-.5-.4-.5-.7 0-.2.1-.3.2-.5.1-.1.3-.2.4-.2.2 0 .3.1.5.2v.2c0 .2.1.4.2.5.2.1.4.2.6.2h.2c.3-.3.6-.5.9-.5z"/><path id="Path_6903" class="st0" d="M45.2-23.6h.5c-.2.1-.3.3-.4.5-.1.2-.2.4-.2.5-.1.2-.2.4-.2.5l-.2.6c-.2.4-.3.8-.4 1.2s-.2.6-.3.7-.1.3-.2.6-.2.5-.3.7-.2.4-.4.6c-.1.2-.3.4-.4.6-.1.2-.3.3-.5.5s-.4.3-.6.4c-.4.2-.9.4-1.3.4-.9 0-1.3-.3-1.3-.8 0-.2.1-.4.2-.6.1-.2.3-.3.5-.3s.4.1.4.3c-.1.1-.2.2-.2.3 0 .1-.1.2-.1.4 0 .1 0 .2.1.3.1.1.2.1.4.1.7 0 1.3-.7 1.9-2 .2-.5.5-1.2.8-2.2.3-1.1.7-2.1 1.2-3 .3-.2.6-.3 1-.3zm1.5-1.8c-.2 0-.4.1-.5.2-.1.1-.3.3-.3.4-.2-.1-.3-.2-.3-.5s.1-.5.3-.7c.1-.2.3-.3.6-.3.1 0 .3 0 .4.1.1.1.1.2.1.3-.1.3-.2.5-.3.5z"/><path id="Path_6904" class="st0" d="M50.9-23.7h.7c-.5.5-.8 1.1-1 1.7-.3.6-.5 1.3-.6 2 0 .2.1.3.2.3.5 0 1.1-.7 1.9-2.2 0-.1.1-.1.1-.1.1 0 .1.1.1.2 0 .2 0 .3-.1.4-1 1.7-1.9 2.6-2.6 2.6-.5 0-.7-.3-.7-1 0-.5.1-1 .3-1.5-1 1.7-1.8 2.5-2.7 2.5-.6 0-.8-.4-.8-1.2 0-.6.1-1.2.4-1.8.2-.6.6-1.1 1.1-1.5.4-.4 1-.6 1.6-.6.3 0 .5.1.8.2.2.1.4.3.5.6.1-.2.2-.4.4-.5 0 0 .2-.1.4-.1zm-1 .8c-.1-.3-.3-.4-.6-.4-.6 0-1.1.4-1.6 1.2-.5.6-.7 1.3-.8 2.1 0 .3.1.4.3.4.3 0 .6-.2.8-.4.3-.3.6-.6.8-1 .5-.9.9-1.5 1.1-1.9z"/><path id="Path_6905" class="st0" d="M56.8-21.9c.1 0 .1.1.1.2 0 .2-.1.4-.2.6-.1.2-.2.4-.3.5-.1.1-.2.3-.4.6-.1.2-.3.4-.5.6-.1.1-.3.3-.5.4-.4.3-.9.4-1.4.4-.5 0-.9-.1-1.3-.4-.3-.3-.4-.7-.4-1.2 0-.9.3-1.8.9-2.4.5-.7 1.3-1.1 2.2-1.1.3 0 .7.1.9.3.2.2.3.4.3.7 0 .3-.1.5-.2.7-.1.2-.3.3-.5.3-.4 0-.6-.2-.6-.5 0-.1.1-.2.3-.3.1 0 .2-.1.2-.2.1-.1.1-.2.1-.4s-.1-.3-.4-.3c-.5 0-1 .4-1.5 1.1-.5.6-.7 1.4-.7 2.1 0 .7.3 1 .9 1 .8 0 1.6-.6 2.4-1.9.2-.3.3-.5.4-.6.1-.1.1-.2.2-.2z"/><path id="Path_6906" class="st0" d="M61.9-21.2c-.3.5-.6.9-.9 1.4-.4.7-1.1 1.2-1.9 1.3-.3 0-.6-.2-.8-.5-.2-.4-.3-.8-.3-1.1 0-.8.1-1.3.4-1.3.4 0 .8-.1 1.1-.3.3-.1.5-.4.5-.7 0-.2-.1-.4-.4-.4-.6 0-1.2.6-1.9 1.9-.1.1-.2.4-.4.9-.2.4-.4.7-.6 1-.2.2-.3.4-.5.4h-.8c.4-1 .8-1.9 1.2-3 .5-1.5.9-2.5 1.1-3 0 0 .1-.1.2-.3s.2-.3.2-.4c0-.1.1-.2.2-.4s.2-.3.3-.5c.1-.1.2-.2.3-.4.1-.2.2-.3.3-.4l.3-.4c.1-.1.2-.2.4-.3.2-.2.5-.2.8-.2.5 0 .7.2.7.6-.1.9-.5 1.7-1.1 2.3-.7 1-1.5 1.9-2.4 2.8l-.2.6c.4-.5.9-1 1.4-1.4.4-.3.9-.6 1.4-.6.2 0 .4.1.6.2.1.1.2.3.2.5 0 .5-.2.9-.6 1.1-.4.3-.9.5-1.4.6 0 .6.1 1.1.4 1.6.1.1.2.1.3.1.2 0 .4-.1.5-.2.2-.1.4-.3.5-.5.2-.2.3-.4.4-.6.2-.3.3-.5.4-.7.1-.1.1-.2.2-.3.1 0 .1.1.1.2-.1.1-.1.3-.2.4zm-1.3-6.5c-.5 0-1.3 1.5-2.5 4.5.9-1 1.6-2 2.3-3.2.2-.3.3-.7.4-1.1 0-.1 0-.2-.2-.2z"/></g><g id="Group_116" transform="translate(46.547 32.247)"><g id="Group_114"><path id="Path_6907" class="st0" d="M5.8 4.6V3.4h1.3v-6.5c-.2.1-.4.1-.6.1h-.8v-1.1h.8c.2 0 .4 0 .5-.2.1-.1.2-.3.2-.4v-.7h1.4v8.8h1.3v1.2H5.8z"/><path id="Path_6908" class="st0" d="M13.6.5c-.2.1-.3.2-.5.2s-.4.1-.6.1c-.5 0-1-.1-1.4-.4-.5-.4-.7-.9-.6-1.4v-2.5c0-.5.1-1 .5-1.4.5-.4 1.1-.5 1.7-.5.6-.1 1.3.1 1.8.5.3.3.5.8.5 1.4V3c0 .5-.2 1-.6 1.3-.5.3-1.1.5-1.6.4-.6 0-1.2-.1-1.6-.4-.5-.3-.7-.8-.6-1.3V1.7H12v1.2c0 .4.3.6.8.6s.8-.2.8-.6V.5zm-1.7-1.6c0 .2.1.4.2.5.2.1.4.2.6.2.2 0 .5-.1.6-.2.1-.1.2-.3.2-.5v-2.5c0-.5-.3-.7-.8-.7-.2 0-.5.1-.6.2-.1.1-.2.3-.2.5v2.5z"/></g><g id="Group_115" transform="translate(43.602)"><path id="Path_6909" class="st0" d="M-1.7-5.3h4.3v1.1L.7 4.6H-.8l2.1-8.8H-.1v1.3h-1.4v-2.4z"/><path id="Path_6910" class="st0" d="M4.8-1.6c.2-.1.3-.2.5-.2s.4-.1.6-.1c.5 0 1 .1 1.4.4.4.3.6.8.5 1.3v2.9c0 .5-.1 1-.5 1.4-.4.5-1 .7-1.6.6-.7.1-1.3-.1-1.8-.5-.4-.3-.6-.9-.6-1.4v-6.5c0-.5.2-1 .6-1.3.5-.3 1.1-.5 1.7-.5.6 0 1.1.1 1.6.4.4.3.6.8.6 1.3v.9H6.3c0-.3.1-.6 0-.9 0-.4-.3-.6-.8-.6s-.8.2-.8.6l.1 2.2zM6.5 0c0-.2-.1-.4-.2-.5-.2-.2-.4-.2-.6-.2-.2 0-.5 0-.7.2-.1.1-.2.3-.2.5v2.9c0 .5.3.7.9.7.5 0 .8-.2.8-.7V0z"/></g></g><g id="Group_117" transform="translate(2.061)"><path id="Path_6911" class="st0" d="M21.8 35.4h.9l-1.8 2.4-.3-.9-6.5-4.9h-.9l3.9-5.1h.9l1.8 1.4.3.9-2.4 3.2 4.1 3zm-6.2-4.8 1.3 1 1.6-2.1-1.3-1-1.6 2.1z"/><path id="Path_6912" class="st0" d="M30.5 25.5h1l-2.1 2.1-.3-.8-4.6-2.7-.4.4 3.6 3.7.9.1-2.1 2.1-.1-.9-5.7-5.8-.9-.1 4.6-4.5.9.1 1.6 1.6.1.9-1.2 1.1 4.7 2.7zm-8.2-2.9 1.1 1.1 1.9-1.9-1.1-1.1-1.9 1.9z"/><path id="Path_6913" class="st0" d="M33 24.3v-.9l-4.9-6.6-.9-.3 4.9-3.6.8 1.1-1.2.5-1.9 1.4 1 1.3 1.6-1.2.8-1 1 1.4-1.2.5-1.6 1.2 2.9 3.9 1.9-1.4.8-1 .4 1.4-4.4 3.3z"/><path id="Path_6914" class="st0" d="M40.3 11.2 40.2 8l2.6-1.4-.1.9 3.8 7.2.8.4-2.6 1.4.1-.9-2.9-5.4.2 4.5-3.6-2.7 2.9 5.4.8.4-2.6 1.4.1-.9-3.7-7.2-.8-.4 2.6-1.4 2.5 1.9z"/><path id="Path_6915" class="st0" d="m48.6 5.2 2.9 7.7.8.5-2.8 1 .2-.9-2.9-7.7-.8-.5 2.8-1-.2.9z"/><path id="Path_6916" class="st0" d="m56.7 2.7-.7-.6 2.9-.7-.3.8 1.9 8-.3.8-4.7 1.1-.7-.6-1.9-8-.7-.6 2.8-.5-.3.8 1.9 7.6 2.1-.5-2-7.6z"/><path id="Path_6917" class="st0" d="M67.1 3.2 68.2.3l3-.3-.5.8.6 8.2.7.6-3 .3.5-.8L69 3l-1.6 4.2-2.2-3.9.5 6.1.6.7-2.9.2.5-.8-.6-8.2-.6-.7 2.9-.2 1.5 2.8z"/><path id="Path_6918" class="st0" d="m79.9 9.2 1.3-8.1.6-.6 5.3.9.4.8-1.3 8.1-.7.6-.8-.1v.3l.6.9-2.9-.5.4-.7v-.3l-2.6-.4-.3-.9zm5.7-7L83 1.8l-1.2 7.4 2.7.4 1.1-7.4z"/><path id="Path_6919" class="st0" d="m95.4 4.3-.3-.9 2.8.9-.7.5-2.5 7.8-.7.7-4.6-1.5-.3-.9 2.5-7.8-.3-.9 2.8.9-.7.5-2.4 7.6 2 .7 2.4-7.6z"/><path id="Path_6920" class="st0" d="m98.8 15.2-2.7-1.3 1-.3 6.1-6.5-.2-.5 2.6 1.3-.4.1-1.4 8.8.4 1-2.7-1.3.6-.5.5-3.1-1.6-.8-2.1 2.3-.1.8zm3-3.9 1 .5.3-1.8-1.3 1.3z"/><path id="Path_6921" class="st0" d="m112.8 12.8-4.5 6.5 2 1.4 1.2.5-1.2.8-4.6-3.2.9-.3 4.7-6.7v-.9l2.4 1.7-.9.2z"/><path id="Path_6922" class="st0" d="m119.7 18.1-5.3 6.2-.1.9-2.2-1.9.9-.2 5.3-6.2.1-.9 2.3 1.9-1 .2z"/><path id="Path_6923" class="st0" d="m119.7 29.5-.2.9-2-2.2.9-.1 5.8-5.3-.9-.9-1.1-.7 1-.9 4.8 5.1-1 .9-.7-1.2-.9-.9-5.7 5.3z"/><path id="Path_6924" class="st0" d="m125.4 36.7-.3.9-1.7-2.4h.9l3.4-2.3L130 29l.1-1.1 1.7 2.4-.7.3-1.2 2 2.3-.4.5-.6 1.7 2.4-1.1-.3-4.5.7-3.4 2.3z"/></g><g id="Group_118" transform="translate(0 114.591)"><path id="Path_6925" class="st0" d="M27.5-2.4c.2 1.3.3 2.7.5 4.2s.3 2.9.4 4.1h.2c.1-1.2.2-2.6.3-4.1.1-1.5.2-2.9.3-4.1l1.2-13.8c1.3.2 2.5.4 3.8.6-1.2 11-2.4 22.1-3.7 33.4h-3.7c-.5-5-1.2-10.2-1.8-15.4-.2-1.2-.3-2.6-.5-4.1-.1-1.5-.3-2.9-.4-4.1h-.2c-.1 1.2-.3 2.5-.4 4-.2 1.5-.3 2.8-.5 4-.7 5.2-1.5 10.4-2.2 15.8h-3.7C16 5.8 14.8-6.6 13.6-19.4l3.9.9c.4 5.1.8 10.1 1.3 15.1 0 1.3.2 2.8.3 4.4.1 1.6.2 3.1.2 4.4h.2c.1-1.4.2-2.8.4-4.4.2-1.6.3-3 .5-4.3.6-4.8 1.2-9.6 1.8-14.3 1.2.2 2.4.5 3.6.7.5 4.9 1.1 9.8 1.7 14.5z"/><path id="Path_6926" class="st0" d="M45.9 13.9c0 .7-.1 1.3-.3 1.9-.2.5-.5 1-.9 1.4-.4.4-.8.7-1.3.9-1 .4-2.1.4-3.1 0-.5-.2-.9-.5-1.3-.9s-.7-.9-.9-1.5c-.2-.6-.4-1.3-.4-2 0-5 0-10.1-.1-15.1 0-.7.1-1.3.3-2 .2-.5.5-1 .9-1.4.4-.4.8-.6 1.3-.8.5-.2 1-.2 1.6-.2.5.1 1.1.2 1.5.4.5.2.9.6 1.3 1s.7.9.9 1.5c.2.6.4 1.3.4 1.9.1 5.1.1 10 .1 14.9zm-5.6-.2c0 .5.1 1 .5 1.4.6.6 1.5.6 2.1 0 .4-.4.5-.9.5-1.4 0-4.9 0-9.8-.1-14.7 0-.5-.1-1-.5-1.4-.3-.3-.7-.5-1.1-.5-.4 0-.8.1-1.1.4-.3.4-.5.9-.4 1.3 0 5 0 10 .1 14.9z"/><path id="Path_6927" class="st0" d="M57.5 14c0 .6-.1 1.3-.3 1.9-.2.5-.5 1-.9 1.4-.4.4-.8.7-1.3.8-.5.2-1 .3-1.5.3s-1.1-.1-1.6-.3c-.5-.2-.9-.5-1.3-.9s-.7-.9-.9-1.4c-.2-.6-.4-1.3-.4-1.9 0-4.8 0-9.7-.1-14.5 0-.6.1-1.3.3-1.9.2-.5.5-1 .9-1.3.4-.3.8-.6 1.3-.8.5-.2 1-.2 1.6-.2.5 0 1.1.2 1.5.4.5.2.9.5 1.3.9s.7.9.9 1.4c.2.6.4 1.2.3 1.9.2 4.7.2 9.5.2 14.2zm-5.6-.1c0 .5.1 1 .5 1.4.6.6 1.5.6 2.1 0 .3-.4.5-.8.5-1.3 0-4.7 0-9.4-.1-14.2 0-.5-.1-1-.5-1.3-.3-.3-.7-.5-1.1-.5-.4 0-.8.1-1.1.4-.3.3-.5.8-.5 1.3.1 4.7.1 9.4.2 14.2z"/><path id="Path_6928" class="st0" d="M68.8 14.5c0 2.4-1.1 3.6-3.2 3.6H61c0-7.4 0-14.8-.1-22.3 1.6.1 3.2.2 4.8.2 2 0 3 1.2 3 3.4 0 5.1.1 10.1.1 15.1zm-3.6 1.1c.5.1 1-.3 1.1-.8V-.7c.1-.4-.2-.7-.6-.8h-2v17.1h1.5z"/><path id="Path_6929" class="st0" d="M81 5.1c.1.8.2 1.7.3 2.7.1 1 .2 1.8.3 2.6h.1c.1-.8.1-1.7.2-2.6.1-1 .2-1.9.3-2.7.3-3 .6-6 1-9 .9 0 1.9-.1 2.8-.1-.9 7.4-1.9 14.8-2.8 22.2h-2.7c-.5-3.3-.9-6.5-1.4-9.8-.1-.8-.2-1.6-.3-2.5-.1-.9-.2-1.8-.3-2.5h-.1c-.1.8-.2 1.6-.3 2.5-.1.9-.2 1.8-.4 2.6-.5 3.3-1.1 6.5-1.6 9.8h-2.7c-.9-7.3-1.7-14.7-2.6-22h2.8l.9 9c.1.8.2 1.7.3 2.6.1 1 .1 1.8.2 2.7h.1c.1-.8.2-1.7.3-2.7.1-1 .2-1.8.3-2.6.4-3 .9-6 1.3-9h2.6c.6 2.8 1 5.8 1.4 8.8z"/><path id="Path_6930" class="st0" d="M96.4 14c0 .6-.1 1.3-.4 1.9-.2.5-.5 1-.9 1.4-.4.4-.8.7-1.3.9-.5.2-1 .3-1.5.3s-1.1-.1-1.6-.3c-.5-.2-.9-.5-1.3-.9s-.7-.9-.9-1.4c-.2-.6-.4-1.2-.3-1.9V-.1c0-.6.1-1.3.3-1.9.2-.5.5-1 .9-1.4.4-.4.8-.7 1.3-.9.5-.2 1-.3 1.6-.4.5 0 1 0 1.5.2s.9.4 1.3.8.7.8.9 1.3c.2.6.4 1.2.3 1.9.1 4.8.1 9.7.1 14.5zm-5.7-.1c0 .5.1 1 .5 1.3.3.3.7.4 1.1.4.4 0 .8-.2 1.1-.4.4-.4.5-.9.5-1.4L94-.4c0-.5-.1-1-.5-1.3-.3-.3-.7-.4-1.1-.4-.4 0-.8.2-1.1.5-.3.4-.5.8-.5 1.3 0 4.9 0 9.6-.1 14.2z"/><path id="Path_6931" class="st0" d="M108.3 15.6c0 .9 0 1.8.1 2.5h-2.7c-.1-.6-.1-1.4-.1-2.4V7.3c0-.3-.2-.5-.5-.5-.9 0-1.8.1-2.7.1 0 3.7 0 7.4-.1 11.1h-2.7c0-7.6.1-15.3.1-22.9 1.7-.1 3.4-.3 5.1-.4 1.7-.2 2.6.8 2.6 2.8v5.9c0 .4-.1.9-.3 1.2.4.1.7.4.9.7.3.4.4.9.4 1.4-.1 3.1-.1 6-.1 8.9zm-5.8-18v6.9l2-.1c.3 0 .5-.2.5-.5V-2c0-.3-.2-.5-.5-.5-.7 0-1.3.1-2 .1z"/><path id="Path_6932" class="st0" d="M117.1 3.8h.5c.7-.1 1.5.1 2.1.6.5.6.8 1.3.7 2.1v8.9c0 1 0 1.9.1 2.7h-2.7c-.1-.7-.1-1.5-.1-2.5V7.1c0-.5-.2-.7-.6-.7-.8 0-1.7.1-2.5.1l-.1 11.5h-2.7c0-8 .1-16 .1-24l2.7-.3V3.8c1-3.4 2-6.9 3.1-10.5l2.7-.3c-1.1 3.7-2.2 7.3-3.3 10.8z"/><path id="Path_6933" class="st0" d="M127.8-4c2.2.4 4.5.8 6.7 1.2v14c0 2.4-.4 4.2-1.3 5.5-.8 1.2-2.2 1.9-4.2 1.9-1.5.1-2.9-.6-3.8-1.7-.9-1.2-1.3-2.9-1.3-5.1 0-2 .1-3.5.1-4.5 1.2-.1 2.3-.1 3.5-.2-.1 1-.1 2.5-.1 4.7 0 1.7.6 2.6 1.8 2.6 1.1 0 1.6-.9 1.6-2.7V1.1c-2.2-.5-4.4-1-6.7-1.5v-10.8c-.1-1.8.5-3.5 1.5-5 .9-1.2 2.3-2 3.8-2.3.7-.2 1.4-.2 2 0 .6.1 1.2.4 1.7.9s.9 1.1 1.1 1.8c.3.9.4 1.9.4 2.8 0 1.5 0 2.7-.1 3.6-1.2.2-2.3.4-3.5.6.1-.8.1-1.9.1-3.3 0-1.5-.6-2.1-1.7-1.9-1.1.2-1.6 1-1.6 2.5V-4z"/></g></g></svg>