<svg version="1.1" id="Group_145" xmlns="http://www.w3.org/2000/svg" x="0" y="0" viewBox="0 0 150 150" style="enable-background:new 0 0 150 150" xml:space="preserve"><style>.st1{fill:#2c1e18}</style><g id="Emblems"><g id="Group_141"><g id="Group_136"><path id="Path_7039" d="m143.7 84.9-.8-6.1c-.2-1.2.7-2.4 2-2.5.4-.1.8 0 1.2.2l3.9 1.7s-.2-6.2-3.7-8.3c-.8-.5-1.5-1-2.2-1.6l-2.2-5.7c-.5-1.2.1-2.5 1.3-2.9.4-.1.8-.2 1.2-.1l4.2.7s-1.7-5.9-5.6-7.2c-.8-.3-1.7-.6-2.5-1l-3.5-5c-.7-1-.5-2.4.6-3.2.3-.2.7-.4 1.1-.4l4.2-.3s-3.1-5.3-7.2-5.7c-.9-.1-1.8-.2-2.6-.4l-4.6-4c-.9-.8-1-2.3-.2-3.2.3-.3.6-.5 1-.7l4-1.3s-4.3-4.4-8.3-3.8c-.9.1-1.8.2-2.7.2l-5.5-2.8c-1.1-.6-1.6-2-1-3.1.2-.4.5-.7.8-.9l3.6-2.3s-5.2-3.3-9-1.7c-.8.3-1.7.6-2.5.9l-6-1.4c-1.2-.3-2-1.5-1.7-2.7.1-.4.3-.8.6-1.1l3-3.1s-5.8-2-9.1.5c-.7.5-1.5 1-2.2 1.4H87c-1.3 0-2.3-1-2.3-2.3 0-.4.1-.8.3-1.2L87.1.8S81 .3 78.4 3.5c-.6.7-1.2 1.3-1.8 1.9l-6 1.5c-1.2.3-2.5-.4-2.8-1.6-.1-.4-.1-.8 0-1.2L69 0s-6.1 1-7.8 4.7c-.4.8-.8 1.6-1.3 2.3l-5.4 2.9c-1.1.6-2.5.2-3.1-.9-.2-.4-.3-.8-.3-1.2l.2-4.3s-5.7 2.4-6.5 6.4c-.2.9-.4 1.7-.7 2.6l-4.6 4.1c-.9.8-2.4.8-3.2-.2-.3-.3-.5-.7-.5-1.1l-.8-3.8s-4.9 3.7-4.8 7.8c0 .9 0 1.8-.1 2.7l-3.5 5.1c-.7 1-2.1 1.3-3.2.6-.3-.2-.6-.5-.8-.9L20.8 23s-3.9 4.8-2.7 8.7c.2.9.4 1.7.6 2.6L16.6 40c-.4 1.2-1.7 1.8-2.9 1.3-.4-.1-.7-.4-1-.7L10 37.4s-2.6 5.6-.6 9.1l1.2 2.4-.7 6.1c-.1 1.2-1.3 2.1-2.5 2-.4 0-.8-.2-1.1-.4L2.9 54s-1.2 6 1.6 9c.6.6 1.2 1.3 1.7 2.1l.8 6.1c.2 1.2-.7 2.4-2 2.5-.4.1-.8 0-1.2-.2L0 71.9s.2 6.2 3.7 8.3c.8.5 1.5 1 2.2 1.6l2.2 5.7c.5 1.2-.1 2.5-1.3 3-.4.1-.8.2-1.2.1l-4.2-.7s1.7 5.9 5.6 7.2c.8.3 1.7.6 2.5 1l3.5 5c.7 1 .5 2.4-.6 3.2-.3.2-.7.4-1.1.4l-4.2.3s3.1 5.3 7.2 5.7c.9.1 1.8.2 2.6.4l4.6 4c.9.8 1 2.3.2 3.2-.3.3-.6.5-1 .7l-4 1.3s4.3 4.4 8.3 3.8c.9-.1 1.8-.2 2.7-.2l5.5 2.8c1.1.6 1.6 1.9 1 3.1-.2.4-.5.7-.8.9l-3.6 2.3s5.2 3.3 9 1.7c.8-.3 1.7-.6 2.5-.9l6 1.4c1.2.3 2 1.5 1.7 2.7-.1.4-.3.8-.6 1.1l-3 3.1s5.8 2 9.1-.5c.7-.5 1.5-1 2.2-1.4l6.3-.2c1.3 0 2.3 1 2.3 2.3 0 .4-.1.8-.3 1.2l-2.1 3.7s6.1.5 8.7-2.7c.6-.7 1.2-1.3 1.8-1.9l6-1.5c1.2-.3 2.5.4 2.8 1.6.1.4.1.8 0 1.2L81 150s6.1-1 7.8-4.7c.4-.8.8-1.6 1.3-2.3l5.4-2.9c1.1-.6 2.5-.2 3.1.9.2.4.3.8.3 1.2l-.2 4.3s5.7-2.4 6.5-6.4c.2-.9.4-1.7.7-2.6l4.6-4.1c.9-.8 2.4-.8 3.2.2.3.3.5.7.5 1.1l.8 4.2s4.9-3.7 4.8-7.8c0-.9 0-1.8.1-2.7l3.5-5.1c.7-1 2.1-1.3 3.2-.6.3.2.6.5.8.9l1.8 3.8s3.9-4.8 2.7-8.7c-.2-.9-.4-1.7-.6-2.6l2.1-5.8c.4-1.2 1.7-1.8 2.9-1.3.4.1.7.4 1 .7l2.7 3.3s2.6-5.6.6-9.1l-1.2-2.4.6-6.5c.1-1.2 1.3-2.1 2.5-2 .4 0 .8.2 1.1.4L147 96s1.2-6-1.6-9c-.6-.6-1.1-1.3-1.7-2.1z" style="fill:#e6dfcf"/><path id="Path_7040" class="st1" d="M75 138.2c-34.9 0-63.2-28.3-63.2-63.2 0-34.9 28.3-63.2 63.2-63.2s63.2 28.3 63.2 63.2c0 34.9-28.3 63.2-63.2 63.2zm0-125.4c-34.4 0-62.2 27.9-62.2 62.2s27.9 62.2 62.2 62.2 62.2-27.9 62.2-62.2c0-34.4-27.8-62.2-62.2-62.2z"/></g><g id="Group_138" transform="translate(59.72 38.851)"><g id="Group_137" transform="translate(3.218)"><path id="Path_7041" class="st1" d="M19.5 23.4c-.6-.7-.6-.6-1.2-1.3-.6-.7-.7-.4-1.3-1-.6-.7-1.2-.5-1-1.5.2-.9.6.2 1.3.4l1.4.4c.7.2 1.2 1.5 1.4.6.2-.9-.6-.7-1.1-1.4-.6-.7-.7-.4-1.3-1.1s-.4-1-1-1.6c-.6-.7-1.2-.2-1-1.1.2-.9.5 0 1.1.3.7.2.7 0 1.4.3.7.2 1.2 1.7 1.4.8.2-.9-.6-.6-1.2-1.3s-.6-.7-1.2-1.3-.5-.8-1.1-1.5c-.6-.7-1.5-.3-1.3-1.3.2-.9.8.1 1.5.3s.7.1 1.4.4c.7.2 1.3 1.8 1.5.9.2-.9-.7-.9-1.3-1.5-.6-.7-.6-.6-1.2-1.2-.6-.7-.5-.8-1.1-1.5-.6-.7-1.5-.2-1.2-1.1.2-.9.7-.1 1.4.1s.6.9 1.3 1.1 1.4 1.2 1.6.3c.2-.9-.8-.7-1.4-1.4S16.6 7.7 16 7c-.6-.7-.4-1-1.1-1.5-.7-.5-1.3-.4-1-1.3.2-.9.6.2 1.3.4s.7 0 1.4.3c.7.2 1.1 1.6 1.3.7s-.9-.7-1.5-1.4-.7-.4-1.3-1.1c-.6-.6-.4-1-1-1.6S13.6.7 13 .1c-.6-.6-.6-.6-1.2-1.3l-1.2-1.2c-.6-.6-.7-.3-1.2-1S8.7-4 8.2-4.6s-.3-1.5-1-1.3-.6.3-1 1.1-.3.9-.6 1.7c-.4.8-.3.8-.7 1.6s-.3.8-.7 1.6-.1 1-.5 1.8-.4.7-.7 1.5-.6.5-1 1.3-.3.9-.7 1.7-1 .9-.5 1.7.4-.7 1-1.1.6-.5 1.2-1c.6-.4.9-1.4 1.4-.6.5.8-.2 1.1-.6 1.9s-.6.6-1 1.4-.2 1-.5 1.8c-.4.8-1.4.6-.9 1.5.5.8.5-.6 1.1-1s.7-.1 1.3-.5.6-1.9 1-1.1c.5.8-.3.8-.7 1.6s-.1 1-.5 1.8-.5.7-.9 1.5-1.2.7-.7 1.5.5-.3 1.1-.7.7-.3 1.2-.7c.6-.4.5-1.8 1-1s-.2.8-.5 1.6-.4.8-.7 1.6c-.4.8-.2.9-.6 1.7-.4.8-1.4.6-.9 1.4.5.8.5-.5 1.1-1s.7-.1 1.3-.5.5-1.9 1-1.1c.5.9-.1.9-.5 1.7s-.6.6-.9 1.4l-.8 1.6c-.4.8-1.1.9-.6 1.7.5.8.4-.7 1-1.1s.6-.3 1.2-.8.7-1.4 1.2-.6c.5.8-.1.9-.5 1.7-.3.8-.7.5-1.1 1.3-.4.8-.2 1-.6 1.8s-1.3 1-.7 1.8c.6.8.7-.6 1.3-1 .6-.5.5-.8 1.1-1.3s.7-.4 1.3-.8c.6-.5.7-.4 1.3-.8.6-.5.6-1.5 1.3-1 .7.6.2 1.2.4 2.3s.3 1.1.4 2.2-.2 1.2-.1 2.3c.2 1.1-.2 1.8.4 2.5.7.7.9-.6 1.6-.7.8-.1 1.1.8 1.5-.1.4-.9-.1-1.1-.2-2.2-.2-1.1-.2-1.1-.3-2.2-.2-1.1-.1-1.1-.3-2.2-.2-1.1-.9-1.4-.4-2.1.5-.7.7.1 1.4.3.7.3.7.4 1.5.7.7.3.8-.1 1.5.1s.7.9 1.4 1.1 1.3 1.3 1.7.4c.5-1-.5-1.1-1-1.7z"/><path id="Path_7042" class="st1" d="m24.5 17.2.8.2c.4.1.8 1.1.9.5.1-.6-.4-.5-.8-.9s-.4-.3-.7-.7c-.3-.4-.3-.5-.7-.9-.4-.4-.9-.1-.7-.7.1-.5.4-.1.8.1.4.1.4.5.8.7.4.1.8.7 1 .2.1-.6-.5-.4-.8-.8-.3-.4-.4-.3-.7-.7-.3-.4-.3-.6-.6-.9-.4-.3-.7-.2-.6-.8.1-.5.3.1.7.2.4.1.4 0 .8.2.4.1.7.9.8.4.1-.5-.3-.4-.7-.7-.3-.4-.4-.3-.7-.6-.3-.4-.2-.6-.6-1s-.3-.5-.6-.9-.4-.4-.7-.7-.5-.4-.8-.8-.4-.2-.8-.6c-.3-.4-.4-.4-.7-.7s-.2-.9-.6-.8-.4.2-.6.7l-.4 1-.4 1c-.2.5-.2.5-.4.9-.2.5-.1.6-.3 1.1s-.2.4-.5.9-.4.3-.6.8l-.4 1c-.2.5-.6.6-.3 1 .3.5.3-.4.6-.7.3-.3.3-.3.7-.5s.5-.8.8-.4-.1.7-.3 1.1c-.2.5-.4.3-.6.8-.2.5-.1.6-.3 1.1s-.8.4-.5.9c.3.5.3-.3.6-.6s.4 0 .8-.3c.3-.3.3-1.1.6-.7.3.5-.2.5-.4 1s-.1.6-.3 1.1c-.2.5-.3.4-.5.9s-.7.4-.4.9.3-.2.7-.4c.3-.3.4-.2.7-.4s.3-1 .6-.6c.3.5-.1.5-.3.9s-.2.5-.4 1-.1.6-.4 1-.8.3-.5.8c.3.5.3-.3.7-.6.3-.3.4 0 .8-.3.3-.3.3-1.1.6-.6.3.5-.1.5-.3 1-.2.5-.3.4-.6.8-.2.5-.2.5-.5.9-.2.5-.6.5-.3 1s.3-.4.6-.7c.3-.3.4-.2.7-.5.3-.3.4-.8.7-.4.3.5-.1.5-.3 1-.2.5-.4.3-.7.7-.2.5-.1.6-.3 1.1-.2.5-.8.6-.4 1 .3.4.4-.3.8-.6s.3-.5.7-.7.4-.2.8-.5.4-.2.8-.5.4-.9.8-.6c.4.3.1.7.2 1.4s.2.6.3 1.3c.1.7.1 2.4.2 3.1.1.7-.1 1 .3 1.5.4.4.5-.3 1-.4s.7.5.9 0c.2-.5 0-.7-.1-1.3-.1-.7-.4-2.4-.5-3-.1-.7-.1-.7-.2-1.3s-.6-.8-.3-1.3c.3-.4.4 0 .9.2.4.2.4.2.9.4s.5-.1.9.1.4.5.8.7c.4.2.8.8 1 .2.2-.5-.4-.5-.7-.9-.3-.4-.4-.4-.7-.8-.4-.4-.4-.2-.8-.6-.4-.4-.7-.3-.6-.9.1-.5.3.1.8.2l.8.2c.4.1.7.9.8.3.1-.6-.3-.4-.7-.8-.3-.4-.4-.2-.8-.6s-.3-.6-.6-1c-.4-.4-.7-.1-.6-.6.1-.5.3 0 .7.2.4.1.4 0 .8.2.4.1.7 1 .8.5.1-.6-.4-.4-.7-.8-.4-.4-.3-.4-.7-.8-.4-.4-.3-.5-.7-.9-.4-.4-.9-.2-.8-.7 0-.6.3 0 .7.1z"/><path id="Path_7043" class="st1" d="m30.7 20.4.6.2c.3.1.6.8.7.4s-.3-.4-.6-.7l-.6-.6c-.3-.3-.2-.4-.5-.7-.3-.3-.7-.1-.6-.5.1-.4.3-.1.6 0s.3.4.6.5c.3.1.6.6.7.1s-.4-.3-.6-.6c-.3-.3-.3-.2-.6-.5s-.2-.5-.5-.7c-.3-.2-.6-.2-.5-.6.1-.4.3.1.6.2s.3 0 .6.1.5.7.6.3-.3-.3-.5-.6c-.3-.3-.3-.2-.6-.5s-.2-.4-.4-.7c-.3-.3-.2-.4-.5-.7-.3-.3-.3-.3-.5-.6-.3-.3-.3-.3-.5-.6-.3-.3-.3-.1-.6-.4-.3-.3-.3-.3-.5-.6-.3-.3-.1-.7-.4-.6-.3 0-.3.2-.4.5-.2.4-.1.4-.3.7s-.1.4-.3.7-.2.4-.3.7 0 .5-.2.8c-.2.4-.2.3-.3.7-.2.4-.3.2-.4.6s-.1.4-.3.7-.5.4-.2.8c.2.3.2-.3.5-.5s.3-.2.5-.4c.3-.2.4-.6.6-.3.2.4-.1.5-.3.9-.2.4-.3.3-.4.6-.2.4-.1.5-.2.8s-.6.3-.4.7c.2.4.2-.3.5-.5s.3 0 .6-.2.3-.9.5-.5-.1.4-.3.7-.1.4-.2.8c-.2.4-.2.3-.4.7-.2.4-.5.3-.3.7.2.4.2-.1.5-.3.3-.2.3-.1.6-.3.3-.2.2-.8.4-.4s-.1.3-.2.7c-.2.4-.2.4-.3.7-.2.4-.1.4-.3.8-.2.4-.6.3-.4.6.2.4.2-.2.5-.4s.3 0 .6-.2.2-.8.4-.5c.2.4-.1.4-.2.7s-.3.3-.4.6-.2.3-.3.7-.5.4-.3.8.2-.3.5-.5.3-.1.5-.3c.3-.2.3-.6.5-.3.2.4 0 .4-.2.8s-.3.2-.5.6c-.2.4-.1.4-.3.8-.2.4-.6.5-.3.8.3.3.3-.2.6-.5s.2-.4.5-.6l.6-.4.6-.4c.3-.2.3-.7.6-.4.3.3.1.5.2 1l.2 1c.1.5 0 1.5.1 2s0 .6.3 1c.3.3.4-.3.7-.3.3-.1.5.4.7 0 .2-.4-.1-.4-.2-.9s-.2-1.4-.3-1.9-.1-.5-.1-1-.4-.6-.2-1c.2-.3.3 0 .7.1.3.1.3.2.7.3.3.1.4-.1.7.1s.3.4.6.5c.3.1.6.6.7.2.1-.4-.3-.4-.6-.7s-.3-.3-.5-.6c-.3-.3-.3-.2-.6-.5s-.5-.2-.4-.7c.1-.4.3.1.6.2l.6.2c.3.1.5.7.6.3.1-.4-.3-.3-.5-.6-.3-.3-.3-.2-.6-.5s-.2-.4-.5-.7-.5-.1-.4-.5c.1-.4.2 0 .5.1s.3 0 .6.1.5.8.6.4-.3-.3-.6-.6-.3-.3-.5-.6c-.3-.3-.2-.4-.5-.7s-.7-.1-.6-.6c-.3-.1-.1.4.3.5z"/><path id="Path_7044" class="st1" d="M-4.6 28.5c.2.1.2 0 .5.1.2.1.5.6.5.3.1-.3-.2-.3-.4-.5l-.4-.4c-.2-.2-.2-.3-.4-.5s-.5-.1-.4-.4c.1-.3.2 0 .5 0 .2.1.2.3.5.4s.5.4.6.1c.1-.3-.3-.3-.5-.5l-.4-.4c-.2-.2-.1-.4-.4-.5-.2-.2-.4-.1-.4-.5.1-.3.2.1.4.1.2.1.2 0 .5.1.2.1.4.5.5.2.1-.3-.2-.2-.4-.4l-.4-.4c-.2-.2-.1-.3-.3-.6-.2-.2-.2-.3-.4-.5l-.4-.4-.4-.4c-.2-.2-.3-.1-.5-.3l-.4-.4c-.2-.2-.1-.5-.3-.5s-.2.1-.3.4l-.2.6-.2.6c-.1.3-.1.3-.2.5-.1.3 0 .4-.2.6s-.1.3-.3.5c-.1.3-.2.2-.3.5l-.2.6c-.1.3-.4.3-.2.6s.2-.2.4-.4.2-.2.4-.3c.2-.1.3-.5.5-.2s-.1.4-.2.7c-.6.2-.6.1-.8.4l-.2.6c-.1.3-.5.2-.3.5s.2-.2.4-.3c.2-.2.3 0 .5-.2s.2-.7.4-.4-.1.3-.2.6l-.2.6c-.2.3-.3.3-.4.5s-.4.2-.2.5.2-.1.4-.3.2-.1.4-.2c.2-.2.2-.6.3-.3.2.3-.1.3-.2.5l-.2.6-.2.6c-.1.3-.5.2-.3.5s.2-.2.4-.3c.2-.2.3 0 .5-.2.2-.1.2-.6.3-.4.2.3-.1.3-.2.6s-.2.2-.3.5c-.1.3-.1.3-.3.5-.2.3-.4.4-.2.7.2.3.2-.2.4-.4s.2-.1.4-.3c.2-.2.2-.5.4-.2s0 .3-.2.6c-.1.3-.3.2-.4.4l-.2.6c-.1.3-.5.4-.3.6.2.2.2-.2.5-.4.2-.2.2-.3.4-.4s.2-.1.5-.3c.2-.2.2-.1.4-.3.2-.2.2-.5.5-.3.2.2.1.4.1.8l.2.8c.1.4-.1.4 0 .8s.1 1.5.3 1.7c.2.2.3-.2.6-.2s.4.3.5 0c.1-.3-.2-1.3-.2-1.6-.1-.4-.1-.4-.1-.8-.1-.4 0-.4-.1-.8s-.3-.5-.1-.7c.2-.3.2 0 .5.1s.3.1.5.2c.3.1.3 0 .5 0 .3.1.2.3.5.4.3.1.5.4.6.1.1-.3-.2-.3-.4-.6l-.4-.4c-.2-.2-.3-.1-.5-.4-.2-.2-.4-.2-.3-.5s.2.1.4.1c.2.1.2.1.5.1.2.1.4.5.5.2.1-.3-.2-.2-.4-.5-.2-.2-.3-.1-.5-.4-.2-.2-.2-.3-.4-.6s-.4-.1-.3-.4c.1-.3.2 0 .4.1s.2 0 .5.1c.2.1.4.6.5.3.1-.3-.2-.2-.4-.4s-.2-.2-.4-.5c-.2-.2-.2-.3-.4-.5s-.5-.1-.5-.4c-.1-.1.1.2.3.3z"/><path id="Path_7045" class="st1" d="M8.6 25.7c.2.1.2 0 .5.1s.5.6.5.3c.1-.3-.2-.3-.4-.5l-.4-.4c-.2-.2-.2-.3-.4-.5s-.5-.1-.4-.4c.1-.3.2 0 .5 0 .2.1.2.3.5.4.2.1.5.4.6.1.1-.3-.3-.3-.5-.5l-.4-.4c-.2-.2-.1-.4-.4-.5-.2-.2-.4-.1-.4-.5.1-.3.2.1.4.1.2.1.2 0 .5.1.2.1.4.5.5.2s-.2-.2-.4-.4l-.4-.4c-.2-.2-.4-.3-.6-.5-.2-.2-.2-.3-.4-.5l-.4-.4-.4-.4c-.2-.2-.3-.1-.5-.3l-.4-.4c-.2-.2-.1-.5-.3-.5-.2 0-.2.1-.3.4s-.1.2-.2.5-.1.3-.3.6-.1.3-.3.5 0 .4-.2.6-.1.3-.3.5c-.1.3-.2.2-.3.5l-.2.6c0 .3-.3.3-.1.6.2.3.1-.2.4-.4.2-.2.2-.2.4-.3.2-.1.3-.5.5-.2s-.1.4-.2.7c-.1.3-.2.2-.3.5l-.2.6c-.1.3-.5.2-.3.5s.2-.2.4-.3c.2-.2.3 0 .5-.2.2-.1.2-.7.4-.4 0 .2-.3.2-.4.5l-.2.6c-.1.3-.2.2-.3.5-.1.3-.4.2-.2.5s.2-.1.4-.3l.4-.2c.2-.2.2-.6.3-.3s-.1.3-.2.5c-.1.3-.1.3-.3.6s-.1.3-.2.6-.5.2-.3.5.2-.2.4-.3c.2-.2.3 0 .5-.2.2-.1.2-.6.3-.4s0 .3-.2.6c-.1.3-.2.2-.3.5-.1.3-.1.3-.3.5-.1.3-.4.3-.2.6s.2-.2.4-.4.2-.1.4-.3c.2-.2.2-.5.4-.2s0 .3-.2.6c-.1.3-.3.2-.4.4s-.1.3-.2.6-.5.4-.3.6c.2.2.2-.2.5-.4.3 0 .3-.1.5-.3s.2-.1.5-.3.2-.1.4-.3c.2-.2.2-.5.5-.3.2.2.1.4.1.8s.1.4.2.8-.1.4 0 .8-.2.6.1.8c.2.2.3-.2.6-.2s.4.3.5 0c.1-.3-.1-.4-.1-.8s-.1-.4-.1-.8c-.1-.4 0-.4-.1-.8s-.3-.5-.1-.7c.2-.3.2 0 .5.1s.3.1.5.2.3 0 .5 0c.3.1.2.3.5.4.3.1.5.4.6.1.1-.3-.2-.3-.4-.6l-.4-.4c-.2-.2-.3-.1-.5-.4-.2-.2-.4-.2-.3-.5.1-.3.2.1.4.1.2.1.2.1.5.1.2.1.4.5.5.2s-.2-.2-.4-.5c-.2-.2-.3-.1-.5-.4l-.4-.6c-.2-.2-.4-.1-.3-.4s.2 0 .4.1.2 0 .5.1.4.6.5.3-.4.1-.6-.1c-.2-.2-.2-.2-.4-.5s-.2-.3-.4-.5-.5-.1-.5-.4.3 0 .6.1z"/><path id="Path_7046" class="st1" d="M34.2 21.7c.2.1.2 0 .4.1s.4.4.4.2c.1-.2-.2-.2-.3-.4l-.3-.3c-.2-.2-.1-.2-.3-.4s-.4 0-.3-.3.2 0 .4 0c.2.1.2.2.4.3s.4.3.4.1c.1-.2-.2-.2-.4-.4s-.2-.1-.3-.3c-.3-.2-.3-.3-.4-.4s-.3-.1-.3-.4c.1-.3.2 0 .3.1.2.1.2 0 .4.1s.3.4.4.2c.1-.2-.2-.2-.3-.3-.2-.2-.2-.1-.3-.3s-.1-.3-.3-.4c-.2-.2-.1-.2-.3-.4l-.3-.3-.3-.3c-.2-.2-.2-.1-.4-.3l-.3-.3c-.1-.1-.1-.4-.3-.4-.2 0-.2.1-.3.3l-.2.4-.2.4-.2.4c-.1.2 0 .3-.1.5l-.2.4c-.1.2-.2.1-.3.4l-.2.4c-.1.2-.3.3-.1.5s.1-.2.3-.3.2-.1.3-.3c.2-.1.2-.4.4-.2.1.2-.1.3-.2.5s-.2.2-.3.4c-.1.2 0 .3-.1.5s-.4.2-.2.4c.1.2.1-.2.3-.3.2-.1.2 0 .4-.1s.2-.5.3-.3-.1.2-.2.4 0 .3-.1.5l-.2.4c-.1.2-.3.2-.2.4.1.2.1-.1.3-.2.2-.1.2-.1.3-.2s.1-.5.3-.3c.1.2 0 .2-.1.4l-.2.4c-.1.2-.1.3-.2.5s-.4.2-.3.4c.1.2.1-.1.3-.3.2-.1.2 0 .4-.1s.1-.5.3-.3c.1.2 0 .2-.1.4s-.2.2-.3.4l-.2.4c-.1.2-.3.2-.2.5.1.2.1-.2.3-.3.2-.1.2-.1.3-.2.2-.1.2-.4.3-.2.1.2 0 .2-.1.5-.1.2-.2.1-.3.3-.1.2-.1.3-.1.5-.1.2-.4.3-.2.5s.2-.1.4-.3c.2-.1.1-.2.3-.3l.4-.2.4-.2c.2-.1.2-.4.4-.3s.1.3.1.6.1.3.1.6-.1.3 0 .6c.1 1.2.3 2.5.6 3.7.2.2.2-.2.4-.2s.3.2.4 0c-.1-1.2-.3-2.4-.5-3.6 0-.3 0-.3-.1-.6 0-.3 0-.3-.1-.6 0-.3-.3-.4-.1-.6.1-.2.2 0 .4.1l.4.2c.2.1.2 0 .4 0 .2.1.2.2.4.3.2.1.4.3.4.1.1-.2-.2-.3-.3-.4l-.3-.3c-.2-.2-.2-.1-.4-.3-.2-.2-.3-.1-.3-.4.1-.3.2 0 .3.1.2.1.2 0 .4.1s.3.4.4.2-.1-.2-.3-.4c-.2-.2-.2-.1-.4-.3-.2-.2-.1-.3-.3-.4s-.3 0-.3-.3.1 0 .3.1c.2.1.2 0 .4.1s.3.5.4.2c.1-.2-.2-.2-.3-.4-.2-.2-.2-.2-.3-.4-.2-.2-.1-.2-.3-.4-.2-.2-.4-.1-.4-.3s0 .1.1.2z"/><path id="Path_7047" class="st1" d="M-1.1 27.2c.2.1.2 0 .4.1s.4.5.4.2-.2-.2-.3-.4-.2-.2-.3-.3-.1-.2-.3-.4c-.2-.2-.4 0-.3-.3.1-.3.2 0 .4 0s.2.2.4.3c.2.1.4.3.4.1s-.2-.2-.4-.4-.2-.1-.3-.3-.1-.3-.3-.4c-.2-.1-.3-.1-.3-.4.1-.3.2 0 .3.1s.2 0 .4.1.3.4.4.2-.4-.2-.5-.4c-.2-.2-.2-.1-.3-.3-.2-.2-.1-.3-.3-.4-.2-.2-.1-.2-.3-.4l-.3-.3-.3-.3c-.2-.2-.2-.1-.4-.3l-.3-.3c-.2-.2-.1-.4-.3-.4s-.2.1-.3.3l-.2.4c0 .3 0 .3-.1.5l-.2.4c-.1.2 0 .3-.1.5l-.2.4c-.1.2-.2.1-.3.4l-.2.4c-.1.2-.3.3-.1.5s.1-.2.3-.3c.2-.1.2-.1.3-.3.2-.1.2-.4.4-.2.1.2-.1.3-.2.5s-.2.2-.3.4c-.1.2 0 .3-.1.5s-.4.2-.2.4c.1.2.1-.2.3-.3.2-.1.2 0 .4-.1s.2-.5.3-.3c.1.2-.1.2-.2.4s0 .3-.1.5l-.2.4c-.3.3-.5.2-.4.5.1.2.1-.1.3-.2s.2-.1.3-.2.1-.5.3-.3c.1.2 0 .2-.1.4l-.2.4c-.1.2-.1.3-.2.5s-.4.2-.3.4c.1.2.1-.1.3-.3s.2 0 .4-.1.1-.5.3-.3c.1.2 0 .2-.1.4s-.2.2-.3.4l-.2.4c-.1.3-.3.3-.2.6.1.2.1-.2.3-.3s.2-.1.3-.2c.2-.1.2-.4.3-.2.1.2 0 .2-.1.5s-.2.1-.3.3-.1.3-.1.5c-.1.2-.4.3-.2.5s.2-.1.4-.3c.2-.1.1-.2.3-.3l.4-.2.4-.2c.2-.1.2-.4.4-.3s.1.3.1.6.1.3.1.6.3 2.6.3 2.9c0 .3-.1.5.1.7s.2-.2.4-.2.3.2.4 0c.1-.2 0-.3-.1-.6s-.4-2.5-.4-2.8c0-.3 0-.3-.1-.6 0-.3-.3-.4-.1-.6.1-.2.2 0 .4.1l.4.2c.2.1.2 0 .4 0s.2.2.4.3.4.3.4.1-.2-.4-.4-.6l-.3-.3c-.2-.2-.2-.1-.4-.3s-.3-.1-.3-.4c.1-.3.2 0 .3.1s.2 0 .4.1.3.4.4.2-.1-.2-.3-.4c-.2-.2-.2-.1-.4-.3s-.1-.3-.3-.4c-.2-.2-.3 0-.3-.3.1-.3.1 0 .3.1s.2 0 .4.1.3.5.4.2c.1-.2-.2-.2-.3-.4-.1-.2-.1-.2-.3-.4s-.1-.2-.3-.4c-.2-.2-.4-.1-.4-.3.1-.3.3 0 .5.1z"/><path id="Path_7048" class="st1" d="M19.4 22.2c.2.1.2 0 .5.1.2.1.5.6.5.3.1-.3-.2-.3-.4-.5l-.4-.4c-.2-.2-.2-.3-.4-.5s-.5-.1-.4-.4c.1-.3.2 0 .5 0 .2.1.2.3.5.4.2.1.5.4.6.1.1-.3-.3-.3-.5-.5l-.4-.4c-.2-.2-.1-.4-.4-.5-.2-.2-.4-.1-.4-.5s.2.1.4.1.2 0 .5.1c.2.1.4.5.5.2.1-.3-.2-.2-.4-.4l-.4-.4c-.2-.2-.1-.3-.3-.6s-.2-.3-.4-.5l-.4-.4-.4-.4c-.2-.2-.3-.1-.5-.3l-.4-.4c-.2-.2-.1-.5-.3-.5s-.2.1-.3.4l-.2.6-.2.6c-.1.3-.1.3-.3.5-.1.3 0 .4-.2.6s-.1.3-.3.5c-.1.3-.2.2-.3.5l-.2.6c-.1.3-.4.3-.2.6s.2-.2.4-.4.2-.2.4-.3c.2-.1.3-.5.5-.2s-.1.4-.2.7c-.1.3-.2.2-.3.5l-.2.6c-.1.3-.5.2-.3.5s.2-.2.4-.3c.2-.2.3 0 .5-.2s.2-.7.4-.4c.2.3-.1.3-.2.6l-.2.6c-.1.3-.2.2-.3.5-.1.3-.4.2-.2.5s.2-.1.4-.3.2-.1.4-.2.2-.6.3-.3c.2.3-.1.3-.2.5-.1.3-.1.3-.3.6l-.2.6c-.1.3-.5.2-.3.5s.2-.2.4-.3.3 0 .5-.2c.2-.1.2-.6.3-.4s-.1.3-.2.6-.2.2-.3.5-.1.3-.3.5c-.1.3-.4.3-.2.6s.2-.2.4-.4.2-.1.4-.3.2-.5.4-.2 0 .3-.2.6c-.1.3-.3.2-.4.4s-.1.3-.2.6-.5.4-.3.6c.2.2.2-.2.5-.4.2-.2.2-.3.4-.4.2-.2.2-.1.5-.3s.2-.1.4-.3c.2-.2.2-.5.5-.3.2.2.1.4.1.8l.2.8c.1.4.2 2.4.3 2.8.1.4-.1.6.1.9.2.2.3-.2.6-.2s.4.3.5 0c.1-.3 0-.4-.1-.8s-.4-2.4-.4-2.7 0-.4-.1-.8-.3-.5-.1-.7.2 0 .5.1.3.1.5.2.3 0 .5 0c.3.1.2.3.5.4.3.1.5.4.6.1.1-.3-.2-.3-.4-.6l-.4-.4c-.2-.2-.3-.1-.5-.4-.2-.2-.4-.2-.3-.5.1-.3.2.1.4.1.2.1.2.1.5.1s.4.5.5.2c.1-.3-.2-.2-.4-.5s-.3-.1-.5-.4c-.2-.2-.2-.3-.4-.6-.2-.2-.4-.1-.3-.4.1-.3.2 0 .4.1s.2 0 .5.1c.2.1.4.6.5.3.1-.3-.2-.2-.4-.4-.7-.2-.7-.2-.9-.4-.2-.2-.2-.3-.4-.5s-.5-.1-.5-.4c.1-.4.3 0 .5.1z"/><path id="Path_7049" class="st1" d="M4.4 19.4c.5.2.5.1 1 .3s.9 1.3 1.1.6c.2-.7-.5-.6-.9-1.1-.4-.5-.5-.4-.9-.9s-.4-.6-.8-1.1c-.4-.5-1.1-.1-.9-.8.1-.7.5-.1 1 .1s.5.6 1 .8 1 .9 1.2.2c.2-.7-.6-.5-1-1s-.5-.4-.9-.8c-.4-.5-.3-.7-.8-1.1-.5-.3-.9-.3-.8-1 0-.6.3.2.8.4s.5 0 1 .2.8 1.1 1 .5-.4-.4-.8-.9-.5-.3-.9-.8-.4-.7-.8-1.2-.4-.6-.8-1l-.9-.9c-.5-.5-.4-.5-.8-1s-.5-.2-.9-.6c-.4-.5-.4-.4-.9-.9s-.2-1.1-.7-1c-.5.1-.4.3-.7.8s-.2.6-.5 1.2l-.4 1.2c-.2.6-.3.6-.5 1.1-.3.6-.1.8-.3 1.3-.3.6-.3.5-.6 1.1s-.5.4-.7 1c-.3.6-.3.6-.5 1.2-.3.6-.8.7-.4 1.2s.3-.5.7-.8c.4-.3.4-.4.8-.7.4-.3.7-1 1-.5.4.6-.2.8-.4 1.4-.3.6-.4.4-.7 1-.3.6-.1.7-.4 1.3-.3.6-1 .5-.6 1.1.3.6.4-.4.8-.7.4-.3.5 0 1-.4s.4-1.4.8-.8c.4.6-.2.6-.5 1.2s-.1.7-.4 1.3c-.4.6-.5.5-.7 1.1-.3.6-.9.5-.5 1.1.3.6.4-.2.8-.5s.5-.2.9-.5.3-1.3.7-.7c.4.6-.1.6-.4 1.1s-.3.6-.5 1.2-.2.7-.4 1.3c-.3.6-1 .4-.7 1 .3.6.4-.4.8-.7s.5 0 1-.4c.4-.3.3-1.3.7-.8.4.6-.1.6-.4 1.2s-.4.4-.7 1c-.3.6-.3.6-.6 1.1s-.8.7-.4 1.3c.3.6.3-.5.7-.8.4-.3.5-.2.9-.6s.5-1 .8-.4c.4.6-.1.6-.3 1.2s-.5.3-.8.9c-.3.6-.1.7-.4 1.3-.3.6-.9.8-.5 1.3s.5-.4 1-.7.4-.6.8-.9.5-.3.9-.6c.5-.3.5-.3.9-.6s.5-1.1 1-.7c.5.4.2.9.3 1.7.1.8.2.8.3 1.6.1.8-.2.9 0 1.7.1.8-.1 1.6.4 2.1s.6-.4 1.2-.5c.5-.1.8.6 1.1-.1.3-.6-.1-1.1-.2-1.9-.2-.9-.2-.9-.3-1.7l-.2-1.6c-.1-.8-.7-1-.3-1.5.4-.5.5 0 1 .2s.5.3 1.1.5.6-.1 1.1.1.5.6 1 .8 1 .9 1.2.3c.2-.6-.5-.7-.9-1.2s-.4-.4-.9-.9c-.4-.5-.5-.3-1-.7s-.8-.4-.7-1.1c.1-.7.4.1.9.3s.5.1 1 .3c.5.2.8 1.1 1 .4.2-.7-.4-.5-.8-1s-.5-.3-1-.8-.3-.7-.7-1.2-.9-.1-.7-.8c.1-.7.3 0 .8.2s.5 0 1 .2.8 1.2 1 .6c.2-.7-.5-.5-.9-.9-.4-.5-.4-.5-.9-1-.4-.5-.4-.6-.8-1.1-.4-.5-1.1-.2-1-.9.3-.7.7.1 1.2.2z"/></g><path id="Path_7050" class="st1" d="M-9.4 38.6c2.8-1.2 5.7-2.4 8.6-3.4 3.6-1.3 7.4-2.4 11.1-3.3 7.6-1.8 15.4-2.7 23.2-2.6 3.6.1 7.1.4 10.6.9-6.9-.2-13.8 0-20.7.8-7.7 1-15.3 2.5-22.7 4.6-3.4 1-6.8 2-10.1 3z"/></g><g id="Group_140" transform="translate(81.621 113.831)"><g id="Group_139"><path id="Path_7051" class="st1" d="m-9.5-10.8.6-1.4v-.1c-.2-.3-.9-1.4-.2-2.3 0-.1.1-.1.1-.1 1.6 1.9 3.3 3.6 5.2 5.1.4-.3.7-.6 1.1-1-.4-.3-.8-.7-1.2-1.1-1.3-1.1-1.5-1.3-1.5-1.3-.6-.5-1-1.2-1.1-1.9 0-.2-.1-.3-.3-.4l-.9-.7.1-.1.4-.4c.1-.1.1-.2 0-.3l-.9-.9c-.1-.1-.2-.1-.3 0l-.5.5-.1-.1h-.2l-1.1 1.1v.2l.1.1c-.8.7-1.7 1.4-2.6 2 0 0-.1.1 0 .1.8 1.3 1.9 2.4 3.2 3.1l.1-.1z"/><path id="Path_7052" class="st1" d="M-.6-8.7c-.3-.3-.7-.6-1-.9-.4.3-.7.6-1.1.9.8.6 1.6 1.3 2.5 2.1C2.4-4.4 2.9-2.8 3-2.1c0 .1.2.3.3.3L4.5-2c.2 0 .3-.2.3-.4v-.1C3.6-5 .9-7.5-.6-8.7z"/></g><path id="Path_7053" class="st1" d="M6.3-14c-.9-.6-1.8-1.3-2.6-2l.1-.1v-.2l-1.1-1.1h-.2l-.1.1-.5-.5c-.1-.1-.2-.1-.3 0l-.9.9c-.1.1-.1.2 0 .3l.4.4.1.1-.9.6c-.2.2-.3.4-.3.5-.1.8-.5 1.5-1.1 1.9 0 0-.2.2-1.5 1.4-1.1 1-2.2 1.9-3.3 2.9-1.5 1.3-4.1 3.7-5.3 6.2-.1.2 0 .4.2.5h.1l1.2.2c.2 0 .4-.1.4-.3.1-.7.6-2.2 3.1-4.5 3.4-3 5.6-4.3 8.8-8.1.1 0 .1.1.2.1.7.9 0 2-.2 2.3v.1l.4 1.5c0 .1.1.1.2.1 1.3-.7 2.5-1.8 3.2-3.1 0-.1 0-.2-.1-.2z"/></g></g></g><g id="Text" transform="translate(24.999 22.077)"><g id="Group_142" transform="translate(1.62 48.083)"><path id="Path_7054" class="st1" d="M8.8 2.3c2.1-.2 3.5 0 4.4.6.8.5 1.3 1.3 1.3 2.3 0 1-.3 2-1 2.7-.5 1-1.5 1.5-2.6 1.6-1.1.1-1.7-.4-1.7-1.3 0-.2 0-.4.1-.5.6-.1 1.2-.4 1.6-.8.4-.4.7-1 .7-1.6 0-.6-.3-1.1-.8-1.3-.6-.3-1.3-.5-1.9-.4-1.3 0-2.5.5-3.3 1.3-.8.7-1.3 1.7-1.3 2.8 0 .6.2 1.3.6 1.8.3.6.7 1.1 1.2 1.5.4.4 1 .9 1.8 1.6.8.7 1.3 1.1 1.5 1.3 1.6 1.3 2.5 3.3 2.5 5.3-.1 2.1-1.1 4.1-2.7 5.5-1.8 1.6-4.1 2.6-6.5 2.6-1.7.1-3.4-.1-5-.9-1.2-.6-2-1.8-1.9-3.1 0-.8.3-1.5.8-2.1.5-.7 1.3-1 2.2-1 .8-.1 1.5.3 1.9 1-.7.5-1.2 1.4-1.2 2.3 0 .8.3 1.5.9 2 .7.5 1.5.7 2.3.6 1.3-.1 2.6-.6 3.5-1.6 1-1 1.6-2.3 1.5-3.7 0-1.5-1-3.1-2.9-5.1l-1.2-1.2c-.6-.7-1.2-1.5-1.7-2.3-.5-.9-.8-1.9-.8-2.9 0-1.9.8-3.6 2.3-4.8 1.5-1.3 3.4-2.1 5.4-2.2z"/><path id="Path_7055" class="st1" d="M26.5 10.9c.6-.1 1.1-.1 1.7-.2.1 0 .2 0 .3-.1-.7.7-1.6 2.4-2.7 5s-1.6 4.5-1.6 5.6c0 .6.2.8.6.8 1.3-.2 3-2.3 5-6.5.1-.2.2-.3.2-.3.1 0 .2.2.2.6 0 .4-.1.9-.3 1.2-2.8 5.1-5.1 7.7-6.9 8-1.2.2-1.8-.7-1.8-2.5 0-1.4.2-2.8.7-4.2-2.5 4.9-4.9 7.4-7.1 7.6-1.5.2-2.2-.8-2.2-2.9 0-1.7.4-3.3 1-4.9.7-1.7 1.7-3.2 2.9-4.4 1.1-1.2 2.6-2 4.2-2.2.7-.1 1.4 0 2 .2.6.2 1.1.7 1.2 1.4.3-.6.7-1.1 1.1-1.5.5-.3 1-.6 1.5-.7zm-2.8 2.6c-.2-.7-.9-1.1-1.6-.9-1.5.2-2.9 1.4-4.3 3.6s-2.1 4.1-2.1 5.7c0 .7.3 1 .8 1 .8-.2 1.5-.7 2-1.3.8-.9 1.5-1.8 2.1-2.8 1.5-2.4 2.5-4.2 3.1-5.3z"/><path id="Path_7056" class="st1" d="m41.2 9.2 1.8-.3c.2 0 .5-.1.7-.2-.8.6-1.8 2.7-2.9 6.2-.5 1.3-.9 2.7-1 4.1 0 .9.3 1.3 1 1.2 1-.3 1.8-.9 2.4-1.8.7-.9 1.3-1.9 1.8-2.9.4-.9.7-1.7 1-2.4-.1-.7-.2-1.3-.2-2 0-.9.2-1.7.6-2.5.3-.7.8-1.2 1.6-1.4.7-.1 1 .3 1 1.3 0 .7-.1 1.5-.3 2.2-.2.6-.4 1.1-.7 1.5-.2.5-.4.8-.5 1 0 .5.2 1.1.5 1.5.3.3.8.5 1.2.4 1.1-.2 2.1-1.4 3.2-3.5.1-.1.1-.2.2-.2s.1.1.1.5c0 1.1-.4 2.2-1.2 3-.7.7-1.5 1.2-2.5 1.4-1 .3-2.1-.3-2.4-1.3v-.2l-.1-.3c-1 2.1-2.2 4-3.7 5.8-1 1.1-2.3 1.9-3.8 2.2-1.9.3-2.8-.6-2.8-2.7 0-.4.1-.9.1-1.3-2.1 3.3-4.2 5.2-6.2 5.5-.5.1-1.1-.1-1.4-.5-.4-.6-.6-1.3-.6-2 .1-1.5.4-2.9.9-4.3 1.2-3.8 2.5-6.1 3.9-6.9.9-.5 1.8-.8 2.8-.9.1 0 .1 0 .1.1 0-.1-.1 0-.2.3-1 1.7-1.9 3.4-2.6 5.2-.2.5-.5 1.3-.8 2.5-.3.9-.5 1.9-.6 2.9 0 .7.3 1.1.8 1 1.1-.2 2.7-2.5 4.9-6.9.9-1.9 1.4-2.8 1.4-2.9.9-1.4 1.7-2.2 2.5-2.4z"/><path id="Path_7057" class="st1" d="M74.9 9.5c-.8 1.5-1.6 2.8-2.3 3.8-.7 1-1.5 1.9-2.3 2.8-.6.7-1.5 1.2-2.4 1.4-1.3.2-2-.4-2-2 0-1.8.7-4.4 2.1-7.9.2-.6.4-1.2.5-1.8 0-.4-.2-.6-.6-.6-.5.1-.9.4-1.3.6-.7.4-1.2 1-1.7 1.6-.5.6-.9 1.2-1.3 1.9-.4.8-.8 1.6-1.1 2.4-.4 1.1-.7 1.8-.8 2.2-.6 2.1-1.1 3.7-1.3 4.6l-3.3.6c1.2-3.4 2-5.7 2.4-6.9.4-1.2.7-1.9.8-2.2.1-.3.2-.7.3-1 .2-.6.3-1.2.4-1.8 0-.5-.2-.7-.6-.6-.5.1-1 .4-1.5.7-.7.5-1.3 1-1.8 1.7-.6.7-1.1 1.5-1.5 2.4-.4.9-.7 1.6-.9 2.2-.2.6-.5 1.4-.7 2.3-.2.9-.5 1.6-.7 2.2-.2.6-.4 1.2-.6 1.9l-3.3.6c.2-.9.5-1.8.8-2.7.7-2 1.5-4 2.2-6 .7-1.6 1.2-3.4 1.3-5.1 0-.1 0-.3-.1-.4l1.5-.4c.5-.1 1-.1 1.5 0 .2.1.3.3.3.5-.1.6-.2 1.2-.4 1.8 2-2.1 3.9-3.4 5.9-3.7 1.2-.2 1.8.2 1.8 1.2 0 .6-.2 1.1-.4 1.6 2-2.4 4.1-3.7 6.3-4.1 1.2-.2 1.7.2 1.7 1.2 0 .4-.1.9-.2 1.3-.2.4-.4 1-.6 1.7s-.4 1.2-.6 1.7c-.2.4-.3 1-.5 1.6-.3.9-.6 1.9-.6 2.8 0 .6.2.9.6.8.5-.2 1-.5 1.4-.9.5-.5.9-.9 1.3-1.5.3-.4.6-1 1-1.7s.8-1.3 1.1-1.9c.1-.3.3-.6.5-.8.1 0 .2.2.2.6-.2.5-.3.9-.5 1.3z"/><path id="Path_7058" class="st1" d="M78.7 2.3c.6-.1 1.1-.1 1.7-.2h.3c-.6.7-1.1 1.5-1.4 2.4-.6 1.3-1 2.2-1.3 2.8s-.6 1.5-1 2.6c-.3.8-.5 1.7-.6 2.6 0 .6.2.9.6.9.5-.1.9-.4 1.2-.7.5-.4.9-.9 1.3-1.4.3-.5.7-1.1 1.1-1.8.4-.7.8-1.3 1.1-1.9.1-.3.3-.6.5-.8.1 0 .2.2.2.6 0 .4-.1.9-.3 1.2-.8 1.5-1.6 2.7-2.3 3.7-.7 1-1.5 1.9-2.3 2.7-.6.7-1.5 1.2-2.4 1.4-1.3.2-1.9-.6-1.9-2.4 0-2.7.9-5.8 2.8-9.4.9-1.4 1.8-2.2 2.7-2.3zm4.6-5h-.1c-.5.1-1 .3-1.3.7-.4.4-.7.8-.9 1.3-.5-.1-.9-.6-.9-1.1 0-.7.3-1.3.8-1.9.4-.5.9-.9 1.5-1.1.4-.1.8 0 1.1.2.2.2.4.5.4.8 0 .5-.3.9-.6 1.1z"/><path id="Path_7059" class="st1" d="M93.7-6.2c-1 2-2.3 4-3.7 5.8-1.4 1.9-2.9 3.7-4.5 5.4L85 6.6c-.3 1-.6 1.9-.8 2.9-.2.8-.3 1.6-.3 2.4 0 .7.2 1 .7.9.7-.1 1.3-.5 1.8-1s1-1 1.5-1.6c.3-.4.7-1 1.1-1.7.4-.7.8-1.3 1.1-1.8.1-.3.3-.5.5-.8.1 0 .2.2.2.6 0 .4-.1.8-.3 1.2-.9 1.6-1.9 3.2-3 4.6-1.5 1.8-3.1 2.8-4.8 3-1.3.1-1.9-.6-1.9-2.3 0-1.7.7-4.7 2.2-9 .1-.4.4-1.1.8-2.3.4-1.2.7-2.1 1-2.8.3-.7.7-1.5 1.2-2.6.4-.9.9-1.8 1.4-2.6.5-.7 1-1.3 1.5-2 .8-1.2 2.1-2 3.6-2.2 1.3-.1 1.9.5 1.9 1.6 0 .9-.2 1.9-.7 2.7zM93-9.8h-.2c-1.4.1-3.6 4.4-6.6 12.8 2.4-2.9 4.5-6 6.3-9.3.5-.9.8-1.8.9-2.8 0-.5-.1-.7-.4-.7z"/><path id="Path_7060" class="st1" d="M101.9-6.4c-1 2-2.3 3.9-3.7 5.6-1.4 1.8-2.9 3.5-4.5 5.2-.2.5-.4 1-.5 1.6-.3 1-.6 1.9-.8 2.9-.2.8-.3 1.6-.3 2.4 0 .7.2 1 .7 1 .7-.1 1.3-.4 1.8-.9s1.1-1 1.5-1.5c.3-.4.7-1 1.1-1.7.4-.7.8-1.3 1.1-1.8.1-.3.3-.5.5-.8.1 0 .2.2.2.6 0 .4-.1.8-.3 1.2-.9 1.6-1.9 3.1-3 4.5-1.5 1.8-3.1 2.7-4.8 2.8-1.2.1-1.9-.7-1.9-2.4s.7-4.7 2.2-9c.2-.3.5-1.1.9-2.3s.7-2.1 1-2.7c.3-.7.7-1.5 1.2-2.6.4-.9.9-1.8 1.4-2.6.5-.6 1-1.3 1.5-2 .8-1.2 2.1-1.9 3.6-2 1.3 0 1.9.6 1.9 1.7 0 1-.3 2-.8 2.8zm-.7-3.7h-.2c-1.4 0-3.5 4.1-6.5 12.5 2.4-2.8 4.5-5.8 6.3-9.1.5-.9.8-1.8.9-2.8 0-.3-.2-.6-.5-.6z"/></g><g id="Group_143"><path id="Path_7061" class="st1" d="m1.5 38.4 5 1.6-.6 1.8-9.2-2.9c-.2-.2-.3-.4-.4-.6-.1-.3-.2-.5-.2-.8v-.9c0-.3.1-.6.2-.9.1-.4.3-.7.4-1 .2-.3.4-.5.6-.7.2-.2.5-.3.8-.4.3-.1.7 0 1 .1.2 0 .3.1.4.1.1 0 .2.1.2.1.1 0 .1.1.2.1s.1 0 .2.1l-.5 1.7c-.1 0-.1-.1-.2-.1 0 0-.1 0-.2-.1-.1 0-.2-.1-.2-.1-.1 0-.2-.1-.4-.1-.2-.1-.5 0-.7.2-.2.2-.3.4-.4.7-.1.2-.1.4-.1.6 0 .2.1.3.2.5l2.7.6 1.1-3.4 1.2.4-1.1 3.4z"/><path id="Path_7062" class="st1" d="M9.2 28.7c.3.1.5.4.7.6.2.3.3.6.3.9 0 .3 0 .7-.1 1-.2.7-.5 1.4-1 1.9-.2.3-.5.5-.8.6-.3.2-.6.3-.9.3-.3 0-.6-.1-.9-.2L.4 30.6c-.3-.1-.5-.4-.7-.6-.2-.3-.3-.6-.3-.9 0-.3 0-.7.1-1 .1-.4.2-.7.4-1l.6-.9c.2-.3.5-.5.8-.6.3-.2.6-.2.9-.3.3 0 .6 0 .9.2l6.1 3.2zm-1.9 3.5c.2.1.5.1.7 0 .2-.1.4-.3.5-.6.1-.2.2-.5.2-.8 0-.3-.2-.5-.4-.6l-6.1-3.1c-.2-.1-.5-.1-.7 0-.2.1-.4.3-.5.6-.1.2-.2.5-.2.8 0 .3.2.5.4.6l6.1 3.1z"/><path id="Path_7063" class="st1" d="M14.7 22.4c.3.2.6.5 1 .7l-1.1 1.5-.9-.6-3.1-2.4c-.1-.1-.3-.1-.4.1L9 23.3l4.2 3.2-1.2 1.4-8.7-6.6 2.2-2.9c.7-1 1.5-1.2 2.2-.6l2.2 1.7c.2.1.3.3.3.5l.6-.3c.2 0 .5 0 .7.2l3.2 2.5zm-9.3-1.8 2.6 2 .8-1.1c.2-.2.2-.4.1-.5l-2.2-1.7c-.1-.1-.3-.1-.4.1l-.9 1.2z"/><path id="Path_7064" class="st1" d="m14.6 16.7 2.3 2.4c.2.3.7.4 1 .1.1 0 .1-.1.1-.1.4-.4.5-.8.1-1.2l-.6-.6-.4-.4 1.3-1.2c.3.3.7.6 1 .9.4.4.7 1 .6 1.6-.1.7-.5 1.3-1 1.7-.5.6-1.2 1-1.9 1.1-.6 0-1.2-.2-1.6-.7l-4.9-5.2c-.4-.4-.6-1-.4-1.6.2-.7.6-1.2 1.1-1.7.3-.2.5-.5.8-.6.3-.2.6-.3.9-.3h.8c.3.1.5.3.7.5.2.2.4.5.6.8l-1.3 1.2c-.2-.3-.4-.5-.6-.7-.3-.3-.7-.3-1.1.1-.4.4-.4.7-.1 1l1.8 1.9 2.5-2.3.8.9-2.5 2.4z"/><path id="Path_7065" class="st1" d="m20 10.3 3.2-1.4 2.3 3.4c.4.5.5 1.1.4 1.7-.3.7-.8 1.3-1.5 1.7-.5.4-1.2.7-1.9.6-.6-.1-1.1-.4-1.4-.9-.3-.4-.5-.8-.7-1.2l1.5-1c.2.4.5.8.7 1.2.3.4.7.5 1.2.1.3-.2.5-.6.3-.9 0-.1-.1-.1-.1-.2l-1.8-2.6-3.2 1.4-1.9-2.8c-.4-.5-.4-1.1-.2-1.6.3-.6.8-1.1 1.3-1.5.3-.2.6-.4.9-.5.3-.1.6-.2.9-.2.3 0 .6.1.8.2.3.1.5.3.6.6.2.3.4.6.5.9l-1.5 1c-.1-.3-.3-.6-.5-.8-.3-.4-.6-.4-1.1-.1-.5.3-.6.6-.3 1l1.5 1.9z"/><path id="Path_7066" class="st1" d="m29 2.1-1.8.9 4.1 8.6-1.7.8-4.1-8.6-1.8.9-.6-1.2L28.4 1l.6 1.1z"/><path id="Path_7067" class="st1" d="M40.3-2.5c1.4-.3 2.2.2 2.4 1.2l.6 3.1c.2 1.2-.4 1.9-1.9 2.2l-1.3.2.8 4.2-1.9.4-2-10.7 3.3-.6zm.6 5.3c.5-.1.7-.3.6-.7L40.9-1c0-.3-.3-.3-.6-.3l-1.2.3.8 4 1-.2z"/><path id="Path_7068" class="st1" d="M52.1 6.4c0 .4 0 .8.1 1.2h-1.9c-.1-.4-.1-.7-.1-1.1l-.1-3.9c0-.2-.1-.2-.3-.2h-1.9l.1 5.2h-1.9l-.2-10.8 3.6-.1c1.2 0 1.8.4 1.8 1.4l.1 2.7c0 .2-.1.4-.2.6l.6.3c.2.2.3.4.3.6v4.1zM47.8-2l.1 3.2h1.4c.2 0 .3-.1.3-.2l-.1-2.7c0-.2-.1-.2-.3-.2L47.8-2z"/><path id="Path_7069" class="st1" d="M60.1 6.6c0 .3-.2.6-.4.9-.2.2-.4.4-.7.5-.3.1-.6.2-1 .3h-1.1c-.4-.1-.7-.2-1.1-.3-.3-.1-.6-.3-.8-.6-.2-.2-.4-.5-.5-.8-.1-.3-.2-.6-.1-.9l1.1-6.8c0-.3.2-.6.4-.9.2-.2.5-.4.7-.6.3-.1.6-.2 1-.3.7-.1 1.5 0 2.2.3.3.1.6.3.9.5.2.2.4.5.5.7.1.3.2.6.1.9l-1.2 7.1zm-3.9-.7c-.1.3 0 .5.2.7.2.2.5.3.7.3.3 0 .5 0 .8-.1.2-.1.4-.3.4-.6l1-6.8c.1-.3 0-.5-.2-.7-.2-.2-.4-.3-.7-.3-.3-.1-.5 0-.8.1-.2.1-.4.3-.4.6l-1 6.8z"/><path id="Path_7070" class="st1" d="M67.5 9.1c-.4 1.1-1.3 1.4-2.7 1l-3-1 3.5-10.3 3.2 1.1C69.8.2 70.3 1 69.9 2l-2.4 7.1zM65 8.8c.5.2.8.1.9-.3l2.4-7.1c.1-.2 0-.4-.4-.5L66.7.5l-2.7 8 1 .3z"/><path id="Path_7071" class="st1" d="m71.3 13.1-.9-.6c-.2-.2-.5-.5-.6-.8l-.3-.9c0-.3.1-.6.2-.9L74 2l1.6.9-4.2 7.8c-.1.2-.1.5 0 .7.1.2.3.4.6.5.2.1.5.2.8.2.3 0 .5-.2.6-.4l4.2-7.8 1.6.9-4.2 7.8c-.1.3-.4.5-.6.7-.3.2-.6.3-.9.3-.3 0-.7 0-1-.1-.5-.1-.9-.3-1.2-.4z"/><path id="Path_7072" class="st1" d="M78.3 15c-.3.3-.3.7 0 1 0 0 .1.1.2.1.5.4.9.3 1.2-.1.3-.4.6-.8.8-1.2l1.4 1.1c-.2.4-.5.8-.8 1.1-.3.5-.9.8-1.5.8-.7 0-1.3-.3-1.9-.8-.6-.4-1.1-1-1.4-1.7-.1-.6.1-1.2.5-1.6l4.3-5.6c.3-.5.9-.7 1.5-.7.7.1 1.3.4 1.8.8.3.2.5.5.8.7.2.2.4.5.5.8.1.3.1.5.1.8 0 .3-.2.6-.4.8-.2.3-.4.5-.7.8L83.3 11c.2-.2.5-.5.6-.7.3-.4.2-.7-.3-1.1-.4-.3-.8-.3-1.1 0L78.3 15z"/><path id="Path_7073" class="st1" d="m91.8 17.2-1.4-1.5-6.9 6.6-1.3-1.3 6.9-6.6-1.3-1.4.9-.9 4.1 4.3-1 .8z"/><path id="Path_7074" class="st1" d="m92.3 22.6 1.4 3.2-3.3 2.3c-.5.4-1.1.5-1.7.4-.7-.3-1.3-.8-1.7-1.5-.4-.5-.7-1.2-.7-1.9.1-.6.4-1.1.9-1.4.4-.3.8-.5 1.2-.7l1 1.5c-.4.2-.8.5-1.2.8-.4.3-.5.7-.1 1.2.2.3.6.5.9.3.1 0 .1-.1.2-.1l2.6-1.8-1.4-3.2 2.7-1.9c.5-.4 1.1-.4 1.6-.2.6.3 1.1.8 1.5 1.3.2.3.4.6.5.9.1.3.2.6.2.9 0 .3 0 .6-.2.8-.1.3-.3.5-.6.6-.3.2-.6.4-.9.5l-1-1.5c.3-.1.6-.3.8-.5.4-.3.4-.6 0-1.1-.3-.5-.7-.6-1-.3l-1.7 1.4z"/></g><g id="Group_144" transform="translate(39.704 109.094)"><path id="Path_7075" class="st1" d="m-7.4-11.1 2.3 1.4-1.1 2.9c-.1.4-.5.8-.9 1-.6.1-1.2.1-1.7-.2-.5-.2-.9-.5-1.2-1-.2-.4-.2-.9 0-1.3.1-.3.3-.7.4-1l1.3.5c-.2.3-.3.6-.4 1-.3.4-.1.7.3.8.3.1.6.1.7-.2 0 0 0-.1.1-.1l.9-2.2L-9-11l.9-2.4c.1-.4.5-.7.9-.8.5-.1 1 0 1.5.2.3.1.5.2.7.4.2.1.4.3.5.5.1.2.2.4.2.6 0 .2 0 .4-.1.7-.1.2-.2.5-.3.7l-1.3-.5c.1-.2.2-.4.3-.7.1-.3 0-.6-.4-.7-.4-.1-.6-.1-.8.2l-.5 1.7z"/><path id="Path_7076" class="st1" d="m-3.1-4.4-1.4-.4 2.2-8 1.4.4-2.2 8z"/><path id="Path_7077" class="st1" d="M3.4-6.5c.1-.4.2-.7.2-1.1 0-.4.1-.7.2-1l.4-2.7 1.4.2-1.3 8.2-1.4-.2-1.3-6.5h-.1c0 .3-.1.7-.1 1 0 .3-.1.7-.1 1L.6-3.5l-1.4-.2 1.3-8.2 1.9.3 1 5.1z"/><path id="Path_7078" class="st1" d="M8.3-4.2c0 .4.2.6.6.6.4 0 .7-.2.7-.6v-1.1H11v1.1c0 .5-.2.9-.5 1.2-.5.4-1 .5-1.5.4-.6.1-1.2-.1-1.7-.4-.3-.3-.5-.8-.4-1.2L7-9.6c0-.4.2-.9.6-1.1.5-.2 1-.4 1.5-.3.3 0 .5 0 .8.1l.6.3c.2.1.3.3.4.5.1.2.1.4.1.6 0 .3 0 .5-.1.8H9.5c0-.2.1-.5.1-.7 0-.3-.2-.5-.7-.5-.4 0-.6.1-.6.5v5.2z"/><path id="Path_7079" class="st1" d="m14.3-6.8.2 2.5c0 .4.3.6.7.5.4 0 .7-.3.6-.7 0-.2 0-.4-.1-.6 0-.1 0-.3-.1-.4l1.4-.1c.1.3.1.7.1 1 .1.5-.1.9-.4 1.2-.4.3-.9.5-1.4.5-.6.1-1.2 0-1.7-.3-.4-.3-.6-.7-.6-1.2l-.5-5.4c-.1-.4.1-.9.5-1.1.4-.3.9-.5 1.4-.5h.8c.2 0 .5.1.7.2.2.1.3.2.5.4.1.2.2.4.2.6v.7l-1.4.1v-.7c0-.3-.3-.5-.7-.4-.4 0-.6.2-.6.6l.2 2 2.7-.1.1 1-2.6.2z"/><path id="Path_7080" class="st1" d="m23.4-4.2-.3-1 1.2-.4-1.5-5.2c-.2.1-.3.2-.5.3l-.7.2-.2-.9.7-.2c.2 0 .3-.1.4-.3.1-.1.1-.3.1-.4l-.2-.5 1.3-.4 2 7 1.2-.4.3 1-3.8 1.2z"/><path id="Path_7081" class="st1" d="M30.5-10.3c-.1.2-.2.3-.4.4l-.6.3c-.4.2-.9.3-1.4.2-.4-.1-.8-.4-.9-.8l-.8-1.9c-.2-.4-.2-.9 0-1.3.3-.5.8-.8 1.4-1 .5-.3 1.2-.4 1.8-.3.5.1.8.5 1 .9l2.1 5c.2.4.2.9-.1 1.2-.3.4-.8.8-1.3 1-.5.2-1.1.3-1.6.3-.4-.1-.8-.4-1-.8 0-.1-.1-.2-.1-.3s-.1-.2-.1-.3c0-.1-.1-.2-.1-.3 0-.1 0-.1-.1-.2l1.3-.5c0 .1 0 .1.1.2 0 .1.1.2.1.3 0 .1.1.2.1.3 0 .1.1.2.1.3.1.3.5.4 1 .2s.6-.4.5-.8l-1-2.1zm-2-.6c.1.1.2.3.3.3.2 0 .4 0 .6-.1.2-.1.4-.2.5-.4.1-.1.1-.3 0-.5l-.8-1.9c-.2-.4-.5-.4-1-.2-.2.1-.4.2-.5.4-.1.1-.1.3 0 .5l.9 1.9z"/><path id="Path_7082" class="st1" d="m30.9-15.8 3.6-2.1.4.8 2 7.4-1.2.7-1.9-7.4-1.2.7.6 1-1.2.7-1.1-1.8z"/><path id="Path_7083" class="st1" d="M38.5-16.8c.1-.2.2-.3.3-.5.1-.2.3-.3.4-.4.4-.3.8-.5 1.3-.5.4 0 .9.2 1.1.6l1.4 2c.3.3.4.8.3 1.2-.2.6-.6 1-1.1 1.3-.5.4-1 .6-1.6.7-.5 0-.9-.2-1.2-.6l-3.2-4.3c-.3-.3-.4-.8-.2-1.2.2-.5.6-.9 1.1-1.2.4-.4.9-.6 1.5-.6.4 0 .9.2 1.1.5.2.2.3.4.4.7l-1.1.8c-.1-.2-.3-.4-.4-.6-.2-.3-.5-.3-.9.1-.4.3-.5.6-.3.8l1.1 1.2zm2 0c-.1-.1-.2-.2-.4-.2s-.4.1-.6.2c-.2.1-.3.3-.4.5-.1.2 0 .3.1.5l1.4 1.9c.2.3.6.3 1 0s.5-.6.3-1l-1.4-1.9z"/></g></g></svg>