<svg version="1.1" id="Group_130" xmlns="http://www.w3.org/2000/svg" x="0" y="0" viewBox="0 0 150 150" style="enable-background:new 0 0 150 150" xml:space="preserve"><style>.st0{fill:#e6dfcf}</style><g id="Emblems" transform="translate(9.096 18.141)"><g id="Group_124"><g id="Group_121"><g id="Group_120" transform="translate(11.188)"><path id="Path_6934" class="st0" d="M68.7 58c-1-1.5-1-1.4-2-2.9s-1.4-1-2.3-2.4c-1-1.5-2.2-1.4-1.4-3.2.7-1.7 1.1.5 2.4 1.2s1.3.5 2.6 1.2 1.8 3.3 2.5 1.5c.7-1.8-.9-1.6-1.8-3.1-1-1.5-1.3-1-2.3-2.5s-.6-2-1.5-3.5c-1-1.5-2.3-.7-1.6-2.5.7-1.7.9.2 2.2.9 1.3.7 1.4.2 2.7.9 1.3.7 1.8 3.7 2.5 2 .7-1.8-1.1-1.4-2-2.9-1-1.5-1-1.5-1.9-3-1-1.5-.7-1.8-1.7-3.3s-3-1.1-2.3-2.9c.7-1.7 1.5.4 2.8 1.1 1.3.7 1.3.5 2.6 1.2s2 4 2.7 2.2c.7-1.8-1.1-2-2.1-3.5s-1.1-1.3-2-2.8c-1-1.5-.7-1.8-1.7-3.3-1-1.5-2.8-.8-2.1-2.6.7-1.7 1.4 0 2.7.6s1 1.9 2.3 2.6 2.4 2.9 3.1 1.1c.7-1.8-1.4-1.7-2.4-3.2-1-1.5-1.2-1.2-2.1-2.7s-.5-2.1-1.7-3.2c-1.3-1.2-2.4-1.2-1.7-3 .7-1.7 1.1.5 2.4 1.2s1.4.3 2.7.9 1.7 3.4 2.4 1.8c.8-1.7-1-1.4-1.9-2.8-.9-1.5-1.2-1.1-2.2-2.5s-.5-2-1.5-3.5c-.9-1.5-.7-1.7-1.7-3.2s-1-1.4-1.9-2.8-1-1.3-2-2.8c-.9-1.5-1.4-.8-2.4-2.3-.9-1.5-1-1.4-2-2.8-.9-1.5-.2-3-1.5-3s-1.3.6-2.2 2-.8 1.6-1.8 3.1-.9 1.5-1.8 3-1 1.4-1.9 2.9-.5 2-1.5 3.5c-.9 1.5-1.1 1.3-2 2.8-.9 1.5-1.4.8-2.3 2.3s-.9 1.6-1.8 3c-.9 1.5-2.3 1.5-1.6 3.2.7 1.7 1.1-1.2 2.4-1.9s1.3-.8 2.6-1.5 2.2-2.5 2.9-.8c.7 1.8-.8 2.1-1.7 3.6-1 1.5-1.4.9-2.3 2.4-1 1.5-.6 1.9-1.6 3.4s-2.9.8-2.2 2.6c.7 1.7 1.2-1 2.5-1.6 1.3-.7 1.5.1 2.8-.6 1.3-.7 1.7-3.6 2.4-1.9.7 1.8-.9 1.5-1.9 3s-.7 1.9-1.6 3.4c-1 1.5-1.2 1.2-2.2 2.7s-2.5 1-1.8 2.7c.7 1.7 1.1-.4 2.4-1.1s1.4-.3 2.7-1c1.3-.7 1.5-3.3 2.2-1.6.7 1.8-.5 1.5-1.5 3s-1 1.5-1.9 3-.8 1.8-1.7 3.3c-1 1.5-3 .7-2.3 2.5.7 1.7 1.2-.9 2.5-1.6 1.3-.7 1.5.1 2.8-.6 1.3-.7 1.5-3.5 2.2-1.8.7 1.8-.6 1.6-1.5 3.1-1 1.5-1.3 1-2.3 2.5-1 1.5-1 1.4-2 2.9s-2.4 1.5-1.7 3.3c.7 1.7 1.1-1.3 2.4-1.9 1.3-.7 1.3-.4 2.6-1.1 1.3-.7 1.8-2.6 2.5-.8s-.5 1.7-1.5 3.2c-1 1.5-1.6.6-2.6 2.1s-.7 1.9-1.6 3.4-2.9 1.7-2 3.3c.9 1.7 1.6-.9 2.9-1.6 1.4-.7 1.2-1.4 2.6-2.1 1.4-.7 1.5-.5 2.8-1.2s1.4-.5 2.8-1.3c1.4-.7 1.7-2.8 2.9-1.5 1.2 1.3.1 2.4.1 4.7s.2 2.2.2 4.5c0 2.2-.8 2.3-.8 4.5 0 2.3-1 3.4.1 5s1.9-.9 3.4-.9 2 1.9 3.1.3c1.1-1.6.2-2.2.2-4.5V63c0-2.2.1-2.2.1-4.5s-1.4-3-.2-4.4c1.2-1.3 1.4.3 2.8 1.1 1.4.7 1.3 1 2.7 1.8 1.4.7 1.6 0 3 .7s1.1 1.9 2.5 2.7c1.4.7 2.2 2.9 3.1 1.3.6-1.8-1.3-2.2-2.3-3.7z"/><path id="Path_6935" class="st0" d="M80.7 47.4c.8.4.8.3 1.6.7s1.2 2.3 1.6 1.3c.4-1-.7-1.2-1.2-2-.6-.9-.6-.8-1.2-1.7-.6-.9-.4-1.1-1-1.9-.6-.9-1.7-.5-1.3-1.5.4-1 .8 0 1.6.4s.6 1.1 1.3 1.5c.8.4 1.4 1.7 1.8.7.4-1-.8-1-1.4-1.9-.6-.9-.7-.7-1.3-1.6-.6-.9-.3-1.3-1-1.9-.7-.7-1.4-.7-1-1.8.4-1 .6.3 1.4.7s.8.2 1.6.6 1 2 1.4 1.1c.4-1-.6-.8-1.1-1.7-.6-.9-.7-.6-1.3-1.5-.6-.9-.3-1.2-.9-2.1-.6-.9-.4-1-1-1.9-.6-.9-.6-.8-1.1-1.7-.6-.9-.6-.8-1.2-1.7-.6-.9-.8-.5-1.4-1.3-.6-.9-.6-.8-1.2-1.7s-.1-1.8-.9-1.8-.8.3-1.3 1.2c-.6.9-.5 1-1 1.8-.6.9-.5.9-1.1 1.8-.6.9-.6.8-1.1 1.7s-.3 1.2-.9 2.1c-.6.9-.6.8-1.2 1.6-.6.9-.8.5-1.4 1.4-.6.9-.5.9-1.1 1.8-.6.9-1.4.9-.9 1.9.4 1 .6-.7 1.4-1.1.8-.4.7-.5 1.5-.9s1.3-1.5 1.7-.5c.4 1-.5 1.2-1 2.1-.6.9-.8.5-1.4 1.4-.6.9-.4 1.1-1 2-.6.9-1.7.5-1.3 1.5.4 1 .7-.6 1.5-1s.9.1 1.6-.3c.8-.4 1-2.1 1.4-1.1.4 1-.5.9-1.1 1.8s-.4 1.1-1 2c-.6.9-.7.7-1.3 1.6s-1.5.6-1.1 1.6c.4 1 .7-.2 1.4-.7.8-.4.8-.2 1.6-.6.8-.4.9-2 1.3-1s-.3.9-.9 1.8c-.6.9-.6.9-1.1 1.8-.6.9-.5 1.1-1 1.9-.6.9-1.8.4-1.3 1.5.4 1 .7-.5 1.5-.9s.9.1 1.6-.3c.8-.4.9-2.1 1.3-1.1s-.3.9-.9 1.8c-.6.9-.8.6-1.4 1.5-.6.9-.6.8-1.2 1.7-.6.9-1.4.9-1 1.9.4 1 .6-.7 1.4-1.2.8-.4.8-.3 1.6-.7.8-.4 1.1-1.5 1.5-.5.4 1-.3 1-.9 1.9-.6.9-.9.4-1.5 1.3s-.4 1.1-1 2c-.6.9-1.7 1-1.2 1.9.6 1 .9-.5 1.7-1 .8-.4.7-.8 1.5-1.3.8-.4.9-.3 1.7-.7s.9-.3 1.7-.8c.8-.4 1-1.7 1.7-.9.7.8.1 1.4.1 2.8 0 1.3.1 1.3.1 2.7 0 1.3-.5 4.8-.5 6.1 0 1.3-.6 2 .1 3 .6.9 1.1-.5 2-.5.9 0 1.2 1.1 1.8.2.6-.9.1-1.3.1-2.6v-8.8c0-1.3-.8-1.8-.1-2.6.7-.8.8.2 1.6.6.8.4.8.6 1.6 1s.9 0 1.8.4.6 1.2 1.5 1.6c.8.4 1.3 1.7 1.9.8.5-.9-.6-1.2-1.2-2.1-.6-.9-.6-.8-1.2-1.7-.6-.9-.8-.6-1.4-1.5-.6-.9-1.3-.9-.9-1.9.4-1 .7.3 1.4.7.8.4.8.3 1.6.7.8.4 1.1 1.9 1.5.9.4-1-.5-.9-1.1-1.8-.6-.9-.8-.6-1.3-1.5-.6-.9-.3-1.2-.9-2.1-.6-.9-1.4-.4-1-1.5.4-1 .5.1 1.3.5s.8.1 1.6.6c.8.4 1.1 2.2 1.5 1.2.4-1-.6-.9-1.2-1.7-.6-.9-.6-.9-1.1-1.8-.6-.9-.4-1.1-1-1.9-.6-.9-1.8-.7-1.3-1.7.6-.7 1.1.5 1.9.9z"/><path id="Path_6936" class="st0" d="M91.8 55.6c.6.3.6.2 1.2.5s.9 1.8 1.2 1c.3-.8-.5-.9-.9-1.6-.4-.7-.5-.6-.9-1.3-.4-.7-.3-.8-.8-1.5-.4-.7-1.3-.4-1-1.2.3-.8.6 0 1.2.3s.4.9 1 1.2c.6.3 1.1 1.3 1.4.5.3-.8-.6-.8-1.1-1.4-.4-.7-.5-.5-1-1.2-.4-.7-.2-1-.8-1.5-.6-.5-1.1-.5-.7-1.3.3-.8.5.2 1.1.5.6.3.6.1 1.2.4.6.3.8 1.6 1.1.8.3-.8-.4-.6-.9-1.3-.4-.7-.5-.5-1-1.1-.4-.7-.2-.9-.7-1.6-.4-.7-.3-.8-.8-1.4s-.4-.6-.9-1.3c-.4-.7-.5-.6-.9-1.3-.4-.7-.6-.4-1.1-1-.4-.7-.5-.6-.9-1.3-.4-.7-.1-1.3-.7-1.3s-.6.3-1 .9c-.1.8-.1.9-.5 1.6-.4.7-.4.7-.8 1.3s-.4.6-.9 1.3c-.4.7-.2.9-.7 1.6-.4.7-.5.6-.9 1.2s-.6.4-1.1 1l-.8 1.4c-.4.7-1 .7-.7 1.4.3.8.5-.5 1.1-.9.6-.3.6-.4 1.1-.7.6-.3 1-1.1 1.3-.4.3.8-.3 1-.8 1.6-.4.7-.6.4-1.1 1.1-.4.7-.3.9-.7 1.5-.4.7-1.3.4-1 1.2.3.8.5-.4 1.1-.7.6-.3.7.1 1.3-.3s.8-1.6 1.1-.8c.3.8-.4.7-.8 1.3-.4.7-.3.9-.7 1.5-.4.7-.5.5-1 1.2-.4.7-1.1.4-.8 1.2.3.8.5-.2 1.1-.5s.6-.2 1.2-.5.7-1.5 1-.7c.3.8-.2.7-.7 1.3-.4 1-.4 1-.8 1.7s-.3.8-.8 1.5c-.4.7-1.3.3-1 1.1.3.8.5-.4 1.1-.7.6-.3.7.1 1.3-.3.6-.3.7-1.6 1-.8.3.8-.3.7-.7 1.4-.4.7-.6.5-1 1.1-.5.7-.5.7-1 1.3-.4.7-1.1.7-.7 1.5.3.8.5-.6 1.1-.9.6-.3.6-.2 1.2-.5s.8-1.2 1.1-.4c.3.8-.2.8-.7 1.4-.4.7-.7.3-1.2 1-.4.7-.3.8-.7 1.5-.4.7-1.3.8-.9 1.5.4.8.7-.4 1.3-.7.6-.3.6-.6 1.2-1 .6-.3.7-.2 1.3-.6.6-.3.6-.2 1.3-.6.6-.3.8-1.3 1.3-.7.6.6.1 1.1.1 2.1s.1 1 .1 2-.4 2.9-.4 3.9-.2 1.3.3 2 .9-.4 1.6-.4.9.9 1.4.1c.5-.7-.2-.7-.2-1.8v-5.9c0-1-.6-1.4-.1-2 .5-.6.6.2 1.2.5s.6.5 1.2.8c.6.3.7 0 1.3.3.6.3.5.9 1.1 1.2.6.3 1 1.3 1.4.6.4-.7-.5-.9-.9-1.6-.4-.7-.5-.6-.9-1.3-.4-.7-.6-.4-1.1-1.1-.4-.7-1-.7-.7-1.5.3-.8.5.2 1.1.5.6.3.6.2 1.2.5s.8 1.5 1.1.7c.3-.8-.4-.7-.8-1.4s-.6-.5-1-1.1c-.4-.7-.3-.9-.7-1.6-.4-.7-1.1-.3-.7-1.1.3-.8.4.1 1 .4s.6.1 1.2.4c.6.3.8 1.7 1.1.9.3-.8-.5-.7-.9-1.3-.4-.7-.4-.7-.9-1.4-.4-.7-.3-.8-.8-1.5-.4-.7-1.3-.5-1-1.3.4-.3.8.6 1.4.9z"/><path id="Path_6937" class="st0" d="M19.6 60.7c.4.2.5.2.9.4s.7 1.4.9.8c.2-.6-.4-.7-.7-1.2-.3-.5-.4-.5-.7-1-.3-.5-.3-.6-.6-1.1-.3-.5-1-.3-.7-.9.2-.6.5 0 .9.2s.3.7.8.9c.4.2.8 1 1.1.4.2-.6-.5-.6-.8-1.1-.3-.5-.4-.4-.7-.9-.3-.5-.2-.7-.6-1.1-.4-.4-.8-.4-.6-1 .2-.6.4.2.8.4s.5.1.9.3.6 1.2.8.6c.3-.6-.3-.5-.7-1-.3-.5-.4-.4-.7-.9-.3-.5-.2-.7-.5-1.2s-.3-.6-.6-1.1-.3-.5-.7-1-.4-.5-.7-1-.5-.3-.8-.8-.4-.5-.7-1c-.3-.5-.1-1-.5-1-.5 0-.4.2-.8.7-.3.5-.3.6-.6 1.1l-.6 1c-.3.5-.3.5-.7 1-.3.5-.2.7-.5 1.2s-.4.5-.7 1c-.3.5-.5.3-.8.8-.3.5-.3.5-.6 1.1-.3.5-.8.5-.5 1.1s.4-.4.8-.7.4-.3.9-.5c.4-.2.8-.9 1-.3.2.6-.3.7-.6 1.2s-.5.3-.8.8c-.3.5-.2.7-.6 1.2s-1 .3-.7.9c.2.6.4-.3.9-.6.4-.2.5 0 1-.2s.6-1.2.8-.6c.2.6-.3.5-.6 1s-.2.7-.6 1.2c-.3.5-.4.4-.8.9s-.9.3-.6.9c.2.6.4-.1.8-.4.4-.2.5-.1.9-.4s.5-1.2.8-.6c.2.6-.2.5-.5 1s-.3.5-.7 1c-.3.5-.3.6-.6 1.1-.3.5-1 .2-.8.9.2.6.4-.3.9-.5.4-.2.5 0 1-.2.4-.2.5-1.2.8-.6.2.6-.2.5-.5 1.1-.3.5-.5.3-.8.9-.3.5-.4.5-.7 1-.3.5-.8.5-.6 1.1.2.6.4-.4.8-.7.4-.2.5-.2.9-.4s.6-.9.9-.3c.2.6-.2.6-.5 1.1-.3.5-.6.2-.9.7-.3.5-.2.7-.6 1.2-.3.5-1 .6-.7 1.1.3.6.5-.3 1-.6s.4-.5.9-.7c.5-.3.5-.2 1-.4l1-.4c.5-.3.6-1 1-.5s0 .8 0 1.6.1.8.1 1.6-.3.8-.3 1.6-.3 3 0 3.5c.4.6.7-.3 1.2-.3s.7.7 1.1.1.1-2.5.1-3.3v-3.2c0-.8-.5-1-.1-1.5.4-.4.5.1 1 .4s.5.4.9.6c.5.3.5 0 1 .3s.4.7.9.9c.5.3.8 1 1.1.4.3-.5-.4-.7-.7-1.2-.3-.5-.4-.5-.7-1-.3-.5-.5-.3-.8-.8-.3-.5-.7-.5-.5-1.1.2-.6.4.2.8.4s.5.2.9.4.6 1.1.9.5c.2-.6-.3-.5-.6-1.1-.3-.5-.5-.4-.8-.9-.3-.5-.2-.7-.5-1.2s-.8-.2-.6-.9c.2-.6.3.1.8.3s.5.1.9.3.6 1.3.9.7c.2-.6-.4-.5-.7-1-.3-.5-.3-.5-.7-1-.3-.5-.3-.6-.6-1.1-.3-.5-1-.4-.8-1 .1-.4.4.3.9.6z"/><path id="Path_6938" class="st0" d="M46.5 59.2c.4.2.5.2.9.4s.7 1.4.9.8c.2-.6-.4-.7-.7-1.2s-.4-.5-.7-1c-.3-.5-.3-.6-.6-1.1s-1-.3-.7-.9c.2-.6.5 0 .9.2s.3.7.8.9c.4.2.8 1 1.1.4.2-.6-.5-.6-.8-1.1s-.4-.4-.7-.9c-.3-.5-.2-.7-.6-1.1-.4-.4-.8-.4-.6-1 .2-.6.4.2.8.4s.5.1.9.3c.4.2.6 1.2.8.6.3-.6-.3-.5-.7-1-.3-.5-.4-.4-.7-.9-.3-.5-.2-.7-.5-1.2s-.3-.6-.6-1.1c-.3-.5-.3-.5-.7-1-.3-.5-.4-.5-.7-1-.3-.5-.5-.3-.8-.8-.3-.5-.4-.5-.7-1-.3-.5-.1-1-.5-1-.5 0-.4.2-.8.7s-.3.6-.6 1.1l-.6 1c-.3.5-.3.5-.7 1s-.2.7-.5 1.2-.4.5-.7 1-.5.3-.8.8l-.6 1c-.3.5-.8.5-.5 1.1.3.6.4-.4.8-.7s.4-.3.9-.5c.4-.2.8-.9 1-.3.2.6-.3.7-.6 1.2s-.5.3-.8.8c-.3.5-.2.7-.6 1.2s-1 .3-.7.9c.2.6.4-.3.9-.6.4-.2.5 0 1-.2s.6-1.2.8-.6c.2.6-.3.5-.6 1s-.2.7-.6 1.2c-.3.5-.4.4-.8.9-.3.5-.9.3-.6.9.2.6.4-.1.8-.4.4-.2.5-.1.9-.4.4-.2.5-1.2.8-.6.2.6-.2.5-.5 1s-.3.5-.7 1c-.3.5-.3.6-.6 1.1-.3.5-1 .2-.8.9.2.6.4-.3.9-.5.4-.2.5 0 1-.2s.5-1.2.8-.6c.2.6-.2.5-.5 1.1-.3.5-.5.4-.8.9-.3.5-.4.5-.7 1-.3.5-.8.5-.6 1.1.2.6.4-.4.8-.7.4-.2.5-.2.9-.4s.6-.9.9-.3c.2.6-.2.6-.5 1.1-.3.5-.6.2-.9.7-.3.5-.2.7-.6 1.2-.3.5-1 .6-.7 1.1.3.6.5-.3 1-.6s.4-.5.9-.7c.5-.3.5-.2 1-.4l1-.4c.5-.2.6-1 1-.5s0 .8 0 1.6.1.8.1 1.6-.3.8-.3 1.6-.3 1.2 0 1.7c.4.6.7-.3 1.2-.3s.7.7 1.1.1.1-.8.1-1.5v-3.2c0-.8-.5-1-.1-1.5.4-.4.5.1 1 .4s.5.4.9.6c.5.3.5 0 1 .3s.4.7.9.9c.5.3.8 1 1.1.4.3-.5-.4-.7-.7-1.2-.3-.5-.4-.5-.7-1-.3-.5-.5-.3-.8-.8-.3-.5-.7-.5-.5-1.1.2-.6.4.2.8.4s.5.2.9.4.6 1.1.9.5c.2-.6-.3-.5-.6-1.1-.3-.5-.4-.4-.8-.9-.3-.5-.2-.7-.5-1.2s-.8-.2-.6-.8c.2-.6.3.1.8.3.4.2.5.1.9.3s.6 1.3.9.7c.2-.6-.4-.5-.7-1s-.3-.5-.7-1c-.3-.5-.3-.6-.6-1.1-.3-.5-1-.4-.8-1 .2-.4.5.3.9.6z"/><path id="Path_6939" class="st0" d="M98.5 59.2c.3.2.4.1.7.3.3.2.5 1.1.7.6.2-.5-.3-.5-.6-.9l-.6-.8c-.3-.4-.2-.5-.5-.9s-.8-.2-.6-.7c.2-.5.4 0 .7.2.3.2.3.5.6.7.3.2.6.8.8.3.2-.5-.4-.5-.6-.9-.3-.4-.3-.3-.6-.7-.3-.4-.1-.6-.5-.9-.3-.3-.6-.3-.4-.8.2-.5.3.1.6.3.3.2.4.1.7.3s.5.9.7.5c.2-.5-.3-.4-.5-.8-.3-.4-.3-.3-.6-.7-.3-.4-.1-.5-.4-.9s-.2-.5-.5-.9-.3-.4-.5-.8c-.3-.4-.3-.4-.5-.8-.3-.4-.4-.2-.6-.6s-.3-.4-.5-.8c-.3-.4 0-.8-.4-.8s-.3.2-.6.5-.2.4-.5.8-.2.4-.5.8-.3.4-.5.8-.1.5-.4.9c-.3.4-.3.4-.5.7s-.4.2-.6.6c-.3.4-.2.4-.5.8s-.6.4-.4.9.3-.3.6-.5.3-.2.7-.4c.3-.2.6-.7.8-.2.2.5-.2.6-.5 1s-.4.3-.6.7c-.3.4-.2.5-.4.9-.3.4-.8.2-.6.7.2.5.3-.3.7-.4.3-.2.4 0 .8-.2.3-.2.5-1 .6-.5.2.5-.2.4-.5.8s-.2.5-.4.9c-.3.4-.3.3-.6.7-.3.4-.7.3-.5.7.2.5.3-.1.7-.3.3-.2.4-.1.7-.3s.4-.9.6-.4c.2.5-.1.4-.4.8-.3.4-.3.4-.5.8-.3.4-.2.5-.5.9s-.8.2-.6.7c.2.5.3-.2.7-.4.3-.2.4 0 .8-.2.3-.2.4-1 .6-.5.2.5-.1.4-.4.8s-.4.3-.6.7-.3.4-.5.8c-.3.4-.6.4-.4.9.2.5.3-.3.6-.5s.4-.1.7-.3c.4-.2.5-.7.7-.2.2.5-.1.5-.4.9-.3.4-.4.2-.7.6-.3.4-.2.5-.4.9s-.8.5-.5.9c.3.5.4-.2.8-.4s.3-.4.7-.6c.4-.2.4-.1.8-.3.4-.2.4-.1.8-.3.4-.2.5-.8.8-.4.3.4 0 .7 0 1.3s.1.6.1 1.2-.2.6-.2 1.2-.3 7.1 0 7.5c.3.4.5-.2.9-.2s.5.5.8.1.1-6.7.1-7.3v-2.4c0-.6-.4-.8 0-1.2.3-.3.4.1.7.3.4.2.4.3.7.5.4.2.4 0 .8.2s.3.5.7.7c.4.2.6.8.9.3.2-.4-.3-.6-.5-1-.3-.4-.3-.4-.5-.8-.3-.4-.4-.3-.6-.7-.3-.4-.6-.4-.4-.9.2-.5.3.1.6.3s.4.1.7.3c.3.2.5.9.7.4.2-.5-.2-.4-.5-.8s-.4-.3-.6-.7c-.3-.4-.2-.5-.4-1-.3-.4-.6-.2-.4-.7.2-.5.2.1.6.2.4.2.4.1.7.3.3.2.5 1 .7.5.2-.5-.3-.4-.6-.8s-.3-.4-.5-.8c-.3-.4-.2-.5-.5-.9s-.8-.3-.6-.8c-.3-.2-.1.4.3.6z"/><path id="Path_6940" class="st0" d="M26.8 59.2c.3.2.4.1.7.3.3.2.5 1.1.7.6.2-.5-.3-.5-.6-.9l-.6-.8c-.3-.4-.2-.5-.5-.9s-.8-.2-.6-.7c.2-.5.4 0 .7.2s.3.5.6.7c.3.2.6.8.8.3.2-.5-.4-.5-.6-.9s-.3-.3-.6-.7c-.3-.4-.1-.6-.5-.9-.3-.3-.6-.3-.4-.8.2-.5.3.1.6.3.3.2.4.1.7.3.3.2.5.9.7.5s-.3-.4-.5-.8c-.3-.4-.3-.3-.6-.7-.3-.4-.1-.5-.4-.9s-.2-.5-.5-.9-.3-.4-.5-.8c-.3-.4-.3-.4-.5-.8s-.4-.2-.6-.6 0-.3-.3-.7c-.3-.4 0-.8-.4-.8s-.3.2-.6.5-.2.4-.5.8-.2.4-.5.8-.3.4-.5.8-.1.5-.4.9c-.3.4-.3.4-.5.7-.3.4-.4.2-.6.6s-.2.4-.5.8-.6.4-.4.9.3-.3.6-.5.3-.2.7-.4c.3-.2.6-.7.8-.2.2.5-.2.6-.5 1s-.4.3-.6.7c-.3.4-.2.5-.4.9-.3.4-.8.2-.6.7.2.5.3-.3.7-.4.3-.2.4 0 .8-.2s.5-1 .7-.5c.2.5-.2.4-.5.8s-.2.5-.4.9c-.3.4-.3.3-.6.7-.3.4-.7.3-.5.7.2.5.3-.1.7-.3.3-.2.4-.1.7-.3.3-.2.4-.9.6-.4.2.5-.1.4-.4.8-.3.4-.3.4-.5.8-.3.4-.2.5-.5.9s-.8.2-.6.7c.2.5.3-.2.7-.4.3-.2.4 0 .8-.2.3-.2.4-1 .6-.5.2.5-.1.4-.4.8-.3.4-.4.3-.6.7s-.3.4-.5.8c-.3.4-.6.4-.4.9.2.5.3-.3.6-.5s.4-.1.7-.3c.4-.2.5-.7.7-.2.2.5-.1.5-.4.9-.3.4-.4.2-.7.6-.3.4-.2.5-.4.9s-1.2.5-1 .9c.3.5.4-.2.8-.4s.3-.4.7-.6c.4-.2.4-.1.8-.3.4-.2.4-.1.8-.3.4-.2.5-.8.8-.4.3.4 0 .7 0 1.3s.1.6.1 1.2-.2 5.1-.2 5.7c0 .6-.3.9 0 1.4.3.4.5-.2.9-.2s.5.5.8.1c.3-.4.1-.6.1-1.2v-6.9c0-.6-.4-.8 0-1.2.3-.3.4.1.7.3s.4.3.7.5.4 0 .8.2.3.5.7.7c.4.2.6.8.9.3.2-.4-.3-.6-.5-1-.3-.4-.3-.4-.5-.8-.3-.4-.4-.3-.6-.7s-.6-.4-.4-.9c.2-.5.3.1.6.3s.4.1.7.3c.3.2.5.9.7.4.2-.5-.2-.4-.5-.8s-.4-.3-.6-.7c-.3-.4-.2-.5-.4-1-.3-.4-.6-.2-.4-.7.2-.5.2.1.6.2.4.2.4.1.7.3.3.2.5 1 .7.5.2-.5-.3-.4-.6-.8s-.3-.4-.5-.8c-.3-.4-.2-.5-.5-.9s-.8-.3-.6-.8c0-.3.2.3.5.5z"/><path id="Path_6941" class="st0" d="M69 55.6c.4.2.5.2.9.4s.7 1.4.9.8c.2-.6-.4-.7-.7-1.2-.3-.5-.4-.5-.7-1s-.3-.6-.6-1.1c-.3-.5-1-.3-.7-.9.2-.6.5 0 .9.2s.3.7.8.9c.4.2.8 1 1.1.4.2-.6-.5-.6-.8-1.1s-.4-.4-.7-.9-.2-.7-.6-1.1c-.4-.4-.8-.4-.6-1 .2-.6.4.2.8.4s.5.1.9.3c.4.2.6 1.2.8.6.3-.6-.3-.5-.7-1-.3-.5-.4-.4-.7-.9-.3-.5-.2-.7-.5-1.2s-.3-.6-.6-1.1c-.3-.5-.3-.5-.7-1-.3-.5-.4-.5-.7-1s-.5-.3-.8-.8-.4-.5-.7-1c-.3-.5-.1-1-.5-1-.5 0-.4.2-.8.7-.3.5-.3.6-.6 1.1l-.6 1c-.3.5-.3.5-.7 1-.3.5-.2.7-.5 1.2s-.4.5-.7 1c-.3.5-.5.3-.8.8l-.6 1c-.3.5-.8.5-.5 1.1.3.6.4-.4.8-.7.4-.2.4-.3.9-.5.4-.2.8-.9 1-.3.2.6-.3.7-.6 1.2s-.5.3-.8.8c-.3.5-.2.7-.6 1.2-.3.5-1 .3-.7.9.2.6.4-.3.9-.6.4-.2.5 0 1-.2.4-.2.6-1.2.8-.6.2.6-.3.5-.6 1s-.2.7-.6 1.2-.4.4-.8.9c-.3.5-.9.3-.6.9.2.6.4-.1.8-.4.4-.2.5-.1.9-.4s.5-1.2.8-.6c.2.6-.2.5-.5 1s-.3.5-.7 1-.3.6-.6 1.1-1 .2-.8.9c.2.6.4-.3.9-.5.4-.2.5 0 1-.2.4-.2.5-1.2.8-.6.2.6-.2.5-.5 1.1s-.5.4-.8.9-.4.5-.7 1-.8.5-.6 1.1c.2.6.4-.4.8-.7.4-.2.5-.2.9-.4s.6-.9.9-.3c.2.6-.2.6-.5 1.1-.3.5-.6.2-.9.7-.3.5-.2.7-.6 1.2-.3.5-1 .6-.7 1.1.3.6.5-.3 1-.6s.4-.5.9-.7c.5-.3.5-.2 1-.4.5-.3.5-.2 1-.4.5-.3.6-1 1-.5s0 .8 0 1.6.1.8.1 1.6-.3 4.8-.3 5.5-.3 1.2 0 1.7c.4.6.7-.3 1.2-.3s.7.7 1.1.1c.4-.6.1-.8.1-1.5v-7.1c0-.8-.5-1-.1-1.5.4-.4.5.1 1 .4.5.3.5.4.9.6.5.3.5 0 1 .3s.4.7.9.9c.5.3.8 1 1.1.4.3-.5-.4-.7-.7-1.2s-.4-.5-.7-1c-.3-.5-.5-.3-.8-.8-.3-.5-.7-.5-.5-1.1.2-.6.4.2.8.4s.5.2.9.4.6 1.1.9.5c.2-.6-.3-.5-.6-1.1-.3-.5-.5-.4-.8-.9-.3-.5-.2-.7-.5-1.2s-.8-.2-.6-.9c.2-.6.3.1.8.3s.5.1.9.3c.4.2.6 1.3.9.7.2-.6-.4-.5-.7-1-.3-.5-.3-.5-.7-1-.3-.5-.3-.6-.6-1.1-.3-.5-1-.4-.8-1 .2-.2.5.5.9.7z"/><path id="Path_6942" class="st0" d="M40.1 45.6c.9.5 1 .3 1.9.8s1.5 2.9 2 1.6c.5-1.3-.8-1.4-1.5-2.5s-.8-1-1.5-2.1-.5-1.3-1.2-2.4c-.7-1.1-2-.6-1.5-1.9.5-1.2 1 0 1.9.5.9.5.7 1.4 1.6 1.9s1.7 2.1 2.2.8c.5-1.3-1-1.2-1.7-2.3s-.8-.9-1.5-2-.4-1.5-1.2-2.3c-.9-.8-1.7-.9-1.2-2.1.5-1.2.8.4 1.7.9s1 .2 1.9.7c.9.5 1.2 2.5 1.8 1.3.5-1.2-.7-1-1.4-2.1s-.9-.8-1.6-1.8c-.7-1.1-.4-1.5-1.1-2.5-.7-1.1-.5-1.3-1.2-2.3-.7-1.1-.7-1-1.4-2.1s-.7-1-1.4-2c-.7-1.1-1-.6-1.7-1.7s-.7-1-1.4-2c-.7-1.1-.1-2.2-1.1-2.2s-.9.4-1.6 1.5c-.7 1.1-.6 1.2-1.3 2.2-.7 1.1-.6 1.1-1.3 2.2-.7 1.1-.7 1-1.4 2.1s-.4 1.5-1.1 2.5c-.7 1.1-.8 1-1.4 2-.7 1.1-1 .6-1.7 1.7s-.6 1.1-1.3 2.2c-.7 1.1-1.7 1.1-1.1 2.3.5 1.2.8-.9 1.7-1.4.9-.5.9-.6 1.8-1.1.9-.5 1.6-1.8 2.1-.6.5 1.3-.6 1.5-1.3 2.6-.7 1.1-1 .7-1.7 1.8s-.5 1.4-1.2 2.5-2.1.6-1.6 1.9c.5 1.2.9-.7 1.8-1.2s1.1.1 2-.4 1.2-2.6 1.7-1.3-.7 1.1-1.3 2.2-.5 1.4-1.2 2.5-.9.8-1.6 1.9c-.7 1.1-1.8.7-1.3 2 .5 1.2.8-.3 1.8-.8s1-.2 1.9-.7c.9-.5 1.1-2.4 1.6-1.2.5 1.3-.4 1.1-1.1 2.1L22 49.5c-.7 1.1-.6 1.3-1.3 2.4-.7 1.1-2.1.5-1.6 1.8.5 1.2.9-.6 1.8-1.1.9-.5 1.1.1 2-.4s1.1-2.5 1.6-1.3c.5 1.3-.4 1.2-1.1 2.2-.7 1.1-1 .7-1.7 1.8s-.8 1-1.5 2.1-1.7 1.1-1.2 2.4c.5 1.2.8-.9 1.7-1.4.9-.5 1-.3 1.9-.8.9-.5 1.3-1.9 1.8-.6.5 1.3-.4 1.2-1.1 2.3-.7 1.1-1.2.5-1.9 1.5-.7 1.1-.5 1.4-1.2 2.4-.7 1.1-2.1 1.2-1.5 2.4.7 1.2 1.1-.6 2.1-1.2s.9-1 1.9-1.5c1-.5 1.1-.4 2.1-.9s1-.4 2-.9 1.2-2 2.1-1.1c.9 1 .1 1.7.1 3.4s.1 1.6.1 3.3c0 1.6-.6 1.6-.6 3.3 0 1.6-.7 3.1.1 4.2.8 1.2 1.4-.6 2.5-.6s1.4 1.4 2.2.2c.8-1.2.1-2.2.1-3.8V63c0-1.7-1-2.2-.1-3.2.9-.9 1 .2 2 .8 1 .5 1 .7 2 1.3 1 .5 1.1 0 2.1.5s.8 1.4 1.8 1.9 1.6 2.1 2.3.9c.6-1.1-.7-1.5-1.4-2.6s-.8-1-1.5-2.1-1-.7-1.7-1.8-1.6-1-1-2.3c.5-1.2.8.4 1.7.9s1 .4 1.9.9c.9.5 1.3 2.4 1.8 1.1.5-1.3-.6-1.1-1.3-2.2-.7-1.1-.9-.8-1.6-1.8s-.4-1.5-1.1-2.5c-.7-1.1-1.7-.5-1.2-1.8.5-1.2.6.2 1.6.7s1 .2 1.9.7 1.3 2.7 1.8 1.4c.5-1.3-.8-1-1.5-2.1l-1.4-2.2c-.7-1.1-.5-1.3-1.2-2.4-.7-1.1-2.1-.8-1.6-2.1.9-1.5 1.5.1 2.4.6z"/></g><path id="Path_6943" class="st0" d="M11.8 78.3c5.9-1.6 11.9-3 18-4.1 7.6-1.4 15.3-2.4 23-3 15.6-1.3 31.3-.6 46.7 2 7 1.3 13.9 2.9 20.7 5.1-13.6-2.5-27.3-4.4-41.1-4.8-15.5-.5-30.9.2-46.3 2-7.2.7-14.1 1.8-21 2.8z"/></g><g id="Group_123" transform="translate(57.386 152.862)"><g id="Group_122"><path id="Path_6944" class="st0" d="m3-29 .6-1.2v-.1c-.2-.2-.8-1.3-.2-2l.1-.1c1.4 1.7 3 3.2 4.6 4.6l.9-.9c-.4-.3-.7-.6-1-.9L6.6-31c-.5-.4-.9-1-1-1.7 0-.2-.1-.3-.2-.4l-.8-.5s0-.1.1-.1l.3-.4c.1-.1.1-.2 0-.3l-.8-.8c-.1-.1-.2-.1-.3 0l-.5.5-.1-.1h-.1l-1 1v.1h.1c-.7.6-1.5 1.2-2.3 1.8 0 0-.1.1 0 .1.7 1.2 1.7 2.1 2.9 2.8H3z"/><path id="Path_6945" class="st0" d="M10.9-27.2c-.3-.3-.6-.5-.9-.8-.3.3-.6.5-1 .8.7.6 1.4 1.2 2.2 1.9 2.3 2 2.7 3.4 2.8 4 0 .2.2.3.3.3l1-.1c.2 0 .3-.2.3-.3v-.1c-1-2.4-3.3-4.5-4.7-5.7z"/></g><path id="Path_6946" class="st0" d="M17.1-31.9c-.8-.6-1.6-1.2-2.3-1.8h.1v-.1l-1-1h-.1l-.1.1c-.2-.2-.4-.3-.5-.5-.1-.1-.2-.1-.3 0l-.9.8c-.1.1-.1.2 0 .3l.3.3.1.1-.8.5c-.1.1-.2.2-.2.4-.1.7-.5 1.3-1 1.7 0 0-.2.2-1.4 1.3-1 .9-1.9 1.7-2.9 2.6-1.4 1.1-3.7 3.3-4.8 5.6-.1.2 0 .3.1.4h.1l1 .1c.2 0 .3-.1.3-.3.1-.6.5-2 2.8-4 3.1-2.7 5-3.9 7.8-7.2.1 0 .1.1.1.1.6.8 0 1.8-.2 2v.1l.6 1.2c0 .1.1.1.1.1 1.2-.6 2.2-1.6 2.9-2.8.2.1.2 0 .2 0z"/></g></g></g><g id="Text"><g id="Group_125" transform="translate(0 60.1)"><path id="Path_6947" class="st0" d="M18.9-7.1c-.1.4-.4.8-.8 1-.1.1-.3.1-.5.2h-3.4c-.2 0-.4-.2-.4-.5 0-.9.7-2.6 2.2-5.3.1-.2.2-.3.2-.3-.5 0-1.1.1-1.6.3-.5.2-.8.4-.9.7-.1 0-.1 0-.1-.1 0 0 0-.1.1-.2.1-.2.2-.3.3-.5.1-.2.3-.3.5-.4.4-.1.7-.2 1.1-.2h2.1c-.4.4-.7.8-1 1.3-.4.7-.8 1.5-1.2 2.3-.3.6-.5 1.2-.6 1.8 0 .4.2.6.6.6 1.8 0 2.8-.3 3.2-1 0 0 .1 0 .1.1.1.1.1.2.1.2z"/><path id="Path_6948" class="st0" d="M27.4-12.3h.6c-.5.6-.9 1.3-1.2 2-.6 1.1-1.1 2.3-1.2 3.6 0 .3.1.5.3.5.1 0 .3-.1.4-.1 0 .1-.2.2-.5.3-.2.1-.5.1-.8.2-.4 0-.6-.2-.6-.7 0-.8.6-2.3 1.9-4.7l-.5.5c-.6.7-1.5 1.7-2.7 3.2-.2.2-.3.4-.5.6-.1.1-.2.1-.4.1s-.4-.1-.5-.1c.3-.6.3-1.2.3-1.8 0-.9-.1-1.8-.2-2.7-.2.4-.6 1.3-1.2 2.7-.4.8-.7 1.7-.9 2.7v.1h-.8c.3-.9.8-2.1 1.5-3.5.6-1.5 1-2.3 1.2-2.6-.6 0-1.1.1-1.6.3-.5.2-.8.5-.9.8 0 0-.1 0-.1-.1 0 0 0-.1.1-.2.1-.2.2-.3.3-.5.1-.2.3-.3.5-.4.4-.1.7-.2 1.1-.2h1c.2 0 .3 0 .4.1.1.1.2.3.2.4 0 .2.1.8.1 1.6s.1 1.4.1 1.7v.7c.9-1.1 2-2.5 3.4-4.1.3-.3.8-.4 1.2-.4z"/><path id="Path_6949" class="st0" d="M33.2-10.9c-.1.7-.6 1.3-1.2 1.5-.2.1-.4.1-.5.2 1 .2 1.4.6 1.4 1.3 0 .7-.4 1.3-1 1.6-.7.4-1.6.7-2.4.6-.4 0-.8-.1-1.2-.2-.3-.1-.5-.4-.5-.7.1-.8.3-1.5.7-2.2.5-1.1.9-2 1.3-2.7.1-.1.1-.2.1-.3h-.3c-.4.1-.9.2-1.3.3-.3.1-.6.3-.8.6v-.2c.2-.6.7-1 1.3-1.2.4-.1.7-.1 1.1-.1h1.8c.4 0 .9.1 1.3.4.3.2.4.5.4.9l-.2.2zm-.9-.3c-.1-.5-.5-.8-1.3-.8-.4.7-.8 1.4-1.1 2.1-.3.7-.6 1.5-.9 2.2-.1.3-.2.7-.2 1 0 .2.1.4.2.5.2.1.4.1.7.1.5 0 1.1-.2 1.5-.5.4-.3.7-.9.7-1.4 0-.3-.1-.6-.2-.8-.2-.2-.5-.3-.7-.4-.4.1-.8.2-1.1.2-.1 0-.2 0-.2-.1s.1-.2.3-.3c.2-.1.4-.1.5-.1h.5c.7-.2 1.2-.9 1.3-1.6v-.1z"/><path id="Path_6950" class="st0" d="M117.7-5.9c0 .2 0 .3.1.4.1.1.2.1.3.1.7 0 1.6-1.3 2.7-3.9 0 0 .1-.2.1-.3.1-.2.2-.4.3-.7.2-.3.4-.7.6-1 .2-.3.4-.5.6-.6-.3-.1-.6-.1-.9-.1-.5 0-1 .1-1.5.3-.6.2-.9.4-1 .7-.1 0-.1 0-.1-.1v-.1c.1-.3.3-.6.5-.8.2-.2.4-.3.6-.3.3 0 .5-.1.8-.1h2.5c-.3.2-.5.4-.8.6-.2.2-.3.4-.4.7-.2.3-.3.7-.4 1-.1.4-.2.7-.3 1-.1.3-.2.5-.3.8s-.2.5-.3.8c-.1.3-.3.6-.4.9-.1.3-.3.5-.5.8-.2.3-.3.5-.5.7-.3.4-.8.6-1.3.6-.3 0-.5-.1-.7-.2-.2-.2-.3-.4-.3-.6 0-.1 0-.3.1-.4.2-.1.3-.2.5-.2z"/><path id="Path_6951" class="st0" d="M128.4-11c-.1.3-.3.5-.5.6-.2.2-.5.3-.8.3-.1 0-.2 0-.3-.1-.1 0-.1-.1-.1-.2s0-.2.1-.3h.2c.2 0 .5-.1.7-.2.2-.1.3-.4.3-.6 0-.4-.2-.5-.7-.5-.7 0-1.3.2-1.8.6-.6.4-1.1 1-1.4 1.7-.4.6-.5 1.3-.5 2.1 0 1.1.5 1.6 1.5 1.6.7 0 1.4-.3 2-.7.6-.4 1.1-.9 1.4-1.5.1.1.2.2.2.3-.1.4-.3.8-.6 1-.4.4-.9.8-1.5 1-.6.2-1.2.4-1.8.4-1.4 0-2.1-.7-2.2-2 0-.5.1-1.1.3-1.6.2-.6.5-1.1.9-1.5.4-.5.9-.9 1.4-1.2.5-.3 1.1-.4 1.7-.5.4 0 .9.1 1.3.3.3.1.4.4.4.7-.1.1-.1.2-.2.3z"/><path id="Path_6952" class="st0" d="M136.3-12.2c-.7.1-1.4.4-1.9.8-.9.5-1.7 1.1-2.4 1.8.2.8.6 1.5 1.1 2.1.4.6.8 1.1 1.4 1.5H133.3c-.2 0-.4-.2-.7-.6-.3-.4-.6-.9-.8-1.3-.2-.4-.3-.7-.4-1.1-.3.3-.6.7-.9 1-.1.3-.3.5-.3.8-.1.3-.2.6-.2.9v.3h-1.2c.3-1 .6-2.1 1-3.1.3-1 .8-1.9 1.3-2.8 0-.1.1-.1.2-.2-.5 0-1.1.1-1.6.3-.5.2-.8.4-.9.7 0 0-.1 0-.1-.1s0-.2.1-.2c.1-.2.2-.3.3-.5.1-.2.3-.3.5-.4.4-.1.7-.2 1.1-.2h2.1c-.5.4-.8 1-1.1 1.5-.4.7-.7 1.4-1 2.2.3-.4.6-.8 1-1.2.4-.4.9-.8 1.3-1.2.5-.4 1-.7 1.5-1 .4-.2.9-.4 1.3-.4.4.2.6.3.5.4.1 0 .1 0 0 0z"/></g><path id="Path_6953" class="st0" d="M30.1 31.9h.8l-1.5 2.2-.3-.8-6-4.1h-.8l3.2-4.7h.8l1.7 1.1.3.8-2 3 3.8 2.5zM24.3 28l1.2.8 1.3-2-1.2-.8-1.3 2z"/><path id="Path_6954" class="st0" d="M37.4 22.8h.9l-1.8 1.9-.3-.7-4.2-2.2-.3.3 3.4 3.1.8.1-1.8 1.9-.2-.8-5.3-5-.8-.1 3.9-4.2.8.1 1.5 1.4.2.8-1 1.1 4.2 2.3zM30 20.6l1 1 1.6-1.7-1-1-1.6 1.7z"/><path id="Path_6955" class="st0" d="M39.5 21.6v-.8l-4.6-5.7-.8-.1 4.2-3.4.8 1-1.1.4-1.6 1.3.9 1.1 1.4-1.1.7-.9.9 1.2-1.1.5-1.4 1.1 2.7 3.3 1.6-1.3.7-.9.4 1.3-3.7 3z"/><path id="Path_6956" class="st0" d="M45.6 9.8 45.4 7l2.3-1.3-.1.8 3.6 6.3.7.3-2.3 1.3.1-.8L47 8.9l.3 3.9-3.2-2.3 2.7 4.7.7.3-2.3 1.5.1-.8-3.6-6.3-.7-.4 2.3-1.3 2.3 1.6z"/><path id="Path_6957" class="st0" d="m52.8 4.2 2.7 6.7.7.4-2.4 1 .2-.8-2.7-6.7"/><path id="Path_6958" class="st0" d="M58.2 2.4 60 9.1l1.8-.5L60 1.9"/><path id="Path_6959" class="st0" d="m61.6 1.5 1.9 7-.3.8-4.2 1-.6-.5-1.9-7"/><path id="Path_6960" class="st0" d="m67.6 2.3.5 5.4.5.6-2.6.2.4-.7-.6-7.2"/><path id="Path_6961" class="st0" d="m71 2-1.4 3.7-2-3.4"/><path id="Path_6962" class="st0" d="m72.5 0 .6 7.2.5.6L71 8l.4-.7L71 2"/><path id="Path_6963" class="st0" d="m87.5 1.3-1.2 7.2-.6.5-.7-.1v.3l.5.8-2.6-.4.4-.6v-.3L81 8.2l-.4-.7L81.8.3"/><path id="Path_6964" class="st0" d="m83.4.9-1.1 6.6 2.4.4 1.1-6.6"/><path id="Path_6965" class="st0" d="m92.7 2.6-2.2 6.6 1.8.6 2.2-6.6"/><path id="Path_6966" class="st0" d="m96.1 3.7-2.3 6.9-.7.5L89 9.8l-.2-.8 2.3-6.9"/><path id="Path_6967" class="st0" d="m101.3 5.3 2.3 1.2-.5.2-1.4 7.8.3.9-2.3-1.2.6-.4.5-2.8-1.4-.7-1.9 2-.1.7-2.3-1.2.9-.3 5.5-5.7-.2-.5"/><path id="Path_6968" class="st0" d="m100.1 9.5.8.4.3-1.6-1.1 1.2z"/><path id="Path_6969" class="st0" d="m109.9 11-4.1 5.6 1.7 1.2 1.1.4-1.1.7-4-2.9.8-.2 4.3-5.9v-.7l2.1 1.5-.8.3z"/><path id="Path_6970" class="st0" d="m115.9 15.9-4.9 5.4-.1.8-1.9-1.8.8-.2 4.9-5.4.1-.8 1.9 1.8-.8.2z"/><path id="Path_6971" class="st0" d="m115.6 26-.2.8-1.7-2 .8-.1 5.3-4.6-.7-.8-1-.7.9-.8 4.1 4.7-.9.8-.5-1.1-.7-.8-5.4 4.6z"/><path id="Path_6972" class="st0" d="m120.4 32.6-.3.8-1.4-2.2.8.1 3.1-1.9 2.2-3.4.1-1 1.4 2.2-.6.2-1.1 1.7 2.1-.3.5-.5 1.4 2.2-1-.3-4 .5-3.2 1.9z"/><g id="Group_128" transform="translate(49.841 174.488)"><g id="Group_126"><path id="Path_6973" class="st0" d="M3.4-26.4v-1.1h1.3v-6.2c-.2.1-.4.1-.6.1h-.7v-1h.7c.2 0 .4 0 .5-.2.1-.1.2-.2.2-.4v-.7h1.3v8.4h1.3v1.1h-4z"/><path id="Path_6974" class="st0" d="M10.8-30.3c-.1.1-.3.2-.5.2-.2.1-.4.1-.6.1-.5 0-.9-.1-1.3-.4-.4-.3-.6-.8-.5-1.3v-2.4c0-.5.1-1 .5-1.4.5-.4 1-.5 1.6-.5.6-.1 1.2.1 1.7.5.4.4.6.9.5 1.4v6.2c0 .5-.2 1-.6 1.3-.5.3-1 .5-1.6.4-.5 0-1.1-.1-1.6-.4-.2-.4-.5-.9-.4-1.3v-1.2h1.4v1.2c0 .4.3.6.8.6s.7-.2.7-.6l-.1-2.4zm-1.6-1.5c0 .2.1.3.2.5.2.1.4.2.6.2.2 0 .4 0 .6-.2.1-.1.2-.3.2-.5v-2.4c0-.4-.3-.7-.8-.7-.2 0-.4.1-.6.2-.1.1-.2.3-.2.5v2.4z"/></g><g id="Group_127" transform="translate(43.512)"><path id="Path_6975" class="st0" d="M-5.6-35.9h4.1v1l-1.9 8.5h-1.5l2-8.4h-1.4v1.3h-1.3v-2.4z"/><path id="Path_6976" class="st0" d="M.5-32.3c.1-.1.3-.2.5-.2s.4-.1.6-.1c.5 0 .9.1 1.3.4.4.3.6.8.5 1.3v2.8c0 .5-.1 1-.5 1.4-.5.4-1 .5-1.6.5-.6.1-1.2-.1-1.7-.5-.4-.4-.6-.9-.5-1.4v-6.2c0-.5.2-1 .6-1.3.5-.3 1-.4 1.6-.4.5 0 1.1.1 1.5.4.4.3.6.8.6 1.3v.9H2c0-.3.1-.6 0-.8 0-.4-.3-.6-.8-.6s-.7.2-.7.6v1.9zm1.6 1.5c0-.2-.1-.3-.2-.5-.2-.1-.4-.2-.6-.2-.2 0-.4 0-.6.2-.1.1-.2.3-.2.5v2.7c0 .5.3.7.8.7s.8-.2.8-.7v-2.7z"/></g></g><g id="Group_129" transform="translate(11.427 119.547)"><path id="Path_6977" class="st0" d="M21.8-9.8c.1 1 .2 2.1.4 3.3.1 1.2.2 2.3.3 3.3h.1c.1-1 .1-2.1.2-3.3s.2-2.3.3-3.3c.3-3.7.7-7.5 1-11.4 1-.2 1.9-.3 2.9-.5-1 9.7-2 19.2-2.9 28.3-.9-.2-1.9-.3-2.8-.5-.5-4.1-1-8.1-1.4-12-.1-.9-.2-1.9-.3-3-.1-1.1-.2-2.1-.3-3h-.1c-.1.9-.2 1.9-.3 3s-.2 2.1-.4 3c-.6 3.8-1.1 7.5-1.7 11.1-1-.2-1.9-.4-2.8-.6-.9-8.1-1.8-15.9-2.7-23.2 1-.2 2-.5 2.9-.7.3 3.2.6 6.4 1 9.7.1.9.2 1.8.3 2.9s.1 2.1.2 3h.1c.1-.9.2-1.9.3-3s.2-2.1.4-3c.5-3.4.9-6.9 1.4-10.4.9-.2 1.8-.4 2.7-.5.4 3.5.8 7.1 1.2 10.8z"/><path id="Path_6978" class="st0" d="M36.5 2.7c0 .9-.1 1.7-.4 2.6-.2.7-.5 1.3-1 1.8-.4.4-.8.8-1.4 1-.5.2-1.1.3-1.6.2-.6-.1-1.1-.3-1.6-.6-.5-.4-1-.8-1.4-1.3-.4-.6-.7-1.2-1-1.9-.2-.8-.4-1.6-.4-2.5v-18.4c0-.8.1-1.7.4-2.5.2-.7.5-1.3 1-1.9.4-.5.8-1 1.4-1.3.5-.3 1.1-.5 1.6-.6.5-.1 1.1 0 1.6.2s1 .6 1.4 1c.4.5.8 1.1 1 1.8.3.8.4 1.7.4 2.6V2.7zm-6-.6c0 .6.1 1.3.5 1.8.3.4.7.6 1.1.7.4 0 .8-.1 1.1-.5.4-.5.6-1.1.5-1.8V-17c.1-.6-.1-1.3-.5-1.8-.3-.3-.7-.5-1.1-.5-.5.1-.9.3-1.1.7-.4.5-.5 1.2-.5 1.8V2.1z"/><path id="Path_6979" class="st0" d="M47.2 3.3c0 .9-.1 1.9-.4 2.8-.2.7-.5 1.4-1 2-.4.5-.8.9-1.4 1.1-.5.2-1.1.3-1.6.3-.6-.1-1.2-.3-1.7-.6-.5-.4-1-.8-1.4-1.4-.4-.6-.8-1.3-1-2.1-.3-.9-.4-1.8-.4-2.7v-20.2c0-.9.1-1.8.4-2.7.2-.7.5-1.4 1-2 .4-.5.8-1 1.4-1.3.5-.3 1.1-.5 1.7-.6.6-.1 1.1 0 1.6.3s1 .7 1.4 1.1c.4.6.8 1.2 1 1.9.3.9.4 1.8.4 2.7V3.3zm-6-.4c0 .7.1 1.4.5 2 .3.4.7.7 1.1.7.4 0 .9-.2 1.1-.6.4-.6.6-1.3.5-1.9v-20.8c.1-.7-.1-1.3-.5-1.9-.3-.4-.7-.6-1.1-.6-.5 0-.9.3-1.1.7-.4.6-.5 1.3-.5 1.9V2.9z"/><path id="Path_6980" class="st0" d="M57.6 4.3c0 3.8-1.1 5.6-3.4 5.5-1.6-.1-3.2-.1-4.8-.2v-33.8c1.7-.1 3.3-.2 5-.3 2.1-.1 3.2 1.7 3.2 5.2V4.3zm-3.8 1.6c.7 0 1.1-.5 1.1-1.7v-23.6c0-.8-.3-1.2-.8-1.2-.6 0-1.2 0-1.9.1V5.9h1.6z"/><path id="Path_6981" class="st0" d="M69.1-10.5c.1 1.3.2 2.7.4 4.2s.2 2.9.3 4.1h.1c.1-1.2.1-2.6.2-4.1s.2-2.9.3-4.2c.3-4.7.7-9.4 1-14 1 0 2 .1 2.9.1-1 11.3-2 22.8-2.9 34.3-.9 0-1.9.1-2.8.1-.5-5.1-1-10.2-1.5-15.4-.1-1.2-.2-2.5-.3-4s-.2-2.8-.3-4h-.1c-.1 1.2-.2 2.5-.3 4-.1 1.4-.3 2.8-.4 4C65-.3 64.4 4.9 63.9 10h-2.8c-.9-11.6-1.8-23.1-2.7-34.6h3c.3 4.7.6 9.4 1 14.1.1 1.3.2 2.6.3 4.1s.1 2.9.2 4.2h.1c.1-1.3.2-2.7.3-4.2.1-1.5.2-2.9.4-4.1.5-4.7.9-9.4 1.4-14.1h2.7c.4 4.7.8 9.4 1.3 14.1z"/><path id="Path_6982" class="st0" d="M83.8 3.1c0 .9-.1 1.9-.4 2.8-.2.7-.5 1.4-1 2.1-.4.5-.8 1-1.4 1.4-.5.3-1 .5-1.6.6-.6 0-1.1-.1-1.7-.3-.6-.3-1-.7-1.4-1.2-.4-.6-.8-1.3-1-2.1-.3-.9-.4-1.9-.4-2.8V-18c0-1 .1-1.9.4-2.8.2-.7.5-1.4 1-2 .4-.5.8-.9 1.4-1.2.5-.3 1.1-.4 1.7-.3.6 0 1.1.2 1.6.6.5.4 1 .8 1.4 1.4.4.6.8 1.3 1 2.1.3.9.4 1.8.4 2.7V3.1zm-6 .2c-.1.7.1 1.4.5 2 .3.4.7.6 1.1.6.5-.1.9-.3 1.1-.7.4-.6.6-1.3.5-2v-21c0-.7-.1-1.4-.5-2-.2-.4-.7-.6-1.1-.7-.5 0-.9.2-1.1.6-.4.6-.5 1.3-.5 2V3.3z"/><path id="Path_6983" class="st0" d="M94.9 4.6c0 1.2 0 2.3.1 3.2-1 .2-1.9.3-2.9.4 0-.8-.1-1.9-.1-3.1V-6c0-.5-.2-.7-.5-.7h-2.9V8.6c-.9.1-1.9.2-2.8.3v-32.5l5.4.6c1.8.2 2.7 1.7 2.7 4.3v7.7c0 .6-.1 1.1-.4 1.6.4.2.7.6.9 1 .3.6.4 1.2.4 1.8l.1 11.2zm-6.2-24.3v9.5h2.1c.3 0 .5-.2.5-.7v-7.9c0-.5-.2-.7-.5-.7-.7 0-1.4-.1-2.1-.2z"/><path id="Path_6984" class="st0" d="M102.5-9.6h.5c.8 0 1.6.3 2.2.9.6.6.8 1.5.8 2.3v9.6c0 1 0 2 .1 2.9-.9.2-1.9.3-2.8.5-.1-.7-.1-1.7-.1-2.8v-9.6c0-.5-.2-.8-.7-.8h-2.6V7.1c-.9.2-1.9.3-2.8.5v-29.7c.9.1 1.9.3 2.8.4v12c1.1-4 2.1-7.8 3.2-11.5 1 .2 1.9.3 2.9.5-1.2 3.5-2.3 7.2-3.5 11.1z"/><path id="Path_6985" class="st0" d="M110.7-10.2c1.7.6 3.4 1.1 5.1 1.6v8.5c.1 1.2-.3 2.5-.9 3.5-.8 1-1.9 1.7-3.2 1.9-1 .3-2.1.1-2.9-.7-.7-.7-1-1.9-1-3.6 0-1.5 0-2.6.1-3.3.9-.1 1.7-.1 2.6-.2-.1.7-.1 1.8-.1 3.2 0 1.2.4 1.7 1.3 1.6.8-.1 1.2-.8 1.2-1.9v-6.9L107.8-8v-8c0-1.5.4-2.6 1.1-3.2.8-.6 1.9-.8 2.9-.5.5.1 1.1.3 1.6.6s.9.6 1.3 1.1c.4.4.6.9.8 1.4.2.6.3 1.2.3 1.8 0 .7 0 1.4-.1 2.1-.9-.1-1.8-.2-2.6-.3.1-.7.1-1.4.1-2.1.1-.8-.5-1.6-1.3-1.7-.8-.1-1.2.3-1.2 1.3v5.3z"/></g></g></svg>