<svg xmlns="http://www.w3.org/2000/svg" width="244.169" height="72.31"><path data-name="Path 13970" d="M8.246 37.123a131.814 131.814 0 0 1 43 24.28.74.74 0 0 1 .28.76.781.781 0 0 1-.44.64.821.821 0 0 1-.8-.12 130.664 130.664 0 0 0-42.84-24.12 55.691 55.691 0 0 0-3.52 8.56q-.4 2.64-1.16 7.92t-1.16 7.88a.764.764 0 0 1-.82.72.647.647 0 0 1-.78-.68v-.24a50.54 50.54 0 0 1 2.32-15.8q1.08-7.36 3.22-22.04t3.18-22a.859.859 0 0 1 .54-.64.811.811 0 0 1 .78.08.662.662 0 0 1 .28.72q.24.44.7 1.24t.7 1.24a.607.607 0 0 1 .52.56.889.889 0 0 1-.3.76.763.763 0 0 1-.82.16 4.794 4.794 0 0 1-1.28-.64l-2.16 14.88-2.16 14.88q.84-.2 1.6-.36a69.839 69.839 0 0 1 4.36-6.88 105.39 105.39 0 0 1 24.4-23.48q.84-.6 1.9-1.24t2.48-1.42a24.036 24.036 0 0 1 2.86-1.34q1.44-.56 2.92-1a8.815 8.815 0 0 1 2.78-.4 6.766 6.766 0 0 1 2.34.46 3.278 3.278 0 0 1 1.66 1.58 6.915 6.915 0 0 1 .7 2.96 10.931 10.931 0 0 1-.52 3.78 16.661 16.661 0 0 1-1.52 3.46 18.628 18.628 0 0 1-2.5 3.24q-1.58 1.68-2.94 2.88t-3.36 2.64q-2 1.44-3.22 2.24t-3.06 1.96a99.549 99.549 0 0 1-28.16 11.92Zm29.72-31.2a108.865 108.865 0 0 0-16.24 13.34 78.5 78.5 0 0 0-12.44 15.94 95.879 95.879 0 0 0 28.96-13.16 65.871 65.871 0 0 0 6.86-5.2 24.867 24.867 0 0 0 4.78-5.64 13.993 13.993 0 0 0 1-2 17.243 17.243 0 0 0 .74-2.26 5.653 5.653 0 0 0 .16-2.18 4.067 4.067 0 0 0-.66-1.76 2.908 2.908 0 0 0-1.76-1.08 7.811 7.811 0 0 0-3.08-.04q-3 .48-8.32 4.04Zm-33 34.16q.44-1.04.96-2.04-.12-.04-.32-.1t-.32-.1q-.04.32-.16 1.08t-.16 1.16Zm58.64-1.56a.661.661 0 0 1 .78-.12.831.831 0 0 1 .5.6.854.854 0 0 1-.24.76q-1.88 1.56-7.4 5.6a35.12 35.12 0 0 1 .16 8.88 24.715 24.715 0 0 1-1.92 7.3 20.764 20.764 0 0 1-4.32 6.34 16.062 16.062 0 0 1-6.36 4.04 4.812 4.812 0 0 1-3.52.1 3.942 3.942 0 0 1-2.32-2.62q-1.32-3.8 2.2-10.04a27.229 27.229 0 0 1 1.8-2.88 27.736 27.736 0 0 1 2.18-2.68q1.18-1.28 2.32-2.4t2.56-2.32q1.42-1.2 2.6-2.12t2.74-2.08a12.524 12.524 0 0 0-1.8-4.68 3.287 3.287 0 0 0-.7-.72 1.79 1.79 0 0 0-.6-.3.911.911 0 0 0-.64.16 3.557 3.557 0 0 0-.62.44l-.76.7-.08.08a.655.655 0 0 1-.1.08.656.656 0 0 0-.1.08 32.8 32.8 0 0 0-2.24 2.46q-1.4 1.66-2.04 2.3-.48.52-.84.84t-1 .8a4.554 4.554 0 0 1-1.14.66 2.55 2.55 0 0 1-1.12.12 2.043 2.043 0 0 1-1.14-.5q-2.04-1.76.24-8a.706.706 0 0 1 .6-.5.839.839 0 0 1 .76.28.708.708 0 0 1 .12.82 10.938 10.938 0 0 0-.92 4.04 3.238 3.238 0 0 0 .32 1.26.72.72 0 0 0 .64.42 1.88 1.88 0 0 0 .84-.22 7.517 7.517 0 0 0 1.04-.66 16.39 16.39 0 0 0 2.52-2.64q1.52-1.88 2.04-2.4.72-.72 1.18-1.1a10.353 10.353 0 0 1 1.18-.82 2.6 2.6 0 0 1 1.44-.42 2.4 2.4 0 0 1 1.4.54q2.16 1.56 3.08 5.68 4.6-3.44 6.68-5.16Zm-7.68 12q-.08-2.2-.28-3.96-2.28 1.68-3.92 3.04t-3.56 3.2a32.4 32.4 0 0 0-3.26 3.58 28.4 28.4 0 0 0-2.5 3.9 18.878 18.878 0 0 0-1.72 4.44 7.033 7.033 0 0 0-.14 3.5 2.913 2.913 0 0 0 1.6 2.1q1.22.56 3.38-.48a17.627 17.627 0 0 0 2.42-1.48 19.574 19.574 0 0 0 2.26-1.9 18.786 18.786 0 0 0 1.88-2.14q4.04-5.4 3.84-13.8Zm28.2-12.36a.6.6 0 0 1 .74-.18.787.787 0 0 1 .5.6.983.983 0 0 1-.24.82 23.372 23.372 0 0 1-1.94 1.7q-1.18.94-2.72 1.98a18.63 18.63 0 0 1-3.08 1.7 13.2 13.2 0 0 1-2.92.9 3.243 3.243 0 0 1-2.4-.42 3.338 3.338 0 0 1-1.34-2.3q-.32.24-.78.62l-.82.68q-.36.3-.84.64t-.88.6a6.847 6.847 0 0 1-.88.48 4.611 4.611 0 0 1-.94.32 5.558 5.558 0 0 1-.96.12 2.729 2.729 0 0 1-.98-.14 2.4 2.4 0 0 1-1.42-.96 2.681 2.681 0 0 1-.5-1.56 6.971 6.971 0 0 1 .24-1.76 6.472 6.472 0 0 1 1.76-2.96 7.387 7.387 0 0 1 2.88-1.76 8.64 8.64 0 0 1 3.38-.38 7.43 7.43 0 0 1 3.26 1.02.6.6 0 0 1 .2 1.04.756.756 0 0 1-1.12.24 5.74 5.74 0 0 0-6.2.12 8.758 8.758 0 0 0-1.18.88 7.116 7.116 0 0 0-1.02 1.14 2.07 2.07 0 0 0-.46 1.28 2.3 2.3 0 0 0 .54 1.3 1.709 1.709 0 0 0 1.28.6 2.855 2.855 0 0 0 1.48-.46 13.647 13.647 0 0 0 1.46-1.02q.7-.56 1.52-1.24t1.3-1a.59.59 0 0 1 .76.08.985.985 0 0 1 .36.76q.08 4.48 6.04.96a32.315 32.315 0 0 0 5.76-4.28.453.453 0 0 1 .16-.16Zm27.12 0a.8.8 0 0 1 .78-.28.813.813 0 0 1 .64.46.737.737 0 0 1-.1.78 28.775 28.775 0 0 1-2.36 2.56 26.753 26.753 0 0 1-3.2 2.62 19.141 19.141 0 0 1-3.6 2.04 7.318 7.318 0 0 1-3.6.56 4.88 4.88 0 0 1-3.16-1.58q-.72-.8-1.94-2.36t-1.78-2.2a4.945 4.945 0 0 0-.68-.58 2.34 2.34 0 0 0-.56-.3.715.715 0 0 0-.52.04q-.28.12-.46.22a1.989 1.989 0 0 0-.46.42 3.931 3.931 0 0 0-.4.52q-.12.2-.44.66t-.44.62q-.2.32-1.06 2.02a18.623 18.623 0 0 1-1.76 2.88 2.951 2.951 0 0 1-1.7 1.3.74.74 0 0 1-.76-.28 3.029 3.029 0 0 1-.42-.86 3.212 3.212 0 0 1-.1-1.12q.04-.66.08-1.02t.2-1.16q.16-.8.2-.92.24-1.52.92-4.34t.8-3.38a.846.846 0 0 1 .56-.6.846.846 0 0 1 .8.08.607.607 0 0 1 .24.72q-.2.88-.68 2.9t-.72 3.1q-.48 2.36-.6 3.28v.36a10.64 10.64 0 0 1 .82-1.28l1.06-1.44q.56-.76.8-1.16.12-.16.34-.48t.38-.56q.16-.24.38-.54t.42-.54q.2-.24.44-.48a5.134 5.134 0 0 1 .5-.44 3.112 3.112 0 0 1 .5-.32 4.7 4.7 0 0 1 1.12-.16 1.953 1.953 0 0 1 1.04.36 6.557 6.557 0 0 1 .98.76 12.006 12.006 0 0 1 .92 1q.5.6.84 1.1l.72 1.06a9.337 9.337 0 0 0 .66.88 5.55 5.55 0 0 0 2.52 2.02 5.681 5.681 0 0 0 3.2-.46 19.941 19.941 0 0 0 8.64-6.48Zm65.28-8.92a.8.8 0 0 1 .78.34.865.865 0 0 1 .12.8.676.676 0 0 1-.66.46 37.978 37.978 0 0 0-13.8 4.6 53.733 53.733 0 0 1-4.72 20q-.68 1.4-1.3 2.58a27.341 27.341 0 0 1-1.6 2.62 16.06 16.06 0 0 1-2 2.44 11.132 11.132 0 0 1-2.38 1.76 6.82 6.82 0 0 1-2.76.88 5.918 5.918 0 0 1-3.9-.94 6.9 6.9 0 0 1-2.58-3.04 7.83 7.83 0 0 1-.64-3.98q.84-7.92 11.96-17.36a57.309 57.309 0 0 1 8.4-5.92 53.2 53.2 0 0 0-.28-7.48 36.167 36.167 0 0 0-3.32-12.2q-.32-.68-1.02-1.86t-.86-1.46a2.768 2.768 0 0 0-.34-.48q-.18-.2-.24-.28a.243.243 0 0 1-.06-.12.989.989 0 0 0-.34.36q-.18.28-.32.54a6.464 6.464 0 0 0-.28.6 1.552 1.552 0 0 1-.22.42q-1 1.96-2.16 4.6t-2.3 5.26q-1.14 2.62-2.18 4.58-.84 1.64-1.4 2.68t-1.54 2.58a23.841 23.841 0 0 1-1.86 2.58 23.315 23.315 0 0 1-2.06 2.12 11.969 11.969 0 0 1-2.46 1.76 7.581 7.581 0 0 1-5.9.68 8 8 0 0 1-4.66-3.76 16.955 16.955 0 0 1-2.46-7.68 16.993 16.993 0 0 1 1.1-7.44 22.468 22.468 0 0 1 4-6.48 24.309 24.309 0 0 1 5.98-5.02 23.923 23.923 0 0 1 7.34-2.82 19.736 19.736 0 0 1 7.8-.12.767.767 0 0 1 .64.52.846.846 0 0 1-.08.8.662.662 0 0 1-.72.28 19.155 19.155 0 0 0-5.86-.14 20.707 20.707 0 0 0-5.62 1.52 25.248 25.248 0 0 0-5.04 2.92 19.314 19.314 0 0 0-4.08 4.06 21.9 21.9 0 0 0-2.74 4.96 14.484 14.484 0 0 0-1.02 5.58 19.443 19.443 0 0 0 1.04 5.9 9.7 9.7 0 0 0 3.48 4.74 5.251 5.251 0 0 0 5.24.46 9.661 9.661 0 0 0 3.64-2.56 32.479 32.479 0 0 0 3.24-4.32 49.885 49.885 0 0 0 2.86-5.02q1.3-2.62 3.14-6.8t2.32-5.3a4.526 4.526 0 0 0 .38-.82q.26-.66.46-1.06t.54-1.02a4.2 4.2 0 0 1 .66-.94 5.368 5.368 0 0 1 .72-.6 1.187 1.187 0 0 1 .86-.22 2.019 2.019 0 0 1 .94.42 6.215 6.215 0 0 1 1.72 1.8 14.572 14.572 0 0 1 1.46 2.96q.66 1.76.96 2.68t.78 2.6a45.522 45.522 0 0 1 1.72 12.28v1.88a37.943 37.943 0 0 1 13.48-4.36Zm-18.56 22.68a54.992 54.992 0 0 0 3.36-15.56 52.311 52.311 0 0 0-11.44 9.28q-5.56 5.84-6.88 10.68a6.809 6.809 0 0 0-.26 2.5 8.775 8.775 0 0 0 .52 2.42 4.423 4.423 0 0 0 1.42 1.92 4.588 4.588 0 0 0 2.4.96 5.24 5.24 0 0 0 2.3-.28 7.166 7.166 0 0 0 2.06-1.12 11 11 0 0 0 1.82-1.86 24.306 24.306 0 0 0 1.56-2.2 26.406 26.406 0 0 0 1.32-2.42q.66-1.36 1.04-2.3t.78-2.02Zm27.44-13.6a.773.773 0 0 1 .5-.2.716.716 0 0 1 .46.16 1.028 1.028 0 0 1 .3.38.779.779 0 0 1 .06.46.735.735 0 0 1-.28.44 9.6 9.6 0 0 1-6.46 2.16 9.5 9.5 0 0 1-6.26-2.56 15.476 15.476 0 0 0-2.42 4.12 27.65 27.65 0 0 0-1.5 4.96.769.769 0 0 1-.48.64.777.777 0 0 1-.76-.08.847.847 0 0 1-.36-.76 53.6 53.6 0 0 1 2.12-12.52.607.607 0 0 1 .56-.52.889.889 0 0 1 .76.3.775.775 0 0 1 .2.78q-.68 2.44-1.16 4.76a15.844 15.844 0 0 1 2.48-3.44.67.67 0 0 1 .58-.2.794.794 0 0 1 .54.28 7.888 7.888 0 0 0 5.4 2.64 7.855 7.855 0 0 0 5.72-1.8Zm20.12-.16a.6.6 0 0 1 .74-.18.787.787 0 0 1 .5.6.983.983 0 0 1-.24.82 23.375 23.375 0 0 1-1.94 1.7q-1.18.94-2.72 1.98a18.629 18.629 0 0 1-3.08 1.7 13.2 13.2 0 0 1-2.92.9 3.243 3.243 0 0 1-2.4-.42 3.338 3.338 0 0 1-1.34-2.3q-.32.24-.78.62l-.82.68q-.36.3-.84.64t-.88.6a6.847 6.847 0 0 1-.88.48 4.611 4.611 0 0 1-.94.32 5.558 5.558 0 0 1-.96.12 2.729 2.729 0 0 1-.98-.14 2.4 2.4 0 0 1-1.42-.96 2.681 2.681 0 0 1-.5-1.56 6.972 6.972 0 0 1 .24-1.76 6.472 6.472 0 0 1 1.76-2.96 7.387 7.387 0 0 1 2.88-1.76 8.64 8.64 0 0 1 3.38-.38 7.43 7.43 0 0 1 3.26 1.02.6.6 0 0 1 .2 1.04.756.756 0 0 1-1.12.24 5.74 5.74 0 0 0-6.2.12 8.758 8.758 0 0 0-1.18.88 7.116 7.116 0 0 0-1.02 1.14 2.07 2.07 0 0 0-.46 1.28 2.3 2.3 0 0 0 .54 1.3 1.709 1.709 0 0 0 1.28.6 2.855 2.855 0 0 0 1.48-.46 13.646 13.646 0 0 0 1.46-1.02q.7-.56 1.52-1.24t1.3-1a.59.59 0 0 1 .76.08.985.985 0 0 1 .36.76q.08 4.48 6.04.96a32.315 32.315 0 0 0 5.76-4.28.453.453 0 0 1 .16-.16Zm27.12 0a.8.8 0 0 1 .78-.28.813.813 0 0 1 .64.46.737.737 0 0 1-.1.78 28.775 28.775 0 0 1-2.36 2.56 26.752 26.752 0 0 1-3.2 2.62 19.142 19.142 0 0 1-3.6 2.04 7.318 7.318 0 0 1-3.6.56 4.88 4.88 0 0 1-3.16-1.58q-.72-.8-1.94-2.36t-1.78-2.2a4.945 4.945 0 0 0-.68-.58 2.341 2.341 0 0 0-.56-.3.715.715 0 0 0-.52.04q-.28.12-.46.22a1.989 1.989 0 0 0-.46.42 3.932 3.932 0 0 0-.4.52q-.12.2-.44.66t-.44.62q-.2.32-1.06 2.02a18.623 18.623 0 0 1-1.76 2.88 2.951 2.951 0 0 1-1.7 1.3.74.74 0 0 1-.76-.28 3.03 3.03 0 0 1-.42-.86 3.211 3.211 0 0 1-.1-1.12q.04-.66.08-1.02t.2-1.16q.16-.8.2-.92.24-1.52.92-4.34t.8-3.38a.846.846 0 0 1 .56-.6.846.846 0 0 1 .8.08.607.607 0 0 1 .24.72q-.2.88-.68 2.9t-.72 3.1q-.48 2.36-.6 3.28v.36a10.64 10.64 0 0 1 .82-1.28l1.06-1.44q.56-.76.8-1.16.12-.16.34-.48t.38-.56q.16-.24.38-.54t.42-.54q.2-.24.44-.48a5.132 5.132 0 0 1 .5-.44 3.112 3.112 0 0 1 .5-.32 4.7 4.7 0 0 1 1.12-.16 1.954 1.954 0 0 1 1.04.36 6.556 6.556 0 0 1 .98.76 12.005 12.005 0 0 1 .92 1q.5.6.84 1.1l.72 1.06a9.34 9.34 0 0 0 .66.88 5.55 5.55 0 0 0 2.52 2.02 5.681 5.681 0 0 0 3.2-.46 19.941 19.941 0 0 0 8.64-6.48Zm10.56-14.52q-.48 3.96-.72 6.28t-.44 6a60.492 60.492 0 0 0-.06 6.34 57.963 57.963 0 0 0 .64 5.86 35.256 35.256 0 0 0 1.46 6 .784.784 0 0 1-.14.82.89.89 0 0 1-.74.32.638.638 0 0 1-.6-.5q-2.64-7.64-2.16-18.56a29 29 0 0 1-6.2 10.8 5.947 5.947 0 0 1-1.54 1.24 5.735 5.735 0 0 1-1.66.64 1.381 1.381 0 0 1-1.36-.44 2.887 2.887 0 0 1-.6-1.92 9.567 9.567 0 0 1 1.78-5.38 8.779 8.779 0 0 1 4.22-3.66.761.761 0 0 1 1.04.44.7.7 0 0 1-.36 1.04q-2.68.96-4.24 4.64-1.32 3.04-.4 3.32.56.12 1.96-1.04 2.96-2.48 5.24-9.04 2.88-8.4 4.24-21.84a.689.689 0 0 1 .46-.64.854.854 0 0 1 .8.08.717.717 0 0 1 .34.72l-.28 2.8q-.36 3.28-.68 5.68Z" fill="#2c1e18"/></svg>