<svg xmlns="http://www.w3.org/2000/svg" viewBox="0 0 1700 617" style="enable-background:new 0 0 1700 617" xml:space="preserve"><path d="M524.8 145.5c-9.8 12.7-19.9 26.7-27.7 43.5-6 12.8-10.6 26.3-13.6 40.2-2.6 12-4.7 25.1-6.5 40-.9 7-1.4 14.2-1.9 21.1-.6 7.5-1.2 15.3-2.2 22.9-.8 5.9-.7 11.9-.7 17.7v6.3c-.1 7.3-.3 14.6-.6 21.8-.3 9.5-.6 19.3-.6 28.9 0 4.1.2 8.3.4 12.4.2 4 .4 8.2.5 12.3.1 23.8.4 49.4 1.9 74.8.6 9.7.9 19.6 1.2 29.1.4 12.8.9 26 1.9 38.9.4 5.5.4 11.1.4 16.5 0 7.4 0 15 1.1 22.4 1.2 7.5 1.5 15.2 1.7 22.7h-2c-.2-7.4-.5-15-1.7-22.4-1.2-7.5-1.1-15.3-1.1-22.7 0-5.4 0-10.9-.4-16.3-1-13-1.5-26.2-1.9-39-.3-9.5-.7-19.4-1.2-29.1-1.5-25.5-1.8-51.1-1.9-74.9 0-4.1-.2-8.2-.4-12.2-.2-4.1-.4-8.3-.5-12.5 0-9.7.3-19.5.6-29 .2-7.1.5-14.5.6-21.7v-6.3c0-5.9-.1-12 .7-18 1-7.5 1.6-15.3 2.2-22.8.5-7 1.1-14.1 2-21.2 1.8-15 4-28.1 6.5-40.2 3-14 7.7-27.6 13.8-40.6 7.9-16.9 18.1-31.1 27.9-43.8 16.3-21.1 27.9-40.1 36.6-60 6.7-15.2 11.3-32 14.6-44.9 2.5-9.8 5.1-20.3 6.9-30.9.4-2.5.9-4.9 1.3-7.4.1-.4.1-.7.2-1.1h2c-.1.5-.2 1-.3 1.4-.4 2.5-.9 4.9-1.3 7.4-1.8 10.6-4.4 21.1-7 31-3.3 13-7.9 29.8-14.7 45.2-8.7 20.1-20.4 39.3-36.8 60.5zm-7 432.2c-.2-2.6-.5-5.2-.7-7.8-.6-7.2-1.1-14.6-1.5-21.8-.2-4.1-.5-8.1-.8-12.2-.2-3.5-.4-7-.6-10.4-.4-8.3-.9-16.9-2.1-25.4-.6-4.3-.7-8.9-.8-13.3-.1-3.6-.1-7.3-.5-11-.8-8.2-1.2-16.5-1.7-24.6-.5-9.8-1-19.9-2.2-29.8-.6-4.8-.7-9.9-.8-14.7-.1-3.7-.1-7.5-.4-11.3-1.5-20.1-2.4-37.7-2.9-53.8-.1-4.3-.3-8.7-.4-13-.6-19.1-1.3-38.8.2-58.3.3-3.9.4-7.8.6-11.7.1-3.8.2-7.7.5-11.6 2.3-28.4 10.8-50.6 26.3-68 1.7-1.9 3.4-3.8 5.1-5.6 6.8-7.5 13.9-15.4 19.6-24.5 8.8-13.9 16.6-28.6 23.1-43.8 5.5-12.8 10.4-25.9 14.5-39.2C599 43.7 603.6 25.5 607 8.6c.6-3 1.1-5.9 1.7-8.9h-2c-.5 2.8-1.1 5.7-1.6 8.5-3.3 16.8-8 35-14.6 57.1-4.1 13.2-8.9 26.3-14.4 39-6.5 15-14.2 29.7-22.9 43.5-5.6 9-12.6 16.7-19.4 24.2l-5.1 5.7c-15.7 17.7-24.5 40.4-26.7 69.2-.3 3.9-.4 7.8-.6 11.7-.1 3.8-.2 7.7-.5 11.6-1.6 19.5-.9 39.3-.3 58.5.1 4.3.3 8.7.4 13 .4 16.1 1.4 33.7 2.9 53.9.3 3.7.3 7.5.4 11.2.1 4.9.2 10 .8 14.9 1.2 9.9 1.7 20 2.2 29.7.4 8.1.9 16.5 1.7 24.7.3 3.6.4 7.2.5 10.8.1 4.5.1 9.1.8 13.6 1.2 8.4 1.7 16.9 2.1 25.2.2 3.4.4 7 .6 10.5.3 4 .5 8.1.8 12.1.4 7.2.9 14.6 1.5 21.8.2 2.6.5 5.2.7 7.8.7 7.5 1.4 15.2 1.8 22.8.3 5.4.6 10.9.9 16.3h2c-.3-5.4-.6-10.9-.9-16.4-.6-7.6-1.3-15.4-2-22.9zm-142.4-38.2c-.4-11.2-.9-22.8-1.6-34.2-.7-11.3-1.4-22.8-2.2-33.9l-1.5-22.8c-1.4-21.7-4-43-6.9-64.7-4.4-32.5-11.1-65-20.1-96.5-4.2-15-9.2-30.5-15.7-49-6.7-18.9-14-37-21.8-53.8-7.3-15.8-16.8-30.3-25-42.7-2.5-3.8-5.1-7.6-7.7-11.3-5.3-7.7-10.8-15.7-15.6-23.9-8.7-14.8-15.3-31.6-20.2-51.2-3.6-14.6-6.2-29.7-8.4-43.1-.7-4.1-1.3-8.3-1.8-12.4h-2c.6 4.3 1.1 8.5 1.9 12.8 2.3 13.4 4.8 28.6 8.5 43.2 5 19.8 11.6 36.7 20.4 51.7 4.9 8.3 10.4 16.3 15.7 24.1 2.5 3.7 5.2 7.5 7.7 11.2 8.2 12.3 17.6 26.8 24.8 42.5 7.8 16.8 15.1 34.8 21.8 53.6 6.5 18.4 11.5 33.9 15.6 48.9 8.9 31.5 15.7 63.8 20 96.2 2.8 21.7 5.5 43 6.9 64.6l1.5 22.8c.8 11.1 1.6 22.6 2.2 33.9.7 11.4 1.1 22.9 1.6 34.1.5 12.4 1 25.3 1.8 37.9.8 12.2 1.3 25.1 1.7 39.5h2c-.3-14.5-.9-27.4-1.7-39.6-.9-12.6-1.4-25.5-1.9-37.9zm216.4 44.3c-.5-3.1-1-6.2-1.5-9.4-3.1-19.2-6.2-38.5-9.2-57.7-.6-3.5-1.1-7-1.7-10.6-1.8-11.6-3.7-23.7-5.9-35.4-1.4-7.1-2.2-14.5-3.1-21.7-.6-5.3-1.3-10.8-2.1-16.2-2.7-16.8-4.6-33.5-5.7-49.8-1.4-20.6-2.8-44.6-1-68.4 1.1-14 3.3-28.1 6.7-41.7 3.9-16 11.6-30.1 18.5-42.2 3.3-5.8 6.8-11.5 10.2-17.1 7.1-11.7 14.5-23.8 20.3-36.8 8.8-19.7 15.9-40.4 21-61.4 3-12.6 6.9-29.2 10-45.9 2.2-12 3.9-24.2 5.6-36.1.5-3.7 1-7.3 1.5-11 1-6.6 1.6-13.4 2.3-19.9l.3-2.4h-2c-.1.7-.2 1.5-.2 2.2-.7 6.5-1.4 13.3-2.3 19.9-.5 3.7-1 7.3-1.5 11-1.7 11.8-3.4 24.1-5.5 36-3 16.7-6.9 33.2-9.9 45.8-5 20.9-12.1 41.4-20.9 61-5.8 12.9-13.1 24.9-20.2 36.6-3.4 5.6-6.9 11.3-10.2 17.1-6.9 12.2-14.7 26.5-18.7 42.7-3.4 13.8-5.7 27.9-6.7 42.1-1.8 23.9-.5 48 1 68.7 1.1 16.3 3 33.1 5.7 50 .8 5.3 1.5 10.8 2.1 16.1.8 7.2 1.7 14.6 3.1 21.8 2.3 11.7 4.1 23.7 5.9 35.4.5 3.5 1.1 7.1 1.7 10.6 3.1 19.2 6.1 38.5 9.2 57.7.5 3.1 1 6.3 1.6 9.4 1.6 9.7 3.3 19.7 4.3 29.7.1 1.1.2 2.2.4 3.2h2c-.1-1.1-.3-2.3-.4-3.4-1.4-10.1-3-20.2-4.7-29.9zm-181.1-47.2c-.3-9.2-1-18.5-1.7-27.5-.5-5.9-.9-11.9-1.3-17.9-.8-14.2-2.5-28.5-4.1-42.4l-.8-6.4c-1.4-12.2-3.2-25.2-5.5-40.8-.5-3.6-1.1-7.1-1.6-10.7-2.6-17.7-5.3-36-8.5-53.9-2.8-15.4-6-30.9-9.2-45.9l-1.5-6.9c-4.2-20.1-8-36.3-11.7-51-7.5-29.2-16.4-54.2-27.2-76.6-8.8-18.1-19.8-35-32.9-50.3l-1-1.2c-9.2-10.8-18.7-21.9-26.4-34.3-7.7-12.3-13.6-27.1-18.6-46.6-2-8-3.7-16.2-5.3-24.3h-2c1.6 8.2 3.3 16.6 5.4 24.8 5 19.7 11 34.7 18.8 47.2 7.8 12.5 17.4 23.7 26.6 34.6l1 1.2c12.9 15.1 23.9 31.9 32.6 49.8 10.7 22.3 19.6 47.2 27.1 76.2 3.8 14.6 7.5 30.8 11.7 50.9l1.5 6.9c3.2 15 6.4 30.5 9.2 45.8 3.2 17.8 5.9 36.1 8.5 53.8.5 3.6 1.1 7.1 1.6 10.7 2.3 15.6 4.1 28.5 5.5 40.8l.8 6.4c1.6 13.8 3.3 28.1 4.1 42.3.3 6 .8 12 1.3 17.9.7 9 1.4 18.3 1.7 27.4.2 8 .6 16.1 1 24 .7 16.1 1.4 32.7 1.2 49 0 2.4 0 4.9-.1 7.4h2c0-2.4 0-4.9.1-7.3.2-16.4-.5-33-1.2-49.1-.5-7.9-.9-16-1.1-24zM524.4 85c6.7-15.4 11.4-32.2 14.7-45.2 2.5-9.9 5.1-20.4 7-31 .4-2.5.9-4.9 1.3-7.4.1-.5.2-1 .3-1.4h-2c-.1.4-.1.7-.2 1.1-.4 2.5-.9 4.9-1.3 7.4-1.8 10.5-4.4 21-6.9 30.9-3.3 12.9-7.9 29.7-14.6 44.9-8.7 19.9-20.3 39-36.6 60-9.8 12.8-20 26.9-27.9 43.8-6.1 12.9-10.8 26.6-13.8 40.6-2.6 12.1-4.7 25.2-6.5 40.2-.9 7.1-1.4 14.3-2 21.2-.6 7.5-1.2 15.2-2.2 22.8-.8 6-.8 12.1-.7 18v6.3c-.1 7.2-.3 14.6-.6 21.7-.3 9.5-.6 19.3-.6 29 0 4.2.2 8.4.5 12.5.2 4 .4 8.2.4 12.2.1 23.9.4 49.4 1.9 74.9.6 9.7.9 19.5 1.2 29.1.4 12.8.9 26 1.9 39 .4 5.4.4 11 .4 16.3 0 7.5-.1 15.2 1.1 22.7 1.1 7.4 1.5 15 1.7 22.4h2c-.2-7.5-.5-15.2-1.7-22.7-1.1-7.4-1.1-15-1.1-22.4 0-5.4 0-11-.4-16.5-1-12.9-1.5-26.1-1.9-38.9-.3-9.6-.7-19.4-1.2-29.1-1.5-25.4-1.8-51-1.9-74.8 0-4.1-.2-8.3-.5-12.3-.2-4.1-.4-8.3-.4-12.4 0-9.6.3-19.4.6-28.9.2-7.1.5-14.5.6-21.8v-6.3c0-5.8-.1-11.8.7-17.7 1-7.6 1.6-15.4 2.2-22.9.5-6.9 1.1-14.1 1.9-21.1 1.8-14.9 4-28 6.5-40 3-13.8 7.6-27.4 13.6-40.2 7.8-16.8 17.9-30.8 27.7-43.5 16.4-21.2 28.1-40.4 36.8-60.5zm-90.7 63.6c2.6-3.3 4.8-6.9 6.6-10.6 3-5.7 6-11.6 8.9-17.3 3.1-6.1 6.4-12.5 9.6-18.7 8.8-16.7 19.8-31.8 30.4-45.9 14.3-19.1 27-36.6 37.4-56.1h-2.3c-10.2 19-22.7 36.2-36.7 54.9C477.1 69 466 84.2 457.1 101c-3.3 6.2-6.5 12.6-9.7 18.7-2.9 5.7-5.9 11.5-8.9 17.3-1.8 3.6-3.9 7.1-6.4 10.3-2.8 3.4-5.9 5.1-9 5.1-3.1-.1-6.1-2-8.8-5.5-5.2-6.8-11.1-14.5-15.3-22.9-7.8-15.4-17.4-29.6-25.8-41.5-7.1-10.1-14.6-20.2-21.9-30-4.1-5.6-8.4-11.4-12.6-17.1-7.7-10.6-15-22.3-22-35.4h-2.3c7.2 13.5 14.7 25.6 22.7 36.6 4.2 5.7 8.4 11.5 12.6 17.1 7.2 9.8 14.7 19.9 21.8 29.9 8.3 11.8 17.9 25.9 25.7 41.2 4.3 8.5 10.3 16.3 15.5 23.2 3.1 4 6.7 6.2 10.4 6.3h.2c3.6.1 7.2-1.9 10.4-5.7zm121.5 419.1c-1.1-11-2.4-22.6-4.6-34.2-1.1-5.6-1.6-11.5-2-17.1-.3-3.8-.7-7.8-1.2-11.6-.9-7-2-14.1-3-21-1.2-8-2.4-16.2-3.4-24.3-2.4-18.9-4.6-38.2-6.7-57.2-3.3-30.4-5.1-57.3-5.4-82.1-.4-32.6 7.3-63.1 22.9-90.7 6.4-11.3 13.2-23.4 19.5-35.7 6.5-12.7 12.8-26.8 19.3-43 5.2-13.1 10.3-26 14.3-39.3.7-2.2 1.4-4.5 2.1-6.7 4.7-15.3 9.5-31.1 13.2-47.1l1.4-6c2.9-12.9 6-26.1 8.4-39.4.6-3.1 1.1-6.1 1.7-9.2l.6-3h-2c-.2.9-.3 1.8-.5 2.6-.6 3.1-1.1 6.1-1.7 9.2-2.4 13.2-5.4 26.5-8.4 39.3l-1.4 6c-3.6 16-8.5 31.7-13.1 46.9-.7 2.2-1.4 4.5-2.1 6.7-4 13.2-9 26-14.3 39.1-6.4 16.1-12.7 30.2-19.2 42.8-6.3 12.3-13.1 24.4-19.4 35.7-15.8 27.9-23.5 58.8-23.2 91.7.3 24.9 2.1 51.8 5.4 82.3 2.1 19 4.3 38.3 6.7 57.2 1 8.1 2.2 16.4 3.4 24.4 1 6.9 2.1 14 3 21 .5 3.8.8 7.8 1.2 11.6.5 5.7 1 11.6 2.1 17.3 2.2 11.4 3.4 23.1 4.5 34 1 10.3 2.3 20.7 3.4 30.8.7 6 1.4 12.1 2.1 18.3h2c-.7-6.2-1.4-12.4-2.1-18.5a998.9 998.9 0 0 1-3.5-30.8zm193.6-10c-3.2-7.9-6.5-15.9-9.8-23.6-4.8-11.3-9.7-23-14.1-34.8-5.4-14.3-10.8-29.6-13.5-45.6-3-18-4-32.1-3.3-45.6 1.1-20.7 5.5-42.4 13.8-68.2 5.5-16.9 12.1-35.1 20.2-55.6 6.6-16.7 13-34.3 19.5-53.8 5.9-17.6 12.7-38.1 18-59 2.8-10.7 5.1-21.6 7.4-32.2.5-2.5 1.1-5 1.6-7.4.9-3.9 1.6-7.9 2.3-11.7.6-3.4 1.3-7 2.1-10.4 1-4.8 1.6-9.8 2.2-14.6.4-3.8.9-7.7 1.6-11.4 2.1-12.2 3.7-24.6 5.2-36.7.4-3.3.8-6.5 1.2-9.8.5-4.1 1.1-8.9 1.5-13.6.5-6.2 1.2-12.6 1.9-18.7.2-1.6.4-3.1.5-4.7h-2c-.2 1.5-.3 3-.5 4.5-.7 6.1-1.4 12.5-1.9 18.8-.4 4.7-1 9.5-1.5 13.6-.4 3.3-.8 6.5-1.2 9.8-1.5 12-3 24.5-5.2 36.6-.7 3.8-1.1 7.7-1.6 11.5-.6 4.8-1.1 9.7-2.1 14.4L789 120c-.7 3.8-1.5 7.8-2.3 11.6-.5 2.5-1.1 5-1.6 7.4-2.3 10.6-4.7 21.5-7.4 32.2-5.4 20.8-12.1 41.3-18 58.8-6.6 19.5-12.9 37.1-19.5 53.8-8.1 20.5-14.7 38.7-20.2 55.7-8.4 26-12.9 47.8-13.9 68.7-.7 13.7.3 27.9 3.4 46.1 2.7 16.2 8.2 31.6 13.6 46 4.4 11.8 9.4 23.5 14.2 34.8 3.2 7.7 6.6 15.7 9.8 23.6 6.7 16.8 14.2 36.8 18.8 58.3 0 .1 0 .2.1.3h2c-.1-.2-.1-.5-.2-.7-4.8-21.9-12.3-42.1-19-58.9zm-20.7 25.5-2.4-9c-2.8-11-6.5-21.8-10.1-32.2-1.7-5-3.5-10.2-5.1-15.4-4.9-15.2-10.1-31.5-15-47.6-4.6-14.7-8-29.9-9.8-45.1-1.9-16.5-3.8-33.6-1.9-50.8.4-3.4.7-6.8 1-10.1.5-5.4 1-11 1.8-16.4 1.2-7.9 2.7-17.2 5-26.5 2.4-9.9 5.2-21.1 8.9-31.7l.4-1.3c5.5-16.1 11.3-32.7 18-48.5 2.8-6.5 5.4-13.3 8-19.8 1.8-4.6 3.7-9.5 5.6-14.1 6.7-16.3 12.5-33.1 17.4-50 3.3-11.3 6-22.9 8-34.5.5-2.8.9-5.6 1.4-8.4.7-4.3 1.5-8.8 2.2-13.2 1.1-6 1.8-12.2 2.6-18.2l.5-4c1.6-12.9 2.9-25.3 3.7-36.9.2-3.3.7-6.7 1.1-10 .7-5.4 1.3-11 1.3-16.6-.1-5.7.7-11.3 1.4-16.8.3-2 .5-3.9.7-6h-2c-.2 1.9-.5 3.8-.7 5.7-.7 5.6-1.5 11.3-1.4 17.1.1 5.5-.6 11-1.3 16.4-.4 3.3-.8 6.7-1.1 10.1-.8 11.6-2.1 23.9-3.7 36.8l-.5 4c-.7 5.9-1.5 12.1-2.5 18.1-.8 4.4-1.5 8.9-2.2 13.2-.5 2.8-.9 5.6-1.4 8.4-2 11.5-4.7 23.1-7.9 34.3-4.8 16.8-10.7 33.6-17.3 49.8-1.9 4.7-3.8 9.5-5.6 14.2-2.5 6.5-5.2 13.3-8 19.8-6.8 15.9-12.5 32.6-18.1 48.7l-.4 1.3c-3.7 10.6-6.4 21.9-8.9 31.8-2.3 9.4-3.9 18.8-5 26.7-.8 5.5-1.3 11.1-1.8 16.5-.3 3.3-.6 6.7-1 10.1-2 17.4 0 34.6 1.9 51.2 1.9 15.4 5.3 30.7 9.9 45.5 4.9 16.1 10.1 32.4 15 47.6 1.7 5.2 3.4 10.4 5.1 15.4 3.5 10.4 7.2 21.1 10 32.1l2.4 9c2.8 10.5 5.7 21.3 7.8 32.3.1.3.1.7.2 1h2c-.1-.5-.2-.9-.3-1.4-2.2-11.2-5.1-22.1-7.9-32.6zm52.3-37.9c-3.8-10.4-8.2-20.7-12.4-30.6-3.5-8.1-7.1-16.5-10.3-24.9-6.1-16-9.9-28.5-12.3-40.7-3.7-19-3.9-38.5-.8-59.7 3.6-24.1 10.6-47.2 16.9-66.5 2.6-7.9 5.3-15.9 8-23.6 2.9-8.5 5.9-17.2 8.7-25.8 5.5-16.7 10.3-33.5 15.6-52.1 3.5-12.4 8.1-28.9 12-45.4 3.3-13.8 6.5-29 10-47.6 1.9-9.8 3.6-19.8 5.2-29.5 1-5.7 1.9-11.3 2.9-17 2.3-12.9 4.1-26.1 5.8-38.9 1.1-7.9 2.2-16.1 3.4-24.1.9-6.2 1.6-12.6 2.3-18.9h-2c-.6 6.2-1.3 12.5-2.3 18.6-1.2 8-2.3 16.2-3.4 24.1-1.7 12.8-3.5 25.9-5.8 38.8-1 5.7-1.9 11.3-2.9 17-1.6 9.7-3.3 19.6-5.2 29.4-3.6 18.6-6.8 33.7-10 47.5-3.9 16.5-8.4 32.9-12 45.3-5.3 18.6-10.1 35.4-15.5 52.1-2.8 8.6-5.8 17.4-8.7 25.8-2.6 7.7-5.4 15.7-8 23.6-6.4 19.4-13.4 42.6-17 66.9-3.2 21.4-2.9 41.2.8 60.4 2.4 12.3 6.2 25 12.4 41 3.2 8.4 6.8 16.8 10.3 24.9 4.3 9.9 8.7 20.1 12.4 30.5 4.4 11.6 8 23.6 11 35.6 2.8 12.1 4.5 24.1 5.5 35.5h2c-1.1-11.5-2.8-23.7-5.6-35.9-2.9-12.1-6.6-24.2-11-35.8zm-123.1 9.6c-1.6-5.9-3.2-12-4.7-18.1-1.1-4.2-2.1-8.3-3.2-12.5-4.1-16-8.4-32.5-11.7-49.1-3.6-18.1-6.1-33.3-8-48.1-3.1-25-2.3-50.3-1-71.8.5-8 2-16.3 3.4-24.3l.9-5.1c1.6-9 3.7-17.9 5.8-26.5.8-3.4 1.7-6.8 2.5-10.2 2.8-12.2 6.9-24.1 10.7-35.7l3-8.9c3.4-10 6.8-20.4 10.3-30.6 1.7-5.1 3.6-10.2 5.3-15.2 3.4-9.6 7-19.6 10-29.6 4.6-14.8 8.6-30.1 11.7-45.3 2.2-10.9 4-21.9 5.5-31.2 1.9-12 3.3-24.2 4.6-36 .6-5.3 1.2-10.8 1.9-16.1.6-5.3 1.3-10.7 2-16 1-7.9 2-16.1 3-24.2V.2h-2c-.9 8.1-2 16.3-3 24.2-.7 5.3-1.3 10.7-2 16-.7 5.4-1.3 10.9-1.9 16.2-1.3 11.8-2.7 24-4.6 35.9-1.5 9.3-3.3 20.2-5.4 31.1-3.1 15.2-7.1 30.4-11.7 45.2-3.1 9.9-6.6 19.9-10 29.5-1.8 5-3.6 10.1-5.3 15.2-3.5 10.2-7 20.6-10.3 30.6l-3 8.9c-3.9 11.6-7.9 23.6-10.8 35.9-.8 3.4-1.6 6.8-2.5 10.2-2.1 8.6-4.3 17.6-5.9 26.6l-.9 5.1c-1.5 8.1-3 16.4-3.4 24.6-1.3 21.6-2.1 47 1.1 72.1 1.9 14.8 4.4 30.1 8 48.2 3.3 16.6 7.6 33.2 11.7 49.2 1.1 4.2 2.1 8.3 3.2 12.5 1.5 6 3.2 12.2 4.7 18.1 2.3 8.8 4.7 17.8 6.9 26.8 2.8 11.5 5.3 23.1 7.5 34.8h2c-2.2-11.9-4.7-23.7-7.6-35.3-2-9.1-4.4-18.2-6.8-26.9zm39 38c-1.5-5.6-3-11.3-4.5-17-5.3-18.7-11.1-37.4-16.1-53.2l-1.5-4.8c-2.3-7.3-4.7-14.8-6.4-22.3-1.2-5.6-2.7-11.3-4.1-16.8-2.6-10.1-5.4-20.6-6.5-31.2-.4-3.6-.8-7.1-1.3-10.6-.6-4.8-1.2-9.8-1.6-14.8-.8-10.3-1-20.7-.5-31 .4-9.2 1-19.1 2.4-28.9 1.5-10.6 3.5-21.2 5.5-31.5l.9-4.7c2.5-13.2 6.6-26.2 10.6-38.7l.3-.9c4.9-15.3 10.1-30.8 15.5-45.8.9-2.6 1.9-5.3 2.9-7.9 3.2-8.8 6.5-17.8 9.4-26.8l.8-2.5c2.8-8.5 5.7-17.4 8-26.3 1.1-4.4 2.3-8.8 3.4-13.1 1.4-5 2.8-10.2 4-15.3 2.5-10.6 4.7-20.5 6.5-30.1 2.8-14.8 5.5-29.9 8-44.8 1.6-9.6 2.8-19.4 4-28.9.8-6.3 1.8-12.7 2.7-18.9 1.1-7 2.2-14.2 3-21.4l.6-4.8h-2l-.6 4.5c-.8 7.1-1.9 14.3-3 21.3-.9 6.2-1.9 12.6-2.7 18.9-1.2 9.5-2.4 19.3-4 28.8-2.5 14.9-5.2 29.9-8 44.7-1.8 9.6-4 19.4-6.5 30-1.2 5.1-2.6 10.3-4 15.2-1.2 4.3-2.4 8.7-3.5 13.1-2.2 8.9-5.1 17.7-7.9 26.2l-.8 2.5c-3 9-6.2 18-9.4 26.7-1 2.6-1.9 5.3-2.9 7.9-5.4 15.1-10.7 30.5-15.5 45.9l-.3.9c-4 12.6-8.1 25.6-10.7 38.9l-.9 4.7c-2 10.3-4 20.9-5.5 31.6-1.4 9.9-2 19.8-2.4 29.1-.5 10.4-.3 20.9.5 31.3.4 5 1 10 1.7 14.9.4 3.5.9 7 1.2 10.6 1.1 10.8 3.9 21.3 6.5 31.5 1.4 5.5 2.9 11.1 4.1 16.7 1.6 7.6 4.1 15.2 6.4 22.5l1.5 4.8c5 15.8 10.8 34.5 16.1 53.2 1.6 5.6 3.1 11.4 4.5 16.9 1.9 7.2 3.8 14.6 6 21.8.2.6.4 1.2.5 1.8h2.1c-.2-.8-.5-1.6-.7-2.4-2-7-3.9-14.4-5.8-21.5zm-58.1 13.3c-.4-2.9-.9-5.8-1.5-8.7-.6-2.8-1.2-5.7-1.7-8.5-.8-4.3-1.6-8.8-2.8-13.1-1.4-5.2-2.7-10.6-3.9-15.8-.9-3.7-1.8-7.6-2.7-11.4-.8-3.3-1.7-6.7-2.6-10-1.4-5.3-2.9-10.7-4.1-16.1-1.1-5-2.5-10-3.7-14.9-1.6-6-3.2-12.2-4.5-18.4-1.2-5.8-2.5-11.6-3.7-17.2-1.4-6.4-2.9-13-4.2-19.6-2.4-12-4.3-24-6.3-37.3-3.3-20.9-4.8-42.2-4.5-63.3.3-13.6 1.7-27.3 4.3-40.7 1.5-8.1 3.6-16 5.6-23.7l1-3.8c2.6-9.8 6.9-19.1 11.2-27.7 4.5-9.1 9.7-17.8 14.8-26.2 5.5-9.1 11.2-18.6 16-28.6 1.1-2.4 2.4-4.8 3.6-7.1 2.1-4 4.3-8.2 6-12.5 3.9-10.1 7-20.6 9.3-31.2.5-2.4 1.1-4.9 1.7-7.3 1.1-4.5 2.2-9.1 2.7-13.8.4-3.3 1-6.5 1.7-9.7 1-5.1 2.1-10.4 2-15.9 0-2.7.5-5.4 1.1-8.2.4-2.1.9-4.2 1.1-6.4.9-10.7 2.1-20.1 3.5-28.8 1.1-6.6 1.6-13.3 2.2-19.8.4-4.7.8-9.6 1.4-14.3.3-2.7.7-5.4 1.1-8 .8-6 1.7-12.1 2.2-18.3h-2c-.5 6.1-1.3 12.1-2.1 18-.4 2.7-.7 5.4-1.1 8.1-.6 4.8-1 9.7-1.4 14.4-.5 6.4-1.1 13.1-2.2 19.6-1.4 8.7-2.6 18.2-3.5 28.9-.2 2.1-.6 4.2-1 6.2-.6 2.8-1.2 5.7-1.1 8.6.1 5.3-1 10.5-2 15.5-.7 3.2-1.3 6.5-1.7 9.8-.5 4.5-1.6 9.1-2.7 13.5-.6 2.4-1.2 4.9-1.7 7.4-2.2 10.5-5.3 20.9-9.2 30.9-1.6 4.2-3.8 8.3-5.9 12.3-1.2 2.3-2.5 4.7-3.6 7.1-4.7 9.9-10.4 19.3-15.9 28.4-5.1 8.5-10.4 17.2-14.9 26.4-4.3 8.7-8.7 18-11.3 28l-1 3.8c-2 7.7-4.1 15.7-5.6 23.8-2.5 13.5-4 27.3-4.3 41.1-.3 21.2 1.2 42.7 4.5 63.6 2 13.3 3.9 25.4 6.3 37.4 1.3 6.6 2.8 13.2 4.2 19.6 1.2 5.6 2.5 11.5 3.7 17.2 1.3 6.3 2.9 12.5 4.5 18.5 1.3 4.8 2.6 9.9 3.7 14.8 1.2 5.4 2.7 10.9 4.1 16.2.9 3.3 1.8 6.6 2.6 9.9 1 3.8 1.8 7.6 2.7 11.3 1.2 5.2 2.5 10.6 3.9 15.8 1.2 4.3 2 8.7 2.8 13 .5 2.8 1.1 5.7 1.7 8.5.6 2.8 1.1 5.7 1.5 8.5.5 3.4 1.1 6.8 1.9 10 0 .1.1.3.1.4h2c-.1-.3-.1-.6-.2-.9-1-2.5-1.5-5.8-2.1-9.3zM397.8 3.7c3.7 4.1 8.3 8.6 15 10.4 1.6.4 3.1.6 4.5.6 4.7 0 8.8-2.1 12.5-6.5 2.2-2.6 4.3-5.2 6.4-7.8.1-.1.2-.3.3-.4H434c-1.9 2.3-3.8 4.6-5.7 6.8-4.3 5.1-9.1 6.8-15 5.2-6.2-1.6-10.5-5.9-14-9.8-.7-.8-1.4-1.5-2.1-2.3h-2.7c1.1 1.3 2.2 2.6 3.3 3.8zm-374 547.2c-.6-3.7-1.2-7.4-1.8-11-2.6-15.5-5.2-31.5-8.5-47.2-1.9-9-3.4-18.4-4.8-27.4-1.1-6.8-2.2-13.9-3.5-20.7-.1-.5-.2-1.1-.3-1.6-.6-3.6-1.3-7.7-4.4-10.6-.4-.3-.4-.7-.2-1.5.1-.3.1-.7.1-1.1-.1-5.9 0-11.8 0-17.6v-5.7c0-.6-.4-1-1-1s-1 .4-1 1v23.3c0 .2 0 .5-.1.8-.1.9-.3 2.2.9 3.3 2.6 2.4 3.2 6 3.8 9.5.1.6.2 1.1.3 1.6 1.3 6.9 2.4 13.9 3.5 20.7 1.4 9 2.9 18.4 4.8 27.5 3.2 15.6 5.9 31.6 8.5 47.1.6 3.7 1.2 7.4 1.8 11 2.7 15.9 5.2 32.1 7.5 48.2.8 5.8 1.6 11.7 2.3 17.6h2c-.7-6-1.5-12-2.4-17.9-2.3-16.1-4.8-32.4-7.5-48.3zm-19 41c-.1-.7-.3-1.3-.7-2-3.7-5.5-3.3-11.4-2.8-17.7.2-2.7.4-5.6.2-8.3 0-.6-.5-1-1.1-.9-.6 0-1 .5-.9 1.1.2 2.6 0 5.4-.2 8.1-.5 6.3-.9 12.8 3.1 18.9.2.3.3.7.4 1.1.3 2.6.6 5.3.9 7.9.7 5.6 1.3 11.3 1.8 17h2c-.5-5.8-1.2-11.6-1.8-17.3-.3-2.7-.6-5.3-.9-7.9zm72.6-19.5c-.6-5-.8-10.1-1-15-.1-3.6-.3-7.3-.6-11-1.2-14.1-2.5-28.4-4-42.5-1.3-12.7-2.8-25.4-4.5-38-.5-3.5-.9-6.9-1.4-10.4-.6-4.3-1.2-8.8-1.8-13.1-1-7.9-2.3-15.8-3.6-23.4-.8-4.6-1.6-9.4-2.3-14-1.7-11.3-4.1-22.6-6.4-33.6l-1-5c-.5-2.3-.9-4.5-1.4-6.8-2.3-11.3-4.7-22.9-7.7-34.2-2.3-8.9-4.3-18-6.3-26.9-1.8-8.4-3.7-17.2-6-25.7-2.2-8.3-3.6-17-5-25.4-.7-4.3-1.4-8.7-2.2-13-.6-3.4-1.4-6.8-2.1-10.2-.9-4.4-1.9-8.9-2.6-13.3-1.4-8.2-2.4-16.2-3.3-22.9-.3-2.1-.5-4.1-.8-6.2-1.2-9.6-2.4-19.5-3.1-29.2-.1-2-.3-4.1-.6-6-.3-2.9-.6-5.9-.7-8.9-.2-7-.6-14.1-1-21-.4-7.5-.9-15.3-1-23 .1-7.9-.6-15.7-1.2-23.3-.3-4.1-.7-8.3-.9-12.5-.1-2.3-.4-4.5-2.4-6.2-.3-.3-.8-.3-1.1-.1.1-.2.2-.4.2-.6L1.3.5c0-.2-.1-.3-.2-.5H-.6c-.1.2-.2.3-.2.5L-.4 51c0 .6.4 1 1 1 .2 0 .3-.1.5-.1-.3.4-.3 1 .1 1.4 1.4 1.2 1.6 2.7 1.7 4.8.3 4.2.6 8.4.9 12.5.6 7.5 1.2 15.3 1.4 23 .1 7.7.6 15.5 1 23.1.4 6.9.8 13.9 1 20.9.1 3.1.4 6.1.7 9.1.2 2 .4 4 .5 6 .7 9.8 1.9 19.7 3.1 29.3.3 2.1.5 4.1.8 6.2.8 6.8 1.9 14.8 3.3 23 .8 4.5 1.7 9 2.6 13.4.7 3.3 1.4 6.7 2 10.1.8 4.3 1.5 8.7 2.2 12.9 1.4 8.4 2.8 17.2 5 25.6 2.2 8.5 4.1 17.2 5.9 25.6 1.9 8.9 3.9 18 6.3 26.9 3 11.3 5.4 22.9 7.7 34.1.5 2.3.9 4.5 1.4 6.8l1 5c2.3 10.9 4.7 22.2 6.4 33.4.7 4.7 1.5 9.5 2.3 14.1 1.3 7.6 2.6 15.5 3.6 23.3.6 4.4 1.2 8.8 1.8 13.1.5 3.5 1 6.9 1.4 10.4 1.7 12.6 3.2 25.3 4.5 38 1.5 14.1 2.8 28.4 4 42.5.3 3.6.5 7.3.6 10.9.2 5 .4 10.1 1 15.1 1.8 14.7 2.1 29.8 2.4 44.4h2c-.2-14.5-.5-29.6-2.3-44.4zm26.9 32.1c-.3-3.5-.5-7.1-.8-10.6-.5-6.9-1.1-14.1-1.7-21.1-.5-4.8-1-9.7-1.6-14.5-.9-7.3-1.8-14.9-2.2-22.3-1.1-14-2.8-28.1-5.3-42-2.6-15.6-5.4-32.1-9.3-48.3-1.2-5.1-2.3-10.3-3.3-15.4-.9-4.2-1.8-8.6-2.7-12.9-2.3-9.8-5-21.4-8-32.9-2.8-10.4-5.3-21-7.7-31.3-1-4.1-2-8.2-2.9-12.4-4.3-17.7-7.9-35.9-11.2-52l-.7-3.6c-1.5-7.6-3.1-15.4-4.1-23-.6-4.7-1.3-9.5-2-14.1-1-6.3-2-12.7-2.6-19.2-.4-3.9-.7-7.8-1-11.6-.6-8.1-1.2-16.5-2.6-24.7-.5-3-.4-6.1-.2-9.5.1-1.9.2-3.8.1-5.7-.1-5.6-.3-11.2-.4-16.8-.4-18.3-.9-37.2-1.6-55.7-.6-14.5-1.6-29.2-3-43.7-.7-7.1-1.6-14.2-2.6-21.1-1-7.5-2.1-15.4-2.7-23.1-.5-5.7-1.1-11.4-1.6-17h-2c.6 5.7 1.2 11.5 1.7 17.2.7 7.7 1.7 15.6 2.8 23.1.9 6.9 1.9 14 2.6 21.1 1.4 14.4 2.4 29.1 3 43.6.7 18.6 1.2 37.4 1.6 55.7.1 5.6.3 11.2.4 16.8 0 1.8 0 3.7-.1 5.5-.1 3.3-.3 6.6.3 9.9 1.4 8.1 2 16.5 2.6 24.6.3 3.8.6 7.8 1 11.7.6 6.5 1.6 13 2.6 19.3.7 4.6 1.4 9.4 2 14.1.9 7.7 2.5 15.6 4.1 23.2l.7 3.5c3.2 16.1 6.9 34.4 11.2 52.1 1 4.1 2 8.2 2.9 12.4 2.4 10.3 5 21 7.7 31.4 3 11.4 5.7 23 8 32.8 1 4.3 1.9 8.6 2.7 12.9 1 5.1 2.1 10.3 3.3 15.5 3.9 16.1 6.7 32.6 9.3 48.1 2.4 13.8 4.2 27.8 5.3 41.8.5 7.5 1.4 15.1 2.3 22.4.6 4.7 1.1 9.6 1.6 14.4.7 7 1.2 14.1 1.7 21.1.3 3.5.5 7.1.8 10.6.3 3.5.6 6.9.9 10.4.1.6.1 1.3.2 1.9h2c-.1-.7-.1-1.4-.2-2.1-.7-3.5-1-7-1.3-10.5zM368.4 18.6c2.8 3.6 5.6 7.4 8.3 11 6.8 9 13.8 18.3 21.5 26.7 3.1 3.4 6.5 6.4 10.2 9.1 2.9 2.1 6.1 3 9.2 3 5 0 10-2.2 13.3-5.4 5.3-5.2 9.3-11.3 13.1-17.3 1.8-2.9 3.7-5.8 5.7-8.6 8.2-11.4 17.8-21.7 28.4-30.8 2.3-1.9 4.6-4 7.1-6.2h-3c-1.8 1.6-3.6 3.2-5.4 4.7C466 14 456.3 24.4 448 35.9c-2 2.8-4 5.8-5.8 8.7-3.7 5.9-7.6 11.9-12.8 16.9-4.8 4.7-13.4 7-19.9 2.3-3.6-2.6-6.9-5.6-9.9-8.8-7.7-8.4-14.7-17.6-21.4-26.6-2.7-3.6-5.5-7.4-8.4-11l-1.5-1.9c-3.9-5-7.9-10.1-11.7-15.4h-2.5c4 5.7 8.3 11.2 12.6 16.6l1.7 1.9zm445 537.4c-.8-3.6-1.6-7.3-2.3-11-.9-4.4-2.4-8.9-3.9-13.1-.9-2.6-1.9-5.3-2.7-8-2.1-7-4.3-14.1-6.5-20.9-2-6.1-4-12.4-5.9-18.6-.7-2.2-1.3-4.5-2-6.7-1.7-5.6-3.5-11.5-5-17.2-4.3-15.4-6.8-31.3-7.6-47.3-.9-22.8 1.9-46.4 8.8-72.3 2.4-9 5.3-18.6 9.3-31 3.6-11.1 7.3-21.1 11.2-30.6 4.6-11.2 9-22.7 13.2-33.9 1.4-3.8 2.9-7.6 4.4-11.4.8-2.1 1.6-4.2 2.5-6.3 2.6-6.6 5.2-13.5 7.5-20.4 1.3-3.9 2.7-7.9 4-11.8 2.9-8.5 5.9-17.2 8.3-26.2.7-2.8 1.5-5.6 2.3-8.4 2.5-9.1 5.1-18.6 6.8-28 .8-4.5 1.7-9.1 2.6-13.5 2-9.8 4-19.9 4.8-30.2.4-4.9 1.1-9.9 1.8-14.7.4-2.6.8-5.3 1.1-7.9l.5-3.6c.9-7 1.8-14.2 2.5-21.3v-.3c1.4-13.5 2.8-27.5 3.9-41.3h-2c-1.1 13.7-2.5 27.6-3.9 41.1v.3c-.7 7.1-1.6 14.3-2.5 21.3l-.5 3.6c-.3 2.6-.7 5.3-1.1 7.9-.9 4.7-1.6 9.7-2 14.7-.7 10.1-2.8 20.2-4.7 29.9-.9 4.4-1.8 9-2.6 13.5-1.6 9.4-4.2 18.8-6.7 27.8-.8 2.8-1.6 5.6-2.3 8.5-2.4 8.8-5.4 17.6-8.2 26-1.3 3.9-2.7 7.8-4 11.8-2.2 6.8-4.9 13.7-7.5 20.3-.8 2.1-1.6 4.2-2.5 6.3-1.5 3.8-2.9 7.6-4.4 11.5-4.2 11.1-8.6 22.7-13.2 33.8-4 9.6-7.7 19.7-11.3 30.8-4 12.4-6.9 22-9.3 31.1-6.9 26-9.8 49.9-8.9 72.9.8 16.1 3.4 32.2 7.7 47.7 1.5 5.8 3.3 11.6 5 17.3.7 2.2 1.4 4.5 2 6.7 1.9 6.3 3.9 12.5 5.9 18.6 2.2 6.8 4.5 13.9 6.5 20.9.8 2.7 1.8 5.5 2.7 8.1 1.5 4.2 3 8.6 3.9 12.9.7 3.7 1.5 7.4 2.3 11 1.2 5.6 2.5 11.4 3.5 17.1 2.7 14.8 3.5 30 4.3 43.5h2c-.8-13.6-1.7-28.9-4.4-43.8-1-5.8-2.2-11.6-3.4-17.2zm-515.5-24.6c-.4-6-.8-12.2-1.2-18.2-.8-12.8-1.6-26.1-2.9-39.1-.5-4.6-.9-9.2-1.3-13.8-1.3-13.2-2.6-26.8-4.6-40.1-3.1-19.8-6.8-40.9-12.9-61.4-1.2-4.1-2.6-8.2-3.9-12.2-1.5-4.4-3-8.9-4.3-13.4-2.4-8.2-5.8-15.9-9-23.4-.9-2-1.7-4-2.6-6-4.3-10.1-9.4-19.8-14.7-29.7-7.6-14.3-14.9-29.3-21.5-44.6-4.3-10.4-7.4-21.4-9.1-32.5-1.6-10.2-2.8-20.6-4-30.7-.6-4.9-1.2-10-1.8-15.1-1.1-8.8-2.9-17.8-4.6-26.4-.6-3-1.2-5.9-1.7-8.9-.7-3.8-1.5-7.6-2.3-11.3-1.6-7.7-3.2-15.7-4.3-23.6-.9-7.2-1.9-13-2.9-18.2-2.8-13.8-4.5-28-6.1-41.7l-.7-5.8L179.7 0h-2c.6 5.2 1.2 10.4 1.8 15.5l.7 5.8c1.6 13.8 3.3 28 6.1 41.9 1.1 5.2 2 10.9 2.9 18.1 1 8 2.7 16 4.3 23.8.8 3.7 1.6 7.5 2.3 11.3.6 3 1.1 5.9 1.7 8.9 1.7 8.6 3.5 17.5 4.6 26.3.6 5 1.2 10.1 1.8 15 1.2 10.1 2.4 20.6 4 30.8 1.7 11.3 4.8 22.4 9.2 33 6.6 15.4 13.9 30.5 21.5 44.8 5.3 9.9 10.4 19.5 14.6 29.6.9 2 1.7 4 2.6 6 3.2 7.4 6.6 15 8.9 23.1 1.3 4.5 2.8 9.1 4.3 13.5 1.3 3.9 2.7 8 3.9 12.1 6.1 20.4 9.8 41.4 12.9 61.1 2.1 13.2 3.4 26.8 4.6 40 .4 4.6.9 9.2 1.3 13.8 1.3 13 2.1 26.2 2.9 39 .4 6 .7 12.1 1.2 18.2 1.4 20.6 2.3 42.4 2.8 68.5.1 5.8.2 11.4.2 16.9h2c0-5.5-.1-11.2-.2-17-.4-26.1-1.3-47.9-2.7-68.6zM267.3 557v-5.1c-.2-20.5-.3-41.6-1.6-62.3-1.2-18.8-2.6-34-4.5-47.7-2-14.6-4.3-27.8-7-40.2-2.7-12.2-6.4-24.2-10.9-35.9-5.3-13.9-11.3-27.7-18-40.9-5-9.8-9.9-19.8-14.8-29.4-2.7-5.5-5.5-11-8.2-16.5-1.5-3-3.1-6.1-4.6-9.1-3.1-6.1-6.3-12.4-9.3-18.7l-.9-1.9c-4.3-9.2-8.8-18.6-12.3-28.5-4.4-11.6-8.2-23.6-11.2-35.7-3.8-16.1-6.6-32.6-8.1-49.1-1.2-12.4-1.4-25-1.5-37.2-.1-6.9-.2-14.1-.4-21.1l-.3-6.6c-.7-17.2-1.4-35-2.9-52.4-.4-4-.7-8.1-1-12.1-.2-2.2-.3-4.4-.5-6.7h-2c.2 2.3.4 4.6.5 6.8.3 4 .6 8.1 1 12.1 1.5 17.3 2.2 35.1 2.9 52.3l.3 6.6c.3 7 .4 14.1.4 21 .1 12.3.3 24.9 1.5 37.4 1.6 16.6 4.3 33.2 8.2 49.4 3.1 12.1 6.9 24.2 11.3 35.9 3.6 9.9 8.1 19.4 12.4 28.6l.9 1.9c3 6.3 6.2 12.6 9.3 18.7 1.6 3 3.1 6 4.6 9.1 2.8 5.5 5.5 11 8.2 16.5 4.8 9.6 9.8 19.6 14.8 29.4 6.7 13.2 12.7 26.9 17.9 40.7 4.5 11.5 8.1 23.5 10.8 35.6 2.7 12.4 5 25.5 7 40 1.9 13.7 3.3 28.8 4.5 47.6 1.3 20.7 1.5 41.8 1.6 62.2v5.1c0 3.8.1 7.6.1 11.4.2 16 .3 32.3-.1 48.6h2c.4-16.3.2-32.7.1-48.6-.2-3.6-.2-7.4-.2-11.2zm-133.5 43c-.8-15.6-1.1-31.6-1.5-47-.3-13.6-.6-27.6-1.2-41.4-.9-23.1-4.1-46.2-9.5-68.7-4.5-18-10.1-36-16.5-53.4-2.8-7.8-5.8-15.6-8.8-23.1-4.1-10.6-8.3-21.5-12-32.5-6.5-19-13.8-40.5-18.9-62.6-3.1-13.6-5.4-27.5-7.7-41l-.3-1.6c-1.1-7.2-1.6-14.6-1.7-21.9l-.1-4.1c-.6-20.2-1.3-41-.5-61.6.7-19.4.4-39.1-.9-58.4-.2-2.5-.3-5-.5-7.5-.7-10.9-1.5-22.3-2.6-33.3-.7-7.3-1.9-14.7-3-21.8-.5-3-.9-5.9-1.4-8.9-.6-3.8-1-7.6-1.3-11.3h-2c.4 3.8.8 7.7 1.4 11.6.4 3 .9 5.9 1.4 8.9 1.1 7.1 2.3 14.4 3 21.7 1.1 11 1.9 22.3 2.6 33.3.2 2.5.3 5 .5 7.5 1.3 19.3 1.6 38.9.9 58.2-.7 20.6-.1 41.5.5 61.7l.1 4.1c.1 7.4.7 14.9 1.7 22.2l.3 1.6c2.2 13.5 4.6 27.5 7.7 41.1 5.1 22.2 12.5 43.8 19 62.8 3.7 11 8 21.9 12.1 32.5 2.9 7.5 5.9 15.3 8.7 23.1 6.4 17.3 11.9 35.2 16.4 53.2 5.4 22.4 8.6 45.3 9.4 68.3.6 13.8.9 27.8 1.2 41.4.3 15.4.7 31.3 1.5 47 .2 4 .3 8 .5 11.9.1 1.6.1 3.3.2 5h2c-.1-1.7-.1-3.4-.2-5.1-.1-3.9-.3-7.9-.5-11.9zm88.9-29.4c-.5-15.4-.2-31 0-46.1.1-7.9.3-16 .3-24.1.1-22.4-1.1-39.4-3.8-55.1-4.5-26.3-13.3-50.1-21.4-70-5.7-13.9-11.9-27.7-18-41.1-4.4-9.8-9-20-13.4-30.1-1.8-4.2-3.6-8.3-5.4-12.5-4.1-9.5-8.4-19.2-12.2-29-8.4-22.1-14.1-40.6-17.8-58.1-3-13.9-5.5-26.5-6.1-39.5-.8-15.6-1.4-32.2.8-48.5.5-3.7 1-7.5 1.5-11.2 2.7-20.2 5.6-41.1 4.4-62-.7-12.1-1.7-24.3-2.6-36.2-.2-2.3-.4-4.7-.6-7h-2l.6 7.2c1 11.8 2 24.1 2.6 36.1 1.2 20.8-1.7 41.5-4.4 61.6-.5 3.8-1 7.5-1.5 11.3-2.1 16.4-1.6 33.2-.8 48.9.6 13.1 3.2 25.8 6.1 39.9 3.7 17.6 9.4 36.2 17.9 58.4 3.7 9.9 8 19.7 12.2 29.1 1.8 4.2 3.6 8.3 5.4 12.5 4.3 10.1 8.9 20.3 13.4 30.1 6 13.4 12.3 27.2 17.9 41.1 8 19.7 16.8 43.4 21.3 69.5 2.7 15.6 3.8 32.5 3.7 54.8 0 8-.2 16.2-.3 24-.2 15.1-.5 30.8 0 46.2.3 8.4.4 16.9.6 25.1.1 7 .2 14.1.4 21.2h2c-.2-7.1-.3-14.3-.4-21.2 0-8.4-.1-16.9-.4-25.3zm114.2-27.1c-.3-6.2-.6-12.6-1-18.9-.4-6.7-1-13.5-1.5-20.1-.6-7.9-1.3-16.1-1.7-24.1-1.2-20.5-3.2-41.3-6-61.8-.4-2.7-.7-5.5-1.1-8.2-1.6-12-3.3-24.5-5.4-36.7-.5-3.1-1.1-6.1-1.6-9.2-1.5-8.7-3-17.7-4.9-26.4-3.5-16.3-7-30.8-10.6-44.4-4-14.9-8.9-32.5-15.5-49.8-5.1-13.3-11.4-26.1-18.8-38.3l-5.7-9.3c-8.4-13.6-17-27.6-23.8-42.6-9.1-20.5-16.2-42-21.3-63.9-4.3-18.1-7.4-36.5-10-53.7-1.1-6.9-1.8-14-2.5-20.8-.4-3.9-.8-8-1.3-11.9-.1-1.1-.3-2.3-.4-3.4h-2c.1 1.2.3 2.5.4 3.7.5 4 .9 8 1.3 11.9.7 6.9 1.5 14 2.6 20.9 2.7 17.2 5.7 35.7 10 53.9 5.1 22 12.3 43.6 21.4 64.2 6.8 15.2 15.5 29.2 23.9 42.9l5.7 9.3c7.3 12 13.6 24.8 18.6 38 6.6 17.2 11.5 34.7 15.4 49.6 3.6 13.5 7 28 10.6 44.3 1.9 8.7 3.4 17.6 4.9 26.3.5 3.1 1 6.1 1.6 9.2 2.1 12.1 3.8 24.6 5.4 36.6.4 2.7.7 5.5 1.1 8.2 2.8 20.5 4.8 41.2 6 61.6.5 8.1 1.1 16.2 1.7 24.1.5 6.6 1 13.3 1.5 20 .4 6.3.7 12.7 1 18.9.5 10.7 1.1 21.8 2.1 32.7 1.2 13.5 1.5 27.3 1.7 40.7h2c-.3-13.4-.5-27.3-1.8-40.9-.9-10.8-1.5-21.9-2-32.6zM157 527.2c.1-16.8.1-34.1-.4-51.2-.5-15.4-3.7-30.7-7-45s-8.1-28.2-12.8-41.6l-3.6-10.5c-3.4-10.2-7.4-20.3-11.2-30-2-5.2-4.1-10.6-6.1-15.9-4.7-12.4-10.2-27.1-15.5-41.9-3.6-10-6.9-20.4-9.8-31.2-3.9-13.8-7.1-28.1-9.4-42.2-2.6-17.4-4.3-35.1-4.9-52.6-.4-10.8-.6-21.9-.9-32.5-.3-14.8-.7-30.1-1.4-45.1-.7-14.2-2.3-28.5-3.9-42.4-1.1-10-2.3-20.3-3.1-30.3-.4-4.9-.9-9.9-1.4-14.8h-2c.5 5 1 10 1.4 14.9.8 10.1 2 20.3 3.1 30.2C69.7 59 71.4 73.3 72 87.4c.7 15 1.1 30.3 1.4 45 .2 10.7.5 21.7.9 32.5.6 17.6 2.2 35.4 4.9 52.8 2.3 14.3 5.5 28.6 9.4 42.5 2.9 10.8 6.2 21.3 9.8 31.3 5.3 14.8 10.8 29.5 15.5 41.9 2 5.3 4.1 10.7 6.2 16 3.8 9.8 7.8 19.9 11.2 30l3.6 10.5c4.6 13.3 9.4 27.1 12.7 41.3 3.3 14.2 6.4 29.5 6.9 44.7.6 17 .5 34.4.4 51.1-.1 24.1-.2 49 1.6 73.5.4 5.4.8 10.9 1.3 16.3h2c-.5-5.4-.9-11-1.3-16.4-1.7-24.3-1.6-49.2-1.5-73.2zm34 15.2c0-15.6.1-31.8-.4-47.7-.4-11.6-1.6-23.3-3.6-34.7-2.1-12.6-5-25.2-8.8-37.5-4.9-15.7-10.7-31.8-17.3-47.8-3-7.3-6.1-14.8-9-22.1-3.4-8.5-7-17.4-10.6-26-7.9-18.8-14.4-36.1-20.1-53.1-3.3-9.9-6.5-20.6-10.2-33.9-4.3-15.9-7.4-32.3-9.2-48.7-3.1-27-3.7-47.9-2.1-67.8 1.9-23.8 1.4-48 1-71.5v-1.1c-.3-15.2-1.9-30.1-3.2-41.4-.4-3-.7-6.1-1-9.1h-2c.3 3.1.6 6.3 1 9.4 1.3 11.3 2.9 26.1 3.2 41.2v1.1c.5 23.4.9 47.6-1 71.3-1.6 20-1 41 2.1 68.2 1.8 16.5 4.9 33 9.3 49 3.7 13.3 6.9 24.1 10.2 34 5.7 17 12.3 34.5 20.1 53.3 3.6 8.6 7.2 17.5 10.6 26 2.9 7.3 5.9 14.8 9 22.1 6.6 15.9 12.4 31.9 17.3 47.6 3.7 12.1 6.6 24.7 8.7 37.2 2 11.3 3.2 22.9 3.6 34.5.4 15.9.4 32 .4 47.7 0 13.7-.1 27.9.2 41.8.2 10.9.5 21.9.8 32.8h2c-.3-10.9-.6-21.9-.8-32.8-.3-14.1-.2-28.3-.2-42zM1670.8 28.9l.2 3.7c.4 6.6.9 13.4 1.4 19.9.4 4.7.7 9.4 1 14.1.8 11.2 1.7 24.5 2.5 38 .2 2.8.4 5.5.7 8.2.2 1.9.4 3.8.5 5.8.4 5.4 1.1 10.8 1.8 16.1.7 5.7 1.5 11.6 1.9 17.4.5 8.3 1.6 16.6 2.5 24.6.5 4.4 1.1 8.9 1.6 13.4.6 5.9 1.5 11.8 2.3 17.5.6 3.9 1.1 8 1.6 12.1 1.3 10.5 3.1 24.4 5.7 38 2.1 11.8 3.4 23.9 3.9 35.9 0 .5.5 1 1 1 .6 0 1-.5 1-1-.5-12.1-1.8-24.2-3.9-36.2-2.6-13.6-4.4-27.4-5.7-37.9-.5-4-1.1-8.1-1.6-12.1-.8-5.7-1.7-11.6-2.3-17.4-.5-4.5-1-9.1-1.6-13.5-1-8-2-16.3-2.5-24.5-.4-5.9-1.2-11.8-1.9-17.6-.7-5.2-1.4-10.6-1.8-16-.1-1.9-.3-3.9-.5-5.8-.3-2.7-.5-5.4-.7-8.2-.8-13.5-1.7-26.8-2.5-38-.3-4.7-.7-9.4-1-14.1-.5-6.5-1-13.2-1.4-19.9l-.2-3.7c-.6-9.5-1.2-19.1-1.7-28.8h-2c.5 9.8 1.1 19.5 1.7 29zm-138.5 544.5c-.3-5.3-.6-10.6-.9-15.8-.7-12.8-1.9-25.7-3-38.2-.3-3.3-.6-6.6-.9-10-1.2-13.2-2.5-27.4-4-41.4-.3-2.9-.6-5.9-.9-8.8-1.1-10.4-2.2-21.1-4.2-31.4-1.7-8.5-3.1-17.3-4.5-25.8-1.5-9.1-3-18.5-4.9-27.6-1.7-8.1-3.2-16.3-4.7-24.3-1.6-8.5-3.2-17.3-5-25.9-2.3-11-4.4-22.2-6.5-33.1-1.3-6.8-2.6-13.5-3.9-20.3-2.1-10.9-3.6-22.2-4.9-33.1l-.5-4.1c-1.2-9.1-2.1-18.5-3-27.5-.5-5.3-1.1-10.8-1.6-16.2-1-9-1.2-18.3-1.4-27.3-.1-2.6-.1-5.1-.2-7.7-.8-25.2-.7-50.8-.5-75.5.1-12.2.1-24.8.1-37.2-.1-12.9.6-25.8 1.2-37.9.1-1.4.1-2.8.2-4.2h-2c-.1 1.4-.1 2.7-.2 4.1-.6 12.1-1.2 25-1.2 38 0 12.4 0 25-.1 37.2-.1 24.8-.2 50.4.5 75.6.1 2.6.1 5.1.2 7.7.2 9 .4 18.4 1.4 27.5.6 5.4 1.1 10.9 1.6 16.2.9 9 1.8 18.4 3 27.5l.5 4.1c1.4 11 2.8 22.3 5 33.2 1.3 6.7 2.6 13.5 3.9 20.3 2.1 10.9 4.2 22.1 6.5 33.1 1.8 8.6 3.4 17.4 5 25.9 1.5 8 3 16.3 4.7 24.4 1.9 9.1 3.4 18.5 4.9 27.6 1.4 8.5 2.8 17.3 4.5 25.8 2 10.2 3.1 20.9 4.2 31.3.3 2.9.6 5.9.9 8.8 1.5 14 2.8 28.1 4 41.3.3 3.3.6 6.6.9 10 1.1 12.5 2.3 25.4 3 38.2.3 5.3.6 10.6.9 15.8.7 12.4 1.5 25.3 1.9 38 .1 1.8.1 3.7.2 5.5h2c-.1-1.9-.1-3.7-.2-5.6-.5-12.9-1.3-25.8-2-38.2zm-25.9 3.6c-.3-7.3-.5-14.9-1-22.3-.7-10.3-1.3-20.7-1.8-30.8-.6-11.5-1.2-23.3-2.1-34.9-1.2-16-2.7-35-5.1-54.4-2.1-16.7-4.2-31.7-6.7-46-3-17.5-6.6-36.1-11.1-56.7-5-23-9.9-46.5-14.5-69.7-5.3-26.6-9-53.3-11.9-75.8-.8-6.1-1.1-12.3-1.5-18.4-.2-3.2-.4-6.6-.6-9.9-2.2-29.1-2.1-58.8-2-87.5 0-7.7.1-15.6 0-23.4v-2.7c0-9.3 0-19 .6-28.4.3-5.3.6-10.7.7-16.1h-2c-.2 5.3-.4 10.7-.7 15.9-.6 9.5-.6 19.2-.6 28.5V70.5c-.1 28.8-.2 58.5 2 87.7.3 3.3.4 6.6.6 9.8.3 6.1.7 12.4 1.5 18.5 3 22.6 6.7 49.3 12 76 4.6 23.2 9.5 46.7 14.5 69.7 4.5 20.6 8.1 39.1 11.1 56.6 2.4 14.3 4.6 29.3 6.7 45.9 2.4 19.3 3.9 38.3 5.1 54.3.8 11.6 1.5 23.4 2.1 34.9.5 10.1 1.1 20.6 1.8 30.8.5 7.4.8 15 1 22.3.2 4.2.3 8.6.5 12.8.4 9 .8 18 1.2 27.1h2c-.4-9.1-.8-18.2-1.2-27.2-.3-4.1-.5-8.5-.6-12.7zm49.9-39.9c-1.5-16.6-3.9-33.8-7.1-51.1-1.8-9.8-3.8-19.8-5.7-29.4-1.3-6.7-2.7-13.6-4-20.4-1-5.2-2.2-10.3-3.3-15.4-1.1-4.6-2.1-9.4-3.1-14.1-1.9-9.5-3.7-19.7-5.5-31.1-2.4-14.9-4.3-27.4-6-40.2-.7-5.6-1.1-11.4-1.5-17-.2-2.4-.3-4.9-.5-7.3-.4-4.6-.8-9.3-1.1-13.9-1-11.8-2-23.9-2.8-35.9-.6-8.9-1.2-17.9-1.7-26.6-.3-4.5-.5-9-.8-13.6-.3-4.8-.7-9.7-1-14.4-.8-10.7-1.6-21.7-1.8-32.6-.2-10-1-20.1-1.7-29.9l-.2-2.4c-.4-6-.7-12.2-.9-18.1-.3-8.8-.7-17.8-1.7-26.7-.7-6.2-.8-12.7-.8-18.9 0-3.8-.1-7.7-.3-11.6-1-22-1.3-44.3-1.3-66.4h-2c0 22.1.3 44.4 1.3 66.5.2 3.8.2 7.7.3 11.5.1 6.3.1 12.8.8 19.1 1 8.8 1.3 17.8 1.7 26.6.2 6 .5 12.1.9 18.2l.2 2.4c.7 9.8 1.4 19.9 1.7 29.8.3 10.9 1.1 22 1.8 32.7.3 4.7.7 9.6 1 14.4.3 4.5.6 9 .8 13.6.5 8.7 1.1 17.8 1.7 26.7.9 12 1.9 24.2 2.8 35.9.4 4.6.8 9.3 1.1 13.9.2 2.4.4 4.8.5 7.3.4 5.6.8 11.4 1.5 17.1 1.7 12.8 3.6 25.4 6 40.3 1.8 11.5 3.6 21.7 5.5 31.2.9 4.8 2 9.5 3.1 14.2 1.1 5 2.3 10.2 3.3 15.3 1.3 6.8 2.7 13.7 4 20.4 1.9 9.6 3.9 19.5 5.7 29.3 3.2 17.2 5.6 34.4 7.1 51 2.2 23.6 2.6 47.5 2.6 65.6v14.1h2c0-4.6.1-9.4 0-14.1 0-18.4-.4-42.3-2.6-66zM1425 590.2c-.7-4.7-1.1-9.6-1.4-14.3-.2-3.8-.5-7.8-1-11.6l-1.5-12.3c-1.3-11-2.7-22.4-4.2-33.7-.6-4.7-1.3-9.3-2-14-1.2-8-2.4-16.3-3.4-24.4-1.1-8.9-2.7-17.9-4.3-26.6l-.6-3.5c-3.5-19.1-6.3-33.8-9-47.6-4.1-20.6-9-41.9-15-65.2-4.3-16.7-9.9-33.1-15.4-49l-1.3-3.7c-5.7-16.8-11.7-34.8-16.2-53.3-4.5-18.3-7.9-37.1-10.2-55.9l-.6-5c-1.7-14.1-3.5-28.7-4.4-43.1-.5-8.5-1.2-17.2-1.8-25.6-.5-6.6-.9-13.1-1.4-19.7-1.8-27.2-1.9-54.8-1.8-81.7h-2c-.1 26.9-.1 54.6 1.8 81.8.4 6.6.9 13.1 1.4 19.7.6 8.4 1.2 17.1 1.8 25.6.9 14.5 2.7 29.1 4.4 43.2l.6 5c2.3 18.8 5.8 37.7 10.3 56.1 4.5 18.5 10.5 36.6 16.2 53.4l1.3 3.7c5.4 15.8 11 32.2 15.3 48.8 6 23.3 10.9 44.6 15 65.1 2.7 13.8 5.5 28.4 9 47.6l.6 3.5c1.6 8.6 3.2 17.6 4.3 26.4 1 8.2 2.2 16.5 3.4 24.5.7 4.7 1.4 9.3 2 14 1.5 11.2 2.9 22.6 4.2 33.6l1.5 12.3c.5 3.8.7 7.7 1 11.5.3 4.8.6 9.8 1.4 14.5 1.1 6.9 1.4 14 1.8 20.8l.3 5.7h2c-.1-2-.2-3.9-.3-5.8-.4-6.7-.7-13.8-1.8-20.8zm160.5 1.9c-.2-21.2-1.5-42.5-4.1-63.5-2.7-23-7.3-46.8-14.8-77.2-2.1-8.6-3.6-17.6-5-26.4-1-6-2-12.2-3.2-18.3-5.2-26-8.1-52.8-10.9-78.7l-.3-2.8c-3-28-4.6-52.8-4.9-75.8-.2-12.4-.1-25-.1-37.2 0-15.3 0-31.1-.3-46.6-.2-10.3-.6-20.8-1-30.9-.2-6.4-.5-13-.7-19.5-.4-12.1-1-24.1-1.8-35.7-.6-7.9-1-15.9-1.4-23.6-.5-8.8-1-17.9-1.7-26.8-.8-9.6-1.3-19.3-1.8-29h-2c.4 9.7 1 19.4 1.8 29.1.7 8.9 1.2 18 1.7 26.8.4 7.7.8 15.8 1.4 23.6.9 11.6 1.5 23.6 1.8 35.6.2 6.5.4 13.1.7 19.5.4 10.1.8 20.6 1 30.9.3 15.5.3 31.3.3 46.6 0 12.2 0 24.8.1 37.3.3 23.1 1.9 47.9 4.9 76l.3 2.8c2.8 26 5.7 52.9 10.9 78.9 1.2 6 2.2 12.2 3.2 18.2 1.4 8.8 2.9 17.8 5 26.5 7.5 30.4 12 54.1 14.7 77 2.5 20.9 3.9 42.2 4.1 63.3v8.1c0 5.5.1 11.1.1 16.8h2c0-5.6 0-11.3-.1-16.8.1-2.8.1-5.5.1-8.2zm-96.2-30.5c-.3-14.4-1.3-30.1-3.1-46.5-.5-4.9-1-10-1.4-14.9-.8-8.7-1.6-17.8-2.9-26.6-1.8-11.7-2.9-20.8-3.5-29.3-.6-7.4-2-14.8-3.3-22l-.6-3.1c-2.2-11.7-4.4-23.1-7-34.6-3.8-16.7-8.6-33.3-14.4-49.5-7.8-21.6-14-39.9-19.4-58.9-3.5-12.7-5.3-26.3-7-39.4l-.1-.6c-1.8-13.7-3.9-31.9-4.8-50.3-.3-6.2-.5-12.5-.7-18.6-.3-9.7-.7-19.7-1.3-29.6-.6-8.6-.5-17.3-.5-25.7 0-7.4 0-15-.3-22.5-.8-15.9-.6-32.1-.4-46.4.2-15.5.5-29.8.8-43.2h-2c-.3 13.4-.6 27.7-.8 43.2-.2 14.3-.4 30.6.4 46.5.4 7.4.3 15 .3 22.4 0 8.5-.1 17.2.5 25.8.6 9.8 1 19.8 1.3 29.5.2 6.1.4 12.4.7 18.6.9 18.5 3 36.7 4.8 50.5l.1.6c1.7 13.2 3.5 26.9 7.1 39.7 5.6 20.2 12.7 40.3 19.4 59 5.7 16.1 10.5 32.6 14.3 49.2 2.6 11.4 4.8 22.8 7 34.5l.6 3.1c1.3 7.1 2.7 14.5 3.3 21.7.7 8.6 1.7 17.7 3.5 29.4 1.3 8.8 2.1 17.8 2.9 26.5.4 4.9.9 9.9 1.4 14.9 1.8 16.4 2.8 32 3.1 46.3.2 11 .7 22.2 1.1 33 .3 7.4.6 14.9.8 22.4h2c-.2-7.6-.5-15.1-.8-22.5-.5-10.5-.9-21.7-1.1-32.6zm-26.3 13.6c-.6-9.9-1.3-20.2-2.3-30.3-.5-5.1-.8-10.4-1.2-15.5-.3-5.3-.7-10.8-1.2-16.2l-.9-9.3c-1.1-10.9-2.2-22.2-3.7-33.2-.7-5.3-1.4-10.6-2-15.8-1-8-2-16.3-3.3-24.4-4.9-31.2-10.3-56.6-17.2-80.1-3.6-12.3-7.7-24.4-11.8-36.2-1.2-3.6-2.4-7.1-3.6-10.7-1.5-4.4-3-8.8-4.6-13.1-3.2-9.2-6.6-18.7-9.3-28.2-7.1-25.2-12.1-51.3-14.6-77.4-1.7-17.4-2.6-35.1-3.4-52.2-.2-3.5-.3-7.1-.5-10.6-1-19.7-.7-39.7-.4-59l.1-4.4c.3-19.2.5-38.8 1.2-58.5h-2c-.7 19.7-.9 39.3-1.2 58.5l-.1 4.4c-.3 19.4-.5 39.4.4 59.2.2 3.5.3 7.1.5 10.6.8 17.2 1.6 34.9 3.4 52.3 2.6 26.2 7.5 52.4 14.7 77.7 2.7 9.6 6.1 19.1 9.3 28.3 1.5 4.3 3.1 8.7 4.5 13.1 1.2 3.6 2.4 7.1 3.6 10.7 4 11.8 8.2 23.9 11.7 36.1 6.8 23.4 12.3 48.8 17.1 79.9 1.3 8.1 2.3 16.3 3.3 24.3.6 5.2 1.3 10.6 2 15.8 1.5 11 2.6 22.3 3.7 33.2.3 3.1.6 6.2.9 9.4.5 5.3.9 10.8 1.2 16.1.3 5.1.7 10.4 1.2 15.6 1 10 1.6 20.3 2.3 30.2.6 10.2 1.3 20.7 2.3 31 .4 3.5.6 7 .8 10.6h2c-.2-3.6-.5-7.2-.8-10.8-.8-10.4-1.5-20.9-2.1-31.1zm141.7-34.7c-1.3-15.9-3.4-31.9-6.3-47.7-2.6-13.8-6.2-27.5-9.4-39.2-.9-3.4-1.9-6.8-2.8-10.2-4.5-16.1-9.1-32.7-12-49.6-1.8-10.4-3.5-20.5-4.5-30.6-.9-9.4-1.7-19.2-2.3-29.9-2.8-48.1-2.9-97-3-144.3 0-13.8 0-28-.1-42-.1-13.5-.5-27.2-.8-40.5-.2-8.8-.5-18-.7-26.9-.4-19.5-1-39.5-1.6-56.7-.3-7.6-.4-15.2-.6-22.8h-2c.1 7.6.3 15.3.6 22.8.6 17.2 1.2 37.1 1.6 56.6.2 9 .4 18.1.7 26.9.4 13.3.7 27 .8 40.5.1 14 .1 28.3.1 42 .1 47.3.1 96.3 3 144.4.6 10.8 1.4 20.6 2.3 30 1 10.2 2.7 20.4 4.5 30.7 2.9 17 7.5 33.7 12 49.8.9 3.4 1.9 6.8 2.8 10.2 3.2 11.7 6.8 25.3 9.3 39.1 2.9 15.6 5 31.6 6.3 47.5 1.4 17.2 2.9 37.6 3.1 58.3.1 6.1.1 12.1.2 18.1h2c0-6-.1-12-.2-18.1-.1-20.7-1.6-41.2-3-58.4zm94.5-112.6c-.4-3.9-1.3-7.6-2.2-11.3-.6-2.7-1.3-5.4-1.7-8.2-1.8-10.7-4.3-21.3-6.8-31.7-.7-2.8-1.3-5.6-2-8.4-.9-4-2-8.1-3-12-1.5-5.9-3.1-12-4.3-18-1.3-6.5-2.8-13-4.2-19.4-2.1-9.5-4.4-19.3-6-29.1v-.1c-1.9-11.4-3.8-23.2-5.4-34.9-3.3-24.4-4.7-49.3-6-73.4l-.2-3c-.8-13.6-1-27.4-1.3-40.8-.2-10.2-.4-20.8-.9-31.2-.3-6.3-.4-12.8-.6-19.1-.1-5.4-.3-11-.5-16.4-.5-12.5-1-25.1-1.5-37.6-.4-11.1-.9-22.2-1.3-33.3h-2c.4 11.1.9 22.3 1.3 33.4.5 12.5 1 25.1 1.5 37.6.2 5.5.3 11 .5 16.4.2 6.3.3 12.7.6 19.1.4 10.4.7 20.9.9 31.2.3 13.4.6 27.2 1.3 40.9l.2 3c1.3 24.1 2.7 49.1 6.1 73.5 1.6 11.7 3.6 23.5 5.4 34.9v.1c1.6 9.8 3.8 19.7 6 29.2 1.4 6.3 2.9 12.9 4.2 19.3 1.2 6.1 2.8 12.2 4.4 18.1 1 3.9 2.1 7.9 3 11.9.7 2.8 1.3 5.6 2 8.4 2.5 10.3 5 21 6.8 31.5.5 2.8 1.1 5.6 1.8 8.3.8 3.6 1.7 7.3 2.1 11.1.3 2.3.4 4.7.6 7 .3 3.8.5 7.8 1.3 11.6.1.5.5.8 1 .8h.2c.5-.1.9-.6.8-1.2-.7-3.7-1-7.6-1.2-11.4-.5-2.1-.7-4.5-.9-6.8zm.9-418.4c0-3.2-.2-6.3-.3-9.5h-2c.2 3.2.3 6.3.3 9.5 0 3 .3 6.1.6 9.1.1 1.3.3 2.7.4 4 0 .5.5.9 1 .9h.1c.6 0 1-.5.9-1.1-.1-1.3-.2-2.7-.4-4-.3-2.9-.6-6-.6-8.9zm-24.9 555c-.7-5.4-1.5-11.1-1.9-16.6-1-11.7-3.1-23.5-5.2-35-.5-2.9-1.1-5.8-1.6-8.8-1.3-7.4-2.8-14.9-4.2-22.1-.9-4.5-1.8-9.1-2.7-13.6-.7-3.5-1.4-7.1-2-10.6-2.2-11.4-4.5-23.1-6.4-34.7-.7-4.1-1.4-8.2-2.1-12.2-.9-5.4-1.9-11.1-2.7-16.6l-.8-5.2c-1.2-7.4-2.3-15.1-3.4-22.6-1.7-12.3-2.7-24.9-3.6-35.6-.9-11.4-1.5-23-2.2-34.2-.3-4.6-.5-9.3-.8-13.9v-2.3c-.1-5-.1-10-.2-14.9-.2-10.7-.4-21.8-.2-32.6.6-28.6.5-57.6.4-85.7 0-15-.1-30.5 0-45.8 0-12.7-.5-25.5-1-37.4-.8-18.6-1.7-38.5-3-58.4-.1-1.9-.2-3.8-.4-5.7h-2c.1 2 .2 3.9.4 5.9 1.3 19.8 2.2 39.8 3 58.3.5 11.9 1 24.7 1 37.3-.1 15.3 0 30.8 0 45.8.1 28.1.2 57.1-.4 85.6-.2 10.9 0 22 .2 32.7.1 5 .2 9.9.2 14.9v2.3c.3 4.6.6 9.3.8 13.9.7 11.2 1.3 22.8 2.2 34.2.8 10.7 1.9 23.3 3.6 35.7 1 7.6 2.2 15.2 3.4 22.7l.8 5.2c.9 5.6 1.8 11.2 2.8 16.6.7 4.1 1.4 8.1 2.1 12.2 1.9 11.6 4.2 23.4 6.4 34.8.7 3.5 1.4 7.1 2 10.6.9 4.6 1.8 9.1 2.7 13.6 1.5 7.2 2.9 14.7 4.2 22 .5 2.9 1 5.9 1.6 8.8 2.1 11.4 4.2 23.1 5.2 34.8.5 5.6 1.2 11.3 2 16.7.6 4.3 1.2 8.8 1.6 13.2 1.1 11.1 2.5 24.7 3.8 39h2c-1.3-14.4-2.6-28-3.8-39.2-.7-4.2-1.3-8.7-1.8-13.1zm-56.7-84.2c-1.8-8.2-3.9-16.4-5.9-24.4-2-8-4.1-16.3-5.9-24.4-3.7-16.7-7.3-34.7-9.5-53-3.4-29.8-5.3-54.4-5.9-77.5-.1-3-.1-6-.2-9.1-.1-7.6-.3-15.5-.8-23.3-1.3-19.4-1.4-39.1-1.5-58.1-.1-12.3-.2-25.1-.6-37.6-.4-11.2-.5-22.6-.6-33.6-.2-12.4-.3-25.2-.8-37.8-.7-18.8-.8-37.9-.9-56.4-.1-14.8-.2-30-.5-45.1h-2c.4 15.1.5 30.3.5 45.1.1 18.5.2 37.7.9 56.5.5 12.6.6 25.4.8 37.7.1 11 .3 22.4.6 33.6.4 12.5.5 25.2.6 37.5.1 19.1.3 38.8 1.6 58.2.5 7.7.6 15.6.8 23.2.1 3 .1 6.1.2 9.1.6 23.2 2.5 47.9 5.9 77.7 2.1 18.5 5.8 36.5 9.5 53.2 1.8 8.2 3.9 16.5 5.9 24.5 2 7.9 4.1 16.2 5.9 24.3 4.8 21.7 7.9 45.9 9.8 76.3 1.3 19.9 2.2 40 2.7 59.9h2c-.5-20-1.4-40.2-2.7-60.1-2-30.3-5.1-54.6-9.9-76.4zm33.9 95.3c-.4-6.9-.9-14.1-2-21.1-1.7-10.6-2.9-21-3.5-31-.1-2-.6-4.1-1-6-.4-1.8-.8-3.6-.9-5.4-.6-7-1.9-13.9-3.2-20.6-1.1-5.8-2.3-11.9-3-17.9-.4-3.4-1.3-6.8-2.1-10.1-.8-3.2-1.7-6.5-2.1-9.8-.3-3.1-1.1-6.2-1.8-9.2-1.1-4.7-2.2-9.1-1.8-13.9.2-2.3-.5-4.1-1.1-6-.4-1.1-.7-2.2-.9-3.3-.7-4.5-1.2-9.1-1.7-13.6-.7-6.1-1.5-12.5-2.5-18.6-.9-5.3-1.3-10.9-1.7-16.2-.5-7.4-1-15.1-3.1-22.4-.1-.4-.1-.9 0-1.4.7-9.7-.2-19.5-1-29-.5-5.9-1-12.1-1.2-18.1-.4-16-1.1-32.2-1.8-47.9-.4-7.8-.7-15.7-1-23.5-.3-6.6-.4-13.2-.5-19.8-.1-6.9-.1-13.8-.1-20.6 0-13.9 0-28.2-.6-42.3-.6-14.5-.9-29.3-1.1-43.6-.2-10.4-.4-21.1-.7-31.7-.3-11.1-.8-22.4-1.2-33.3-.5-12.9-1-26.2-1.4-39.3h-2c.4 13.2.9 26.5 1.4 39.4.4 10.9.9 22.2 1.2 33.3.3 10.6.5 21.3.7 31.7.3 14.3.5 29.1 1.1 43.7.6 14 .6 28.4.6 42.2 0 6.8 0 13.7.1 20.6.1 6.6.2 13.3.5 19.9.3 7.8.7 15.7 1 23.5.7 15.7 1.5 31.9 1.8 47.8.1 6.1.7 12.3 1.2 18.2.8 9.4 1.6 19.1 1 28.6-.1.7-.1 1.3 0 2v.1c2 7.2 2.5 14.7 3 22.1.4 5.4.8 11 1.7 16.4 1.1 6.1 1.8 12.4 2.5 18.5.5 4.5 1.1 9.1 1.7 13.7.2 1.3.6 2.5 1 3.7.6 1.7 1.1 3.3 1 5.2-.3 5 .8 9.8 1.9 14.5.7 2.9 1.4 5.9 1.7 8.9.4 3.4 1.3 6.8 2.1 10.1.8 3.2 1.7 6.5 2.1 9.8.7 6.1 1.8 12.2 3 18.1 1.3 6.6 2.6 13.5 3.2 20.4.2 1.9.6 3.8.9 5.6.4 2 .8 3.8.9 5.7.6 10.1 1.8 20.5 3.5 31.2 1.1 6.9 1.5 14 2 20.9.4 7.3.9 14.9 2.2 22.4 1.1 6.1 1.2 12.6 1.3 18.9h2c-.1-6.4-.2-13-1.3-19.3-1.1-7.4-1.6-14.9-2-22.2zm-252.5-9.7c-1-6.3-2.1-12.8-2.8-19.2-1.2-10-3.1-20-4.9-29.6-.6-3.3-1.2-6.7-1.8-10-1.8-9.9-4.1-19.8-6.4-29.4-1-4.1-2-8.4-3-12.6-.8-3.7-1.6-7.3-2.4-11-1.9-8.7-3.8-17.7-6.2-26.4-1.2-4.2-2.4-8.5-3.6-12.6l-2.7-9.6c-2-7.2-4.3-14.3-6.5-21.3-1.1-3.5-2.2-6.9-3.2-10.4-3.4-11.1-8-22-12.5-32.5l-1.4-3.3c-2.6-6.2-5.4-12.3-8.1-18.3-4.4-9.8-9-20-12.9-30.4-.7-1.9-1.4-3.8-2.2-5.7-3.4-8.8-6.8-17.9-8.9-27.6-1.2-5.9-2.6-11.8-4-17.6-.4-1.9-.9-3.7-1.3-5.6-.6-2.6-1-5.4-1.4-8-.6-4.4-1.3-9-2.9-13.3-.8-2.1-.8-4.7-.7-7.4 0-2.3.1-4.7-.4-7.1-1.9-8.8-2.7-18-3.4-27-.4-4.9-.8-9.9-1.4-14.9-1.1-9.3-1.7-18.8-2.2-28-.3-5.1-.6-10.4-1-15.6-.9-11.2-1.1-22.7-1.3-33.8-.2-9.3-.4-19-1-28.4-.9-15.1-1.3-31.2-1.2-49.4h-2c-.1 18.2.3 34.3 1.2 49.5.6 9.4.8 19 1 28.4.2 11.1.5 22.6 1.4 34 .4 5.2.7 10.4 1 15.5.5 9.2 1.1 18.8 2.2 28.1.6 4.9 1 9.9 1.4 14.8.8 9 1.5 18.2 3.5 27.2.5 2.1.4 4.4.4 6.6 0 2.8-.1 5.6.9 8.1 1.6 4.2 2.2 8.6 2.8 12.9.4 2.7.8 5.5 1.4 8.2.4 1.9.9 3.7 1.3 5.6 1.3 5.7 2.7 11.7 4 17.5 2.1 9.8 5.6 18.9 9 27.8.7 1.9 1.4 3.8 2.2 5.7 3.9 10.4 8.5 20.6 13 30.5 2.7 6 5.5 12.1 8.1 18.3l1.4 3.3c4.4 10.5 9 21.3 12.4 32.3 1.1 3.5 2.2 6.9 3.3 10.4 2.2 6.9 4.5 14.1 6.5 21.2l2.7 9.6c1.2 4.1 2.4 8.4 3.6 12.6 2.4 8.6 4.3 17.6 6.2 26.3.8 3.7 1.6 7.3 2.4 11 1 4.2 2 8.5 3 12.6 2.3 9.6 4.6 19.5 6.4 29.3.6 3.4 1.2 6.7 1.8 10 1.8 9.6 3.6 19.6 4.9 29.5.8 6.5 1.8 13 2.9 19.3 1.1 6.7 2.2 13.5 3 20.4 1 8.8 2.2 19.3 3.3 30.4h2c-1.1-11.3-2.3-21.8-3.3-30.7-1.4-6.6-2.5-13.5-3.6-20.2zm-28.2 18.7c-.9-6-1.5-12.2-2.1-18.2-.8-8.2-1.6-16.6-3.3-24.8-1.3-6.7-2.5-13.6-3.6-20.3-1-6.2-2.1-12.7-3.3-19-3.4-17.2-7.2-34.6-11.3-51.5-3.5-14.1-8.1-28-13.5-41.5-8-20.4-18.8-38.5-30-56.9-5.7-9.3-11.6-19.5-15.5-30.9-3.7-10.6-6.8-21.6-9.1-29.9-4.4-16.3-6.9-33.3-9.3-49.7-.4-3.1-.9-6.1-1.3-9.1-.7-5-1.2-10.2-1.7-15.3-.2-2.6-.5-5.2-.7-7.8-.5-4.7-.9-9.5-1.3-14.2-.4-4.7-.8-9.5-1.3-14.2-.8-7.3-1.2-14.8-1.5-22-.1-2.1-.2-4.1-.3-6.2-.5-8.5-1.1-17.2-1.6-25.6-.6-9.1-1.3-18.4-1.8-27.7-.5-9-.8-18.3-1.1-27.2-.1-4.5-.3-9.1-.5-13.6-.8-20.4-1.3-40-1.6-59h-2c.3 19.1.9 38.7 1.6 59.1.2 4.5.3 9 .5 13.6.3 8.9.6 18.2 1.1 27.2.5 9.2 1.1 18.6 1.8 27.7.6 8.4 1.2 17 1.6 25.6.1 2.1.2 4.1.3 6.2.4 7.3.8 14.8 1.6 22.1.5 4.7.9 9.5 1.3 14.2.4 4.7.8 9.5 1.3 14.2.3 2.6.5 5.2.7 7.8.5 5.1.9 10.4 1.7 15.4.5 3 .9 6.1 1.3 9.1 2.4 16.5 4.9 33.6 9.3 50 2.3 8.4 5.3 19.4 9.1 30.1 4 11.5 9.9 21.8 15.7 31.2 11.2 18.3 21.9 36.3 29.9 56.6 5.4 13.4 9.9 27.3 13.4 41.3 4.2 16.9 8 34.2 11.3 51.4 1.2 6.3 2.3 12.7 3.3 18.9 1.1 6.7 2.2 13.6 3.6 20.3 1.6 8 2.4 16.5 3.2 24.6.6 6 1.2 12.3 2.1 18.3 1.6 10.4 2.7 21.1 3.8 31.5 0 .2 0 .4.1.6h2c0-.3-.1-.6-.1-.8-1.1-10.4-2.2-21.1-3.8-31.6zm-461-24.8-1.8-13.2c-.9-6.6-1.8-13.2-2.7-19.7l-.5-3.6c-1.5-10.4-3-21.1-3.1-31.9 0-3.4-.2-6.9-.4-10.2-.2-4.5-.5-9.1-.3-13.6.6-20.8 4-39.3 10.6-56.5 6.7-17.5 15.8-32.5 26.2-49 2.7-4.3 5.5-8.6 8.2-12.8 9.4-14.5 19.1-29.6 26.7-45.7 7.6-16.1 13.1-33.1 16.2-50.6.6-3.2 1.2-6.5 1.8-9.6 1.6-8.2 3.3-16.6 4-25 .5-6.3 1.3-12.7 2.1-18.9.8-7 1.7-14.2 2.2-21.3.6-7.7 1.5-15.6 2.5-23.2.5-3.9 1-7.9 1.4-11.9l1.8-17.1c.7-6.8 1.4-13.6 2.2-20.3 1.9-16.6 3.9-34.2 6-52.1 2.1-17.8 4.3-35.7 6.6-53.5h-2c-2.2 17.8-4.4 35.6-6.5 53.3-2.1 17.9-4.1 35.5-6 52.1-.8 6.8-1.5 13.6-2.2 20.3-.6 5.7-1.2 11.4-1.8 17-.4 4-.9 8-1.4 11.9-.9 7.6-1.9 15.5-2.5 23.3-.5 7.1-1.4 14.3-2.2 21.3-.7 6.2-1.5 12.6-2.1 18.9-.7 8.3-2.4 16.7-3.9 24.8-.6 3.2-1.3 6.4-1.8 9.7-3.1 17.3-8.5 34.2-16.1 50.1-7.6 16.1-17.2 31-26.6 45.5-2.7 4.2-5.5 8.5-8.2 12.8-10.4 16.5-19.6 31.7-26.4 49.3-6.7 17.4-10.2 36.1-10.7 57.1-.1 4.6.1 9.2.4 13.7.2 3.3.3 6.8.4 10.1.1 10.9 1.6 21.7 3.1 32.2l.5 3.6c.9 6.5 1.8 13.1 2.7 19.7.6 4.4 1.2 8.8 1.8 13.3 2.1 15.1 3.4 30.5 4.6 46.4.3 3.5.5 7.1.8 10.6h2c-.2-3.6-.5-7.2-.8-10.8-1.5-15.9-2.7-31.4-4.8-46.5zm160.9-168.9c7.7-14.9 14.7-32.1 21.9-54 6.9-20.8 13-42.8 18.7-67.4 4-17.2 7.6-34.7 10.7-52.1 2.8-15.8 5.2-31.8 7.2-46 1.1-7.6 1.9-15.4 2.8-22.9.4-3.3.7-6.6 1.1-9.9 1.3-11.2 2.2-22.6 3.1-33.7.4-4.7.8-9.3 1.2-14 .9-10.8 1.6-20.5 2-29.5l.3-6.5c.8-18 1.7-36.5 2.3-54.9h-2c-.6 18.4-1.5 36.8-2.3 54.8l-.3 6.5c-.4 9-1.1 18.6-2 29.4-.4 4.7-.8 9.3-1.2 14-.9 11-1.8 22.4-3.1 33.6-.4 3.3-.7 6.6-1.1 9.9-.8 7.5-1.7 15.3-2.8 22.9-2 14.1-4.3 30.1-7.2 45.9-3.2 17.4-6.8 34.9-10.7 52-5.7 24.6-11.7 46.6-18.6 67.3-7.2 21.8-14.2 38.9-21.8 53.7-10.7 20.7-19.7 37.6-28.5 53.2-15.2 26.8-25.8 55.7-31.5 85.9-3.3 16.8-5.6 34-7 51.1l-.3 4.2c-.8 10.7-1.6 21.6-2 32.6h2c.4-10.9 1.2-21.8 2-32.4l.3-4.2c1.3-17 3.7-34.1 6.9-50.9 5.7-30 16.2-58.7 31.3-85.3 8.9-15.7 17.9-32.6 28.6-53.3zm-90.1 57.7c10.8-22.6 23.7-43 38.1-65.5 14.4-22.4 28.2-44.5 38.5-68.8 6.3-15.4 11.5-31.4 15.3-47.7 4.3-18.1 7.6-36.6 9.9-55.1 2.5-18.9 5-37.5 6.7-56.1 1.2-13.5 2.8-27.2 4.2-40.4l.1-1c2.5-22.7 4.6-47.2 6.4-74.8.4-5.5.7-11 1.1-16.6.5-7.5 1-15.1 1.5-22.7h-2c-.5 7.6-1 15.2-1.5 22.6-.4 5.5-.7 11-1.1 16.6-1.8 27.6-3.9 52.1-6.4 74.7l-.1 1c-1.5 13.2-3 26.9-4.2 40.4-1.7 18.6-4.1 37.1-6.6 56-2.3 18.4-5.7 36.8-9.9 54.9-3.8 16.1-8.8 32-15.2 47.3-10.2 24.1-24 46.1-38.3 68.4-14.5 22.5-27.4 43-38.2 65.7-10.1 21.1-15.4 44.8-16.4 72.4-.5 13.3.2 26.7 1.9 39.8 1.1 7.8 1.2 15.9 1.4 23.7.1 4.1.2 8.3.4 12.5.4 6.9.7 13.9.9 20.8h2c-.3-7-.6-14-.9-20.9-.2-4.1-.3-8.4-.4-12.4-.2-7.8-.3-16-1.4-23.9-1.7-13-2.4-26.3-1.9-39.5.8-27.1 6.1-50.6 16.1-71.4zm-47.7 96.2c-3.4-13.8-5.3-28-5.7-42.2-.3-14.8 2.6-30 9-47.8 7.7-21.5 19.1-41 30.2-59.9l2.7-4.6c4.4-7.6 9-15.2 13.4-22.6 11.9-19.7 24.2-40.2 34.3-61.8 12-25.5 18.9-52.7 20.5-80.9.4-6.5.7-12.9 1-19.4.7-14.3 1.5-29 2.6-43.4.8-10.6 2-21.4 3.3-31.9.6-4.9 1.1-9.7 1.6-14.6.3-3.2.7-6.4 1-9.6.6-6.1 1.3-12.5 2-18.7 1.9-15.6 3.9-31.4 5.9-46.7l1.1-8.3c1.4-10.9 2.8-21.7 4.2-32.6h-2c-1.4 10.8-2.8 21.5-4.2 32.3l-1.1 8.3c-2 15.3-4 31.1-5.9 46.7-.8 6.2-1.4 12.6-2 18.7-.3 3.2-.7 6.4-1 9.6-.5 4.9-1.1 9.7-1.6 14.6-1.2 10.5-2.5 21.3-3.3 31.9-1.1 14.5-1.8 29.2-2.6 43.5-.3 6.5-.7 12.9-1 19.4-1.5 27.9-8.4 54.9-20.3 80.1-10.1 21.5-22.3 41.9-34.2 61.6-4.4 7.4-9 15-13.5 22.6l-2.7 4.6c-11.1 19-22.5 38.6-30.3 60.2-6.5 18-9.4 33.4-9.1 48.5.4 14.3 2.4 28.7 5.8 42.6 4.9 21.1 7.4 42.8 7.6 64.5 0 2.4.1 4.9.1 7.3h2c0-2.4 0-4.9-.1-7.3-.3-21.6-2.8-43.5-7.7-64.7zm-50.1-8.9c-.8-4-1.6-8-2.4-11.9-.7-3.7-1.5-7.4-2.2-11.1-1.7-8.4-3.5-17.2-5-25.8-4.2-23.1-4.8-44.5-2-65.4 1.9-14.1 6-28.4 13.3-46.2 5.5-13.5 12-26.8 18.2-39.7 5.9-12.3 12-25 17.4-37.9 7.4-17.7 14-36.1 19.5-54.5 7.3-24.6 13.1-44.8 18-63.5l.4-1.7c3.8-14.3 7.7-29.1 10.9-43.7 1.1-5.1 2.3-10.3 3.5-15.3 2.9-12.5 5.9-25.5 8-38.4 1.4-8.4 3-17.3 5-27.2 1.6-7.9 2.6-16 3.7-23.8.6-4.3 1.2-8.7 1.8-13.1.9-5.6 1.6-11.2 2.2-16.8h-2c-.6 5.5-1.3 11-2.2 16.5-.7 4.4-1.3 8.8-1.9 13.1-1 7.8-2.1 15.8-3.7 23.7-1.9 9.9-3.6 18.8-5 27.2-2.1 12.9-5.1 25.8-8 38.3-1.2 5-2.4 10.2-3.5 15.3-3.2 14.6-7.1 29.4-10.9 43.7l-.4 1.7c-4.9 18.6-10.6 38.8-18 63.4-5.5 18.3-12 36.6-19.4 54.3-5.3 12.8-11.4 25.5-17.3 37.8-6.2 12.9-12.6 26.2-18.2 39.8-7.4 18-11.5 32.5-13.5 46.7-2.9 21.1-2.2 42.7 2 66 1.6 8.6 3.3 17.4 5 25.8.7 3.7 1.5 7.4 2.2 11.1.8 4 1.6 8 2.4 11.9 2.8 13.6 5.6 27.7 7.4 41.7 1.7 13 2.9 26 3.9 39h2c-1-13.1-2.2-26.1-3.9-39.2-1.7-14.1-4.5-28.2-7.3-41.8zm-20.6 21c-1.6-6.8-3.7-13.4-5.8-19.9-1.5-4.7-3.1-9.5-4.4-14.3-.5-1.9-1-3.7-1.5-5.6-2.4-8.6-4.9-17.6-6.8-26.6-3.3-15.5-4.8-28.4-4.7-40.7 0-12.3 2-25.1 6.1-39.4 2.5-8.8 5.5-17.5 9-25.9 5.5-13.3 11.3-26.7 17.5-39.6 6.2-13.1 12.2-27.4 18.4-43.7 4.1-10.7 7.2-21.8 9.4-33.1 1.5-8 2.7-16.4 3.9-24.4l.1-1c1.4-9.8 2.3-19.8 3.2-29.4.3-3.5.6-6.9 1-10.4 1.6-16.5 4.2-32.8 6.6-48.1.4-2.4 1.1-4.7 1.7-7l1.2-4.2c.7-3 1.4-6.1 2.1-9.2 1.4-6.5 2.9-13.3 5.2-19.5 1.5-4.1 2.8-8.4 4-12.6 1.1-3.6 2.2-7.3 3.4-10.9 3-8.7 5.6-17.8 8-26.7l.3-1c3.4-12.4 7.1-25.7 10.5-39.1.9-3.5 1.5-7.1 2.1-10.6.5-2.7.9-5.5 1.5-8.1.4-2 .8-4 1.1-6h-2c-.3 1.9-.6 3.8-1 5.6-.6 2.7-1.1 5.5-1.5 8.2-.6 3.4-1.2 7-2.1 10.4-3.4 13.4-7 26.6-10.5 39.1l-.3 1c-2.4 8.8-5 17.9-8 26.5-1.3 3.6-2.4 7.4-3.5 11-1.2 4.1-2.5 8.4-4 12.5-2.3 6.3-3.8 13.2-5.2 19.8-.6 3-1.3 6.1-2.1 9.1-.3 1.4-.8 2.8-1.2 4.2-.7 2.3-1.4 4.8-1.8 7.3-2.5 15.3-5 31.6-6.6 48.2-.3 3.5-.7 6.9-1 10.4-.9 9.6-1.8 19.6-3.2 29.3l-.1 1c-1.1 8-2.3 16.3-3.8 24.3-2.1 11.1-5.2 22.1-9.3 32.7-6.2 16.3-12.2 30.5-18.4 43.6-6.1 13-12 26.4-17.5 39.7-3.5 8.5-6.5 17.3-9 26.1-4.1 14.4-6.1 27.4-6.2 39.9 0 12.4 1.5 25.4 4.8 41.1 1.9 9.1 4.4 18 6.8 26.7.5 1.8 1 3.7 1.5 5.5 1.3 4.8 2.9 9.7 4.4 14.3 2.1 6.4 4.3 13 5.8 19.7 3.4 14.1 5.9 28.5 7.4 42.8.5 5.6.9 11.2 1.3 16.8h2c-.4-5.7-.8-11.4-1.3-17-1.6-14.2-4-28.7-7.5-42.8zm342.1 31.4c-7.2-7-14.7-9.7-22.9-8.2-5.8 1.1-10.3 4.7-14.2 11.4-4.4 7.6-8 15.8-11.3 25.5h2.1c3.2-9.3 6.7-17.2 10.9-24.5 3.6-6.2 7.6-9.5 12.8-10.4 1.3-.2 2.6-.4 3.9-.4 6 0 11.6 2.6 17.2 8 6.9 6.7 13.1 14.7 19.4 25.2.4.7.8 1.3 1.2 2h2.3c-.6-1-1.2-2.1-1.8-3.1-6.3-10.6-12.6-18.7-19.6-25.5zm29.6-90.7c-10.2-16.2-19.4-27.5-29.6-36.7-4.7-4.3-11.3-8.8-19.9-5.8-4.8 1.6-7.5 5.2-9.9 8.4-5.7 7.6-10 16.1-14.2 24.3-.6 1.1-1.1 2.3-1.7 3.4-6.9 13.6-16.1 25.8-25.6 38.2-13.7 17.7-23.1 33.3-29.6 49.3-5 12.4-9 25.3-11.9 38.3h2c2.8-12.8 6.7-25.4 11.7-37.6 6.5-15.8 15.8-31.3 29.3-48.8 9.6-12.5 18.8-24.8 25.8-38.5.6-1.1 1.1-2.3 1.7-3.4 4.1-8.2 8.4-16.6 14-24 2.3-3 4.8-6.3 9-7.7 1.7-.6 3.3-.8 4.9-.8 5.3 0 9.5 3.1 13.1 6.3 10.1 9.1 19.1 20.3 29.3 36.3 13.6 21.5 24.4 44 33.1 63.3 9.2 20.2 16.1 37.9 21.4 55.1h2.1c-5.4-17.4-12.4-35.4-21.7-55.9-8.8-19.5-19.6-42.1-33.3-63.7zm-144.1-57.9c5.4-10.4 11.1-21.1 16.4-31.9l2.6-5.2c8-16.2 16.2-32.9 22.6-50.4 7.5-20.6 13.5-39.4 18.1-57.3 2.6-10 4.8-20.2 6.9-30 .6-2.6 1.1-5.3 1.7-7.9 4.7-22.4 8.3-45.4 10.6-68.2 1.9-17.5 3.2-36.2 4-57.2.4-10.8.7-21.8 1-32.4.3-11.3.6-23 1.1-34.5.4-9.2.5-18.5.6-27.5 0-2.4 0-4.7.1-7.1l.3-30.2h-2c-.1 10-.1 20.1-.3 30.1 0 2.4-.1 4.7-.1 7.1-.1 9-.2 18.3-.6 27.5-.5 11.5-.8 23.2-1.1 34.5-.3 10.6-.5 21.6-1 32.3-.8 21-2.2 39.6-4 57.1-2.3 22.7-5.8 45.6-10.5 68-.6 2.6-1.1 5.3-1.7 7.9-2.1 9.9-4.3 20-6.9 30-4.6 17.9-10.5 36.5-18 57.1-6.4 17.4-14.6 34-22.5 50.2l-2.6 5.2c-5.3 10.7-10.9 21.4-16.3 31.8-3.5 6.6-7.1 13.5-10.6 20.3-10.8 21.1-19.9 43.3-26.9 65.9-6.8 22-12.2 44.7-16 67.4-1.3 8.2-2.5 16.4-3.5 24.5h2c1-8 2.1-16.1 3.4-24.2 3.7-22.6 9.1-45.2 15.9-67.2 7-22.5 16-44.6 26.8-65.6 3.4-6.6 7-13.4 10.5-20.1zm252.2 99.7-.9-4.1c-4.1-18.3-9.5-36.4-16.2-53.9-3.9-10.2-8.5-20.4-13.4-30.2-7.9-15.9-17.1-31.1-26-45.7-4.1-6.7-8.3-13.7-12.4-20.7-10.1-17.4-18-32.3-23.5-49-4.2-12.1-7.6-24.6-10.3-37.2-3.3-16.7-5.6-33.9-6.8-50.9-1.4-20.9-2.3-42-3.1-60.6-.3-7.6-.5-15.3-.6-22.8-.3-14.7-.5-29.9-2.2-44.7-.1-1.8-.1-3.7 0-5.6 0-16.9-1-34-1.9-50.5-.4-6.3-.7-12.8-1-19.2-.3-6-.4-12.1-.5-18.1-.1-5.2-.2-10.6-.4-15.9-.1-3.5-.3-6.9-.4-10.3h-2c.1 3.4.3 6.8.4 10.4.2 5.3.3 10.7.4 15.9.1 5.9.2 12.1.5 18.1.3 6.4.7 12.9 1 19.2.9 16.5 1.9 33.6 1.9 50.4-.1 1.9-.1 3.9 0 5.8 1.6 14.8 1.9 29.9 2.2 44.6.1 7.5.3 15.2.6 22.8.8 18.6 1.7 39.8 3.1 60.6 1.2 17.1 3.5 34.3 6.8 51.2 2.7 12.6 6.1 25.2 10.3 37.4 5.9 17.8 14.9 34.3 23.7 49.4 4.1 7 8.3 13.9 12.4 20.7 8.9 14.6 18.1 29.8 26 45.6 4.9 9.7 9.4 19.8 13.3 30 6.7 17.4 12.1 35.4 16.1 53.6l.9 4.1c2.8 12.9 5.7 26.1 7.4 39.4 1.6 12.1 3.3 24.9 4.6 37.8h2c-1.3-12.9-3-25.8-4.6-38-1.7-13.4-4.6-26.7-7.4-39.6zm-33 22.1c-3-9.7-6.7-18.9-10-26.6-4.5-10.7-9.4-21.3-14-31-3.7-7.9-8.4-15.5-12.9-22.8-1.2-1.9-2.4-3.9-3.6-5.8-5.4-9-11.6-17.6-17.6-25.9-4.8-6.7-9.8-13.6-14.4-20.6-6.6-10.3-14.1-22.4-19.2-35.7-3.1-8.1-5.8-16.5-8.4-24.6-1.7-5.4-3.5-11-5.4-16.5-.9-2.2-2-4.4-3.2-6.5-1.1-2.2-3.2-3.6-5.6-3.8-2.9-.2-6 1.3-8 4.1-4.7 6.5-7.8 14-10.8 21.2l-.2.6c-2.9 6.9-5.7 14-8.4 20.9-2.8 7.1-5.7 14.4-8.7 21.6l-.5 1.2c-5.2 12.5-10.7 25.5-16.9 37.8-9.2 18-20.1 34.4-32.5 52.4-9.6 13.8-17.8 28.6-24.3 44.1-6.5 16-11.2 33.3-14.8 54.3-1 5.8-1.9 11.6-2.6 17.4h2c.8-5.7 1.6-11.4 2.6-17.1 3.5-20.9 8.2-38 14.7-53.9 6.4-15.4 14.5-30.1 24.1-43.7 12.4-18.1 23.4-34.5 32.6-52.6 6.3-12.4 11.7-25.3 17-37.9l.5-1.2c3-7.2 5.9-14.5 8.7-21.6 2.7-6.9 5.5-14 8.4-20.9l.2-.6c3-7.1 6-14.4 10.6-20.8 1.5-2.1 3.7-3.3 5.8-3.3h.4c1.7.1 3.1 1.1 4 2.8 1.2 2 2.2 4.1 3.1 6.2 1.9 5.4 3.7 11 5.4 16.4 2.6 8.1 5.3 16.5 8.4 24.7 5.1 13.4 12.7 25.7 19.4 36.1 4.6 7.1 9.6 14 14.4 20.7 6 8.3 12.2 16.8 17.6 25.8 1.2 2 2.4 3.9 3.6 5.8 4.5 7.3 9.1 14.8 12.8 22.6 4.6 9.8 9.5 20.3 14 31 3.2 7.7 6.9 16.8 9.9 26.4 3 9.6 5.9 20.2 9 33.4 1.9 7.9 3.4 15 4.7 21.5h2c-1.3-6.7-2.8-13.9-4.8-21.9-3.2-13.4-6.1-24.1-9.1-33.7zm-93.8-21.7c-5.6-6.4-11.5-10.5-17.8-12.8-9.9-3.6-19.2-1.7-27.5 5.7-11.5 10.1-18.7 22.9-24.8 35.3-7.6 15.8-14.2 32.3-19.6 49h2.1c5.3-16.5 11.8-32.6 19.3-48.2 6-12.2 13-24.8 24.3-34.7 5.2-4.6 10.8-6.9 16.7-6.9 2.8 0 5.8.5 8.8 1.6 6 2.2 11.6 6.2 17 12.3 9.6 10.9 17.8 23.7 26.5 41.7 5.3 11.1 9.9 22.5 13.9 34.2h2.1c-4-11.9-8.8-23.7-14.2-35-8.8-18.2-17-31.2-26.8-42.2zm-389.7-17.5c-1-5.4-2.1-10.8-3.2-16.1-2.3-11.4-4.6-23.3-6.5-35-.3-1.7-.6-3.4-.8-5.1-1.4-8.2-2.8-16.8-2.7-25.3 0-3.1-.3-6.2-.6-9.2-.3-2.9-.6-6-.6-9 .2-22.1 3.2-44.1 9.1-65.4 3.5-12.5 7.8-24.9 12.1-36.9 1.1-3 2.1-6 3.2-9l1.6-4.5c6.1-17.3 12.3-35.1 17.2-53.3 4.4-16.3 8.4-32.9 12-49.3 1.6-7.6 3.6-15.3 5.4-22.7 1.2-4.6 2.4-9.4 3.5-14.2 2.4-10.1 4.7-20.1 7.1-30.2 2.6-11.1 5.3-22.6 8-33.8 2.2-9.3 4.8-20.3 7.1-31.7 3.4-16.6 6.4-31.6 8.9-47.1 1.2-7.7 2.4-15.8 3.4-24.7h-2c-1 8.7-2.1 16.8-3.4 24.3-2.5 15.5-5.5 30.4-8.9 47-2.3 11.4-4.9 22.4-7.1 31.7-2.7 11.3-5.4 22.7-8 33.8-2.4 10.1-4.7 20.1-7.1 30.2-1.1 4.7-2.3 9.5-3.5 14.1-1.9 7.4-3.8 15.1-5.4 22.7-3.6 16.5-7.6 33-12 49.3-4.8 18.1-11.1 35.9-17.1 53.1l-1.6 4.5c-1.1 3-2.1 6-3.2 9-4.3 12-8.7 24.4-12.1 37-5.9 21.5-9 43.7-9.2 65.9 0 3.1.3 6.2.6 9.2.3 2.9.6 5.9.6 8.9-.1 8.7 1.4 17.3 2.7 25.6.3 1.7.6 3.4.8 5.1 1.9 11.8 4.2 23.6 6.5 35 1 5.3 2.1 10.7 3.2 16 2.9 15.2 5.8 31.9 9 50.9 2.4 14.6 4.7 29 6.6 43.5h2c-1.9-14.6-4.3-29.1-6.7-43.8-3.1-18.6-6-35.2-8.9-50.5z" style="opacity:.8;fill:#fff"/></svg>