<svg xmlns="http://www.w3.org/2000/svg" viewBox="0 0 1700 830" style="enable-background:new 0 0 1700 830" xml:space="preserve"><path transform="rotate(-115 928.693 691.276)" d="M2285.2 1462.6c-217.4 0-217.4 142.8-434.8 142.8s-217.4-142.8-434.8-142.8-217.4 142.8-434.8 142.8-217.4-142.8-434.8-142.8-217.4 142.8-434.8 142.8m0-80.8c217.4 0 217.4-142.8 434.8-142.8s217.4 142.8 434.8 142.8 217.4-142.8 434.8-142.8 217.4 142.8 434.8 142.8 217.4-142.8 434.8-142.8m0-80.9c-217.4 0-217.4 142.8-434.8 142.8s-217.4-142.8-434.8-142.8-217.4 142.8-434.8 142.8-217.4-142.8-434.8-142.8-217.4 142.8-434.8 142.8m2174-250.7c-217.4 0-217.4 142.8-434.8 142.8S1633 1193 1415.6 1193s-217.4 142.8-434.8 142.8S763.4 1193 546 1193s-217.4 142.8-434.8 142.8m2174-250.6c-217.4 0-217.4 142.8-434.8 142.8s-217.4-142.8-434.8-142.8S1198.2 1228 980.8 1228 763.4 1085.2 546 1085.2 328.6 1228 111.2 1228m2174-196.7c-217.4 0-217.4 142.8-434.8 142.8s-217.4-142.8-434.8-142.8-217.4 142.8-434.8 142.8-217.4-142.8-434.8-142.8-217.4 142.8-434.8 142.8m2174-196.7c-217.4 0-217.4 142.8-434.8 142.8S1633 977.4 1415.6 977.4s-217.4 142.8-434.8 142.8S763.4 977.4 546 977.4s-217.4 142.8-434.8 142.8m0-26.9c217.4 0 217.4-142.8 434.8-142.8s217.4 142.8 434.8 142.8 217.4-142.8 434.8-142.8 217.4 142.8 434.8 142.8 217.4-142.8 434.8-142.8m0-27c-217.4 0-217.4 142.8-434.8 142.8S1633 923.5 1415.6 923.5s-217.4 142.8-434.8 142.8S763.4 923.5 546 923.5s-217.4 142.8-434.8 142.8m0-27c217.4 0 217.4-142.8 434.8-142.8s217.4 142.8 434.8 142.8 217.4-142.8 434.8-142.8 217.4 142.8 434.8 142.8 217.4-142.8 434.8-142.8m0-27c-217.4 0-217.4 142.8-434.8 142.8S1633 869.5 1415.6 869.5s-217.4 142.8-434.8 142.8S763.4 869.5 546 869.5s-217.4 142.8-434.8 142.8m0-26.9c217.4 0 217.4-142.8 434.8-142.8s217.4 142.8 434.8 142.8 217.4-142.8 434.8-142.8 217.4 142.8 434.8 142.8 217.4-142.8 434.8-142.8m0-27c-217.4 0-217.4 142.8-434.8 142.8S1633 815.6 1415.6 815.6s-217.4 142.8-434.8 142.8S763.4 815.6 546 815.6 328.6 958.4 111.2 958.4m0-26.9c217.4 0 217.4-142.8 434.8-142.8s217.4 142.8 434.8 142.8 217.4-142.8 434.8-142.8 217.4 142.8 434.8 142.8 217.4-142.8 434.8-142.8m0-27c-217.4 0-217.4 142.8-434.8 142.8S1633 761.7 1415.6 761.7s-217.4 142.8-434.8 142.8S763.4 761.7 546 761.7 328.6 904.5 111.2 904.5m0-26.9c217.4 0 217.4-142.8 434.8-142.8s217.4 142.8 434.8 142.8 217.4-142.8 434.8-142.8 217.4 142.8 434.8 142.8 217.4-142.8 434.8-142.8m0-27c-217.4 0-217.4 142.8-434.8 142.8S1633 707.8 1415.6 707.8s-217.4 142.8-434.8 142.8S763.4 707.8 546 707.8 328.6 850.6 111.2 850.6m0-26.9c217.4 0 217.4-142.8 434.8-142.8s217.4 142.8 434.8 142.8 217.4-142.8 434.8-142.8 217.4 142.8 434.8 142.8 217.4-142.8 434.8-142.8m0-27c-217.4 0-217.4 142.8-434.8 142.8S1633 653.9 1415.6 653.9s-217.4 142.8-434.8 142.8S763.4 653.9 546 653.9 328.6 796.7 111.2 796.7m0-26.9C328.6 769.8 328.6 627 546 627s217.4 142.8 434.8 142.8S1198.2 627 1415.6 627s217.4 142.8 434.8 142.8S2067.8 627 2285.2 627m0-27c-217.4 0-217.4 142.8-434.8 142.8S1633 600 1415.6 600s-217.4 142.8-434.8 142.8S763.4 600 546 600 328.6 742.8 111.2 742.8m0-26.9C328.6 715.9 328.6 573 546 573s217.4 142.8 434.8 142.8S1198.2 573 1415.5 573c217.4 0 217.4 142.8 434.8 142.8S2067.7 573 2285.1 573m.1-26.9c-217.4 0-217.4 142.8-434.8 142.8S1633 546.1 1415.6 546.1s-217.4 142.8-434.8 142.8S763.4 546.1 546 546.1 328.6 688.9 111.2 688.9m0-27c217.4 0 217.4-142.8 434.8-142.8s217.4 142.8 434.8 142.8 217.4-142.8 434.8-142.8 217.4 142.8 434.8 142.8 217.4-142.8 434.8-142.8m0-27c-217.4 0-217.4 142.8-434.8 142.8S1633 492.1 1415.6 492.1s-217.4 142.8-434.8 142.8C763.4 635 763.4 492.1 546 492.1S328.6 635 111.2 635m0-27c217.4 0 217.4-142.8 434.8-142.8S763.4 608 980.8 608s217.4-142.8 434.8-142.8S1633 608 1850.4 608s217.4-142.8 434.8-142.8m0-27c-217.4 0-217.4 142.8-434.8 142.8S1633 438.2 1415.6 438.2 1198.2 581 980.8 581 763.4 438.2 546 438.2 328.6 581 111.2 581m0-26.9c217.4 0 217.4-142.8 434.8-142.8s217.4 142.8 434.8 142.8 217.4-142.8 434.8-142.8 217.4 142.8 434.8 142.8 217.4-142.8 434.8-142.8m0-27c-217.4 0-217.4 142.8-434.8 142.8S1633 384.3 1415.6 384.3s-217.4 142.8-434.8 142.8S763.4 384.3 546 384.3 328.6 527.1 111.2 527.1m0-26.9c217.4 0 217.4-142.8 434.8-142.8s217.4 142.8 434.8 142.8 217.4-142.8 434.8-142.8 217.4 142.8 434.8 142.8 217.4-142.8 434.8-142.8m0-27c-217.4 0-217.4 142.8-434.8 142.8S1633 330.4 1415.6 330.4s-217.4 142.8-434.8 142.8S763.4 330.4 546 330.4 328.6 473.2 111.2 473.2m0-26.9c217.4 0 217.4-142.8 434.8-142.8s217.4 142.8 434.8 142.8 217.4-142.8 434.8-142.8 217.4 142.8 434.8 142.8 217.4-142.8 434.8-142.8m0-27c-217.4 0-217.4 142.8-434.8 142.8S1633 276.5 1415.6 276.5s-217.4 142.8-434.8 142.8S763.4 276.5 546 276.5 328.6 419.3 111.2 419.3m0-26.9c217.4 0 217.4-142.8 434.8-142.8s217.4 142.8 434.8 142.8 217.4-142.8 434.8-142.8 217.4 142.8 434.8 142.8 217.4-142.8 434.8-142.8m0-81c-217.4 0-217.4 142.8-434.8 142.8S1633 168.6 1415.6 168.6s-217.4 142.8-434.8 142.8S763.4 168.6 546 168.6 328.6 311.4 111.2 311.4m0-80.8c217.4 0 217.4-142.8 434.8-142.8s217.4 142.8 434.8 142.8 217.4-142.8 434.8-142.8 217.4 142.8 434.8 142.8 217.4-142.8 434.8-142.8m-2174 88.9c217.4 0 217.4-142.8 434.8-142.8s217.4 142.8 434.8 142.8 217.4-142.8 434.8-142.8 217.4 142.8 434.8 142.8 217.4-142.8 434.8-142.8m-2174 88.9C328.6 122.8 328.6-20 546-20s217.4 142.8 434.8 142.8S1198.2-20 1415.5-20c217.4 0 217.4 142.8 434.8 142.8S2067.7-20 2285.1-20" style="opacity:.3;fill:none;stroke:#d4d4d4;stroke-miterlimit:10"/></svg>