<svg id="Layer_1" data-name="Layer 1" xmlns="http://www.w3.org/2000/svg" viewBox="0 0 150 134.64"><path d="M123.79,56.07l-.12,0v-.12a58.85,58.85,0,0,1,3.18-5.51c1.2-.5,3.36.43,4.55-.47l.09,0c-.72,1.91-3.26,1.68-4.92,1.58l-2.18,3.78a5.15,5.15,0,0,1,2.65-.89c1.09,0,2,.54,2,1.73,0,2.73-3.9,5.47-6.41,5.47a3,3,0,0,1-1.41-.24v-.14l.11-.14.08,0a3.71,3.71,0,0,0,1.23.18c2.22,0,5.08-2.81,5.08-5A1.16,1.16,0,0,0,126.41,55,6.25,6.25,0,0,0,123.79,56.07Zm-11.7,5.41a5.49,5.49,0,0,0,1.43-.2c.11,0,1.19-1.45,1.33-1.6,1.4-1.79,2.87-3.54,4.44-5.18,1.31-1.37,2.65-2.71,3.89-4.12l0-.14-.09-.12a1,1,0,0,0-.39.2,22.19,22.19,0,0,0-2.82-.14c-2.36,0-2.77.48-3.84,2.58v.12l.06,0c.59,0,.61-1.42,2.36-1.42,1,0,2.1.06,3.15.08-1,.91-9.5,9-9.69,9.77v.08ZM53.14,59.56a.66.66,0,0,0,.68.81,1,1,0,0,0,1-.81.68.68,0,0,0-.68-.82A1,1,0,0,0,53.14,59.56ZM106,57.26c1.74,0,3.19-2.42,3.75-3.85l0-.1h-.22l-.08.05c-.45,1.09-1.33,2.76-2.72,2.76-.69,0-1-.48-1-1.11,0-1.75,1.93-4.64,3.81-4.64.83,0,1.09.63,1.09,1.36a5.82,5.82,0,0,1-.2,1.44,14.57,14.57,0,0,1-6.06,8.36l-.08.12.09.18h.12c2.84-1.87,7.32-5.79,7.32-9.48,0-1.21-.58-2.4-1.94-2.4-2.28,0-5.27,3.53-5.27,5.77A1.39,1.39,0,0,0,106,57.26Zm-70.67.12c.53-1,1.18-2.3,1.7-3.43.36-.77.95-1.61,1.65-1.7a1.2,1.2,0,0,1,.73.09c.36.18.28.52-.08.34a.73.73,0,0,0-.63,0c-.91.43-.72,1.8-.41,2.52A5.56,5.56,0,0,1,39,57.52a3.19,3.19,0,0,1-1.4,2.2l.13,0a2,2,0,0,0,1.78-.92,15.42,15.42,0,0,0,1.36-2.35A33.62,33.62,0,0,1,42.07,53H41c-.22,0-.18-.44,0-.44h1.19c.46-1,.95-2,1.45-2.82,1.37-2.39,3.51-2.06,2,1.11-.27.6-.55,1.15-.85,1.71h1c.2,0,.16.44,0,.44H44.67A13.46,13.46,0,0,1,42,56.27c-.17.51-.45,2-.45,2-.3,1.33.61,1.51,1.27,1a7.47,7.47,0,0,0,1.86-2.53A8.19,8.19,0,0,1,46,54.56c1.11-1.29,2.84-2,4.26-1.15,1-1.8,1.83-3.62,2.31-4.7.36-.89.7-1.09,1.34-1a3.89,3.89,0,0,0,.85.08,73.19,73.19,0,0,0-5.23,9.7c-.2.45-.81,2.11.12,2.11s2.14-2.45,2.55-3.28c.16-.36.48-.28.3.12-.47,1.11-1.62,3.68-3.21,3.68a1.08,1.08,0,0,1-.89-.53,2.23,2.23,0,0,1-.18-1.75c-.59,1-1.53,2.56-2.89,2.2-.84-.23-1.08-1-1-1.92a6,6,0,0,1-1.11,1.45c-1.07,1-3,.69-2.73-1.49l0-.18c-.74,1.34-1.81,2.59-3.42,2.1a2.18,2.18,0,0,1-.82.2C33.92,60.17,34.38,57.42,35.33,57.38Zm12.12.83a49.25,49.25,0,0,0,2.66-4.48c-1-1-3.18,1.23-4.23,3.17C44.57,59.36,45.76,60.59,47.45,58.21Zm-4-5.65h1a20.83,20.83,0,0,0,1-2c.38-.84.66-2.6-.58-.88A20.34,20.34,0,0,0,43.48,52.56Zm-1.27,3.07a14.47,14.47,0,0,0,2-2.63h-.93C42.86,54,42.49,54.94,42.21,55.63Zm-6.54,1.79s.43,0,.41.63a1.56,1.56,0,0,0,.84,1.52,2.7,2.7,0,0,0,.87-2c.06-1.25-.42-2.88-.26-3.77C37,54.82,36.15,56.55,35.67,57.42Zm.51,2.41a1.05,1.05,0,0,0,.4-.07,1.78,1.78,0,0,1-.8-1.49C35.15,58.9,35.41,59.83,36.18,59.83ZM51.79,84.52c-.88,0-1.28.48-1.28,1.16a1.07,1.07,0,0,0,1.17,1,1.73,1.73,0,0,0,1.4-.72v-.84A1.39,1.39,0,0,0,51.79,84.52Zm30.05-17.2h61.51a10.26,10.26,0,0,1-1.08,4.86l-29.43,51a11.44,11.44,0,0,1-8.42,4.86H45.58a11.44,11.44,0,0,1-8.42-4.86l-29.43-51a10.14,10.14,0,0,1-1.08-4.86H70.38c-.6-1.3-1.22-2.6-1.83-3.91L60.78,47,53.1,30.62,45.53,14.15A.81.81,0,0,1,47,13.46h0l0,.09a1.61,1.61,0,0,1,.48-.34l4-1.87a1.89,1.89,0,0,1,2.51.91L69.48,45.37a1.9,1.9,0,0,1-.91,2.5l-1.38.64a3.67,3.67,0,0,0-2.1,3.55L70,62.77c.66,1.52,1.33,3,2,4.55h3.82c1.31-2.53,2.46-5.1,3.25-7,5.17-12,9.55-24.1,11.85-31.29C92.92,22.62,95.19,8.34,103.75,14,111.84,19.27,94.3,50.59,81.84,67.32Zm18.11-48a1.46,1.46,0,0,0,1.31-2.6,1.48,1.48,0,0,0-2,.65A1.45,1.45,0,0,0,100,19.29ZM64.08,37.61c1.33,2.7,2.67,5.4,4.07,8.08-1.14-2.8-2.35-5.56-3.57-8.32s-2.5-5.48-3.75-8.22S58.26,23.7,56.93,21s-2.66-5.41-4.06-8.08c1.14,2.79,2.35,5.55,3.58,8.31s2.49,5.48,3.74,8.23S62.76,34.9,64.08,37.61ZM67,89.14h6.21V86.27H72.09V84c0-1.93,1.11-2.43,3.09-2.43v-4c-2.26,0-2.83.9-3.4,2l-.66-1.4H67V81h1v5.24H67ZM60.35,75a2.36,2.36,0,0,0,2.36,2.22A2.21,2.21,0,0,0,65.13,75a2.36,2.36,0,0,0-2.42-2.24A2.3,2.3,0,0,0,60.35,75Zm-.62,14.16h6.14V86.27H64.82V78.18H59.73V81h.92v5.24h-.92Zm4.68,8.35s-.89-2.23-4.55-1.07-10.2-.15-11.58-3.81c0,0-.35,7.82,9.12,8.91C66.37,102.55,64.41,97.49,64.41,97.49ZM53.08,81.86v.77a3.13,3.13,0,0,0-2.17-.77c-2.48,0-4.56,1.56-4.56,4s2.23,3.66,4.32,3.66a3.72,3.72,0,0,0,3-1.4l.52,1h4.7v-2.8H57.53V82.06c0-3.53-3.31-4.52-5.94-4.52a9.77,9.77,0,0,0-4.78,1.56l.92,2.55a6.83,6.83,0,0,1,3.27-1C52.18,80.64,53.08,80.88,53.08,81.86ZM39.63,82.94v3.31h-1.3v2.89h7.13V86.25H44.19V76.71h1.27v-2.9H38.33v2.9h1.3V80H35.46V76.71h1.36v-2.9H29.71v2.9h1.21v9.54H29.71v2.89h7.11V86.25H35.46V82.94Zm16,33A3.32,3.32,0,0,0,53,112.58c1.48-.59,1.93-1.4,1.93-3.06,0-2.16-1.56-3.38-4.84-3.38H42.72v2.55h1.15v8.69H42.72V120h7.51C54,120,55.61,118.73,55.61,115.94Zm10.61,2.65-1.66-1.92a4,4,0,0,1-2.76,1,1.83,1.83,0,0,1-2-1.62H66a5.84,5.84,0,0,0,0-3.34,4.75,4.75,0,0,0-4.72-2.86A5,5,0,0,0,55.91,115a5,5,0,0,0,5.22,5.36A7.22,7.22,0,0,0,66.22,118.59Zm.3-19.33a7.93,7.93,0,1,0,7.93-7.93A7.93,7.93,0,0,0,66.52,99.26Zm11.57,18.16H76.9v-3.85c0-3.18-3-4.07-5.36-4.07a8.92,8.92,0,0,0-4.3,1.4l.83,2.29a6.23,6.23,0,0,1,2.94-.91c1.07,0,1.88.22,1.88,1.11v.69a2.81,2.81,0,0,0-2-.69c-2.23,0-4.11,1.4-4.11,3.64s2,3.3,3.9,3.3a3.34,3.34,0,0,0,2.66-1.27l.47.89h4.24Zm8.18-7.84a2.86,2.86,0,0,0-3.06,1.75l-.59-1.26H78.9v2.57h.85v4.72h-.87V120h5.59v-2.59h-1v-2c0-1.74,1-2.2,2.78-2.2Zm12.53,7.8h-1V105.13H92.93v2.57h.92v2.93a4.14,4.14,0,0,0-2.5-.76,4.71,4.71,0,0,0-4.58,5c0,2.75,1.8,5.22,4.58,5.22a3.77,3.77,0,0,0,2.5-.91l.33.73H98.8Zm10.5-28.24h2.75l.19-1.33a4,4,0,0,0,3.36,1.6c2.12,0,4.08-1.23,4.08-3.29,0-2.3-1.87-2.94-3.53-3.51-1.41-.48-2.7-.75-2.7-1.36a.76.76,0,0,1,.85-.79c1.1,0,2.24.75,2.24,1.67h2.85V78.18h-2.7l-.17,1.45a3.66,3.66,0,0,0-3.27-1.71c-1.56,0-3.86.94-3.86,3.18,0,2.06,1.43,3,2.92,3.51s3.22.65,3.22,1.31-.53.74-1,.74c-.66,0-2.33-.3-2.33-1.46H109.3Zm-.55,28.08c0-2.07-1.68-2.64-3.19-3.16-1.26-.43-2.43-.67-2.43-1.22a.7.7,0,0,1,.78-.71c1,0,2,.67,2,1.5h2.57v-3.56h-2.43l-.16,1.3a3.32,3.32,0,0,0-2.94-1.54c-1.41,0-3.48.85-3.48,2.87,0,1.85,1.29,2.69,2.63,3.16s2.9.59,2.9,1.19-.47.67-.87.67c-.59,0-2.09-.28-2.09-1.33H99.4V120h2.47l.18-1.21a3.58,3.58,0,0,0,3,1.45C107,120.19,108.75,119.08,108.75,117.22ZM101.34,81h1.18v3.91c.07,2.8.18,4.6,3.47,4.6a10,10,0,0,0,2.65-.42v-2.8a5.3,5.3,0,0,1-1.38.37c-.86,0-.7-1-.7-1.75V81h2.08V78.18h-2.08V74.87l-4,1.29v2h-1.18Zm-13.85,0h.92v3c0,3.64,1.1,5.35,4.41,5.35a3.74,3.74,0,0,0,3.11-1.69l.59,1.38h4.15V86.23H99.59v-8H93.91v2.89h1.45v3.49A1.5,1.5,0,0,1,94,86.23c-.9,0-1.18-.88-1.18-2.76V78.18H87.49ZM84.66,97.49s-2,5.06,7,4c9.48-1.09,9.12-8.91,9.12-8.91-1.37,3.66-7.92,5-11.58,3.81S84.66,97.49,84.66,97.49ZM80.93,78c-2.81,0-5.4,1.74-5.4,5.62s2.81,5.85,6,5.85a7.48,7.48,0,0,0,5.37-2.24L85,85a3.3,3.3,0,0,1-2.66,1.25,2.36,2.36,0,0,1-2.26-2.59c0-1.43.64-2.8,1.93-2.8,1,0,1.34,1.24,1.39,2.3h3.22v-5H84l-.37,1A3.52,3.52,0,0,0,80.93,78Zm11.49,34.46c-.83,0-1.41,1-1.41,2.47,0,1.19.56,2.43,1.43,2.43s1.48-1,1.41-2.53C93.85,113.47,93.17,112.44,92.42,112.44Zm4.42-51.06.17,0a3.38,3.38,0,0,0,1-.14L104,50.42l.11-.2v-.1a.15.15,0,0,0-.13,0l-.61.06c-.33,0-.67.42-.89.65a28.24,28.24,0,0,1-3.63,3.06l0,.11.08.17h.08a22.07,22.07,0,0,0,3.23-2.44c-1.78,3.17-3.55,6.36-5.35,9.55Zm-25.12,54.4a1,1,0,0,0-1.14,1,1,1,0,0,0,1,.92,1.54,1.54,0,0,0,1.26-.65v-.75A1.26,1.26,0,0,0,71.72,115.78ZM148,75.5l-29.42,51a17.83,17.83,0,0,1-14.17,8.18H45.58a17.83,17.83,0,0,1-14.17-8.18L2,75.5A17.89,17.89,0,0,1,2,59.14l29.43-51A17.86,17.86,0,0,1,45.58,0h58.84a17.86,17.86,0,0,1,14.17,8.18l29.42,51A17.83,17.83,0,0,1,148,75.5Zm-2.57-14.87L116,9.66A15.08,15.08,0,0,0,104.42,3H45.58A15.07,15.07,0,0,0,34,9.66l-29.42,51A15,15,0,0,0,4.56,74L34,125a15,15,0,0,0,11.6,6.69h58.84A15.06,15.06,0,0,0,116,125l29.42-51A15,15,0,0,0,145.44,60.63Zm-96,53.31H48v3.44h1.58a1.6,1.6,0,0,0,1.6-1.7A1.58,1.58,0,0,0,49.48,113.94Zm1-3.75a1.3,1.3,0,0,0-1.31-1.44H48v3h1.2C50.21,111.71,50.51,111.14,50.51,110.19ZM25,61.18a14.8,14.8,0,0,0,8.6-2.59c1.75-1.37,2.15-2.86.7-3.59-.65-.32-1.33,0-.42.25,1.09.27.38,1.65-1.08,2.8a13.38,13.38,0,0,1-7.72,2.7c-6.82,0-5.27-6.67-1.13-7.82,2.52-.7,5,.18,5.21-.61.3-1.4-4.69-.41-4.16-3.53.46-2.53,4.58-4.42,7.68-4.12,3.62.38,1.42,3.9-.4,4.1-.9.1-1.07.62.06.36,4-.89,5-4.4.41-4.94-3.15-.35-9,1.69-9.25,5.1-.1,1.17,1.26,2.08,2.37,2.48a8.52,8.52,0,0,0-2,.33C17.42,54.05,17,61.18,25,61.18Zm36.31,51.28A1.56,1.56,0,0,0,59.82,114h3C62.79,113.29,62.61,112.46,61.34,112.46Zm8.89-11.28a4.16,4.16,0,0,1,2.33-3.66C70.93,95,72.76,93,74.71,93c3.26,0,4.07,3.43.76,5.43a10.88,10.88,0,0,0,1.45,2.09,3.79,3.79,0,0,0,.41-2.4h2.72l-.14,2.5c-.4,0-.81.05-1.31,0a3.24,3.24,0,0,1-.54,1.22c.46.61,1,1,1.66.63a1.88,1.88,0,0,1-3.17,1.11C74.93,104.75,70.23,104.9,70.23,101.18Zm4.25-4.68c1.47-.81,1.57-2.17.45-2.17S74,95.94,74.48,96.5Zm.85,5.64a15.06,15.06,0,0,1-1.79-2.75C70.71,101.82,73.74,103.45,75.33,102.14Z" style="fill:#fff"/></svg>