<svg id="Layer_1" data-name="Layer 1" xmlns="http://www.w3.org/2000/svg" viewBox="0 0 150 147.07"><path d="M18.69,70.41H17.12V67.48h1.57a1.44,1.44,0,0,1,1.45,1.45A1.47,1.47,0,0,1,18.69,70.41ZM32.74,40.52a2.39,2.39,0,0,0,.45,1.63,1.85,1.85,0,0,0,1.41.49,3.91,3.91,0,0,0,1-.13,4.77,4.77,0,0,0,.88-.3l-.32-1.39a2.83,2.83,0,0,1-.46.16,1.65,1.65,0,0,1-.48.06.56.56,0,0,1-.55-.31,2.86,2.86,0,0,1-.14-1V37h1.69V35.48H34.55V33.66l-1.81.52v1.3h-1V37h1Zm-4.12.67A3.6,3.6,0,0,1,27.53,41a5.16,5.16,0,0,1-.85-.36L26.18,42a4,4,0,0,0,1.05.44,4.77,4.77,0,0,0,1.39.19,2.91,2.91,0,0,0,2-.61,2.1,2.1,0,0,0,.68-1.66,1.87,1.87,0,0,0-.24-1,2.07,2.07,0,0,0-.58-.63,3.13,3.13,0,0,0-.77-.4L29,38.05a2.85,2.85,0,0,1-.58-.28.47.47,0,0,1-.24-.41c0-.41.27-.62.81-.62a3.38,3.38,0,0,1,1,.14c.32.09.59.18.81.26l.4-1.31a4.15,4.15,0,0,0-1-.37,5.37,5.37,0,0,0-1.44-.17,2.6,2.6,0,0,0-1.77.54,2,2,0,0,0-.61,1.57,2,2,0,0,0,.24,1,2.28,2.28,0,0,0,.58.65,2.85,2.85,0,0,0,.77.41l.77.28a3.44,3.44,0,0,1,.58.31.51.51,0,0,1,.24.44.55.55,0,0,1-.25.52A1.21,1.21,0,0,1,28.62,41.19Zm-3.37-.44H21.31V38.37h3.52v-1.7H21.31V34.4h3.87V32.7H19.4v9.75h5.85ZM41.44,67.48H39.19v3.77h2.25a1.89,1.89,0,0,0,0-3.77Zm76.78-.31a4,4,0,0,0-3,1.3,4.66,4.66,0,0,0-1.25,3.2,4.54,4.54,0,0,0,1.25,3.18,4,4,0,0,0,3,1.32,3.9,3.9,0,0,0,2.88-1.32,4.59,4.59,0,0,0,1.25-3.18,4.71,4.71,0,0,0-1.25-3.2A3.92,3.92,0,0,0,118.22,67.17ZM75,67.48H72.71v3.77H75a1.89,1.89,0,0,0,0-3.77Zm32.36-30.4a3.22,3.22,0,0,1-.26-1.33,3.71,3.71,0,0,1,.22-1.31,2.77,2.77,0,0,1,.62-1,2.84,2.84,0,0,1,1-.67,3.53,3.53,0,0,1,1.35-.25,3.3,3.3,0,0,1,2.48.94,3.86,3.86,0,0,1,.89,2.74,8.29,8.29,0,0,1-.41,2.79,5.7,5.7,0,0,1-1.1,2,4.74,4.74,0,0,1-1.59,1.21,5.51,5.51,0,0,1-1.91.5l-.39-1.42a4.51,4.51,0,0,0,1.36-.37,4.09,4.09,0,0,0,1-.69,3.78,3.78,0,0,0,.7-.94,3.9,3.9,0,0,0,.38-1.12,1.78,1.78,0,0,1-.72.5,2.84,2.84,0,0,1-1,.14,3.22,3.22,0,0,1-1-.18A2.58,2.58,0,0,1,108,38,2.81,2.81,0,0,1,107.32,37.08Zm1.5-1.43a1.53,1.53,0,0,0,.44,1.2,1.6,1.6,0,0,0,1.12.4,2.08,2.08,0,0,0,.93-.18,1.55,1.55,0,0,0,.55-.44,3.75,3.75,0,0,0,0-.56,3.32,3.32,0,0,0-.1-.77,2,2,0,0,0-.3-.66,1.38,1.38,0,0,0-.52-.47,1.42,1.42,0,0,0-.74-.17,1.33,1.33,0,0,0-1.06.43A1.83,1.83,0,0,0,108.82,35.65Zm-6.94,5.26H100v1.54h5.55V40.91h-1.89V32.53h-1l-3.17,2.56.77,1,1.23-.85.67-.82-.21,1Zm17.7-6.65-.61.68-3.19,7.51h1.76l3.9-9.22V32.7h-6.27v1.7h3.57ZM19.41,72.44H17.12v3.78h2.29a1.89,1.89,0,0,0,0-3.78ZM150,58.14V87.41a8.44,8.44,0,0,1-7.6,8.24L87.64,100.1l2.22,5.43,0,0a13.33,13.33,0,0,0,7,7,13.58,13.58,0,0,1,8.49,8.2,14,14,0,0,1,.37,9.65,11,11,0,0,1-3.16,4.85,1.93,1.93,0,0,1,.11.34,15.2,15.2,0,0,0,1.68,4.2,13,13,0,0,0,2.82,3.5l.4.34c.16.11.34.25.48.33a6.54,6.54,0,0,0,.91.48,4.75,4.75,0,0,0,4-.09,5.85,5.85,0,0,0,.86-.53,2.78,2.78,0,0,0,.64-.66,1.65,1.65,0,1,1,3,1.44,1.53,1.53,0,0,1-.61.67l-.34.21a8,8,0,0,1-1.38.68,12.4,12.4,0,0,1-1.34.45,9.44,9.44,0,0,1-2.8.3,8.64,8.64,0,0,1-2.71-.58,8.5,8.5,0,0,1-1.26-.6c-.21-.11-.36-.21-.54-.31s-.39-.24-.58-.38a24.7,24.7,0,0,1-3.86-3.49c-1.17-1.29-2.22-2.56-3.35-4.06l0-.06a.25.25,0,0,0,0-.07c-5.56,1.47-11.63-2-14.12-8.31a14,14,0,0,1-.37-9.65,12.27,12.27,0,0,1,1.06-2.32c2.48-5.84.68-10.09.68-10.09h0c-.71-2-1.52-4.28-2.35-6.56l-.88.08a113.38,113.38,0,0,1-15.2,0L66,100.41c-.83,2.26-1.63,4.5-2.34,6.52h0s-1.79,4.24.68,10.09a11.61,11.61,0,0,1,1.07,2.31,14.1,14.1,0,0,1-.37,9.65c-2.37,6-8,9.42-13.29,8.49a2.45,2.45,0,0,1-.42.54,16.08,16.08,0,0,0-2.53,3.05,18.36,18.36,0,0,0-1,1.65,3.55,3.55,0,0,0-.31,2,2.06,2.06,0,1,1-3.05-1.49,3.43,3.43,0,0,0,1.37-1.47,18.63,18.63,0,0,0,.7-1.8,16.24,16.24,0,0,0,.83-3.87,2.43,2.43,0,0,1,.08-.47,10.93,10.93,0,0,1-3.71-5.28,14,14,0,0,1,.37-9.65,13.63,13.63,0,0,1,8.49-8.2,13.35,13.35,0,0,0,7-7.06l0,0,2.19-5.38L7.6,95.65A8.44,8.44,0,0,1,0,87.41V58.14a8.65,8.65,0,0,1,7.58-8.4l48.81-5C48.56,18.27,44.39.29,45.34.09c.87-.47,8.56,17.22,19.47,43.83l2.56-.26a91.48,91.48,0,0,1,15.17,0l2.12.22C95.57,17.24,103.27-.46,104.15,0c.95.2-3.23,18.2-11.06,44.72l49.32,5A8.64,8.64,0,0,1,150,58.14ZM74.7,48.51H75c1.44,0,2.89,0,4.23.09l0-1.14c-1.36-.06-2.82-.09-4.28-.09H74.7ZM60.49,39.69l1.82,4.49.74-.08L61.2,39.4,54.79,23.61l-3.27-7.87L48.18,7.89l3,8,3.07,7.95Zm-12.86,10,.12,1.14,4.5-.46-.12-1.13Zm-9,.92.12,1.14,4.49-.46-.11-1.14Zm-9,.91.12,1.14,4.49-.46-.11-1.13Zm-9,.92.12,1.14,4.49-.46L25.15,52Zm-9,.93.18,1.13.4,0L16.28,54l-.12-1.13-4.06.41C11.94,53.33,11.79,53.34,11.64,53.37ZM4,68.44H5.15V63.92H4Zm0,9H5.15V73H4Zm1.76,8.72a7.24,7.24,0,0,1-.61-2.91V82H4v1.29a8.46,8.46,0,0,0,.71,3.37ZM8.05,56.25l-.74-.87a9.34,9.34,0,0,0-2.75,3.88l1.07.4A8.28,8.28,0,0,1,8.05,56.25Zm4.21,35.27,0-.58a7.46,7.46,0,0,1-3.87-1.48l-.68.92a8.64,8.64,0,0,0,4.46,1.7h.08Zm9,.15-4.5-.36-.09,1.14,4.5.36Zm2-17.35A3.94,3.94,0,0,0,21.47,71a3.41,3.41,0,0,0,.7-2.08,3.48,3.48,0,0,0-3.48-3.48h-2.6a1,1,0,0,0-1,1V77.25a1,1,0,0,0,1,1h.06s0,0,0,0h3.24A3.92,3.92,0,0,0,23.32,74.32Zm7,18.07L25.82,92l-.1,1.14,4.51.36ZM34.9,76.88l-4-10.77a1,1,0,0,0-1-.64,1,1,0,0,0-1,.64l-4,10.77a1,1,0,0,0,.6,1.32,1,1,0,0,0,.35,0,1,1,0,0,0,1-.64l.9-2.37h4.44l.9,2.37a1,1,0,0,0,.93.64.92.92,0,0,0,.35,0A1,1,0,0,0,34.9,76.88Zm4.43,16.23-4.51-.36-.09,1.14,4.51.36Zm4.19-15.88a1.74,1.74,0,0,0,.59.64,1.26,1.26,0,0,0,.71.2h0a1.56,1.56,0,0,0,.4,0,1,1,0,0,0,.64-1.28,1,1,0,0,0-.64-.62A4.48,4.48,0,0,1,45.17,75a3.45,3.45,0,0,0-.61-2,2.73,2.73,0,0,0-.64-.67,3.91,3.91,0,0,0-2.48-6.94H38.16a1,1,0,0,0-1,1V77.25a1,1,0,0,0,1,1,1,1,0,0,0,1-1v-4h2.16a3.47,3.47,0,0,1,1,.44,1.65,1.65,0,0,1,.55.53,1.54,1.54,0,0,1,.22.79A5,5,0,0,0,43.52,77.23Zm4.82,16.6-4.51-.36-.09,1.14,4.51.36Zm1.59-15.58h3.24A3.91,3.91,0,0,0,55.23,71a3.41,3.41,0,0,0,.7-2.08,3.48,3.48,0,0,0-3.48-3.48H49.86a1,1,0,0,0-1,1V77.25a1,1,0,0,0,1,1h0S49.91,78.25,49.93,78.25Zm7.42,16.3-4.51-.36-.09,1.14,4.51.36Zm.53-44.75-.33-1.11-.92.09.11,1.14Zm4.66,70.51a7.45,7.45,0,0,0-4.26-4.72l-.18-.07C54,114,49,116.83,47,121.81a11,11,0,0,0-.32,7.54A7.5,7.5,0,0,0,51,134.07l.19.07c4.14,1.5,9.11-1.32,11.08-6.29A11,11,0,0,0,62.54,120.31Zm1.32-25.24-2-.16-.09,1.14,1.65.13ZM61.75,70.83V67.48h5a1,1,0,0,0,0-2h-6a1,1,0,0,0-1,1V77.25a1,1,0,0,0,1,1h0s0,0,0,0h5.93a1,1,0,0,0,1-1,1,1,0,0,0-1-1h-5V72.86H66a1,1,0,0,0,1-1,1,1,0,0,0-1-1Zm8.46-22.2-.06-1.14c-1,0-2,.12-2.83.2l-.93.1.45,1.1.59-.06C68.26,48.75,69.2,48.68,70.21,48.63Zm5.13,47H75c-1.41,0-2.81,0-4.13-.07l0,1.14c1.33,0,2.75.07,4.17.07h.37ZM79.4,76.74a1,1,0,0,0-.64-.62A5.09,5.09,0,0,1,78.69,75a3.52,3.52,0,0,0-.6-2,3.16,3.16,0,0,0-.64-.67A3.92,3.92,0,0,0,75,65.45H71.69a1,1,0,0,0-1,1V77.25a1,1,0,0,0,1,1,1,1,0,0,0,1-1v-4h2.16a3.47,3.47,0,0,1,1,.44,1.65,1.65,0,0,1,.55.53,1.54,1.54,0,0,1,.22.79A5,5,0,0,0,77,77.23a1.74,1.74,0,0,0,.59.64,1.29,1.29,0,0,0,.71.2h0a1.56,1.56,0,0,0,.4,0A1,1,0,0,0,79.4,76.74ZM82,96.54c-.14-.37-.28-.75-.43-1.12-.54,0-1.1.07-1.7.09l0,1.15C80.63,96.63,81.32,96.59,82,96.54ZM85.59,48l-.7-.08L84.46,49l.68.07Zm43,5.52,4.5.45.12-1.13-4.5-.46Zm-9-.92,4.5.46.11-1.14-4.49-.45Zm-9-.91,4.5.46.11-1.14-4.5-.46Zm-9-.91,4.49.45.12-1.14-4.5-.45ZM86.42,44.06l.74.07L89,39.61l6.24-15.86,3.08-7.95,3-8L98,15.66,94.7,23.53,88.28,39.32Zm.52,76.33a11,11,0,0,0,.32,7.54c2,5,6.94,7.79,11.09,6.29l.18-.07a7.45,7.45,0,0,0,4.26-4.72,11,11,0,0,0-.32-7.54c-2-5-6.94-7.8-11.08-6.29l-.19.07A7.48,7.48,0,0,0,86.94,120.39Zm6.49-24.76-.1-1.14-4.5.36L88.92,96Zm3.82-21.27a3,3,0,0,0-.44-1.55A4.27,4.27,0,0,0,95,71.29a10.58,10.58,0,0,0-2.53-.77h0a6.28,6.28,0,0,1-2.29-.8,1.72,1.72,0,0,1-.49-.48.9.9,0,0,1-.13-.51,1.44,1.44,0,0,1,.69-1.15,3.49,3.49,0,0,1,2-.63,5.28,5.28,0,0,1,3,1.18.93.93,0,0,0,1.3-.28,1,1,0,0,0-.26-1.3,7.18,7.18,0,0,0-4-1.46,5.41,5.41,0,0,0-3.16,1,3.38,3.38,0,0,0-1.47,2.67,2.85,2.85,0,0,0,.42,1.5,3.9,3.9,0,0,0,1.71,1.42,10,10,0,0,0,2.36.72h0a7.5,7.5,0,0,1,2.51.85,1.8,1.8,0,0,1,.55.56,1,1,0,0,1,.16.58,1.67,1.67,0,0,1-.78,1.32,4,4,0,0,1-2.29.67,5.92,5.92,0,0,1-3.49-1.41,1,1,0,0,0-1.34.13,1,1,0,0,0,.15,1.34,7.89,7.89,0,0,0,4.68,1.83,5.69,5.69,0,0,0,3.38-1A3.51,3.51,0,0,0,97.25,74.36Zm0-25.18-4.5-.46-.12,1.14,4.5.46Zm5.17,45.73-.1-1.14-4.5.36.09,1.14Zm4.39-22v4.39a1,1,0,0,0,2,0V66.46a1,1,0,0,0-2,0v4.39H102.1V66.46a1,1,0,0,0-1-1,1,1,0,0,0-1,1V77.25a1,1,0,0,0,1,1,1,1,0,0,0,1-1V72.86Zm4.62,21.33-.1-1.14-4.5.36.09,1.14Zm9-.72-.09-1.14-4.5.36.09,1.14Zm4-21.8a6.7,6.7,0,0,0-1.84-4.62,5.92,5.92,0,0,0-4.37-2,6.08,6.08,0,0,0-4.48,2,6.81,6.81,0,0,0,0,9.25,6.14,6.14,0,0,0,4.48,2,6,6,0,0,0,4.37-2A6.71,6.71,0,0,0,124.43,71.67Zm5,21.08-.09-1.14-4.5.36.09,1.14Zm2.87-19.47a3.92,3.92,0,1,0,0-7.83h-3.28a1,1,0,0,0-1,1V77.25a1,1,0,0,0,1,1,1,1,0,0,0,1-1v-4ZM138.51,92l-.17-1.13-.56.07-3.9.31.09,1.14,3.9-.31C138.09,92.06,138.3,92,138.51,92Zm3-36.1.67-.92a8.7,8.7,0,0,0-4.28-1.67l-.17,0-.11,1.14.16,0A7.59,7.59,0,0,1,141.51,55.9Zm4,30.14-1.08-.37a8,8,0,0,1-2.36,3.44l.75.87A9.13,9.13,0,0,0,145.53,86Zm.47-9.17h-1.15v4.52H146Zm0-9h-1.15v4.52H146Zm0-5.56a8.52,8.52,0,0,0-.81-3.61l-1,.48a7.5,7.5,0,0,1,.69,3.13v1H146ZM125.31,42.64a4.93,4.93,0,0,0,1.47-.21,3.49,3.49,0,0,0,1.16-.62,2.81,2.81,0,0,0,.77-1.05,3.47,3.47,0,0,0,.28-1.45,3.62,3.62,0,0,0-.21-1.26,2.65,2.65,0,0,0-1.54-1.58,3.69,3.69,0,0,0-1.23-.25l-.57.06V34.4h3.23V32.7h-4.79v5.1l1.1,0a2.87,2.87,0,0,1,1.63.39,1.38,1.38,0,0,1,.57,1.23,1.54,1.54,0,0,1-.49,1.22,2,2,0,0,1-1.4.45,4.8,4.8,0,0,1-.93-.08,3.38,3.38,0,0,1-.7-.21l-.49,1.5a4.11,4.11,0,0,0,1,.29A6.59,6.59,0,0,0,125.31,42.64Zm7,24.84h-2.25v3.77h2.25a1.89,1.89,0,1,0,0-3.77ZM37.75,41.78a4.19,4.19,0,0,1-.73-2.7,4.23,4.23,0,0,1,.81-2.77,2.88,2.88,0,0,1,2.37-1,3.57,3.57,0,0,1,.71,0,2.5,2.5,0,0,1,.56.16V32.7h1.81V40c0,.39,0,.77,0,1.17a10.86,10.86,0,0,0,.12,1.29H42.12l-.25-.91h-.06a2,2,0,0,1-.8.79,2.41,2.41,0,0,1-1.23.3A2.52,2.52,0,0,1,37.75,41.78Zm1.14-2.65a2.81,2.81,0,0,0,.31,1.43,1.06,1.06,0,0,0,1,.55,1.25,1.25,0,0,0,.83-.26,1.4,1.4,0,0,0,.44-.74v-3a1.45,1.45,0,0,0-.44-.24,2,2,0,0,0-.61-.07,1.35,1.35,0,0,0-1.15.51A3.14,3.14,0,0,0,38.89,39.13Zm6.88,3.47a1.16,1.16,0,0,0,.83-.29,1,1,0,0,0,.31-.78,1,1,0,0,0-.31-.78,1.16,1.16,0,0,0-.83-.28,1.13,1.13,0,0,0-.81.28,1,1,0,0,0-.31.78,1.06,1.06,0,0,0,.31.78A1.13,1.13,0,0,0,45.77,42.6ZM28.41,73.22h3l-1.48-3.93ZM74.68,36c4.59-6.63,4.68-12.09,0-12.09S70.1,29.39,74.68,36Zm-9.63-15.1c5.65.77,8.38-1.12,9.71-2.87,1.32,1.75,4,3.64,9.7,2.87,6.9-.94,8.73-6.15,8.79-8.87.06-2.87-3.21-5.18-5.1-3.63A2.27,2.27,0,0,0,88,11.81c-1.7-2.25,3.61-3.35,3-.14-.82,4.49-6.33,3.39-8.69,2.35-1.81-.8-5-2.63-7.54-.44-2.49-2.19-5.72-.36-7.53.44-2.36,1-7.87,2.14-8.69-2.35-.59-3.21,4.72-2.11,3,.14a2.27,2.27,0,0,0-.19-3.39c-1.89-1.55-5.16.76-5.1,3.63C56.32,14.77,58.15,20,65.05,20.92Zm-10,53.4a1.89,1.89,0,0,0-1.88-1.88H50.88v3.78h2.29A1.88,1.88,0,0,0,55.05,74.32ZM53.9,68.93a1.44,1.44,0,0,0-1.45-1.45H50.88v2.93h1.57A1.47,1.47,0,0,0,53.9,68.93Z" style="fill:#fff"/></svg>