<svg data-name="Layer 1" xmlns="http://www.w3.org/2000/svg" viewBox="0 0 148.41 150"><path d="M33.28 74.89a13.68 13.68 0 0 1-8 2.41c-7.38 0-7-6.6-1-8.4a7.7 7.7 0 0 1 1.85-.31c-1-.37-2.29-1.21-2.2-2.29.28-3.15 5.64-5 8.56-4.71 4.27.49 3.32 3.74-.39 4.56-1 .24-.88-.24-.05-.33 1.68-.18 3.72-3.45.37-3.79-2.86-.28-6.68 1.47-7.1 3.81-.49 2.88 4.13 2 3.85 3.26-.22.73-2.49-.09-4.82.57-3.83 1.06-5.26 7.22 1 7.22a12.28 12.28 0 0 0 7.13-2.49c1.36-1.07 2-2.35 1-2.58-.84-.21-.22-.54.39-.24 1.38.67 1.02 2.05-.59 3.31Zm6.36-.49v-.16c-.64 1.24-1.64 2.39-3.13 1.94a2 2 0 0 1-.75.18c-2.22 0-1.8-2.55-.92-2.58.5-.94 1.1-2.13 1.58-3.17.33-.72.88-1.49 1.52-1.58a1.13 1.13 0 0 1 .68.09c.33.16.26.48-.08.31a.73.73 0 0 0-.58 0c-.85.4-.66 1.67-.39 2.33a4.87 4.87 0 0 1 .66 2.17 2.9 2.9 0 0 1-1.3 2h.13a1.9 1.9 0 0 0 1.65-.85A14.75 14.75 0 0 0 40 73a31.15 31.15 0 0 1 1.12-3.22h-1c-.2 0-.16-.41 0-.41h1.1c.42-.91.88-1.81 1.34-2.6 1.26-2.22 3.24-1.91 1.88 1-.25.55-.51 1.06-.78 1.57h.88c.18 0 .14.41 0 .41h-1.06a12.56 12.56 0 0 1-2.44 3 18.75 18.75 0 0 0-.42 1.87c-.28 1.23.57 1.39 1.17.95a6.73 6.73 0 0 0 1.74-2.37 7.35 7.35 0 0 1 1.18-2 3.17 3.17 0 0 1 3.94-1.07c.88-1.67 1.68-3.35 2.12-4.34.35-.83.66-1 1.25-1a3.31 3.31 0 0 0 .79.08 66.21 66.21 0 0 0-4.84 9c-.18.42-.75 2 .11 2s2-2.27 2.36-3c.15-.33.44-.26.28.11-.44 1-1.5 3.41-3 3.41a1 1 0 0 1-.83-.5 2.08 2.08 0 0 1-.16-1.61c-.55.9-1.41 2.36-2.67 2-.78-.21-1-.92-.89-1.78a5.47 5.47 0 0 1-1 1.34c-.98.88-2.8.58-2.53-1.44Zm6.41.15a44.58 44.58 0 0 0 2.45-4.15c-.92-.9-2.93 1.14-3.9 2.93-1.21 2.28-.11 3.41 1.45 1.22Zm-3.67-5.23h.91a19 19 0 0 0 .92-1.87c.35-.77.6-2.4-.53-.8a17.58 17.58 0 0 0-1.3 2.67Zm-1.17 2.84a14 14 0 0 0 1.85-2.43h-.87c-.38.89-.73 1.79-.98 2.43ZM36 76a1.63 1.63 0 0 1-.74-1.38c-.58.59-.34 1.45.37 1.45A.9.9 0 0 0 36 76Zm1.11-2.07c.06-1.16-.38-2.67-.23-3.49-.5 1-1.29 2.59-1.73 3.39 0 0 .41 0 .39.59a1.46 1.46 0 0 0 .77 1.41 2.51 2.51 0 0 0 .8-1.92Zm14.2 1.88a.61.61 0 0 0 .62.75.92.92 0 0 0 .88-.75.61.61 0 0 0-.62-.75.9.9 0 0 0-.88.73ZM95 77.22h.16a3.28 3.28 0 0 0 1-.13l5.48-10 .09-.18v-.09h-.11l-.57.06a1.68 1.68 0 0 0-.82.6 27 27 0 0 1-3.36 2.83v.1l.07.15h.07a20.51 20.51 0 0 0 3-2.25c-1.65 2.93-3.28 5.88-5 8.83Zm7 .13-.07.11.09.16h.11c2.62-1.72 6.76-5.35 6.76-8.76 0-1.12-.53-2.21-1.79-2.21-2.11 0-4.88 3.26-4.88 5.33a1.29 1.29 0 0 0 1.3 1.43c1.61 0 3-2.24 3.46-3.56v-.09h-.28c-.42 1-1.23 2.54-2.51 2.54-.64 0-.92-.44-.92-1 0-1.61 1.78-4.29 3.52-4.29.77 0 1 .59 1 1.27a5.38 5.38 0 0 1-.18 1.32 13.54 13.54 0 0 1-5.67 7.75Zm13-9.27c1 0 1.94 0 2.92.07-.9.84-8.78 8.32-9 9v.08h.11a4.68 4.68 0 0 0 1.32-.18c.11 0 1.1-1.34 1.23-1.49 1.3-1.65 2.66-3.26 4.1-4.78 1.21-1.26 2.46-2.51 3.59-3.81v-.13l-.07-.11a1.15 1.15 0 0 0-.37.18 22.62 22.62 0 0 0-2.6-.12c-2.18 0-2.56.44-3.55 2.38v.11c.7.08.72-1.2 2.32-1.2Zm7.32 3.2a1.08 1.08 0 0 1 1.19 1.18c0 2.05-2.64 4.65-4.69 4.65a3.39 3.39 0 0 1-1.14-.17h-.07l-.11.13v.13a2.83 2.83 0 0 0 1.3.22c2.33 0 5.94-2.53 5.94-5.06 0-1.1-.83-1.59-1.84-1.59a4.72 4.72 0 0 0-2.45.82l2-3.5c1.55.09 3.89.31 4.55-1.47h-.07c-1.1.84-3.1 0-4.22.44a53.73 53.73 0 0 0-2.93 5.09v.11h.11a5.7 5.7 0 0 1 2.44-.98ZM74.57 123.2c-4.36 0-4.27 5.09 0 11.28 4.28-6.19 4.36-11.28 0-11.28Zm73.84-109.7v1c0 56.62-20 90.38-36.73 108.74-18.22 20-36.21 26.36-37 26.62l-.5.18-.5-.18c-.76-.26-18.75-6.67-37-26.62C20 104.84 0 71.08 0 14.46v-1l.87-.42C1.14 13 28.6 0 72.65 0h3.11c44.05 0 71.52 13 71.78 13.08Zm-15.84 12.65-1.72 2 2.67.12 1.42 2.27.94-2.5 2.59-.65-2.09-1.66.19-2.67-2.23 1.47-2.48-1Zm-18.25-14.51-1 5.54 3.3.58.51-2.72 2 .37c-.61 3.07-1.2 6.14-1.8 9.21l-1.79-.33c-.17.94-.35 1.89-.52 2.83 2.67.49 5.32 1 8 1.61.21-.93.41-1.87.62-2.81l-1.79-.39c.65-3.06 1.32-6.12 2-9.18l1.89.41c-.2.9-.41 1.8-.61 2.7 1.08.24 2.17.49 3.25.75.44-1.82.89-3.65 1.33-5.47q-7.65-1.8-15.39-3.1ZM97 12.19l1.29.13c-.18 1.77-.37 3.54-.55 5.31-.49 4.9 1.63 7.39 6 8.08 4 .54 6.55-1.38 7.39-6.44q.42-2.6.85-5.19l1.23.2c.16-.92.31-1.84.47-2.76q-3.4-.55-6.83-1c-.13.94-.27 1.88-.4 2.82l1.24.17c-.23 1.52-.45 3-.67 4.55-.53 3.68-1.48 4.07-2.82 3.89s-2.11-1-1.69-4.47c.2-1.54.39-3.09.58-4.63l1.24.15c.12-.92.24-1.84.37-2.77q-3.69-.46-7.39-.82c-.13.91-.22 1.85-.31 2.78Zm-15.94 3.9c-.12 4.83 2.87 7.84 7.47 8.12a9.38 9.38 0 0 0 6.88-2.52c-.77-1-1.55-2-2.35-3-.22.2-1.84 2-3.69 1.85-2.1-.14-3.13-2.11-3-4.25.12-2.36 1.31-4.23 3-4.13s2.27 1.48 2.23 2.89c1.35.1 2.71.21 4.06.34l.57-6.12c-1.22-.12-2.44-.22-3.65-.31-.22.39-.42.78-.63 1.17a4.35 4.35 0 0 0-3.55-1.69c-3.08-.19-7.23 2.67-7.35 7.65ZM64.3 8.49l.12 2.83 1.29-.05.35 9.43-1.24.05c0 .95.08 1.9.11 2.86 2.36-.1 4.71-.16 7.07-.18v-2.86h-1.35c0-1.12 0-2.24-.05-3.36 2 0 2.25.46 2.26 2.43 0 2.53 1.4 4 4.26 4 2.42 0 3.23-1.6 3.28-3.4v-1.19h-1.5v.71c0 .44-.19.69-.53.69s-.52-.55-.5-1.48A3.31 3.31 0 0 0 75 15.88c1.88-.25 3.3-1.41 3.34-3.1 0-2.45-1-4.51-6.4-4.48-2.58.02-5.11.09-7.64.19ZM55.4 9c.07 1 .15 1.9.23 2.85l1.45-.11q.35 4.68.68 9.37l-1.39.1c.08 1 .15 1.91.23 2.87q3.61-.29 7.25-.45c-.05-1-.09-1.91-.14-2.87l-1.37.06q-.24-4.68-.5-9.38l1.43-.07c0-1-.09-1.9-.13-2.85q-3.88.2-7.74.48ZM38.07 23.44l.45 2.8c2.29-.36 4.59-.69 6.88-1l-.4-2.8-1.71.23c.08-.51.17-1 .26-1.53 1.51-.19 3-.38 4.53-.55.22.47.43.94.64 1.41l-2.09.24c.11.94.22 1.88.34 2.81q4.35-.53 8.72-.88c-.07-.94-.15-1.88-.23-2.83l-1.46.14q-2.51-6-5.23-11.85c-3 .32-5.95.69-8.9 1.11.13.93.27 1.85.41 2.77l.94-.14q-.87 4.92-1.62 9.84Zm-19.31-8.7c.22.92.44 1.85.67 2.77l1.23-.28q1.08 4.57 2.15 9.17l-1.18.27.66 2.78c2.29-.54 4.6-1 6.91-1.51l-.57-2.81-1.35.28c-.22-1.07-.45-2.13-.67-3.2 1.39-.29 2.78-.56 4.18-.83.2 1.07.41 2.14.61 3.21l-1.28.25c.19.93.37 1.86.56 2.8 2.32-.46 4.65-.87 7-1.26-.16-.94-.31-1.88-.47-2.82l-1.26.22c-.54-3.1-1.07-6.19-1.61-9.29l1.32-.21c-.16-.94-.32-1.88-.47-2.82q-3.75.61-7.47 1.34l.57 2.8 1.33-.26.63 3.21c-1.41.27-2.83.55-4.23.85l-.69-3.2 1.4-.29c-.2-.93-.39-1.86-.59-2.79q-3.71.75-7.38 1.62ZM12 25.77l-2.06 1.66 2.6.65.94 2.5 1.41-2.27 2.68-.12-1.72-2 .71-2.58-2.48 1-2.23-1.51Zm131.38 18.08c-6.33-3.19-31.38-11.44-69.17-11.18-37.76-.26-62.85 8-69.18 11.19 5.36 38.29 20.7 62.74 34 77.27 16 17.57 32.18 24.44 35.21 25.62 3-1.19 19.28-8.12 35.33-25.74 13.19-14.53 28.43-38.94 33.81-77.16Zm-56.25 64.9a2.1 2.1 0 0 0-.13 3.15c-1.59-2.09 3.37-3.12 2.82-.12-.82 4.22-5.96 3.15-8.16 2.22-1.68-.74-4.7-2.45-7-.4-2.32-2-5.34-.34-7 .4-2.2 1-7.34 2-8.11-2.18-.54-3 4.41-2 2.82.12a2.1 2.1 0 0 0-.18-3.15c-1.76-1.45-4.81.7-4.75 3.38s1.76 7.39 8.19 8.27c5.27.72 7.81-1.05 9-2.68 1.23 1.63 3.78 3.4 9 2.68 6.43-.88 8.14-5.73 8.19-8.27s-2.94-4.87-4.69-3.42Zm-42.2-95.11c-.3 1.61-.58 3.22-.87 4.82L47 18.1q-1-2.24-2.07-4.46Zm26.62 1.15c1.32 0 2.18-.62 2.18-1.76s-.73-1.93-2.11-1.91h-1.15l.06 3.68Zm3.19 47a.47.47 0 1 1 .68-.62l7.31 8.1.66-.6-7.31-8.1a.51.51 0 0 1 0-.72.52.52 0 0 1 .71.1L84.08 68l.66-.6-7.31-8.11a.49.49 0 0 1 0-.71.5.5 0 0 1 .7.1l7.32 8.1.67-.6-7.32-8.1a.53.53 0 0 1 0-.72.52.52 0 0 1 .71.1l7.32 8.11.66-.6-7.31-8.1a.47.47 0 1 1 .68-.62l7.32 8.1.66-.6-7.32-8.1a.52.52 0 0 1 0-.72.51.51 0 0 1 .71.11l7.32 8.1.66-.6-7.31-8.1a.47.47 0 1 1 .68-.62L90.81 62l.66-.6-7.32-8.1a.52.52 0 0 1 0-.72.53.53 0 0 1 .72.1l7.31 8.11.66-.6-7.31-8.1a.52.52 0 0 1 0-.72.51.51 0 0 1 .71.1l7.32 8.1.66-.6-7.32-8.1a.53.53 0 0 1 0-.72.52.52 0 0 1 .71.1l7.32 8.11.67-.6-7.32-8.1a.52.52 0 0 1 0-.72.51.51 0 0 1 .71.1l7.32 8.1.66-.6-7.31-8.1a.47.47 0 1 1 .68-.61l7.31 8.1.67-.6L91 47.22a.46.46 0 1 1 .68-.61l7.32 8.1.66-.6L92.23 46a.47.47 0 1 1 .68-.61l7.31 8.1.67-.6-7.32-8.1a.52.52 0 0 1 0-.72.51.51 0 0 1 .71.1l7.32 8.1.66-.6-7.31-8.1a.5.5 0 0 1 0-.71.51.51 0 0 1 .71.09l7.26 8.05.66-.6-7.32-8.1a.47.47 0 1 1 .68-.62l7.32 8.1.39-.35.24-.23-7.31-8.1a.47.47 0 1 1 .68-.62l7.31 8.1a5.59 5.59 0 0 0 .58-.68l-7.15-8a.52.52 0 0 1 0-.72.51.51 0 0 1 .71.1l7 7.79a1.64 1.64 0 0 0 0-1.37l-6.36-7.05c-.31-.34-.11-1 .44-1.52s1.24-.62 1.55-.28l9 10v.06c1 1.07 0 3.47-2.05 5.36l-26.8 24.21 9.57 3.94a7.54 7.54 0 0 0 5.61.21 7.65 7.65 0 0 1 6.55.16 7.9 7.9 0 0 1 3.83 3.82 6.14 6.14 0 0 1 .54 3.22 1 1 0 0 1 .18.08 8.23 8.23 0 0 0 2.3 1.08 7.34 7.34 0 0 0 2.49.37h.61a3.92 3.92 0 0 0 .56-.16 2.64 2.64 0 0 0 1-.6 2.77 2.77 0 0 0 .63-1 4.41 4.41 0 0 0 .15-.55 1.77 1.77 0 0 0 0-.51.92.92 0 1 1 1.76-.53 1 1 0 0 1 0 .5l-.06.22a4.82 4.82 0 0 1-.3.8 7.87 7.87 0 0 1-.39.7 5.32 5.32 0 0 1-1 1.19 5.07 5.07 0 0 1-1.34.8 4.54 4.54 0 0 1-.74.23 2.49 2.49 0 0 1-.35.08c-.15 0-.25 0-.38.06a12.88 12.88 0 0 1-2.91 0 29.19 29.19 0 0 1-2.93-.39h-.07c-1.73 2.72-5.55 3.61-9 2a7.86 7.86 0 0 1-3.8-3.86 6.34 6.34 0 0 1-.48-1.34A7.7 7.7 0 0 0 91 82.58c-4.69-2.48-9.2-4.1-10.08-3.62l-.11.05v.12c-.22 1 2.56 4.88 6.22 8.72a7.71 7.71 0 0 0 5.21 2.24 6.8 6.8 0 0 1 1.42 0 7.92 7.92 0 0 1 4.73 2.66c2.37 2.71 2.66 6.38.83 8.8a1.2 1.2 0 0 1 .17.34 8.47 8.47 0 0 0 .87 2 7.8 7.8 0 0 0 .58.91 2 2 0 0 0 .91.66 1.15 1.15 0 1 1-1.52 1.15 1.91 1.91 0 0 0-.38-1.06c-.22-.29-.47-.54-.72-.81a8.77 8.77 0 0 0-1.72-1.4 1.62 1.62 0 0 1-.19-.18 6.16 6.16 0 0 1-3.61.52 7.9 7.9 0 0 1-4.72-2.65 7.67 7.67 0 0 1-1.93-6.25 7.46 7.46 0 0 0-1.73-5.35l-7.12-9-23.59 21.31c-2 1.79-4.31 2.46-5.36 1.61a.54.54 0 0 1-.26-.16l-9-10a.54.54 0 0 1-.1-.62 1.78 1.78 0 0 1 .55-.9 1.71 1.71 0 0 1 .95-.46.53.53 0 0 1 .63.15l6.4 7.1a1.65 1.65 0 0 0 1.29.09l-7-7.79a.47.47 0 1 1 .68-.61l7.23 8a7 7 0 0 0 .75-.5l-7.31-8.1a.47.47 0 1 1 .68-.62l7.31 8.1.29-.26.38-.34-7.32-8.1a.47.47 0 1 1 .69-.61l7.31 8.1.66-.6-7.31-8.1a.47.47 0 1 1 .68-.62l7.31 8.1.67-.6L48 85.93a.47.47 0 1 1 .68-.62L56 93.42l.66-.6-7.31-8.1a.47.47 0 1 1 .65-.62l7.31 8.1.67-.6-7.32-8.1a.53.53 0 0 1 0-.72.51.51 0 0 1 .71.11L58.66 91l.66-.6L52 82.28a.5.5 0 0 1 0-.71.51.51 0 0 1 .71.1l7.29 8.1.66-.6-7.32-8.1a.52.52 0 0 1 0-.72.51.51 0 0 1 .71.11l7.31 8.1L62 88l-7.32-8.1a.51.51 0 0 1 0-.72.52.52 0 0 1 .71.1l7.32 8.1.66-.6-7.31-8.1a.51.51 0 0 1 0-.72.52.52 0 0 1 .71.1L64 86.13l.67-.6-7.32-8.11a.46.46 0 1 1 .68-.61l7.32 8.1.66-.6-7.31-8.1a.47.47 0 1 1 .68-.61l7.31 8.1.67-.6-7.28-8.1a.53.53 0 0 1 0-.72.51.51 0 0 1 .71.1l7.32 8.1.66-.6-7.31-8.1a.51.51 0 0 1 0-.72.52.52 0 0 1 .71.11l7.31 8.1.67-.6-7.32-8.1a.53.53 0 0 1 0-.72.5.5 0 0 1 .71.1l7.32 8.1.66-.6-5.43-6C56 64.22 39.73 49.12 37.36 46.37c-.26-.25-.36-.39-.3-.43s.17 0 .41.13c3.12 1.41 23.23 13.68 34.8 20.79l-1.42-1.57a.47.47 0 1 1 .68-.62l3.52 3.9 2.11 1.3L72 64.2a.52.52 0 0 1 0-.72.5.5 0 0 1 .7.1l7.24 8 .11.06.63-.57L73.39 63a.47.47 0 1 1 .68-.61l7.32 8.1.66-.6ZM78.56 76a1.1 1.1 0 1 0 .21 1.53 1.09 1.09 0 0 0-.21-1.53Zm11.57 24a6.14 6.14 0 0 0 3.68 2.08 4.16 4.16 0 0 0 3.44-.91l.08-.08c1.81-1.68 1.67-4.88-.3-7.14a6.24 6.24 0 0 0-3.68-2.08 4.17 4.17 0 0 0-3.44.92l-.09.07c-1.82 1.65-1.67 4.85.31 7.14Zm6.4-12.34a6.09 6.09 0 0 0 3 3c2.71 1.3 5.83.56 6.95-1.64l.05-.1a4.19 4.19 0 0 0-.05-3.56 6.13 6.13 0 0 0-3-3c-2.7-1.29-5.82-.56-7 1.64v.1a4.22 4.22 0 0 0 .05 3.53Z" style="fill:#fff"/></svg>