<svg id="Layer_1" data-name="Layer 1" xmlns="http://www.w3.org/2000/svg" viewBox="0 0 146.7 150"><path d="M140.75,65.72a3.53,3.53,0,0,0-3.29,4,2.25,2.25,0,0,0,.94,1.65l-.51,0c-.63,0-1.41-.29-1.51-1.57a4.62,4.62,0,0,1,.69-2.59l-1.74-.54a5.18,5.18,0,0,0-1,3.33c.25,2.87,1.81,4.27,4.3,4.25l4.44-.06v1h2c0-1.28,0-2.57-.1-3.85l-.48-.3a2.67,2.67,0,0,0,.49-1.75C144.76,66.56,143,65.39,140.75,65.72Zm.64,5.44c-1.17.12-1.93-.38-2-1s.84-1.16,1.73-1.24c1.13-.1,1.9.29,1.95,1S142.4,71.1,141.39,71.16ZM134.25,41l-1.54,2,2.52-.2-.34-.65,1.67-.89c.64,1.21,1.27,2.43,1.84,3.68l-1.67.77-.32-.68q-3.75.14-7.42.56a3,3,0,0,1-3.3-1.58,2.81,2.81,0,0,1-.25-1.81l2,0a2,2,0,0,0,0,1c.15.42.69.48,1.15.39l.64-.14c1.12-1.73,2.19-3.52,3.19-5.36l-.34-.55,1.59-1c.9,1.4,1.76,2.82,2.56,4.28l-1.65.91ZM11.77,43.31l-1.69-.88c.76-1.47,1.58-2.92,2.43-4.35l1.62,1-.38.64c.84.1,1.67.21,2.5.33L14.82,38l-.38.62-1.61-1c.72-1.17,1.48-2.31,2.26-3.43L16.6,35.2l-.43.62C17.5,37.94,18.89,40,20.36,42a3,3,0,0,1,.27,3.65,2.76,2.76,0,0,1-1.45,1.12L18.13,45A2,2,0,0,0,19,44.5c.29-.34.07-.84-.24-1.19l-.43-.48q-3.09-.18-6.24-.1Zm2-10.43-1.57-1.11c.76-1.07,1.55-2.12,2.37-3.16l7.22,5.7.55-.68,1.52,1.22c-.9,1.09-1.74,2.23-2.56,3.37l-1.6-1.12.38-.52-5.91-4.26ZM135.65,52.64,139,51.43l-.23-.62,1.81-.68c.44,1.18.84,2.36,1.22,3.55l-5.23,1.65.21.69-1.87.56c-.39-1.3-.82-2.58-1.29-3.85l1.82-.68ZM122.82,74.93a.7.7,0,0,0-.7-.51.67.67,0,0,0-.66.67v2.5h0v4.83a.7.7,0,0,0,.66.69.73.73,0,0,0,.73-.69V80.21a2.9,2.9,0,0,0,1.69.52,3.16,3.16,0,0,0,0-6.31A3.25,3.25,0,0,0,122.82,74.93Zm3.4,2.66a1.88,1.88,0,0,1-.49,1.27,1.64,1.64,0,0,1-1.19.53,1.58,1.58,0,0,1-1.2-.53,1.71,1.71,0,0,1-.49-1.27,1.78,1.78,0,0,1,.49-1.28,1.6,1.6,0,0,1,1.2-.52,1.66,1.66,0,0,1,1.19.52A2,2,0,0,1,126.22,77.59Zm16.92-19-.81.57a2.7,2.7,0,0,1,1.64,2c.48,2.49-1.18,3.17-2.71,3.4l-2.45.38.09.7-1.92.28c-.17-1.21-.39-2.41-.62-3.6l4-.82c.49-.1,1.37-.23,1.17-1.13s-.94-.8-1.56-.66l-2.06.48.23,1.05-1.9.41c-.3-1.46-.68-2.9-1.09-4.33l1.87-.55.18.61,3.41-1-.18-.63,1.86-.54C142.58,56.31,142.87,57.42,143.14,58.55ZM26.58,74.73a2.87,2.87,0,0,0-3.84.39,3.21,3.21,0,0,0-.86,2.23,3.28,3.28,0,0,0,.86,2.23,3,3,0,0,0,2.15.91A2.91,2.91,0,0,0,26.58,80a.68.68,0,0,0,.65.54.67.67,0,0,0,.67-.66v-5a.68.68,0,0,0-.67-.69A.69.69,0,0,0,26.58,74.73Zm-.51,3.92a1.65,1.65,0,0,1-1.18.49,1.61,1.61,0,0,1-1.17-.49,2,2,0,0,1,0-2.61,1.52,1.52,0,0,1,1.17-.51,1.55,1.55,0,0,1,1.18.51,2,2,0,0,1,0,2.61ZM83.09,8a3.5,3.5,0,0,1,4.47-3.11,2.65,2.65,0,0,1,1.8,1.24l.42-.63L91.64,6l-.85,3.25c-.73-.19-1.47-.38-2.2-.54C88.71,8,88.67,7.11,88,7c-.91-.19-1.53.66-1.71,1.6a1.63,1.63,0,0,0,1.19,2,2.38,2.38,0,0,0,2-.42c.31.6.62,1.18.91,1.79a5.42,5.42,0,0,1-3.84.66A4,4,0,0,1,83.09,8ZM18.5,29.67c.8-1,1.62-1.92,2.47-2.84l4,3.72L25.5,30l1.42,1.33c-.93,1-1.82,2-2.69,3l-1.5-1.24.4-.48-2.71-2.29L20,30.9Zm-1.37-1.74a1.65,1.65,0,0,1,0-2.37,1.69,1.69,0,0,1,2.37-.36,1.61,1.61,0,0,1-.1,2.35A1.74,1.74,0,0,1,17.13,27.93ZM23.45,27l-1.39-1.34c.79-.82,1.61-1.63,2.44-2.43l.9.43a2.76,2.76,0,0,1,.91-2.44c1.92-1.65,3.33-.56,4.31.65l1.56,1.93.55-.44,1.2,1.53c-1,.76-1.89,1.54-2.8,2.35l-2.69-3c-.34-.38-.88-1.07-1.58-.45s-.22,1.22.22,1.69L28.52,27l.79-.73,1.31,1.44c-1.09,1-2.17,2-3.2,3.12L26,29.47l.44-.45-2.54-2.48ZM144.81,51a1.7,1.7,0,0,1-.87,2.24A1.61,1.61,0,0,1,142,52a1.73,1.73,0,0,1,.82-2.18A1.66,1.66,0,0,1,144.81,51Zm-4.37-6-.3-.63,1.74-.8c.56,1.19,1.08,2.4,1.57,3.62l-8.54,3.42.31.82-1.81.7c-.5-1.32-1.06-2.62-1.65-3.9l1.77-.82.27.59Zm-8.26-13.21c.85.64,1.67,1.3,2.49,2l-1.86,1.26.85,1.29-1.62,1-.83-1.25L129,37.66c-.42.29-1,.58-.72,1.07a3.43,3.43,0,0,0,.73.64l-1.6,1a8,8,0,0,1-1.21-1.3c-1.23-1.78-.32-2.55,1.19-3.72l2.13-1.57-.52-.69L130.56,32l.53.7ZM72.4,1.53A1.64,1.64,0,0,1,74.2,0,1.69,1.69,0,0,1,76,1.56C76,2.37,75.34,3,74.18,3A1.71,1.71,0,0,1,72.4,1.53ZM72,5.64,72,3.7c1.26,0,2.51,0,3.76,0L75.57,9.2l.72,0-.08,1.94c-1.36-.06-2.71-.06-4.07,0l0-1.94h.63l0-3.55Zm-6.29.15c.85-.1,1.51,0,1.57.68l0,.52a2.19,2.19,0,0,0-1.59-.36C64,6.82,62.7,8.11,63,9.77s1.86,2.21,3.21,2.06a2.59,2.59,0,0,0,1.86-1.14l.41.63c1-.08,2.06-.14,3.1-.17l-.06-1.9-.9,0-.13-2.89C70.38,4,67.88,3.45,65.93,3.66a7.08,7.08,0,0,0-3.35,1.5l.92,1.61A4.74,4.74,0,0,1,65.73,5.79Zm1.77,2.9,0,.56a1.18,1.18,0,0,1-.9.58.72.72,0,0,1-.86-.6c-.06-.46.17-.82.78-.88A.92.92,0,0,1,67.5,8.69Zm7.34,6.9,1.45,2.94,3.26.48L77.19,21.3l.55,3.24L74.84,23l-2.91,1.53.55-3.24L70.12,19l3.26-.48ZM90,26.76l1.86-1.47-.16-2.37,2,1.32,2.21-.89-.64,2.29,1.52,1.82-2.37.1-1.27,2-.82-2.22ZM92.37,8.21,91.74,8l.51-1.89c1.26.33,2.51.71,3.75,1.12l-1.12,3.4c-.4,1.22-.39,1.84.18,2A1,1,0,0,0,96.34,12l.79-2.22-1-.35.64-1.85c1.32.45,2.64.93,3.92,1.47l-2.07,5.05.68.28-.77,1.82c-.84-.35-1.69-.7-2.55-1l0-1a2.57,2.57,0,0,1-2.33.4c-2.07-.67-2.46-1.95-1.81-4.34ZM81,11.54c-1.36-.16-2.73-.26-4.09-.34L77,9.25l.66.05.22-3.55-.68,0,.1-1.93c1,.06,2,.12,3,.22l.39,1A2.3,2.3,0,0,1,83.4,4L83,6.63c-1.4-.19-2.23.07-2.36,1.37l-.16,1.52.74.09ZM17.67,71.64h-1.8a.69.69,0,0,0-.69.7V79.8a.69.69,0,0,0,.69.69h2.29a2.7,2.7,0,0,0,1.43-5,2.35,2.35,0,0,0,.48-1.44A2.4,2.4,0,0,0,17.67,71.64Zm-1.09,1.41h1.09a1,1,0,0,1,1,1,1,1,0,0,1-1,1H16.58Zm1.58,6H16.58V76.47h1.58a1.31,1.31,0,0,1,0,2.62ZM49.92,6.66,49.28,4.8c1.72-.59,3.46-1.13,5.23-1.59l.5,1.9-1,.26.6,2.16c1-.27,1.95-.52,2.93-.75l-.51-2.19-.94.23-.48-1.9c1.78-.45,3.57-.81,5.37-1.13l.33,1.94-.94.17,1.18,6.35.85-.15L62.75,12c-1.55.27-3.09.58-4.61,1l-.47-1.9.85-.21L58,8.7c-.95.23-1.9.47-2.84.74l.6,2.16.9-.24.5,1.89c-1.52.39-3,.87-4.49,1.37L52,12.77l.77-.27-2-6.13Zm57.44,30-1.2,1.11.23,1.63L105,38.6l-1.47.72.32-1.61-1.14-1.17,1.63-.2.76-1.45.69,1.49Zm4.76-13.15a1.68,1.68,0,0,0,2.84,1c-.68-.1-.83-.69-.82-1.38a2.82,2.82,0,0,0,1.07-.56c.34.32.66.52.94.75l1.54-1.65c-.68-.54-1.34-1.09-2-1.61-.7.91-.89,1.21-1.62,1.48a13.06,13.06,0,0,1,0-2.3c1.8.19,3-.38,3.48-1.29s.11-2.16-1.24-3.12c-1.64-1.16-4.17-.56-4.07,2.2a3.57,3.57,0,0,0-3.61,1.58C106.93,21.41,110.35,23.49,112.12,23.51Zm3.66-7.58c.91.67.1,1.57-1.49,1.34C114.17,16.57,114.78,15.23,115.78,15.93Zm-3.71,3a16.72,16.72,0,0,0-.08,3C110.19,22,108.7,19.27,112.07,18.89Zm7.61,11.78c-.58-.61-1.19-1.2-1.79-1.79l2.58-2.7c.69.65,1.37,1.33,2,2-.9.87-.19,1.93.22,2.41s.93.88,1.4.47-.4-1.59-1.06-3-1.17-3,.14-4.42c1.51-1.61,3.91-.67,5,.57a3.72,3.72,0,0,1,1.19,3.61l1.06-.68c.63.74,1.23,1.5,1.83,2.25l-2.94,2.3c-.6-.76-1.2-1.51-1.83-2.24a1.81,1.81,0,0,0-.07-2.7c-.31-.36-1-.65-1.34-.3-.56.52.31,1.88.91,3.43s.94,3.26-.45,4.33c-1.84,1.39-3.79.24-4.92-1A4.15,4.15,0,0,1,120.62,30ZM37,22.57a2.21,2.21,0,0,0,1-1.64l.28.42a1.44,1.44,0,0,1-.6,2.1,4.62,4.62,0,0,1-2.58.7l.4,1.77a5.13,5.13,0,0,0,3.35-.84c2.36-1.65,2.78-3.71,1.53-5.85l-2.28-3.82.81-.48-1-1.68c-1.11.65-2.21,1.31-3.28,2l0,.56a2.64,2.64,0,0,0-1.76.46c-2.21,1.54-2.35,3.62-.93,5.42A3.54,3.54,0,0,0,37,22.57Zm-2.64-5c.49-.35,1.38,0,1.93.85s.64,1.85.16,2.18-1.42-.15-1.94-.88C33.86,18.81,33.82,18,34.36,17.58Zm18.55,9.88,1.52-1.82-.64-2.29,2.2.89,2-1.32-.16,2.37,1.86,1.47-2.3.59-.83,2.22-1.26-2ZM43.52,37.77l-1.2-1.11,1.61-.28.69-1.49.76,1.45,1.63.2-1.14,1.17.32,1.61-1.47-.72-1.43.8ZM100.83,14l1.08-2.42-.78-.34.77-1.77.8.35.56-1.25c1,.15,2.09.31,3.14.51l-1,2c.45.23.92.46,1.36.7l-.9,1.71-1.32-.68-1.19,2.37c-.22.45-.62,1-.1,1.28a3.76,3.76,0,0,0,1,.2l-.88,1.69a7.3,7.3,0,0,1-1.69-.54C99.68,16.92,100.1,15.79,100.83,14ZM6.45,93l-1.9.5c-.34-1.25-.63-2.53-.9-3.81L7.16,89c1.25-.25,1.79-.57,1.68-1.17a1,1,0,0,0-1.29-.72l-2.33.41.2,1-1.93.38c-.27-1.37-.49-2.75-.68-4.14L8.22,84l-.1-.73,2-.24c.12.9.24,1.81.4,2.71l-.86.55a2.54,2.54,0,0,1,1.51,1.81c.45,2.13-.46,3.11-2.86,3.73l-2,.51ZM67,140.78,66.27,148l.69.06L66.79,150c-1.31-.12-2.62-.27-3.93-.46l1.31-9.11-.87-.13.3-1.92c1.39.21,2.8.4,4.21.51l-.18,1.94Zm10,3.83.09,1.9c-1.66.08-3.32.1-5,.07l0-1.89h.74l-1-2.33-1.08,2.27.73,0-.06,1.89c-1.37,0-2.74-.11-4.11-.24l.16-1.84.76.07c1.17-2.22,2.24-4.44,3.22-6.71a3,3,0,0,1,3-2.07,2.84,2.84,0,0,1,1.69.7l-1,1.8a2,2,0,0,0-.83-.5c-.45-.09-.77.35-.92.8l-.2.62c.93,1.83,1.95,3.66,3,5.44ZM82.54,146l-.87.1.15,1.36c-1,.41-2,.78-3,1.15l-.16-2.24-1.53.1-.1-1.93,1.5-.1-.19-2.63c0-.51,0-1.2-.56-1.16a3.68,3.68,0,0,0-.92.31l-.1-1.9a6.9,6.9,0,0,1,1.74-.39c2.15-.19,2.36,1,2.62,2.88l.29,2.63.85-.1Zm14.23-23.25-1.52,1.82.64,2.28L93.68,126l-2,1.32.16-2.37L90,123.48l2.3-.58.82-2.22,1.27,2Zm-3.33,21c.63,2.12-1.38,3.7-3,4.08a3.76,3.76,0,0,1-3.73-.78l0,1.26c-.95.16-1.9.32-2.86.45l-.51-3.7c1-.13,1.91-.29,2.86-.45A1.81,1.81,0,0,0,88.6,146c.46-.1,1.05-.5.93-1-.17-.75-1.79-.68-3.43-.93s-3.29-.82-3.51-2.56c-.29-2.3,1.69-3.4,3.36-3.75a4.22,4.22,0,0,1,3.28.68l-.12-1.15c.82-.2,1.63-.42,2.45-.66l1,3.6c-.91.26-1.83.52-2.75.74-.3-1.21-1.58-1.12-2.2-1s-1.23.37-1.11,1,1.58.45,3.14.58S92.91,142,93.44,143.84Zm-36.18-4.78-.88,3.45.65.15-.46,1.88q-1.68-.4-3.33-.9l-.09-1a2.72,2.72,0,0,1-2.56.43c-2.4-.83-2.15-2.61-1.59-4.05l.89-2.32-.65-.25.72-1.82c1.13.45,2.28.88,3.43,1.26l-1.28,3.85c-.16.48-.48,1.29.4,1.58s1.17-.42,1.35-1l.61-2c-.34-.09-.69-.21-1-.32l.6-1.85c1.41.45,2.85.86,4.29,1.21l-.46,1.89Zm47.42-1.39a3.58,3.58,0,0,0,.42-3.92c-1.61-2.9-5.11-1-6,.55a1.69,1.69,0,0,0-2.24,2c.44-.53,1-.37,1.61,0a2.76,2.76,0,0,0,0,1.21c-.44.15-.78.31-1.12.44l.66,2.16c.81-.3,1.62-.63,2.41-1a3.32,3.32,0,0,1-.48-2.13,12.1,12.1,0,0,1,2,1.17c-1.06,1.46-1.18,2.82-.61,3.66s1.81,1.18,3.32.49C106.37,141.46,107.11,139,104.68,137.67Zm-4.1-2.65c.79-1.63,3.89-1.57,2.53,1.55A16,16,0,0,0,100.58,135Zm3.25,6.23c-1,.46-1.41-.69-.42-1.95C104.08,139.54,104.94,140.74,103.83,141.25ZM62.09,140.1l-.62,3.5.65.11-.31,1.91c-1.24-.2-2.47-.45-3.69-.72l1.18-5.35-.7-.16L59,137.5c1.32.29,2.65.57,4,.78l-.32,1.93Zm-15.68-6.95a2.29,2.29,0,0,0-1.9,0l.23-.45a1.45,1.45,0,0,1,2.12-.53,4.6,4.6,0,0,1,1.89,1.9l1.34-1.24a5.15,5.15,0,0,0-2.4-2.48c-2.61-1.22-4.6-.56-5.83,1.59l-2.18,3.88-.82-.47-1,1.69c1.11.64,2.24,1.25,3.38,1.84l.5-.27A2.67,2.67,0,0,0,43,139.9c2.44,1.14,4.32.23,5.17-1.91A3.52,3.52,0,0,0,46.41,133.15Zm-1.21,3.57c-.48,1-1.2,1.5-1.8,1.21s-.68-1.2-.22-2.1c.48-1.07,1.29-1.48,1.81-1.23S45.56,135.91,45.2,136.72Zm15.79,11a1.65,1.65,0,0,1-2.07,1.16,1.7,1.7,0,0,1-1.5-1.87,1.61,1.61,0,0,1,2.09-1.09A1.74,1.74,0,0,1,61,147.68ZM143.58,94l.26-1-2.17-.56c-.26,1-.52,2-.82,2.92l2.16.64.27-.93,1.89.54c-.51,1.77-1.08,3.5-1.71,5.21l-1.84-.67.32-.9-6.1-2.16-.29.82-1.84-.68c.54-1.47,1-3,1.47-4.48l1.88.54-.25.85,2.15.65c.29-.94.54-1.89.79-2.84l-2.18-.55-.23.9-1.9-.51c.41-1.51.76-3,1.06-4.58l1.93.37-.16.81,6.33,1.29.17-.88,1.93.37q-.51,2.69-1.22,5.32Zm-5.67,6.52a4.85,4.85,0,0,1-.28,2.43c-.33.78-.76,1.31-1.36,1l-.48-.21a2.22,2.22,0,0,0,1.11-1.2c.71-1.63.24-3.39-1.34-4s-2.84.5-3.39,1.76a2.53,2.53,0,0,0,.07,2.18l-.76,0c-.44.93-.91,1.86-1.4,2.77l1.68.9.42-.79,2.57,1.33c2.12,1.13,3.84-.77,4.63-2.57a6.91,6.91,0,0,0,.37-3.66ZM135,102.43a.91.91,0,0,1-.76.64l-.51-.24a1.21,1.21,0,0,1-.06-1.07.74.74,0,0,1,1-.45A.75.75,0,0,1,135,102.43Zm1.32,7q-.9,1.64-1.89,3.24l-4.66-2.89-.39.61-1.64-1c.73-1.14,1.41-2.31,2.06-3.5l1.71.94-.31.55,3.1,1.74.33-.58Zm2.09,3.78a1.7,1.7,0,0,1-2.26.8,1.6,1.6,0,0,1-.34-2.33,1.73,1.73,0,0,1,2.19-.8A1.64,1.64,0,0,1,138.41,113.22Zm-96.09.37,1.2-1.12-.23-1.62,1.43.8,1.47-.72-.32,1.61L47,113.71l-1.63.19-.76,1.46-.69-1.5ZM132,113l1.62,1.06c-.55.85-1.13,1.69-1.71,2.52l-1.06-.17a2.28,2.28,0,0,1-.44,2.79l-2.11-1.64c.87-1.12,1.05-2,0-2.74l-1.24-.9-.44.6L125,113.34c.81-1.1,1.6-2.22,2.34-3.37L129,111l-.36.55,3,2Zm-25.79-.51,1.2,1.12-1.61.27-.69,1.5-.76-1.46-1.63-.19,1.14-1.17-.32-1.61,1.47.72,1.43-.8Zm16.51,11.9,1.38,1.39c-.93.92-1.87,1.82-2.85,2.68l-2.38-2.67c-.86-1-1.4-1.27-1.86-.86a1,1,0,0,0,0,1.48l1.52,1.8.79-.67,1.29,1.48c-1,.91-2.13,1.8-3.23,2.66L114,127.34l-.58.45-1.19-1.58c.73-.55,1.44-1.12,2.15-1.7l.9.47a2.6,2.6,0,0,1,.82-2.22c1.62-1.46,2.93-1.16,4.66.6l1.44,1.47Zm-7,8.58.8,1.11c-.64.83-1.31,1.65-2,2.46l-1.25-1.87-1.28.85-1-1.64,1.25-.81-1.46-2.21c-.28-.42-.58-1-1.06-.73a4.06,4.06,0,0,0-.65.73l-1-1.61a6.76,6.76,0,0,1,1.31-1.19c1.78-1.23,2.55-.31,3.71,1.21l1.55,2.14.69-.5,1.16,1.55Zm11.85-10.63a2.61,2.61,0,0,1-2,.93l.33.68c-.43.47-.87.92-1.32,1.38L122.11,123c.53-.54,1-1.08,1.56-1.64.55.46,1.34.87,1.82.32s.21-1.65-.52-2.28a1.62,1.62,0,0,0-2.35,0,2.32,2.32,0,0,0-.62,1.91l-2-.11a5.44,5.44,0,0,1,1.35-3.66,4,4,0,0,1,5.68-.6A3.5,3.5,0,0,1,127.47,122.32ZM102.68,78.05a.69.69,0,0,0-.12-.41,1,1,0,0,0-.38-.38,4.8,4.8,0,0,0-1.73-.59h0a7,7,0,0,1-1.62-.5,2.7,2.7,0,0,1-1.18-1,2,2,0,0,1-.29-1,2.34,2.34,0,0,1,1-1.85,3.76,3.76,0,0,1,2.19-.67,5,5,0,0,1,2.76,1,.66.66,0,0,1-.73,1.09,3.58,3.58,0,0,0-2-.82,2.38,2.38,0,0,0-1.42.44,1,1,0,0,0-.48.79.6.6,0,0,0,.09.36,1.18,1.18,0,0,0,.34.32,4.4,4.4,0,0,0,1.58.56h0a7.11,7.11,0,0,1,1.74.53,2.92,2.92,0,0,1,1.27,1,2.09,2.09,0,0,1,.3,1.08,2.48,2.48,0,0,1-1.08,2,4,4,0,0,1-2.35.72,5.48,5.48,0,0,1-3.23-1.27.66.66,0,0,1-.1-.92.65.65,0,0,1,.92-.09,4.1,4.1,0,0,0,2.41,1,2.85,2.85,0,0,0,1.59-.46A1.18,1.18,0,0,0,102.68,78.05ZM9.29,104c-.8-.09-1.56-.22-2.19-1.78l2.47-1c.53,1.31,1.19,1.89,2.38,1.36l1.4-.62-.3-.69,1.78-.77c.54,1.26,1.14,2.49,1.75,3.71l-1.73.89-.29-.59-3.19,1.59.31.6-1.73.88c-.45-.9-.9-1.82-1.32-2.74Zm1.59,6.68a1.75,1.75,0,0,1-.4,2.3,1.66,1.66,0,0,1-2.23-.81,1.69,1.69,0,0,1,.44-2.35A1.61,1.61,0,0,1,10.88,110.72Zm3,0,.34.57-1.65,1c-.65-1.07-1.27-2.15-1.87-3.26l4.83-2.6-.33-.64,1.72-.9c.62,1.2,1.3,2.37,2,3.53l-1.67,1-.32-.54Zm5.6,7.37a4.84,4.84,0,0,1-2-1.45c-.5-.68-.75-1.3-.2-1.69l.42-.3a2.26,2.26,0,0,0,.49,1.55c1.06,1.43,2.82,1.91,4.12.83a2.67,2.67,0,0,0,.16-3.81,2.5,2.5,0,0,0-1.92-1l.35-.67c-.59-.85-1.16-1.71-1.7-2.59l-1.62,1,.48.76-2.44,1.57c-2,1.27-1.25,3.71-.08,5.29a6.92,6.92,0,0,0,3,2.15Zm-.35-4.43.46-.33a1.22,1.22,0,0,1,1,.49.74.74,0,0,1-.09,1.06.75.75,0,0,1-1.15-.24A.93.93,0,0,1,19.13,113.66Zm9.13,6.66q1.66,1.67,3.44,3.2L30.41,125l-.61-.55-4.3,4.83.68.6-1.29,1.49q-2.05-1.8-4-3.73l1.39-1.38L23,127l1.57-1.61c-.72-.7-1.42-1.42-2.11-2.15l-1.64,1.54.67.7-1.41,1.36c-1.27-1.32-2.5-2.67-3.66-4.08l1.51-1.25.61.72,4.91-4.2-.56-.66,1.51-1.26c1,1.21,2.06,2.38,3.15,3.51L26.15,121l-.61-.64-1.63,1.53c.67.71,1.35,1.42,2.05,2.1l1.57-1.61-.66-.65ZM4,70.77a3.56,3.56,0,0,0,3.18,2.32c3.31.06,3.39-4,2.53-5.49a1.69,1.69,0,0,0-.6-2.94c.23.64-.17,1.07-.78,1.41a2.91,2.91,0,0,0-1-.65c.09-.45.11-.83.17-1.19l-2.19-.5c-.15.85-.26,1.71-.38,2.56,1.13.15,1.49.16,2.09.65a12,12,0,0,1-2,1.13c-.73-1.65-1.86-2.42-2.87-2.36S.16,66.7,0,68.34C-.17,70.34,1.61,72.23,4,70.77Zm4.33-2.23c1,1.5-.58,4.16-2.6,1.42A15.8,15.8,0,0,0,8.29,68.54Zm-5.12.32c-.54.46-2,.6-1.9-.62S2.57,67.37,3.17,68.86Zm56.5,54.62L57.81,125l.16,2.37L56,126l-2.2.88.64-2.28-1.52-1.82,2.37-.1,1.26-2,.83,2.22ZM2.19,53.3a3.72,3.72,0,0,1,2.54-2.84l-1.12-.58c.33-.91.67-1.82,1-2.71l3.46,1.4c-.37.89-.71,1.8-1,2.71a1.8,1.8,0,0,0-2.3,1.41c-.15.45-.1,1.15.41,1.31.73.22,1.47-1.22,2.52-2.51s2.35-2.44,4-1.77c2.13.9,2.1,3.16,1.56,4.78A4.09,4.09,0,0,1,11,57l1.06.48c-.23.81-.46,1.63-.65,2.45L7.78,59c.22-.92.47-1.84.73-2.76,1.21.34,1.75-.81,2-1.4s.28-1.25-.3-1.45S9,54.58,8.12,55.86,6.06,58.4,4.22,58C2.07,57.45,1.69,54.9,2.19,53.3ZM4.57,83.24l-1.92.22-.1-.87-1.36.15c-.39-1-.77-2-1.12-3l2.24-.14c0-.52-.06-1-.08-1.54L4.16,78c0,.5,0,1,.08,1.5l2.64-.17c.5,0,1.19,0,1.16-.54a4,4,0,0,0-.3-.93l1.9-.08A7.31,7.31,0,0,1,10,79.53c.16,2.15-1,2.35-2.91,2.59l-2.63.28ZM5.83,98.18A2.59,2.59,0,0,1,6,96l-.76,0c-.18-.61-.37-1.22-.53-1.84L8,93.23c.19.73.42,1.44.63,2.18-.67.23-1.41.71-1.18,1.4.28.9,1.33,1,2.24.69a1.63,1.63,0,0,0,1.16-2A2.34,2.34,0,0,0,9.47,94c.35-.56.72-1.13,1.1-1.68a5.39,5.39,0,0,1,2.48,3,3.94,3.94,0,0,1-2.3,5.21A3.49,3.49,0,0,1,5.83,98.18ZM8.09,46.6l-1.25-.54C7,45,7.14,44,7.32,42.91l2,1L10,42.52l1.72.88-.67,1.34,2.38,1.16c.45.22,1,.62,1.28.09a3.57,3.57,0,0,0,.2-1l1.69.87a7.24,7.24,0,0,1-.53,1.7c-.92,2-2,1.54-3.81.82l-2.42-1-.34.78-1.78-.75ZM109.92,80V77.18a1.36,1.36,0,1,0-2.72,0V80a.7.7,0,0,1-.71.7.72.72,0,0,1-.67-.52,1,1,0,0,1,0-.18V72.58a.71.71,0,0,1,1.41,0v2.2a2.92,2.92,0,0,1,1.35-.36,2.77,2.77,0,0,1,2.76,2.76V80a.69.69,0,0,1-.7.7A.68.68,0,0,1,109.92,80Zm-39.8,51.2,2.36-2.3-.55-3.23,2.91,1.53,2.9-1.53-.55,3.23,2.36,2.3-3.26.47-1.45,2.95-1.46-2.95Zm46.19-56.82a2.93,2.93,0,0,0-2.18,1,3.26,3.26,0,0,0-.87,2.21,3.18,3.18,0,0,0,.87,2.23,3,3,0,0,0,2.18,1,2.81,2.81,0,0,0,2.11-1,3.06,3.06,0,0,0,.88-2.23,3.13,3.13,0,0,0-.88-2.21A2.78,2.78,0,0,0,116.31,74.42Zm1.16,4.51a1.68,1.68,0,0,1-1.16.47,1.73,1.73,0,0,1-1.22-.47,2.19,2.19,0,0,1,0-2.66,1.83,1.83,0,0,1,1.22-.48,1.78,1.78,0,0,1,1.16.48,2,2,0,0,1,0,2.66ZM31.75,74.84v.09a2,2,0,0,1,.26-.25,2.74,2.74,0,0,1,1.6-.49.65.65,0,0,1,.67.65.67.67,0,0,1-.67.67,1.25,1.25,0,0,0-.76.24,2,2,0,0,0-.58.61,4.11,4.11,0,0,0-.52,1.06v2.41a.68.68,0,0,1-.69.66.67.67,0,0,1-.67-.66v-5a.66.66,0,0,1,.67-.65A.67.67,0,0,1,31.75,74.84Zm21.35,0v.09a1.23,1.23,0,0,1,.26-.25A2.71,2.71,0,0,1,55,74.19a.65.65,0,0,1,.67.65.67.67,0,0,1-.67.67,1.25,1.25,0,0,0-.76.24,2,2,0,0,0-.58.61,3.7,3.7,0,0,0-.51,1.06v2.41a.69.69,0,0,1-.7.66.67.67,0,0,1-.67-.66v-5a.66.66,0,0,1,.67-.65A.68.68,0,0,1,53.1,74.84Zm-16.48-3.2a.69.69,0,0,0-.68.69v7.48a.68.68,0,0,0,1.35.14,3.08,3.08,0,0,0,1.72.54,3.16,3.16,0,0,0,0-6.32,3,3,0,0,0-1.69.53V72.33A.7.7,0,0,0,36.62,71.64Zm1.2,4.43A1.62,1.62,0,0,1,39,75.55a1.64,1.64,0,0,1,1.19.52,1.82,1.82,0,0,1,0,2.53,1.64,1.64,0,0,1-1.19.52,1.62,1.62,0,0,1-1.19-.52,1.85,1.85,0,0,1,0-2.53Zm10.66,25.5a9.3,9.3,0,0,0,3.9-5.13,8.3,8.3,0,0,0,.3-1.66A9.19,9.19,0,0,1,56.17,89h0c1.1-.79,2.31-1.65,3.55-2.51v16h-.18a1.36,1.36,0,0,0-1.33,1.36v5.43a1.35,1.35,0,0,0,1.33,1.36h1.72a13.93,13.93,0,0,0,27.19,0h1.71a1.35,1.35,0,0,0,1.33-1.36v-5.43a1.36,1.36,0,0,0-1.21-1.35V88.81l.25.19h0A9.14,9.14,0,0,1,94,94.77a8.24,8.24,0,0,0,.29,1.67,9.39,9.39,0,0,0,3.9,5.13c3.77,2.49,8.42,2.08,10.9-.85l0,0h.05c1.19.39,2.25.68,3.39.94a15.73,15.73,0,0,0,3.44.43h.46l.42,0a7.06,7.06,0,0,0,.92-.15,5.74,5.74,0,0,0,1.69-.73,6,6,0,0,0,1.42-1.23,7.09,7.09,0,0,0,.56-.76,5.67,5.67,0,0,0,.5-.9l.1-.25a1.06,1.06,0,0,0,.07-.59,1.1,1.1,0,0,0-2.17.35,1.44,1.44,0,0,1-.1.6,2.81,2.81,0,0,1-.26.62,3.2,3.2,0,0,1-.89,1,3.17,3.17,0,0,1-1.24.55,4.1,4.1,0,0,1-.68.09h-.39l-.35,0a8.79,8.79,0,0,1-2.88-.83,9.92,9.92,0,0,1-2.52-1.66,2,2,0,0,0-.2-.11,7.37,7.37,0,0,0-.12-3.89A9.36,9.36,0,0,0,106.46,89a9.1,9.1,0,0,0-7.69-1.26,9,9,0,0,1-6.59-1.16v0l-1.9-1.22V70.79C108,57,119.66,46.59,119.17,46.06c-.32-.61-12,6.55-28.9,17.45V47.75a1.34,1.34,0,0,0,1.21-1.34V41a1.35,1.35,0,0,0-1.33-1.36H88.44a13.92,13.92,0,0,0-27.19,0H59.53A1.35,1.35,0,0,0,58.2,41v5.43a1.35,1.35,0,0,0,1.33,1.36h.18V65.64C41,53.55,27.85,45.41,27.52,46.06,27,46.63,40.2,58.29,59.71,73.35v9.92L54.5,86.63v0a9,9,0,0,1-6.58,1.16A9.1,9.1,0,0,0,40.22,89a9.36,9.36,0,0,0-3.89,5.13,7.26,7.26,0,0,0,0,4.33,2.36,2.36,0,0,0-.23.2,10.58,10.58,0,0,1-1.94,1.8c-.35.25-.7.5-1.07.72a2.34,2.34,0,0,1-1.32.28,1.33,1.33,0,0,0-1.34.75,1.37,1.37,0,1,0,2.45,1.22,2.27,2.27,0,0,1,.93-1A11.33,11.33,0,0,1,35,102a10.42,10.42,0,0,1,2.55-.7,2.25,2.25,0,0,0,.42-.13C40.52,103.68,44.9,103.93,48.48,101.57Zm48.3-9.91.08-.11c1.68-2.41,5.48-2.77,8.47-.8a7.35,7.35,0,0,1,3.06,4,5,5,0,0,1-.53,4.21l-.07.11c-1.69,2.41-5.49,2.77-8.47.8a7.32,7.32,0,0,1-3-4A5,5,0,0,1,96.78,91.66ZM87.6,58.35,62.37,84.05V77.34L87.6,51.63Zm0,6V71.1L62.37,96.81V90.1Zm0,12.75v6.71L69.32,102.48H62.73Zm-5.77,25.34H75.25L87.6,89.89V96.6Zm13.63-41L105,55.29l4.79-3,4.84-3-4.69,3.22-4.73,3.17L95.73,61.9l-5.46,3.53V64.9Zm-10-13.7L62.37,71.3V64.59L78.89,47.77Zm-19.1,0H73L62.37,58.55V51.83ZM50.94,61.9l-9.47-6.27-4.72-3.17-4.69-3.22,4.83,3,4.79,3,9.54,6.18,8.49,5.62v.48ZM38.3,94.74a7.25,7.25,0,0,1,3.06-4c3-2,6.77-1.61,8.46.8l.07.11a5,5,0,0,1,.53,4.21,7.38,7.38,0,0,1-3.06,4c-3,2-6.78,1.61-8.46-.8L38.82,99A5,5,0,0,1,38.3,94.74ZM50,77.28a.37.37,0,0,0,0-.11v-.06a3,3,0,0,0-3-2.94,3.16,3.16,0,0,0,0,6.32,3.2,3.2,0,0,0,2.27-.83.58.58,0,0,0,0-.82.72.72,0,0,0-1,0,2.13,2.13,0,0,1-1.32.32,2,2,0,0,1-1.21-.58,1.59,1.59,0,0,1-.43-.83h4A.61.61,0,0,0,50,77.28Zm-4.74-.56a1.76,1.76,0,0,1,1.7-1.34,2,2,0,0,1,1.87,1.34Z" style="fill:#fff"/></svg>