<svg id="Layer_1" data-name="Layer 1" xmlns="http://www.w3.org/2000/svg" viewBox="0 0 150 135.77"><path d="M41.5,20.38a1,1,0,0,0,1,.72.72.72,0,0,0,.24-.1.76.76,0,0,0,.28-.84l-.53-2.11c.95-.58,1.91-1.15,2.89-1.68L47,17.87a.74.74,0,0,0,.86.17.54.54,0,0,0,.2-.16,1,1,0,0,0-.12-1.22q-3.44-3.5-7.25-6.72a.88.88,0,0,0-1.42.83Q40.15,15.68,41.5,20.38ZM44,15.12c-.66.37-1.32.75-2,1.15-.26-1.17-.51-2.34-.73-3.53C42.24,13.52,43.15,14.31,44,15.12Zm86.49,13.74c.69.27,1.38.55,2.06.84l.06,0s.06,0,.09,0l.07.07a.07.07,0,0,1,0,0,.14.14,0,0,1,.07.08l0,0h0l.07.09s0,0,0,.06a.16.16,0,0,1,0,.09s0,0,0,.06a.31.31,0,0,0,0,.11v.16a.19.19,0,0,1,0,.08.31.31,0,0,1,0,.08l0,.08,0,0s0,0,0,0a.16.16,0,0,1,0,.07s0,0-.05.07a.23.23,0,0,0,0,.05s-.07.05-.08.1l0,0-7.69,5.35a.82.82,0,0,1-1.14-.11.81.81,0,0,1,.27-1.11l6.31-4.61-.65-.27a.7.7,0,0,1-.36-.26.82.82,0,0,1-.08-.83A.87.87,0,0,1,130.52,28.86ZM126.7,66V67.8h.89v2.07h-5.08V67.8h.9V65.93l-3.08-5.13h-.77v-2H125v2h-.82l.92,1.68c.1.31.43,1,.49,1.29h.07a9.38,9.38,0,0,1,.58-1.36l.88-1.61h-.88v-2h4.28v2h-.86ZM24.25,26.16a2.87,2.87,0,0,1-.91-2.47,4.29,4.29,0,0,1,1.25-2.54,5.68,5.68,0,0,1,3.33-1.45.84.84,0,0,1,.92.68.75.75,0,0,1-.63.91,4.13,4.13,0,0,0-2.47,1,2.76,2.76,0,0,0-.8,1.62A1.25,1.25,0,0,0,25.28,25a.76.76,0,0,0,.4.23,1.63,1.63,0,0,0,.58,0A5.39,5.39,0,0,0,28,24.37l0,0A6.9,6.9,0,0,1,30,23.41a3.36,3.36,0,0,1,2,0,2.85,2.85,0,0,1,1.15.77,3.34,3.34,0,0,1,.8,2.61,4,4,0,0,1-1.14,2.37,5.76,5.76,0,0,1-3.5,1.43.93.93,0,0,1-.94-.68.66.66,0,0,1,.59-.83A4.5,4.5,0,0,0,31.58,28a2.79,2.79,0,0,0,.8-1.62A1.47,1.47,0,0,0,32,25.14a.92.92,0,0,0-.44-.28,1.26,1.26,0,0,0-.63-.05,4.85,4.85,0,0,0-1.92.84l0,0a8.29,8.29,0,0,1-1.73.92,3.35,3.35,0,0,1-1.83.17A2.62,2.62,0,0,1,24.25,26.16Zm-7,5.8a.85.85,0,0,1-.23-1.2h0v0c1-1.39,2-2.74,3.05-4.07a.88.88,0,0,1,1.22-.11.89.89,0,0,1,.15,1.22c-.86,1.08-1.7,2.18-2.5,3.31l2.37,1.68c.66-.93,1.34-1.84,2-2.73a.88.88,0,0,1,1.38,1.09c-.69.87-1.36,1.76-2,2.66l2.38,1.69c.71-1,1.46-2,2.23-2.94a.9.9,0,0,1,1.37,1.11c-.89,1.12-1.76,2.26-2.57,3.43l0,0h0A.82.82,0,0,1,25,37.2Zm13,30.94v-2H28.9v6.89h1.32v2.11H24.31V67.76h1.31V60.87H24.25v2H21.92V58.77H32.57V62.9ZM126.3,26.3a.82.82,0,0,1-.14-.83.86.86,0,0,1,1.07-.59c.71.22,1.42.44,2.13.69l.06,0s.06,0,.09,0l.07.07a.09.09,0,0,1,0,0,.24.24,0,0,1,.09.08l0,0v0l.07.08s0,.05,0,.06a.23.23,0,0,1,0,.09s0,0,0,.06,0,.08,0,.1a.21.21,0,0,0,0,.08v.08a.27.27,0,0,1,0,.09s0,0,0,.08v.08l0,0s0,0,0,0,0,.05-.05.07,0,.05,0,.08l-.05.06a.15.15,0,0,0-.07.09l0,0L122.35,33a.83.83,0,0,1-1.15,0,.81.81,0,0,1,.19-1.12l6-5.07-.67-.22A.73.73,0,0,1,126.3,26.3ZM42.77,62c0-1.81-.72-3.27-4.4-3.27H33.21v2.08h.89v6.92h-.89v2.1h5.13v-2.1h-1V65.31c1.41,0,1.59.35,1.59,1.79,0,1.86,1,3,3.08,3,1.76,0,2.31-1.23,2.31-2.54v-.88H43.29v.53c0,.32-.13.51-.36.51s-.38-.4-.38-1.08a2.41,2.41,0,0,0-2.08-2.26A2.42,2.42,0,0,0,42.77,62Zm-4.68,1.49h-.72v-2.7h.79a1.29,1.29,0,0,1,1.45,1.42C39.61,63.09,39,63.53,38.09,63.53ZM29.49,18.2A.86.86,0,0,1,29.57,17q2.55-2.16,5.31-4.07a.85.85,0,0,1,1.2.23.89.89,0,0,1-.19,1.21c-.67.47-1.33.94-2,1.43L39,22.55a.81.81,0,0,1-.05,1.14.82.82,0,0,1-1.12-.24l-5.24-6.66c-.63.5-1.26,1-1.87,1.53A.89.89,0,0,1,29.49,18.2Zm87.65,44.7v-2h-1.33v6.89h1.31v2.11h-5.9V67.76h1.3V60.87h-1.37v2h-2.33V58.77h10.65V62.9ZM78.39,10.58l.48-9.36a.84.84,0,0,1,.9-.82.85.85,0,0,1,.81.93l-.28,3.8c1.26.09,2.51.23,3.77.39l.5-3.77a.86.86,0,1,1,1.7.24l-1.46,9.25a.8.8,0,0,1-.87.75.8.8,0,0,1-.6-1l.5-3.77c-1.22-.17-2.45-.3-3.68-.39l-.28,3.8a.82.82,0,0,1-.8.82A.8.8,0,0,1,78.39,10.58ZM44.17,8.91a.85.85,0,0,1-.09-1.22.83.83,0,0,1,1.2-.07c2,1.78,3.84,3.63,5.62,5.54q-.18-3.91,0-7.89a.86.86,0,0,1,.9-.82.88.88,0,0,1,.82.91,96.84,96.84,0,0,0-.06,9.93.65.65,0,0,1,0,.14h0s0,.08,0,.12a.07.07,0,0,1,0,0l0,.1,0,0s0,.09-.07.11l0,0s0,0-.08.07h0l-.11.06a.33.33,0,0,1-.13,0h0a.23.23,0,0,0-.12,0s0,0,0,0h0l-.14,0h0a.29.29,0,0,0-.11,0s0,0,0,0l-.1-.06h0a.33.33,0,0,0-.11-.09A96.66,96.66,0,0,0,44.17,8.91ZM95.87,15l1.46.56c2.33.92,5.27-.39,6.66-3.13a5.14,5.14,0,0,0-2.56-7.2L99.7,4.59a.84.84,0,0,0-1.1.53L95.47,14A.82.82,0,0,0,95.87,15Zm4-8.48.88.35a3.53,3.53,0,0,1,1.76,4.87A3.73,3.73,0,0,1,98,13.94l-.78-.3Zm7.39,14.14a.69.69,0,0,1-.3-.53,1,1,0,0,1,.69-1,59.34,59.34,0,0,1,5.82-1.21,2.12,2.12,0,0,0,1.39-.87,2.08,2.08,0,0,0,.41-1.41,1.85,1.85,0,0,0-.8-1.39,1.93,1.93,0,0,0-1.4-.31l-.63.12a.81.81,0,0,1-1-.69.91.91,0,0,1,.71-1l.65-.12a3.45,3.45,0,0,1,2.63.57A3.53,3.53,0,0,1,117,15.43a3.74,3.74,0,0,1-.8,2.6,4.14,4.14,0,0,1-2.63,1.55c-1.26.2-2.5.42-3.71.69.79.54,1.58,1.11,2.35,1.69a.9.9,0,0,1-1.06,1.41c-1.24-.95-2.53-1.83-3.84-2.68h0ZM87.82,11.8l1.93-9.16a.86.86,0,0,1,1-.68h0c1.65.38,3.3.8,4.92,1.29a.87.87,0,0,1,.56,1.09.88.88,0,0,1-1.07.6c-1.32-.4-2.66-.76-4-1.08L90.56,6.7c1.1.26,2.2.56,3.3.88a.84.84,0,0,1,.51,1.06.85.85,0,0,1-1,.63c-1.06-.32-2.13-.6-3.21-.85l-.67,2.84c1.19.28,2.38.6,3.56,1a.83.83,0,0,1,.45,1.07.84.84,0,0,1-1,.61q-2.06-.62-4.14-1.08s0,0,0,0h0A.81.81,0,0,1,87.82,11.8ZM69,4.69a2.61,2.61,0,0,1-.47-1.26,2.9,2.9,0,0,1,1-2.42,4.43,4.43,0,0,1,2.66-1,5.58,5.58,0,0,1,3.42,1.21.84.84,0,0,1,.2,1.13.74.74,0,0,1-1.07.24,4.08,4.08,0,0,0-2.49-1,2.72,2.72,0,0,0-1.68.64,1.22,1.22,0,0,0-.5,1,.82.82,0,0,0,.13.44,1.67,1.67,0,0,0,.43.38,5.38,5.38,0,0,0,1.89.6h0a7.1,7.1,0,0,1,2,.62A3.18,3.18,0,0,1,76,6.65,2.7,2.7,0,0,1,76.36,8a3.33,3.33,0,0,1-1.2,2.45,4,4,0,0,1-2.44,1,5.76,5.76,0,0,1-3.54-1.34A.93.93,0,0,1,69,8.92a.65.65,0,0,1,1-.2,4.49,4.49,0,0,0,2.7,1,2.75,2.75,0,0,0,1.69-.63A1.46,1.46,0,0,0,74.92,8a.94.94,0,0,0-.13-.51A1.4,1.4,0,0,0,74.36,7a5,5,0,0,0-2-.69h0a8,8,0,0,1-1.9-.51A3.38,3.38,0,0,1,69,4.69Zm-3.54,6.59L64,2a.85.85,0,0,1,.71-1,.88.88,0,0,1,1,.74l1.27,9.28a.82.82,0,0,1-.61,1A.81.81,0,0,1,65.47,11.28ZM55.28,4A.87.87,0,0,1,55.87,3a.86.86,0,0,1,1.07.6l2.21,8.19c1.19-.32,2.39-.61,3.59-.85a.82.82,0,0,1,.9.72.84.84,0,0,1-.54,1c-1.4.29-2.79.63-4.16,1h0A.81.81,0,0,1,58,13ZM115,24.18a3.17,3.17,0,0,0,.7,3,3.17,3.17,0,0,0,3,.45,7.94,7.94,0,0,0,3.36-2,6.78,6.78,0,0,0,2-3.37,3.12,3.12,0,0,0-4.17-3.85,6.82,6.82,0,0,0-3.21,2.27A7.86,7.86,0,0,0,115,24.18Zm2.93-2.49A5.34,5.34,0,0,1,120.32,20a1.76,1.76,0,0,1,1.72.25,1.72,1.72,0,0,1,.37,1.67A5.35,5.35,0,0,1,121,24.47,6,6,0,0,1,118.5,26a1.67,1.67,0,0,1-1.6-.16,1.72,1.72,0,0,1-.31-1.61A5.88,5.88,0,0,1,117.93,21.69ZM64.4,127.2a.94.94,0,0,1-1,.81l-.39-.07-.85,4.79a1,1,0,0,1,.77,1.13.94.94,0,0,1-1.11.78,1.9,1.9,0,0,1-1.52-2.26l1-4.77-.45-.1a.9.9,0,0,1-.64-1.12.89.89,0,0,1,1-.75l.44.08.5-2.48a.91.91,0,0,1,1-.78.89.89,0,0,1,.62,1.09l-.45,2.5.38.06A.94.94,0,0,1,64.4,127.2Zm32.12,1.33a3.32,3.32,0,0,1-.56,3,5,5,0,0,1-2.83,1.83,6.67,6.67,0,0,1-4.7-.72.94.94,0,0,1-.38-1.22.86.86,0,0,1,1.18-.36,5,5,0,0,0,3.45.56,3.41,3.41,0,0,0,1.88-1.19,1.6,1.6,0,0,0,.33-1.41,1,1,0,0,0-.31-.49,1.45,1.45,0,0,0-.62-.36,7,7,0,0,0-2.37-.2h0a7,7,0,0,1-2.17-.18,3.3,3.3,0,0,1-1.73-1,3,3,0,0,1-.63-1.33,3.53,3.53,0,0,1,.66-2.74,4.11,4.11,0,0,1,2.25-1.49,5.7,5.7,0,0,1,3.45.46,1,1,0,0,1,.58,1.12.71.71,0,0,1-1,.56,4.41,4.41,0,0,0-2.63-.42,2.78,2.78,0,0,0-1.49,1,1.47,1.47,0,0,0-.32,1.21.86.86,0,0,0,.21.45,1.66,1.66,0,0,0,.51.34,4.54,4.54,0,0,0,2.08.28h0a9.55,9.55,0,0,1,2.3.11,4.11,4.11,0,0,1,2,.91A3,3,0,0,1,96.52,128.53Zm6.32.56a.93.93,0,0,1-.51,1.25,1.91,1.91,0,0,1-2.5-1.09l-1.72-4.56-.43.16a.9.9,0,0,1-1.14-.61.89.89,0,0,1,.47-1.19l.42-.16-.9-2.37a.91.91,0,0,1,.42-1.19.89.89,0,0,1,1.11.59l1,2.34.36-.14a1,1,0,0,1,.74,1.77l-.37.15,1.84,4.51A1,1,0,0,1,102.84,129.09ZM50.44,70.15C54,70.15,56,68,56,64.37s-1.81-5.9-5.7-5.9a5.42,5.42,0,0,0-5.57,5.79C44.76,68.23,47.12,70.15,50.44,70.15Zm-.13-9.24c1.23,0,1.75,1.54,1.75,3.46s-.62,3.29-1.62,3.29-1.76-1.32-1.76-3.4S49.35,60.89,50.31,60.91ZM113,111.17l.23.28a.87.87,0,0,1,0,1.25.89.89,0,0,1-1.23-.27l-.22-.29a.88.88,0,0,1,.07-1.23A.85.85,0,0,1,113,111.17Zm-9-44.51c0-1.24-6.09-.71-6.09-4.76,0-2.35,2.22-3.41,3.78-3.41A3.56,3.56,0,0,1,105,60.1l.15-1.33h2.73v4H105a1.85,1.85,0,0,0-2-1.84c-.46,0-1.1.29-1.1.84,0,1.64,6.29,1.26,6.29,5,0,2.47-2.32,3.36-4.21,3.36a4.28,4.28,0,0,1-3.32-1.46l-.17,1.23H97.7v-4h3c0,1.33,1.34,1.55,2,1.58S104,67.33,104,66.66Zm-93.92.51c0,.32-.13.51-.37.51s-.37-.4-.37-1.08a2.41,2.41,0,0,0-2.09-2.26A2.43,2.43,0,0,0,9.56,62c0-1.81-.72-3.27-4.4-3.27H0v2.08H.89v6.92H0v2.1H5.13v-2.1h-1V65.31c1.41,0,1.59.35,1.59,1.79,0,1.86,1,3,3.08,3,1.76,0,2.31-1.23,2.31-2.54v-.88H10.08ZM4.87,63.53H4.16v-2.7H5A1.29,1.29,0,0,1,6.4,62.25C6.4,63.09,5.79,63.53,4.87,63.53Zm106.74,60.81a4,4,0,0,1-1.64,5.72,4.37,4.37,0,0,1-1.87.46.91.91,0,0,1-1-.91,1,1,0,0,1,1-.91,2.21,2.21,0,0,0,1-.25,2.25,2.25,0,0,0,1.17-2.45,3.2,3.2,0,0,1-1.25,1.17,3.52,3.52,0,0,1-4.83-1.68l-1.76-3.72a.9.9,0,0,1,.33-1.19.87.87,0,0,1,1.15.47l1.85,3.68a1.72,1.72,0,1,0,3-1.62l-2-3.59a.86.86,0,0,1,.24-1.2.89.89,0,0,1,1.19.36l2.13,3.54Zm35.65-62.06V60.87h-2.54v2.19h3v2.11h-3v2.59h2.54V66.28H150v3.59h-9.58V67.76h1V60.87h-1v-2.1H150v3.51ZM137,65.74h2.67v4.13h-8.89V67.76h.87V60.87h-.87v-2.1h5v2.1h-.85v6.89H137Zm-3.12,38-2.67-1.86h0l-2.86-2a.9.9,0,0,0-1.23.14.87.87,0,0,0,.12,1.1,3.38,3.38,0,0,0-1.84,1.21,3.73,3.73,0,0,0-.68,2.87,5.05,5.05,0,0,0,1.61,2.89,4.37,4.37,0,0,0,3.1,1.12,3.79,3.79,0,0,0,2.89-1.45,3.85,3.85,0,0,0,.83-2.24,2.28,2.28,0,0,1,.09,3,2.09,2.09,0,0,1-.82.64,1,1,0,0,0-.47,1.27.91.91,0,0,0,1.24.47,4.19,4.19,0,0,0,1.54-1.22A4.08,4.08,0,0,0,133.84,103.73Zm-3.05,2.87a2,2,0,0,1-1.54.76,2.49,2.49,0,0,1-1.81-.62,2.79,2.79,0,0,1-1-1.64,1.9,1.9,0,0,1,.34-1.62,2,2,0,0,1,1.51-.75,2.92,2.92,0,0,1,1.8.57,2.63,2.63,0,0,1,1.07,1.58A2.05,2.05,0,0,1,130.79,106.6Zm-11.38,12.67a.91.91,0,0,1-.16,1.32.94.94,0,0,1-1.32-.18L113.84,115a.89.89,0,0,1,.09-1.27.87.87,0,0,1,1.25.24Zm7.52-6.85a.9.9,0,0,1,0,1.29.93.93,0,0,1-1.3,0l-3-3a1.74,1.74,0,0,0-2.43-.1,1.72,1.72,0,0,0,0,2.39l2.8,3.09a.32.32,0,0,1,.09.15,1,1,0,0,1-.18,1.18.92.92,0,0,1-1.31-.1L119,114.22l-1.76-2a.87.87,0,0,1,0-1.23.83.83,0,0,1,.92-.11,3,3,0,0,1,.84-1.51,3.62,3.62,0,0,1,4.91.22Zm-10.86,9.31a1,1,0,1,1-1.58,1.09l-5.7-8.59a.83.83,0,1,1,1.36-.92Zm-80.21-6.47-4.05,5.48a.92.92,0,0,1-1.32.19.93.93,0,0,1-.17-1.32l4.19-5.37a.89.89,0,0,1,1.25-.25A.88.88,0,0,1,35.86,115.26ZM41,119.7a1.49,1.49,0,0,0-1-.2,2.47,2.47,0,0,0-1.06.33,5.59,5.59,0,0,0-1.35.87l-1.79,2.8a.94.94,0,0,1-1.31.25.93.93,0,0,1-.25-1.28l3.86-5.7a.88.88,0,0,1,1.19-.3.91.91,0,0,1,.22,1.24l-.07.1a1.71,1.71,0,0,1,.47-.12,3.28,3.28,0,0,1,2,.44A.92.92,0,0,1,41,119.7ZM32.14,111A.88.88,0,0,0,31,111a3.45,3.45,0,0,0-1-2,3.61,3.61,0,0,0-2.8-.95,4.81,4.81,0,0,0-3,1.31,4.39,4.39,0,0,0-1.45,2.94,3.83,3.83,0,0,0,1.18,3,3.77,3.77,0,0,0,2.2,1,1,1,0,0,0,.18,1.17.92.92,0,0,0,1.3-.1l2.23-2.59,2.24-2.62A.88.88,0,0,0,32.14,111Zm-3.55,2.7a2.66,2.66,0,0,1-1.69.89,2.1,2.1,0,0,1-1.62-.58,2.06,2.06,0,0,1-.65-1.6,2.66,2.66,0,0,1,.84-1.71,2.71,2.71,0,0,1,1.72-.82,1.86,1.86,0,0,1,1.55.53,1.9,1.9,0,0,1,.59,1.54A2.71,2.71,0,0,1,28.59,113.71Zm62.2-25.58a9.29,9.29,0,0,1,1.2,6.8,9.38,9.38,0,0,0,1.3,7.94,9.68,9.68,0,0,0,5.3,4,7.56,7.56,0,0,0,4.47,0,2.31,2.31,0,0,0,.2.24,10.22,10.22,0,0,1,1.85,2,11.25,11.25,0,0,1,.75,1.1,2.34,2.34,0,0,1,.28,1.36,1.45,1.45,0,0,0,.79,1.4,1.42,1.42,0,0,0,1.26-2.54,2.38,2.38,0,0,1-1-1,10.18,10.18,0,0,1-.55-1.21,10.62,10.62,0,0,1-.72-2.63,1.43,1.43,0,0,0-.15-.44c2.63-2.63,2.91-7.16.47-10.85a9.65,9.65,0,0,0-5.3-4,8.06,8.06,0,0,0-1.72-.3,9.47,9.47,0,0,1-6-3.61h0c-3.8-5.29-6.54-10.5-6.11-11.65l0-.15.15,0c1.16-.43,6.36,2.31,11.65,6.11h0a9.48,9.48,0,0,1,3.59,6,8.21,8.21,0,0,0,.32,1.73,9.62,9.62,0,0,0,4,5.29c3.89,2.57,8.69,2.14,11.25-.88l0,0,0,0c1.23.4,2.33.7,3.5,1a16.74,16.74,0,0,0,3.55.44h.47l.43,0a7,7,0,0,0,1-.16,5.81,5.81,0,0,0,1.76-.75A6.33,6.33,0,0,0,130.38,92a6.41,6.41,0,0,0,.58-.79,5.93,5.93,0,0,0,.51-.92l.11-.26a1.13,1.13,0,1,0-2.16-.25,1.92,1.92,0,0,1-.1.61A3.75,3.75,0,0,1,129,91a3.67,3.67,0,0,1-.91,1,3.55,3.55,0,0,1-1.29.56,3.44,3.44,0,0,1-.7.09h-.41l-.36,0a9.12,9.12,0,0,1-3-.87,10.52,10.52,0,0,1-2.6-1.7,2.25,2.25,0,0,0-.21-.12,7.66,7.66,0,0,0-.12-4,9.66,9.66,0,0,0-4-5.29,9.38,9.38,0,0,0-7.94-1.3,9.23,9.23,0,0,1-6.8-1.21v0L88,70.8A30.3,30.3,0,0,0,88,66.33l24.37-26.88c2.28-2.52,3.09-5.51,1.81-6.67h0s0-.06,0-.09l-12-10.86c-.41-.37-1.22-.13-1.82.53s-.76,1.5-.35,1.87l8.47,7.68a1.94,1.94,0,0,1,.13,1.65l-9.36-8.49a.56.56,0,1,0-.74.82l9.62,8.73a9.45,9.45,0,0,1-.59.87l0,0-9.74-8.82a.61.61,0,0,0-.86,0,.62.62,0,0,0,.12.86l9.74,8.82-.73.8-9.74-8.82a.56.56,0,1,0-.74.81L105.31,38l-.73.8-9.73-8.83a.57.57,0,1,0-.75.82l9.74,8.83-.72.79-9.74-8.82a.56.56,0,1,0-.74.82l9.74,8.83-.73.79-9.73-8.82a.62.62,0,0,0-.87,0,.63.63,0,0,0,.12.86l9.74,8.82-.72.8-9.74-8.83a.63.63,0,0,0-.87,0,.62.62,0,0,0,.12.85l9.74,8.83-.72.8L89,36.39a.62.62,0,0,0-.86,0,.62.62,0,0,0,.12.86L98,46l-.71.79L87.52,38a.62.62,0,0,0-.87,0,.63.63,0,0,0,.12.86l9.74,8.82-.72.8-9.74-8.82a.62.62,0,0,0-.87,0,.61.61,0,0,0,.13.85L95,49.27l-.72.8-9.74-8.83a.56.56,0,1,0-.74.82l9.74,8.83-.73.8-9.73-8.83a.57.57,0,1,0-.75.82l9.74,8.83-.72.79-9.74-8.82a.56.56,0,1,0-.74.82l9.74,8.82-.73.8L80.18,46.1a.61.61,0,0,0-.86,0,.62.62,0,0,0,.12.86l9.74,8.83-.72.79-9.74-8.83a.63.63,0,0,0-.87,0,.62.62,0,0,0,.12.85l9.74,8.83-.72.8-9.74-8.83a.56.56,0,1,0-.74.82L86.25,59l-.73.8L75.78,51a.61.61,0,0,0-.86,0,.62.62,0,0,0,.12.86l9.74,8.83-.73.8-9.73-8.83a.56.56,0,1,0-.74.82l7.36,6.67C68.52,49.83,43.75,29.52,40,27.2c-.26-.19-.43-.28-.46-.22h0c-.07,0,0,.23.28.56,2.12,3.29,15.88,20.2,26.39,33a.63.63,0,0,0,.18.75l1.69,1.53,4.71,5.73L65.68,62.1a.56.56,0,1,0-.74.81l9.74,8.83-.73.8-9.74-8.83a.61.61,0,0,0-.86,0,.63.63,0,0,0,.12.86l9.74,8.83-.72.8-9.74-8.83a.63.63,0,0,0-.87,0,.62.62,0,0,0,.13.86L71.74,75l-.72.8L61.28,67a.56.56,0,1,0-.74.82l9.74,8.83-.73.79-9.73-8.83a.57.57,0,1,0-.75.83l9.74,8.82-.72.8-9.74-8.83a.61.61,0,0,0-.86,0,.6.6,0,0,0,.12.85l9.73,8.83-.72.8L56.89,71.8a.57.57,0,1,0-.75.82l9.74,8.83-.72.8-9.74-8.83a.63.63,0,0,0-.87,0,.62.62,0,0,0,.13.86l9.73,8.82-.72.8L54,75a.61.61,0,0,0-.86,0,.62.62,0,0,0,.12.86L63,84.68l-.73.8-9.74-8.83a.61.61,0,0,0-.86,0,.61.61,0,0,0,.12.85l9.74,8.83-.72.8L51,78.27a.57.57,0,1,0-.75.82L60,87.92l-.72.8-9.74-8.83a.56.56,0,1,0-.74.82l9.74,8.83-.73.79L48.09,81.5a.63.63,0,0,0-.87,0,.62.62,0,0,0,.12.85l9.74,8.83-.72.8-9.74-8.82a.61.61,0,0,0-.86,0,.6.6,0,0,0,.12.85l9.73,8.83-.72.8-9.74-8.83a.56.56,0,1,0-.74.82l9.74,8.83-.72.8-9.74-8.83a.57.57,0,1,0-.75.82L52.68,96,52,96.8,42.22,88a.56.56,0,1,0-.74.82l9.74,8.82-.73.8-9.74-8.83a.56.56,0,1,0-.74.82l9.74,8.83-.41.45h0L49,100l-9.75-8.83a.6.6,0,0,0-.86,0,.62.62,0,0,0,.12.85l9.74,8.83a8.28,8.28,0,0,1-.83.7l-9.63-8.73a.56.56,0,1,0-.74.82l9.36,8.48a2,2,0,0,1-1.55.05l-8.54-7.73a.65.65,0,0,0-.74-.13,2.2,2.2,0,0,0-1.1.68A2,2,0,0,0,34,96.15a.62.62,0,0,0,.19.73l12,10.86a.8.8,0,0,0,.33.17c1.36.9,4.07-.19,6.24-2.58l27-29.84a29.57,29.57,0,0,0,3.62-.1l7.46,12.73ZM95.89,93l.11-.07a5.19,5.19,0,0,1,4.35-.55,7.64,7.64,0,0,1,4.12,3.16c2,3.08,1.66,7-.83,8.74l-.11.08a5.15,5.15,0,0,1-4.35.54,7.59,7.59,0,0,1-4.12-3.16C93,98.62,93.4,94.7,95.89,93Zm9.58-9.55.07-.11c1.74-2.48,5.66-2.85,8.74-.82a7.51,7.51,0,0,1,3.16,4.12A5.16,5.16,0,0,1,116.9,91l-.08.11c-1.74,2.48-5.66,2.86-8.74.83a7.56,7.56,0,0,1-3.15-4.13A5.16,5.16,0,0,1,105.47,83.41ZM85,72.44a1.35,1.35,0,0,1-1.91-1.91A1.35,1.35,0,0,1,85,72.44ZM27.7,102.91l-7.82,6.71a1,1,0,1,1-1.23-1.48l3.25-2.63c-.88-1.1-1.74-2.22-2.55-3.36l-3.41,2.44a1,1,0,0,1-1.35-.24,1,1,0,0,1,.25-1.34l8.54-5.76a.89.89,0,0,1,1.25.12.9.9,0,0,1-.31,1.23L20.91,101c.79,1.11,1.63,2.2,2.49,3.25l3.24-2.64a.83.83,0,1,1,1.06,1.26Zm-6.42-33H11.71V67.76h1V60.87h-1v-2.1h9.57v3.51H18.53V60.87H16v2.19h3v2.11H16v2.59h2.54V66.28h2.75ZM36.51,113a.9.9,0,0,1-.06-1.26l.23-.28a.81.81,0,1,1,1.27,1l-.21.29A.89.89,0,0,1,36.51,113Zm42.93,15.53a2.56,2.56,0,0,1,.13.67,2.18,2.18,0,0,1-.58,1.72.93.93,0,0,0-.18.12,2.85,2.85,0,0,1,0,.41,4,4,0,1,1-7.93,0,4.44,4.44,0,0,1,1.39-3,3.57,3.57,0,0,1-.37-1.73,2.88,2.88,0,1,1,5.72,0,.89.89,0,0,1-.81,1,.92.92,0,0,1-.89-.94,1.16,1.16,0,1,0-2.31,0,1.33,1.33,0,0,0,.48,1.07,1.05,1.05,0,0,1,.23,1.29h0s0,0,0,.07a1.57,1.57,0,0,1-.18.19.07.07,0,0,1-.05,0l0,0-.08.05a2.39,2.39,0,0,0-1.23,2,2.14,2.14,0,1,0,4.27,0v-.1c-.85,0-1.16.25-1.24.36a.47.47,0,0,0-.13.39,1.31,1.31,0,0,0,0,.19,1,1,0,0,1-.63,1.21l-.25,0a.9.9,0,0,1-.9-.7,2.2,2.2,0,0,1-.09-.73,2.46,2.46,0,0,1,.69-1.76A3.42,3.42,0,0,1,77,129.5a4.87,4.87,0,0,1,.54,0h.06a.58.58,0,0,0,.18,0l0,0v-.12c0-.05,0-.14,0-.26a1,1,0,0,1,.59-1.19A.87.87,0,0,1,79.44,128.53Zm-21.6-2.75-1.07,4a3.54,3.54,0,0,1-4.49,2.47,3.49,3.49,0,0,1-2.15-4.59l1.47-3.91a.9.9,0,0,1,1.09-.58.89.89,0,0,1,.47,1.15l-1.37,3.94a1.7,1.7,0,0,0,1.06,2.23,1.75,1.75,0,0,0,2.22-1.18l1.17-4a.88.88,0,0,1,1-.67A.93.93,0,0,1,57.84,125.78Zm-8.91-3a1,1,0,0,1-.35,1.26.81.81,0,0,1-1.17-.32,2.42,2.42,0,0,0-1.14-1.14A2.55,2.55,0,0,0,43,123.73a2.45,2.45,0,0,0,1.11,3.33,2.67,2.67,0,0,0,1.7.18.9.9,0,0,1,1.09.68,1,1,0,0,1-.68,1.11,4.46,4.46,0,0,1-2.9-.29,4.2,4.2,0,0,1-1.86-5.84,4.45,4.45,0,0,1,5.6-2.05A4.1,4.1,0,0,1,48.93,122.74Z" style="fill:#fff"/></svg>