<svg id="Layer_1" data-name="Layer 1" xmlns="http://www.w3.org/2000/svg" viewBox="0 0 143.59 150"><path d="M8.53,72.5H7.08V69.8H8.53a1.32,1.32,0,0,1,1.33,1.33A1.36,1.36,0,0,1,8.53,72.5ZM64.15,27.79c-.47.09-.53-.58-.63-1.07L63,24.17l1.22-.25L63.83,22l-1.26.26-.47-2.17c-.78.47-1.55.94-2.29,1.44l.33,1.31-.7.18.5,1.84.68-.18.66,2.54c.51,1.81.87,2.94,2.59,2.55a5.32,5.32,0,0,0,1.34-.57l-.35-1.85A2.63,2.63,0,0,1,64.15,27.79Zm4.78,1.07a2.2,2.2,0,0,0,2-2.39c-.1-1.55-1.2-1.9-2.22-2.17-.85-.23-1.63-.3-1.69-.7a.49.49,0,0,1,.44-.6,1.28,1.28,0,0,1,1.45,1q.84-.09,1.68-.15l-.19-2.64c-.56,0-1.12.09-1.67.15v1a2.14,2.14,0,0,0-2.13-.89,2.17,2.17,0,0,0-2,2.48,2.48,2.48,0,0,0,2.06,2c1,.22,1.88.19,1.93.63s-.23.52-.47.56-1.31,0-1.43-.8c-.55.09-1.1.17-1.64.28l.48,2.6L67,28.94l0-.9A2.13,2.13,0,0,0,68.93,28.86Zm35.34,2.54a3.64,3.64,0,0,0-2-.41l.36-1.76a5.29,5.29,0,0,1,3.06.6c1.38.85,2.69,2.55,1.35,4.49l-1.61,2.37.62.42L105,38.66c-.72-.5-1.45-1-2.18-1.46l.12-.72a2,2,0,0,1-1.89-.07,2.36,2.36,0,0,1-.85-3.34,2.52,2.52,0,0,1,3.65-1,1.68,1.68,0,0,1,.81,1.11l.28-.43C105.24,32.2,104.88,31.77,104.27,31.4Zm-1,2.46a.68.68,0,0,0-1,.28.65.65,0,0,0,.21.93.94.94,0,0,0,.93,0l.3-.47A.76.76,0,0,0,103.3,33.86ZM59.91,28.53l-1.5-5.18c-1.12.33-2.24.68-3.33,1.07l.64,1.83.82-.28.74,2.21c.21.63,0,1.17-.38,1.32s-.83-.33-1.26-1.52l-1.21-3.33c-1,.37-2,.77-3,1.19l.75,1.79.51-.21.77,1.87c.93,2.26,1.91,3.08,3.6,2.46a2.1,2.1,0,0,0,1.24-1.63l.6.77c.72-.22,1.43-.45,2.16-.64l-.53-1.88ZM50.82,32c-.72.33-1.5-.14-1.92-1s-.5-1.85.19-2.19,1.08.41,1.4,1.05l1.72-.77-1.3-3.05-1.46.64.09.74a2,2,0,0,0-1.87,0c-1.57.75-2.41,2.55-1.15,4.82s3.25,2.69,4.83,1.93a4.08,4.08,0,0,0,2.1-2.6l-1.61-.93A1.82,1.82,0,0,1,50.82,32ZM90,30.89c-1.42-.48-2.85-.88-4.3-1.23l.43-1.86.69.17,1.57-6.27-.78-.19L88,19.67c1.74.41,3.45.89,5.13,1.46,2.26.75,2.94,2.06,2.34,3.53-.46,1.15-1,1.58-2,1.65a2.33,2.33,0,0,1,.66,2.94C93.33,31.17,92.12,31.62,90,30.89Zm.49-6.27.77.24c.67.22,1-.12,1.22-.79a.92.92,0,0,0-.52-1.3l-.82-.26Zm-1.23,4,.94.29c.48.17,1.09-.13,1.35-.87s.08-1.34-.6-1.57L90,26.2ZM58.63,44.26l-2,1.3-2.21-.93L55,47l-1.56,1.83,2.39.13L57.1,51,58,48.72l2.33-.56-1.86-1.51ZM46.49,53.7,46,52.06l-1,1.41-1.71,0,1,1.37-.54,1.63,1.62-.57,1.38,1,0-1.71,1.39-1ZM37.73,32.58a1.44,1.44,0,0,0,.42-2.07,1.51,1.51,0,0,0-2.1-.39,1.48,1.48,0,0,0-.38,2.08A1.54,1.54,0,0,0,37.73,32.58ZM32.86,44.14l-4.3-4.72.59-.53-1.29-1.45c-1.13,1-2.23,2-3.3,3.11l1.37,1.37.58-.56,1.55,1.58c-.6.59-1.19,1.18-1.77,1.79l-1.6-1.53.58-.61-1.39-1.35q-1.57,1.62-3.08,3.37l1.48,1.26.5-.58,4.81,4.21-.45.51,1.48,1.26c.83-1,1.7-1.93,2.62-2.86l-1.39-1.36-.54.56-1.6-1.53q.84-.88,1.71-1.74L31,45.92l-.53.52,1.37,1.37c.93-.93,1.89-1.83,2.87-2.71L33.4,43.66Zm74.06-6.45-.46-.32-1.1,1.57c1,.67,1.89,1.37,2.83,2.08l1.16-1.54-.5-.38.9-1.21c.78-1,1.51-.91,2.45-.19l1.62-2.08a1.89,1.89,0,0,0-2.43-.21l.24-1c-.67-.5-1.35-1-2-1.47l-1.1,1.56.46.32ZM41.79,33l1.86,3-.46.29,1,1.63c1-.62,2-1.22,3-1.78l-1-1.68-.55.32-.76-1.31c-.65-1.12-.25-1.75.78-2.31l-1.27-2.32A1.89,1.89,0,0,0,43.26,31l-.82-.61c-.73.43-1.45.87-2.15,1.32l1,1.61Zm-2.41,5.92,1.11,1.52c-.7.51-1.4,1-2.08,1.57l-.65-.34a2,2,0,0,1-.69,1.77,2.38,2.38,0,0,1-3.45-.29,2.54,2.54,0,0,1,.28-3.78,1.66,1.66,0,0,1,1.32-.4l-.32-.41c-.41-.51-.93-.31-1.48.14a3.71,3.71,0,0,0-1.06,1.78l-1.53-.93a5.28,5.28,0,0,1,1.56-2.68c1.25-1,3.28-1.72,4.68.19l1.71,2.3Zm-2.76,1.81-.35-.44a.76.76,0,0,0-.85.13.69.69,0,0,0-.07,1.07.65.65,0,0,0,.95.11A.94.94,0,0,0,36.62,40.72Zm38.3-14.81a3.54,3.54,0,0,1,1.89-3.19c-1.24-2.28.31-4.09,2-4a2.16,2.16,0,0,1,2.23,2,3.37,3.37,0,0,1-2,2.9A13.59,13.59,0,0,0,80,25.57a3.76,3.76,0,0,0,.55-2.08c.71.08,1.43.17,2.14.27l-.45,2.18c-.29-.05-.61,0-1-.12a3.22,3.22,0,0,1-.54,1c.27.59.62,1,1.14.72-.11.67-1.21,2.07-2.4.7C78.18,29.17,74.93,29.19,74.92,25.91Zm3.48-4c1.24-.62,1.45-1.82.51-1.89S78,21.37,78.4,21.89Zm-1.6,4.95a1.34,1.34,0,0,0,1.88.1,17.73,17.73,0,0,1-1.19-2.53C76.35,25.43,76.38,26.34,76.8,26.84Zm22.58-.24A3.07,3.07,0,0,1,101.22,30a4.68,4.68,0,0,1-1.17,2.19c-1.16-.63-2.34-1.23-3.53-1.79A1.25,1.25,0,0,0,97.16,32a2.32,2.32,0,0,0,1.86.16l.23,1.75a4.17,4.17,0,0,1-3.34-.3c-1.31-.64-2.38-2.34-1.33-5A3.39,3.39,0,0,1,99.38,26.6Zm-2.21,2.45c.59.27,1.17.56,1.75.85.24-.5.42-1.11-.34-1.48S97.35,28.72,97.17,29.05ZM42.66,36.6l-.5.33-3-4.52c-.87.57-1.72,1.16-2.56,1.76l1.11,1.55.45-.32,2,2.87-.43.31,1.12,1.56c.92-.66,1.87-1.31,2.82-1.93ZM9.19,74.37H7.08v3.49H9.19a1.75,1.75,0,0,0,0-3.49ZM75.73,45.85l2.08-3.23L74,42.93l-2.43-3-.89,3.73L67.1,45.08l3.28,2,.2,3.84L73.5,48.4l3.7,1Zm-46,61.45H32.2v-1.21H29.69v-1.61h2.76v-1.22H28.33v6.95H32.5V109H29.69ZM123,45.05a2.17,2.17,0,0,0-.72-2.15,2.21,2.21,0,0,0-3.14.11,2.39,2.39,0,0,0-.22,2.91c.46.89,1.15,1.59.86,1.92a.49.49,0,0,1-.76,0c-.29-.26-.9-1.06-.39-1.65l-1.32-1.14-1.72,2,1.22,1,.67-.6a2.43,2.43,0,0,0,4.08,2.05c1-1.16.45-2.21,0-3.15s-.89-1.43-.62-1.74a.48.48,0,0,1,.73-.07,1.29,1.29,0,0,1,.27,1.72l1.29,1.12,1.73-2-1.21-1.06ZM18.86,71.46l-1.37,3.63h2.74Zm97.68-26.1-1.24,1.45L113,44.88l.18-.56a2.28,2.28,0,0,1-1.67-.49c-1.37-1.12-1.14-3.26.11-4.88,1.41-1.81,3.44-2.07,4.71-1a2.48,2.48,0,0,1,.94,1.49l1.38-1.67-.47-.4,1.22-1.47L122,38,116.07,45Zm-.85-5.51c-.42-.35-1.17,0-1.87.83-.56.68-.87,1.63-.43,2s1.2.06,1.91-.87C115.94,41,116.08,40.16,115.69,39.85Zm-2.46,15.63L111.34,57l-2.29-.73.81,2.25-1.39,2,2.4-.07,1.42,1.93L113,60l2.28-.76-2-1.35Zm6.87,10.15-.66-1.58-.85,1.48-1.71.14L118,66.94l-.4,1.67,1.57-.7,1.46.89-.18-1.7,1.3-1.12ZM29.51,69.8H27.44v3.47h2.07a1.74,1.74,0,1,0,0-3.47ZM143.59,72V97H133.4v11.76a13.84,13.84,0,0,1-6.19,10.89L78.67,148.46a13.35,13.35,0,0,1-12.45,0L17.68,119.61a13.82,13.82,0,0,1-6.2-10.89V86.33H0v-25H11.48v-20a13.82,13.82,0,0,1,6.2-10.89L66.22,1.55a13.28,13.28,0,0,1,12.45,0l48.54,28.84a13.84,13.84,0,0,1,6.19,10.89V72ZM12.8,76.11a3.62,3.62,0,0,0-1.71-3.06,3.12,3.12,0,0,0,.64-1.92,3.21,3.21,0,0,0-3.2-3.21H6.13a.93.93,0,0,0-.92.93v10a.93.93,0,0,0,.92.93h0s0,0,0,0h3A3.62,3.62,0,0,0,12.8,76.11Zm118-34.83a11.35,11.35,0,0,0-4.94-8.67L77.35,3.77a10.78,10.78,0,0,0-9.81,0L19,32.61a11.37,11.37,0,0,0-4.93,8.67v20h63a1.65,1.65,0,0,0-.11.57,1.78,1.78,0,0,0-.61.64,1.73,1.73,0,0,0-.21.83,1.64,1.64,0,0,0-.81,1.46,1.69,1.69,0,0,0-.83,1.47,1.73,1.73,0,0,0-.6.63,1.8,1.8,0,0,0-.23.84,1.66,1.66,0,0,0-.8,1.46,1.81,1.81,0,0,0-.62.64,1.86,1.86,0,0,0-.21.73,1.64,1.64,0,0,0-.51.57,1.8,1.8,0,0,0-.23.84,1.84,1.84,0,0,0-.59.62,1.74,1.74,0,0,0-.21.84,1.7,1.7,0,0,0-.61.64,1.61,1.61,0,0,0-.22.83,1.64,1.64,0,0,0-.81,1.46A1.73,1.73,0,0,0,68,77.86a1.73,1.73,0,0,0-.6.63,1.87,1.87,0,0,0-.21.84,1.68,1.68,0,0,0-.61.63,1.73,1.73,0,0,0-.21.83,1.87,1.87,0,0,0-.61.64,1.71,1.71,0,0,0-.21.83,1.78,1.78,0,0,0-.61.64,1.63,1.63,0,0,0-.21.83,1.75,1.75,0,0,0-.61.63,1.73,1.73,0,0,0-.21.83,1.72,1.72,0,0,0-.79,1.14H14.07v22.39A11.37,11.37,0,0,0,19,117.39l48.54,28.84a11.26,11.26,0,0,0,9.81,0l48.53-28.84a11.35,11.35,0,0,0,4.94-8.67V97H84.46l14-25h32.39Zm-3.11,38.91a5.49,5.49,0,0,0-4-1.81,5.66,5.66,0,0,0-4.13,1.81,6.29,6.29,0,0,0,0,8.54,5.73,5.73,0,0,0,4.13,1.8,5.56,5.56,0,0,0,4-1.8,6.21,6.21,0,0,0,0-8.54Zm-14.54,5.37v4a.91.91,0,0,0,.93.92.93.93,0,0,0,1-.92v-10a.94.94,0,0,0-1-.93.92.92,0,0,0-.93.93v4h-4.36v-4a.94.94,0,0,0-1-.93.92.92,0,0,0-.93.93v10a.91.91,0,0,0,.93.92.93.93,0,0,0,1-.92v-4Zm-10.58,1.38a1.55,1.55,0,0,1-.72,1.22,3.67,3.67,0,0,1-2.12.62,5.47,5.47,0,0,1-3.22-1.3.88.88,0,0,0-1.23.12.89.89,0,0,0,.14,1.23,7.26,7.26,0,0,0,4.31,1.69,5.29,5.29,0,0,0,3.13-1,3.25,3.25,0,0,0,1.45-2.61,2.81,2.81,0,0,0-.41-1.44,3.87,3.87,0,0,0-1.69-1.39,10,10,0,0,0-2.32-.72h0a5.45,5.45,0,0,1-2.1-.74,1.39,1.39,0,0,1-.46-.44.75.75,0,0,1-.12-.47,1.33,1.33,0,0,1,.64-1.06,3.21,3.21,0,0,1,1.89-.57,4.86,4.86,0,0,1,2.72,1.08.87.87,0,0,0,1-1.45,6.59,6.59,0,0,0-3.68-1.36,5,5,0,0,0-2.92.9,3.13,3.13,0,0,0-1.35,2.46,2.64,2.64,0,0,0,.39,1.39,3.6,3.6,0,0,0,1.57,1.31,8.7,8.7,0,0,0,2.18.66h0a6.91,6.91,0,0,1,2.31.79,1.64,1.64,0,0,1,.51.51A1,1,0,0,1,102.59,86.94Zm-87.8-7.26a.91.91,0,0,0,.33,0,1,1,0,0,0,.88-.59L16.82,77h4.1l.83,2.19a.91.91,0,0,0,.86.59.83.83,0,0,0,.32,0,1,1,0,0,0,.56-1.21l-3.73-9.94a1,1,0,0,0-1.79,0l-3.73,9.94A1,1,0,0,0,14.79,79.68Zm17-5.36a3.61,3.61,0,0,0-2.3-6.4h-3a.92.92,0,0,0-.93.93v10a.92.92,0,0,0,.93.93.94.94,0,0,0,.94-.93V75.14h2a3.44,3.44,0,0,1,.95.41,1.47,1.47,0,0,1,.5.49,1.41,1.41,0,0,1,.21.73,4.49,4.49,0,0,0,.35,2,1.62,1.62,0,0,0,.54.59,1.22,1.22,0,0,0,.66.18h0a1.44,1.44,0,0,0,.38,0,.92.92,0,0,0,.58-1.18.89.89,0,0,0-.58-.57,3.73,3.73,0,0,1-.07-1,3.18,3.18,0,0,0-.56-1.83A2.69,2.69,0,0,0,31.81,74.32Zm10.43-1.27a3.12,3.12,0,0,0,.64-1.92,3.21,3.21,0,0,0-3.2-3.21h-2.4a.93.93,0,0,0-.92.93v10a.93.93,0,0,0,.92.93h0s0,0,0,0h3a3.61,3.61,0,0,0,1.9-6.68Zm6-.17V69.8h4.57a1,1,0,0,0,.93-1,.94.94,0,0,0-.93-.93H47.31a.92.92,0,0,0-.93.93v10a.93.93,0,0,0,.93.93h0s0,0,0,0h5.47a.94.94,0,0,0,0-1.87H48.26v-3.1h3.93a.94.94,0,0,0,0-1.88Zm14.48,1.44a3.61,3.61,0,0,0-2.3-6.4h-3a.91.91,0,0,0-.92.93v10a.92.92,0,0,0,.92.93.94.94,0,0,0,.95-.93V75.14h2a3.44,3.44,0,0,1,1,.41,1.56,1.56,0,0,1,.5.49,1.32,1.32,0,0,1,.2.73,4.64,4.64,0,0,0,.35,2,1.73,1.73,0,0,0,.55.59,1.21,1.21,0,0,0,.65.18h0a1.29,1.29,0,0,0,.37,0,.92.92,0,0,0,.59-1.18.91.91,0,0,0-.59-.57,4.42,4.42,0,0,1-.06-1,3.18,3.18,0,0,0-.56-1.83A2.69,2.69,0,0,0,62.74,74.32Zm77.59,8a3.63,3.63,0,0,0-3.63-3.63h-3a.93.93,0,0,0-.93.93v10a.94.94,0,0,0,1.88,0V85.94h2.08A3.62,3.62,0,0,0,140.33,82.35ZM41,71.13a1.32,1.32,0,0,0-1.33-1.33H38.23v2.7h1.45A1.36,1.36,0,0,0,41,71.13ZM136.7,80.6h-2.08v3.47h2.08a1.74,1.74,0,1,0,0-3.47ZM60.44,69.8H58.37v3.47h2.07a1.74,1.74,0,1,0,0-3.47Zm-20.1,4.57H38.23v3.49h2.11a1.75,1.75,0,0,0,0-3.49Zm83.33,5.94a3.68,3.68,0,0,0-2.73,1.2,4.35,4.35,0,0,0,0,5.89,3.69,3.69,0,0,0,2.73,1.21,3.65,3.65,0,0,0,2.67-1.21,4.35,4.35,0,0,0,0-5.89A3.64,3.64,0,0,0,123.67,80.31ZM47.12,108.8a.82.82,0,0,0-.57.2.81.81,0,0,0,0,1.11.79.79,0,0,0,.57.21.84.84,0,0,0,.6-.21.76.76,0,0,0,.22-.55.75.75,0,0,0-.22-.56A.89.89,0,0,0,47.12,108.8Zm14.15,14.89a3.3,3.3,0,0,1-2.63,1.22c.77.24,2,.78,2.21,1.65.63,2.14-2.3,3.49-4.4,3.23a10.28,10.28,0,0,1-3.1-.8,4,4,0,0,1-3,.81c-2.38-.29-1.58-3,1.05-2.12.43.16,1,.5,1.69.86,1.55-1.49,2.39-4.62,4.39-6.83l.67-.76a11.94,11.94,0,0,0-4.47.13c-3.24.68-4.3,3.49-2.57,4a1.64,1.64,0,0,0,2.11-1.27c0-.07.24-.16.24.09h0A1.89,1.89,0,0,1,51,125.38c-2.38-.82-1.27-4.21,2.84-4.79a13.19,13.19,0,0,1,4.59.1,2.29,2.29,0,0,1,.65-.4c.37-.15.4,0,.11.18a1,1,0,0,0-.33.32C60.87,121.3,62.06,122.34,61.27,123.69Zm-8.41,5.08a15,15,0,0,0-1.73-.78c-1.79-.62-2,1.41-.47,1.49A3.42,3.42,0,0,0,52.86,128.77Zm7-7.33a4.65,4.65,0,0,0-1.09-.36c-1.57,2.14-3.13,5.6-4.68,7.28l-.45.42a9.87,9.87,0,0,0,2.84.7c3.05.28,4.88-2.8,2.61-3.89-.91-.44-2-.59-2.17-.85s.78-.16,1.69-.16C60,124.56,62,122.44,59.82,121.44ZM45.36,109.3a5.37,5.37,0,0,0,.09.92h-.93l-.17-.65h0a1.53,1.53,0,0,1-.57.56,2,2,0,0,1-2.33-.4,2.92,2.92,0,0,1-.52-1.92,3,3,0,0,1,.58-2,2,2,0,0,1,1.68-.71,3.49,3.49,0,0,1,.51,0,2,2,0,0,1,.4.12v-2h1.29v5.2C45.35,108.74,45.35,109,45.36,109.3Zm-1.3-2.86a1.34,1.34,0,0,0-.31-.17,1.72,1.72,0,0,0-.44,0,1,1,0,0,0-.82.37,2.18,2.18,0,0,0-.27,1.26,2.14,2.14,0,0,0,.22,1,.76.76,0,0,0,.71.39.86.86,0,0,0,.6-.19,1,1,0,0,0,.31-.53Zm-7.82,1.12a2.84,2.84,0,0,0-.55-.28l-.54-.2a2.06,2.06,0,0,1-.42-.2.35.35,0,0,1-.17-.29c0-.3.19-.45.58-.45a2.37,2.37,0,0,1,.7.1c.24.07.43.13.58.19l.28-.93a2.94,2.94,0,0,0-.71-.27,4,4,0,0,0-1-.12,1.83,1.83,0,0,0-1.26.39,1.41,1.41,0,0,0-.44,1.12,1.43,1.43,0,0,0,.17.73,1.54,1.54,0,0,0,.42.46,1.76,1.76,0,0,0,.54.29l.55.2a2.33,2.33,0,0,1,.42.22.39.39,0,0,1,.17.32.41.41,0,0,1-.18.37.87.87,0,0,1-.46.11,2.6,2.6,0,0,1-.78-.13,2.93,2.93,0,0,1-.6-.25l-.36,1a3.14,3.14,0,0,0,.75.31,3.53,3.53,0,0,0,1,.14,2.13,2.13,0,0,0,1.44-.43,1.53,1.53,0,0,0,.48-1.19,1.27,1.27,0,0,0-.17-.71A1.4,1.4,0,0,0,36.24,107.56ZM40,109.17a1.13,1.13,0,0,1-.34,0,.39.39,0,0,1-.39-.23,1.85,1.85,0,0,1-.1-.74v-1.9h1.21v-1.09H39.13V104l-1.29.36v.94h-.69v1.09h.69v2.5a1.65,1.65,0,0,0,.32,1.15,1.28,1.28,0,0,0,1,.36,3,3,0,0,0,.72-.09,3.41,3.41,0,0,0,.62-.22l-.22-1ZM70.32,124c-.16.35-.32.68-.5,1h.56c.12,0,.09.26,0,.26h-.68a8.12,8.12,0,0,1-1.55,1.92c-.11.31-.27,1.19-.27,1.19-.18.79.36.89.75.61a5,5,0,0,0,1.23-1.76c.1-.21.27-.17.16.07a5.62,5.62,0,0,1-1.15,1.82c-.63.61-1.79.41-1.61-.88,0,0,0-.08,0-.11-.44.79-1.06,1.53-2,1.24a1.21,1.21,0,0,1-.48.12.91.91,0,0,1-1-.63,1.7,1.7,0,0,1-1.32.63,1.08,1.08,0,0,1-1.12-1.12,3.69,3.69,0,0,1,.9-2.18c.6-.7,1.49-1.14,2-.76s.1,1.13-.64,1.7a3.37,3.37,0,0,1-1.44.52c-.18.42-.37,1.6.4,1.6a1.58,1.58,0,0,0,1.18-.69c0-.37.19-.7.44-.71.08-.16.17-.32.25-.49l0-.11,0,0c.23-.46.47-.94.67-1.39s.56-1,1-1a.76.76,0,0,1,.44.06c.21.11.16.31,0,.2a.46.46,0,0,0-.38,0c-.53.26-.42,1.06-.24,1.48a3.14,3.14,0,0,1,.42,1.38,1.82,1.82,0,0,1-.83,1.29l.08,0a1.22,1.22,0,0,0,1-.54,9.13,9.13,0,0,0,.81-1.39,16.83,16.83,0,0,1,.7-2h-.61c-.12,0-.1-.26,0-.26h.7c.27-.59.56-1.15.85-1.66C69.93,121.88,71.18,122.08,70.32,124Zm-8.08,3.44a2.42,2.42,0,0,0,1.24-.51c1-.81.9-2.32-.54-.59A7.49,7.49,0,0,0,62.24,127.39Zm2.68,1.8a1,1,0,0,1-.47-.88c-.38.38-.22.92.23.92A.64.64,0,0,0,64.92,129.19Zm.71-1.32c0-.74-.25-1.69-.15-2.22-.23.45-.54,1.08-.81,1.6l-.26.56c.06,0,.22.06.21.37a.94.94,0,0,0,.49.9A1.6,1.6,0,0,0,65.63,127.87Zm3.78-2.66h-.55c-.24.57-.46,1.14-.63,1.55A8.57,8.57,0,0,0,69.41,125.21Zm.73-1.45c.23-.49.39-1.53-.33-.51A10.39,10.39,0,0,0,69,125h.58A11.79,11.79,0,0,0,70.14,123.76Zm34.53-19.32-.44.49L102,110.28h1.26l2.78-6.57v-.37h-4.48v1.2h2.55Zm-12.94.74.48-.59-.15.68v3.91H90.68v1.1h4v-1.1H93.29v-6h-.72L90.3,105l.55.74Zm4.2,1.27a2.25,2.25,0,0,1-.18-.94,2.85,2.85,0,0,1,.15-.94,2,2,0,0,1,.45-.73,2,2,0,0,1,.72-.47,2.38,2.38,0,0,1,1-.18,2.33,2.33,0,0,1,1.76.67,2.71,2.71,0,0,1,.64,2,5.92,5.92,0,0,1-.29,2,4.37,4.37,0,0,1-.78,1.4,3.37,3.37,0,0,1-1.14.86,4,4,0,0,1-1.36.36l-.28-1a3.06,3.06,0,0,0,1-.26,2.83,2.83,0,0,0,.74-.5,2.5,2.5,0,0,0,.5-.66,2.7,2.7,0,0,0,.27-.8,1.23,1.23,0,0,1-.51.36,2.07,2.07,0,0,1-.73.1,2.46,2.46,0,0,1-.75-.13,2.21,2.21,0,0,1-.66-.39A2.25,2.25,0,0,1,95.93,106.45Zm1.07-1a1.11,1.11,0,0,0,.32.86,1.15,1.15,0,0,0,.79.29,1.52,1.52,0,0,0,.66-.13,1,1,0,0,0,.4-.32,2.8,2.8,0,0,0,0-.4,2,2,0,0,0-.07-.54,1.3,1.3,0,0,0-.21-.48,1.06,1.06,0,0,0-.37-.33,1.09,1.09,0,0,0-.53-.12.92.92,0,0,0-.75.31A1.28,1.28,0,0,0,97,105.43ZM84.14,125a18.37,18.37,0,0,1,.86-1.66c.8-1.41,2.06-1.21,1.2.66-.16.35-.33.68-.5,1h.56c.11,0,.09.26,0,.26h-.68A8.38,8.38,0,0,1,84,127.13c-.11.31-.28,1.19-.28,1.19-.17.79.37.89.75.61a4.56,4.56,0,0,0,1.16-1.6v0l.21-.41c.23-.45.48-.92.65-1.28a.45.45,0,0,1,.46-.25h.71a1.37,1.37,0,0,0-.43.42,21.16,21.16,0,0,0-1,2.07c-.56,1.21-.07,1.68.69.8a16.58,16.58,0,0,0,1.83-3,.43.43,0,0,1,.45-.25h.64c-.45.31-.62.77-.92,1.55s-.59,1.75-.93,2.68a3.18,3.18,0,0,0,1.68-1.16,9.46,9.46,0,0,0,.73-1.29s0,0,0,0v0A18,18,0,0,1,92.17,123c.82-1.39,2.08-1.23,1.24.64a10,10,0,0,1-2.39,3.5c-.06.2-.17.48-.24.77-.35,1.4.58,1.6,1.2.74a10.88,10.88,0,0,0,.78-1.33,4.11,4.11,0,0,1,.69-1.18c.6-.7,1.48-1.14,2-.76s.11,1.13-.64,1.7a3.29,3.29,0,0,1-1.43.52c-.18.42-.38,1.6.39,1.6,1,0,1.66-1.38,1.93-2,.09-.21.33-.23.21,0-.43.94-.93,2.23-2.23,2.23a1.07,1.07,0,0,1-1.12-1.12,1.1,1.1,0,0,1,0-.18c-.36.63-.87,1.28-1.63,1.28s-.91-.75-.77-1.44a3.61,3.61,0,0,1-2.42,2c-.73,1.32-1.89,3.11-3.62,3.11-1.16,0-1.28-.77-.93-1.43a2.26,2.26,0,0,1,1.1-1,20.55,20.55,0,0,1,2.83-.84,15.23,15.23,0,0,0,1-2.62c-.4.7-1.16,2.14-2.06,2.14a.69.69,0,0,1-.73-.52,1.36,1.36,0,0,1,.15-.87,4,4,0,0,1-.77,1.08c-.63.61-1.79.41-1.61-.88a13.84,13.84,0,0,1,.91-3h-.61c-.13,0-.1-.26,0-.26Zm2.78,5.28a17.1,17.1,0,0,0-2.42.72c-1.2.51-1.64,1.89-.63,1.89s2.26-1.45,2.8-2.18Zm6.53-2.84a2.37,2.37,0,0,0,1.23-.51c1-.81.91-2.32-.53-.59A7.49,7.49,0,0,0,93.45,127.39Zm-2.34-.63a11.74,11.74,0,0,0,2.13-3.3c.23-.54.35-1.43-.28-.53A24.6,24.6,0,0,0,91.11,126.76ZM84.86,125h.58a11.79,11.79,0,0,0,.58-1.19c.23-.49.39-1.53-.33-.51A9.64,9.64,0,0,0,84.86,125Zm-.12.26c-.25.57-.47,1.14-.63,1.55a9.05,9.05,0,0,0,1.18-1.55ZM82,122.27c-.38,0-.37.31-.06.23a2.33,2.33,0,0,0,.79-.37,1.15,1.15,0,0,0-.39-2,5.85,5.85,0,0,0-3.74.06c-1.71.61-2.77,2.34-1,3.5.87.58,2.44,1,3.16,1.58,1.41,1.14.58,3.15-1.37,4.18-2.34,1.21-6.53.91-6.51-2a4.23,4.23,0,0,1,.65-2.19,3.2,3.2,0,0,1,.81-.87c.39-.3,0-.25-.12-.18a3.88,3.88,0,0,0-2,3.24c.2,3.28,5.17,3.62,7.81,2,2-1.18,3.53-3.38,1.15-4.85-.86-.53-2-.94-2.75-1.37-1.58-1-.76-2.28.62-2.78C82.78,119.2,83.44,122.09,82,122.27Zm26.78-11.85a3.49,3.49,0,0,0,1-.15,2.47,2.47,0,0,0,.83-.45,2,2,0,0,0,.55-.75,2.48,2.48,0,0,0,.19-1,2.54,2.54,0,0,0-.14-.9,1.88,1.88,0,0,0-.43-.69,2.05,2.05,0,0,0-.67-.44,2.92,2.92,0,0,0-.88-.18l-.4,0v-1.34h2.3v-1.2h-3.41V107l.78,0a2.09,2.09,0,0,1,1.16.28,1,1,0,0,1,.4.88,1.13,1.13,0,0,1-.34.87,1.44,1.44,0,0,1-1,.31,3.16,3.16,0,0,1-.66,0,3.27,3.27,0,0,1-.5-.15l-.35,1.07a3.08,3.08,0,0,0,.68.2A4.54,4.54,0,0,0,108.76,110.42Zm-1.6-63.87h0s0,0-.07-.06L92.42,38.29a1.27,1.27,0,0,0-1.21,2.18l10.36,5.78a1.94,1.94,0,0,1,.67,1.38l-11.45-6.4c-.34-.19-.7-.18-.82,0s.07.52.4.71l11.78,6.58a4.58,4.58,0,0,1-.27.79h0L90,42.69c-.33-.18-.69-.17-.81,0s.06.52.39.71l11.92,6.65-.4.72L89.15,44.16c-.34-.19-.7-.17-.82,0s.06.53.4.71l11.91,6.66-.4.72L88.32,45.63c-.33-.19-.69-.18-.81,0s.06.52.4.71L99.82,53l-.4.72L87.51,47.09c-.34-.18-.7-.17-.82,0s.07.52.4.71L99,54.49l-.4.72L86.69,48.56c-.33-.19-.7-.17-.81,0s.06.53.39.71L98.18,56l-.4.72L85.87,50c-.34-.19-.7-.17-.81,0s.06.52.4.71l11.9,6.65-.4.73L85.05,51.49c-.33-.18-.7-.17-.81,0s.06.52.39.71L96.54,58.9l-.4.71L84.23,53c-.34-.19-.7-.17-.81,0s.06.53.39.71l11.92,6.66-.41.72L83.41,54.43c-.34-.19-.7-.17-.81,0s.06.52.39.71l11.92,6.65-.41.73L82.59,55.89c-.34-.18-.7-.17-.81,0s.06.52.39.71l11.92,6.65-.41.72L81.77,57.36c-.33-.19-.7-.17-.81,0s.06.52.39.71l11.92,6.65-.41.72L81,58.83c-.33-.19-.69-.17-.81,0s.06.52.4.71l11.91,6.65L92,67,80.13,60.29c-.33-.18-.7-.16-.81,0s.06.52.4.71l11.91,6.65-.41.73L79.31,61.76c-.33-.19-.7-.17-.81,0s.06.52.4.71l11.91,6.65-.41.72L78.49,63.23c-.33-.19-.7-.17-.81,0s.06.52.4.71L90,70.62l-.41.73L77.67,64.7c-.33-.19-.69-.17-.81,0s.07.52.4.71l11.91,6.65-.41.73L76.85,66.16c-.33-.18-.69-.17-.81,0s.06.52.4.71l11.91,6.65-.4.72L76,67.63c-.33-.19-.69-.17-.81,0s.06.53.4.71L87.53,75l-.4.72L75.22,69.1c-.34-.19-.7-.18-.82,0s.06.52.4.71l11.91,6.65-.4.73L74.4,70.56c-.34-.18-.7-.17-.82,0s.06.52.4.7L85.89,78l-.31.56L73.67,71.87c-.34-.19-.7-.17-.82,0s.06.53.4.71l11.91,6.65-.4.73L72.85,73.33c-.34-.18-.7-.17-.82,0s.06.52.4.71l11.91,6.65-.4.72L72,74.8c-.34-.19-.7-.17-.82,0s.06.52.4.7L83.52,82.2l-.4.72L71.21,76.27c-.34-.19-.7-.17-.82,0s.07.52.4.71L82.7,83.66l-.4.73L70.39,77.73c-.34-.18-.7-.16-.82,0s.06.52.4.71l11.91,6.65-.4.72L69.57,79.2c-.34-.18-.7-.17-.81,0s.06.52.39.7L81.06,86.6l-.4.72L68.75,80.67c-.33-.19-.7-.17-.81,0s.06.53.39.71l11.91,6.66-.4.72L67.93,82.13c-.34-.18-.7-.16-.81,0s.06.52.39.71l11.91,6.65-.4.72L67.11,83.6c-.33-.19-.7-.17-.81,0s.06.52.39.71L78.61,91l-.41.72L66.29,85.07c-.34-.19-.7-.17-.81,0s.06.52.4.7l11.91,6.66-.41.72L65.47,86.53c-.33-.18-.7-.17-.81,0s.06.52.4.71L77,93.93l-.41.73L64.65,88c-.33-.2-.7-.18-.81,0s.06.52.4.71L76.15,95.4l-.41.72L63.83,89.47c-.33-.19-.7-.17-.81,0s.06.53.39.71l11.92,6.66-.41.72L63,90.93c-.33-.18-.7-.16-.81,0s.06.52.39.71l11.92,6.65-.41.73L62.19,92.4c-.33-.18-.69-.17-.81,0s.06.52.4.71L73.69,99.8l-.41.72L61.37,93.87c-.33-.19-.69-.17-.81,0s.06.52.4.71l11.91,6.65-.41.72L60.55,95.34c-.33-.19-.69-.17-.81,0s.06.52.4.71l11.91,6.65-.41.73L59.73,96.8c-.33-.18-.69-.17-.81,0s.06.52.4.71l11.91,6.65-.4.73L58.91,98.27c-.33-.19-.69-.17-.81,0s.06.53.4.71l11.91,6.66-.4.72L58.1,99.74c-.34-.19-.7-.17-.82,0s.06.52.4.71l11.91,6.66-.4.72L57.27,101.2c-.33-.18-.69-.17-.81,0s.07.52.4.71l11.91,6.65a4.54,4.54,0,0,1-.54.65l-11.77-6.58c-.34-.19-.7-.17-.81,0s.06.52.39.7l11.45,6.4a2,2,0,0,1-1.42.16l-10.43-5.83a.7.7,0,0,0-.75,0,1.35,1.35,0,0,0-.78.63,1.41,1.41,0,0,0-.13,1,.72.72,0,0,0,.42.6l14.66,8.18a.93.93,0,0,0,.34.12c1.56.65,3.7-.47,4.92-2.64l33.37-59.74C109,50,108.73,47.43,107.16,46.55Z" style="fill:#fff"/></svg>